<svg width="1336" height="310" viewBox="0 0 1336 310" fill="none" xmlns="http://www.w3.org/2000/svg">
<path d="M38.1085 1.27996C39.2331 1.14476 40.3726 1.20807 41.4753 1.46693C42.5265 1.89677 43.4868 2.52156 44.3057 3.30846C45.0729 4.07536 45.7047 4.96668 46.1743 5.94455C46.814 6.84406 47.3045 7.84087 47.6267 8.89658C47.78 9.99291 47.78 11.1052 47.6269 12.2015C47.5821 13.3882 47.3759 14.5633 47.014 15.6944C46.7548 16.8555 46.3547 17.9806 45.8226 19.0446C45.0414 19.9467 44.1468 20.7438 43.161 21.4162C42.3762 22.2847 41.4717 23.0371 40.4749 23.6508C39.3525 24.1301 38.1549 24.4095 36.9363 24.4765C35.8152 24.3898 34.7201 24.0952 33.7069 23.6075C32.6221 23.3645 31.5906 22.926 30.6628 22.3135C29.8859 21.5009 29.2517 20.5631 28.7871 19.5394C28.2145 18.6239 27.7884 17.6245 27.5244 16.5774C27.3672 15.5051 27.3626 14.416 27.5106 13.3424C27.5303 12.1989 27.7156 11.0642 28.0608 9.97384C28.4394 8.8967 28.9686 7.87868 29.6327 6.94992C30.2905 5.96374 30.5677 4.65139 31.4452 3.89595C32.4762 3.3004 33.5907 2.86282 34.7514 2.5979C35.7829 1.9619 36.9199 1.51559 38.1085 1.27996Z" fill="#CF79ED"/>
<path d="M111.688 -2.57615C112.812 -2.71135 113.952 -2.64804 115.054 -2.38918C116.105 -1.95934 117.066 -1.33455 117.885 -0.54765C118.652 0.219252 119.284 1.11057 119.753 2.08844C120.393 2.98795 120.883 3.98476 121.206 5.04047C121.359 6.1368 121.359 7.24907 121.206 8.34542C121.161 9.53213 120.955 10.7072 120.593 11.8383C120.334 12.9994 119.934 14.1245 119.402 15.1885C118.62 16.0906 117.726 16.8877 116.74 17.5601C115.955 18.4286 115.051 19.181 114.054 19.7947C112.932 20.274 111.734 20.5534 110.515 20.6203C109.394 20.5337 108.299 20.2391 107.286 19.7514C106.201 19.5084 105.17 19.0699 104.242 18.4574C103.465 17.6448 102.831 16.707 102.366 15.6833C101.794 14.7678 101.367 13.7684 101.103 12.7213C100.946 11.649 100.942 10.5599 101.09 9.48628C101.109 8.34278 101.295 7.20807 101.64 6.11773C102.018 5.0406 102.548 4.02257 103.212 3.09381C103.869 2.10763 104.147 0.795282 105.024 0.0398422C106.055 -0.555708 107.17 -0.993289 108.33 -1.25821C109.362 -1.89421 110.499 -2.34052 111.688 -2.57615Z" fill="#CF79ED"/>
<path d="M185.267 -6.43226C186.391 -6.56746 187.531 -6.50415 188.633 -6.24528C189.684 -5.81545 190.645 -5.19066 191.464 -4.40376C192.231 -3.63686 192.863 -2.74554 193.332 -1.76767C193.972 -0.86816 194.462 0.128652 194.785 1.18436C194.938 2.28069 194.938 3.39296 194.785 4.48931C194.74 5.67602 194.534 6.85111 194.172 7.98218C193.913 9.14326 193.513 10.2684 192.981 11.3324C192.199 12.2345 191.305 13.0316 190.319 13.704C189.534 14.5725 188.63 15.3249 187.633 15.9386C186.511 16.4179 185.313 16.6973 184.094 16.7642C182.973 16.6776 181.878 16.383 180.865 15.8953C179.78 15.6523 178.749 15.2138 177.821 14.6013C177.044 13.7887 176.41 12.8509 175.945 11.8272C175.372 10.9117 174.946 9.91229 174.682 8.86523C174.525 7.79292 174.521 6.70378 174.669 5.63017C174.688 4.48667 174.874 3.35196 175.219 2.26162C175.597 1.18449 176.127 0.166463 176.791 -0.762303C177.448 -1.74848 177.726 -3.06083 178.603 -3.81627C179.634 -4.41182 180.749 -4.8494 181.909 -5.11432C182.941 -5.75032 184.078 -6.19663 185.267 -6.43226Z" fill="#CF79ED"/>
<path d="M258.846 -10.2884C259.97 -10.4236 261.11 -10.3603 262.212 -10.1014C263.263 -9.67156 264.224 -9.04677 265.043 -8.25987C265.81 -7.49297 266.442 -6.60165 266.911 -5.62378C267.551 -4.72427 268.041 -3.72746 268.364 -2.67175C268.517 -1.57542 268.517 -0.463145 268.364 0.633203C268.319 1.81992 268.113 2.995 267.751 4.12607C267.492 5.28715 267.092 6.41224 266.56 7.47626C265.778 8.37837 264.884 9.17552 263.898 9.84788C263.113 10.7164 262.209 11.4688 261.212 12.0824C260.09 12.5618 258.892 12.8412 257.673 12.9081C256.552 12.8215 255.457 12.5269 254.444 12.0392C253.359 11.7962 252.328 11.3577 251.4 10.7452C250.623 9.93261 249.989 8.99478 249.524 7.97109C248.952 7.05555 248.525 6.05618 248.261 5.00912C248.104 3.93681 248.1 2.84767 248.248 1.77406C248.267 0.630557 248.453 -0.504146 248.798 -1.59449C249.176 -2.67162 249.706 -3.68965 250.37 -4.61841C251.027 -5.60459 251.305 -6.91694 252.182 -7.67238C253.213 -8.26793 254.328 -8.70551 255.488 -8.97043C256.52 -9.60643 257.657 -10.0527 258.846 -10.2884Z" fill="#CF79ED"/>
<path d="M332.425 -14.1445C333.549 -14.2797 334.689 -14.2164 335.791 -13.9575C336.842 -13.5277 337.803 -12.9029 338.622 -12.116C339.389 -11.3491 340.021 -10.4578 340.49 -9.47989C341.13 -8.58038 341.62 -7.58357 341.943 -6.52786C342.096 -5.43153 342.096 -4.31925 341.943 -3.22291C341.898 -2.03619 341.692 -0.861111 341.33 0.269957C341.071 1.43104 340.671 2.55614 340.139 3.62015C339.357 4.52226 338.463 5.31941 337.477 5.99177C336.692 6.86026 335.788 7.61269 334.791 8.22633C333.669 8.70567 332.471 8.9851 331.252 9.05201C330.131 8.96538 329.036 8.67074 328.023 8.18308C326.938 7.94008 325.907 7.50156 324.979 6.88905C324.202 6.0765 323.568 5.13867 323.103 4.11499C322.531 3.19944 322.104 2.20007 321.84 1.15301C321.683 0.0807007 321.679 -1.00844 321.827 -2.08205C321.846 -3.22555 322.032 -4.36026 322.377 -5.4506C322.755 -6.52773 323.285 -7.54576 323.949 -8.47452C324.606 -9.4607 324.884 -10.773 325.761 -11.5285C326.792 -12.124 327.907 -12.5616 329.067 -12.8265C330.099 -13.4625 331.236 -13.9089 332.425 -14.1445Z" fill="#CF79ED"/>
<path d="M406.004 -18.0006C407.128 -18.1358 408.268 -18.0725 409.37 -17.8136C410.421 -17.3838 411.382 -16.759 412.201 -15.9721C412.968 -15.2052 413.6 -14.3139 414.069 -13.336C414.709 -12.4365 415.199 -11.4397 415.522 -10.384C415.675 -9.28767 415.675 -8.17539 415.522 -7.07905C415.477 -5.89233 415.271 -4.71725 414.909 -3.58618C414.65 -2.4251 414.25 -1.3 413.718 -0.235995C412.936 0.666123 412.042 1.46327 411.056 2.13563C410.271 3.00412 409.367 3.75655 408.37 4.37019C407.248 4.84953 406.05 5.12896 404.831 5.19587C403.71 5.10924 402.615 4.8146 401.602 4.32694C400.517 4.08394 399.486 3.64542 398.558 3.03291C397.781 2.22036 397.147 1.28253 396.682 0.258845C396.11 -0.656701 395.683 -1.65607 395.419 -2.70313C395.262 -3.77544 395.258 -4.86458 395.406 -5.93819C395.425 -7.08169 395.611 -8.2164 395.956 -9.30674C396.334 -10.3839 396.864 -11.4019 397.528 -12.3307C398.185 -13.3168 398.463 -14.6292 399.34 -15.3846C400.371 -15.9802 401.486 -16.4178 402.646 -16.6827C403.678 -17.3187 404.815 -17.765 406.004 -18.0006Z" fill="#CF79ED"/>
<path d="M479.583 -21.8567C480.707 -21.9919 481.847 -21.9286 482.949 -21.6698C484.001 -21.2399 484.961 -20.6151 485.78 -19.8282C486.547 -19.0613 487.179 -18.17 487.648 -17.1921C488.288 -16.2926 488.778 -15.2958 489.101 -14.2401C489.254 -13.1438 489.254 -12.0315 489.101 -10.9352C489.056 -9.74844 488.85 -8.57336 488.488 -7.44229C488.229 -6.28121 487.829 -5.15611 487.297 -4.0921C486.515 -3.18999 485.621 -2.39284 484.635 -1.72048C483.85 -0.851985 482.946 -0.0995644 481.949 0.514081C480.827 0.993419 479.629 1.27285 478.41 1.33976C477.289 1.25313 476.194 0.958492 475.181 0.470828C474.096 0.227827 473.065 -0.210694 472.137 -0.823199C471.36 -1.63575 470.726 -2.57358 470.261 -3.59726C469.689 -4.51281 469.262 -5.51218 468.998 -6.55924C468.841 -7.63155 468.837 -8.72069 468.985 -9.7943C469.004 -10.9378 469.19 -12.0725 469.535 -13.1628C469.913 -14.24 470.443 -15.258 471.107 -16.1868C471.765 -17.1729 472.042 -18.4853 472.919 -19.2407C473.95 -19.8363 475.065 -20.2739 476.225 -20.5388C477.257 -21.1748 478.394 -21.6211 479.583 -21.8567Z" fill="#CF79ED"/>
<path d="M4.65182 66.8007C5.77635 66.6655 6.91589 66.7288 8.01854 66.9877C9.06975 67.4175 10.0301 68.0423 10.849 68.8292C11.6162 69.5961 12.248 70.4874 12.7175 71.4653C13.3573 72.3648 13.8477 73.3616 14.17 74.4173C14.3233 75.5137 14.3233 76.6259 14.1702 77.7223C14.1254 78.909 13.9192 80.0841 13.5573 81.2151C13.2981 82.3762 12.898 83.5013 12.3659 84.5653C11.5847 85.4675 10.6901 86.2646 9.70427 86.937C8.91944 87.8055 8.01502 88.5579 7.01819 89.1715C5.89578 89.6509 4.69821 89.9303 3.47958 89.9972C2.35848 89.9106 1.26334 89.6159 0.250162 89.1283C-0.834647 88.8853 -1.86616 88.4467 -2.7939 87.8342C-3.57082 87.0217 -4.20498 86.0839 -4.66965 85.0602C-5.24222 84.1446 -5.66827 83.1453 -5.93234 82.0982C-6.08948 81.0259 -6.09413 79.9368 -5.94616 78.8631C-5.92645 77.7196 -5.74109 76.5849 -5.39592 75.4946C-5.0173 74.4175 -4.48808 73.3994 -3.82403 72.4707C-3.16626 71.4845 -2.88899 70.1721 -2.01148 69.4167C-0.980518 68.8212 0.133965 68.3836 1.29473 68.1186C2.32621 67.4826 3.46316 67.0363 4.65182 66.8007Z" fill="#CF79ED"/>
<path d="M78.2308 62.9446C79.3554 62.8094 80.4949 62.8727 81.5975 63.1316C82.6488 63.5614 83.6091 64.1862 84.428 64.9731C85.1952 65.74 85.827 66.6313 86.2965 67.6092C86.9363 68.5087 87.4267 69.5055 87.749 70.5612C87.9023 71.6576 87.9023 72.7698 87.7492 73.8662C87.7044 75.0529 87.4982 76.228 87.1363 77.359C86.8771 78.5201 86.477 79.6452 85.9449 80.7092C85.1637 81.6113 84.2691 82.4085 83.2833 83.0809C82.4984 83.9493 81.594 84.7018 80.5972 85.3154C79.4748 85.7947 78.2772 86.0742 77.0586 86.1411C75.9375 86.0545 74.8424 85.7598 73.8292 85.2722C72.7444 85.0292 71.7129 84.5906 70.7851 83.9781C70.0082 83.1656 69.374 82.2277 68.9094 81.2041C68.3368 80.2885 67.9107 79.2891 67.6467 78.2421C67.4895 77.1698 67.4849 76.0806 67.6328 75.007C67.6526 73.8635 67.8379 72.7288 68.1831 71.6385C68.5617 70.5613 69.0909 69.5433 69.755 68.6146C70.4128 67.6284 70.69 66.316 71.5675 65.5606C72.5985 64.965 73.713 64.5275 74.8737 64.2625C75.9052 63.6265 77.0422 63.1802 78.2308 62.9446Z" fill="#CF79ED"/>
<path d="M151.81 59.0885C152.934 58.9533 154.074 59.0166 155.177 59.2755C156.228 59.7053 157.188 60.3301 158.007 61.117C158.774 61.8839 159.406 62.7752 159.876 63.7531C160.515 64.6526 161.006 65.6494 161.328 66.7051C161.481 67.8014 161.481 68.9137 161.328 70.0101C161.283 71.1968 161.077 72.3719 160.715 73.5029C160.456 74.664 160.056 75.7891 159.524 76.8531C158.743 77.7552 157.848 78.5524 156.862 79.2247C156.077 80.0932 155.173 80.8457 154.176 81.4593C153.054 81.9386 151.856 82.2181 150.638 82.285C149.516 82.1984 148.421 81.9037 147.408 81.416C146.323 81.173 145.292 80.7345 144.364 80.122C143.587 79.3095 142.953 78.3716 142.488 77.348C141.916 76.4324 141.49 75.433 141.226 74.386C141.069 73.3137 141.064 72.2245 141.212 71.1509C141.232 70.0074 141.417 68.8727 141.762 67.7824C142.141 66.7052 142.67 65.6872 143.334 64.7584C143.992 63.7723 144.269 62.4599 145.147 61.7045C146.177 61.1089 147.292 60.6714 148.453 60.4064C149.484 59.7704 150.621 59.3241 151.81 59.0885Z" fill="#CF79ED"/>
<path d="M225.389 55.2324C226.513 55.0972 227.653 55.1605 228.756 55.4194C229.807 55.8492 230.767 56.474 231.586 57.2609C232.353 58.0278 232.985 58.9191 233.455 59.897C234.094 60.7965 234.585 61.7933 234.907 62.849C235.06 63.9453 235.06 65.0576 234.907 66.154C234.862 67.3407 234.656 68.5158 234.294 69.6468C234.035 70.8079 233.635 71.933 233.103 72.997C232.322 73.8991 231.427 74.6963 230.441 75.3686C229.656 76.2371 228.752 76.9895 227.755 77.6032C226.633 78.0825 225.435 78.362 224.217 78.4289C223.096 78.3422 222 78.0476 220.987 77.5599C219.902 77.3169 218.871 76.8784 217.943 76.2659C217.166 75.4534 216.532 74.5155 216.067 73.4918C215.495 72.5763 215.069 71.5769 214.805 70.5299C214.648 69.4576 214.643 68.3684 214.791 67.2948C214.811 66.1513 214.996 65.0166 215.341 63.9263C215.72 62.8491 216.249 61.8311 216.913 60.9023C217.571 59.9162 217.848 58.6038 218.726 57.8484C219.756 57.2528 220.871 56.8152 222.032 56.5503C223.063 55.9143 224.2 55.468 225.389 55.2324Z" fill="#CF79ED"/>
<path d="M298.968 51.3763C300.092 51.2411 301.232 51.3044 302.335 51.5632C303.386 51.9931 304.346 52.6179 305.165 53.4048C305.932 54.1717 306.564 55.063 307.034 56.0409C307.673 56.9404 308.164 57.9372 308.486 58.9929C308.639 60.0892 308.639 61.2015 308.486 62.2978C308.441 63.4846 308.235 64.6596 307.873 65.7907C307.614 66.9518 307.214 68.0769 306.682 69.1409C305.901 70.043 305.006 70.8402 304.02 71.5125C303.235 72.381 302.331 73.1334 301.334 73.7471C300.212 74.2264 299.014 74.5058 297.796 74.5728C296.675 74.4861 295.579 74.1915 294.566 73.7038C293.481 73.4608 292.45 73.0223 291.522 72.4098C290.745 71.5973 290.111 70.6594 289.646 69.6357C289.074 68.7202 288.648 67.7208 288.384 66.6738C288.227 65.6015 288.222 64.5123 288.37 63.4387C288.39 62.2952 288.575 61.1605 288.92 60.0702C289.299 58.993 289.828 57.975 290.492 57.0462C291.15 56.0601 291.427 54.7477 292.305 53.9923C293.336 53.3967 294.45 52.9591 295.611 52.6942C296.642 52.0582 297.779 51.6119 298.968 51.3763Z" fill="#CF79ED"/>
<path d="M372.547 47.5201C373.671 47.3849 374.811 47.4482 375.914 47.7071C376.965 48.1369 377.925 48.7617 378.744 49.5486C379.511 50.3155 380.143 51.2069 380.613 52.1847C381.252 53.0842 381.743 54.081 382.065 55.1368C382.218 56.2331 382.218 57.3454 382.065 58.4417C382.02 59.6284 381.814 60.8035 381.452 61.9346C381.193 63.0956 380.793 64.2207 380.261 65.2848C379.48 66.1869 378.585 66.984 377.599 67.6564C376.814 68.5249 375.91 69.2773 374.913 69.8909C373.791 70.3703 372.593 70.6497 371.375 70.7166C370.254 70.63 369.158 70.3354 368.145 69.8477C367.06 69.6047 366.029 69.1662 365.101 68.5537C364.324 67.7411 363.69 66.8033 363.225 65.7796C362.653 64.8641 362.227 63.8647 361.963 62.8176C361.806 61.7453 361.801 60.6562 361.949 59.5826C361.969 58.4391 362.154 57.3044 362.499 56.214C362.878 55.1369 363.407 54.1189 364.071 53.1901C364.729 52.2039 365.006 50.8916 365.884 50.1361C366.915 49.5406 368.029 49.103 369.19 48.8381C370.221 48.2021 371.358 47.7558 372.547 47.5201Z" fill="#CF79ED"/>
<path d="M446.126 43.664C447.25 43.5288 448.39 43.5921 449.493 43.851C450.544 44.2808 451.504 44.9056 452.323 45.6925C453.09 46.4594 453.722 47.3507 454.192 48.3286C454.831 49.2281 455.322 50.2249 455.644 51.2806C455.797 52.377 455.797 53.4892 455.644 54.5856C455.599 55.7723 455.393 56.9474 455.031 58.0785C454.772 59.2395 454.372 60.3646 453.84 61.4286C453.059 62.3308 452.164 63.1279 451.178 63.8003C450.393 64.6688 449.489 65.4212 448.492 66.0348C447.37 66.5142 446.172 66.7936 444.954 66.8605C443.833 66.7739 442.737 66.4792 441.724 65.9916C440.639 65.7486 439.608 65.3101 438.68 64.6976C437.903 63.885 437.269 62.9472 436.804 61.9235C436.232 61.0079 435.806 60.0086 435.542 58.9615C435.385 57.8892 435.38 56.8001 435.528 55.7265C435.548 54.5829 435.733 53.4482 436.078 52.3579C436.457 51.2808 436.986 50.2627 437.65 49.334C438.308 48.3478 438.585 47.0355 439.463 46.28C440.494 45.6845 441.608 45.2469 442.769 44.982C443.8 44.346 444.937 43.8996 446.126 43.664Z" fill="#CF79ED"/>
<path d="M519.705 39.8079C520.829 39.6727 521.969 39.736 523.072 39.9949C524.123 40.4247 525.083 41.0495 525.902 41.8364C526.669 42.6033 527.301 43.4946 527.771 44.4725C528.41 45.372 528.901 46.3688 529.223 47.4245C529.376 48.5209 529.376 49.6331 529.223 50.7295C529.178 51.9162 528.972 53.0913 528.61 54.2223C528.351 55.3834 527.951 56.5085 527.419 57.5725C526.638 58.4747 525.743 59.2718 524.757 59.9442C523.972 60.8127 523.068 61.5651 522.071 62.1787C520.949 62.6581 519.751 62.9375 518.533 63.0044C517.412 62.9178 516.316 62.6231 515.303 62.1355C514.218 61.8925 513.187 61.4539 512.259 60.8414C511.482 60.0289 510.848 59.0911 510.383 58.0674C509.811 57.1518 509.385 56.1525 509.121 55.1054C508.964 54.0331 508.959 52.944 509.107 51.8703C509.127 50.7268 509.312 49.5921 509.657 48.5018C510.036 47.4247 510.565 46.4066 511.229 45.4779C511.887 44.4917 512.164 43.1793 513.042 42.4239C514.073 41.8284 515.187 41.3908 516.348 41.1259C517.379 40.4899 518.516 40.0435 519.705 39.8079Z" fill="#CF79ED"/>
<path d="M593.284 35.9518C594.408 35.8166 595.548 35.8799 596.651 36.1388C597.702 36.5686 598.662 37.1934 599.481 37.9803C600.248 38.7472 600.88 39.6385 601.35 40.6164C601.989 41.5159 602.48 42.5127 602.802 43.5684C602.955 44.6648 602.955 45.777 602.802 46.8734C602.757 48.0601 602.551 49.2352 602.189 50.3662C601.93 51.5273 601.53 52.6524 600.998 53.7164C600.217 54.6185 599.322 55.4157 598.336 56.0881C597.551 56.9565 596.647 57.709 595.65 58.3226C594.528 58.802 593.33 59.0814 592.112 59.1483C590.991 59.0617 589.895 58.767 588.882 58.2794C587.797 58.0364 586.766 57.5978 585.838 56.9853C585.061 56.1728 584.427 55.2349 583.962 54.2113C583.39 53.2957 582.964 52.2963 582.7 51.2493C582.543 50.177 582.538 49.0878 582.686 48.0142C582.706 46.8707 582.891 45.736 583.236 44.6457C583.615 43.5685 584.144 42.5505 584.808 41.6218C585.466 40.6356 585.743 39.3232 586.621 38.5678C587.652 37.9722 588.766 37.5347 589.927 37.2697C590.958 36.6337 592.095 36.1874 593.284 35.9518Z" fill="#CF79ED"/>
<path d="M666.863 32.0957C667.987 31.9605 669.127 32.0238 670.23 32.2827C671.281 32.7125 672.241 33.3373 673.06 34.1242C673.827 34.8911 674.459 35.7824 674.929 36.7603C675.568 37.6598 676.059 38.6566 676.381 39.7123C676.534 40.8086 676.534 41.9209 676.381 43.0173C676.336 44.204 676.13 45.3791 675.768 46.5101C675.509 47.6712 675.109 48.7963 674.577 49.8603C673.796 50.7624 672.901 51.5596 671.915 52.2319C671.131 53.1004 670.226 53.8529 669.229 54.4665C668.107 54.9458 666.909 55.2253 665.691 55.2922C664.57 55.2056 663.474 54.9109 662.461 54.4233C661.376 54.1802 660.345 53.7417 659.417 53.1292C658.64 52.3167 658.006 51.3788 657.541 50.3552C656.969 49.4396 656.543 48.4402 656.279 47.3932C656.122 46.3209 656.117 45.2317 656.265 44.1581C656.285 43.0146 656.47 41.8799 656.815 40.7896C657.194 39.7124 657.723 38.6944 658.387 37.7657C659.045 36.7795 659.322 35.4671 660.2 34.7117C661.231 34.1161 662.345 33.6786 663.506 33.4136C664.537 32.7776 665.674 32.3313 666.863 32.0957Z" fill="#CF79ED"/>
<path d="M740.442 28.2396C741.566 28.1044 742.706 28.1677 743.809 28.4266C744.86 28.8564 745.82 29.4812 746.639 30.2681C747.406 31.035 748.038 31.9263 748.508 32.9042C749.147 33.8037 749.638 34.8005 749.96 35.8562C750.113 36.9525 750.113 38.0648 749.96 39.1612C749.915 40.3479 749.709 41.523 749.347 42.654C749.088 43.8151 748.688 44.9402 748.156 46.0042C747.375 46.9063 746.48 47.7035 745.494 48.3758C744.71 49.2443 743.805 49.9967 742.808 50.6104C741.686 51.0897 740.488 51.3692 739.27 51.4361C738.149 51.3494 737.053 51.0548 736.04 50.5671C734.955 50.3241 733.924 49.8856 732.996 49.2731C732.219 48.4606 731.585 47.5227 731.12 46.499C730.548 45.5835 730.122 44.5841 729.858 43.5371C729.701 42.4648 729.696 41.3756 729.844 40.302C729.864 39.1585 730.049 38.0238 730.394 36.9335C730.773 35.8563 731.302 34.8383 731.966 33.9095C732.624 32.9234 732.901 31.611 733.779 30.8556C734.81 30.26 735.924 29.8224 737.085 29.5575C738.116 28.9215 739.253 28.4752 740.442 28.2396Z" fill="#CF79ED"/>
<path d="M814.021 24.3835C815.145 24.2483 816.285 24.3116 817.388 24.5705C818.439 25.0003 819.399 25.6251 820.218 26.412C820.985 27.1789 821.617 28.0702 822.087 29.0481C822.726 29.9476 823.217 30.9444 823.539 32.0001C823.692 33.0964 823.692 34.2087 823.539 35.305C823.494 36.4918 823.288 37.6668 822.926 38.7979C822.667 39.959 822.267 41.0841 821.735 42.1481C820.954 43.0502 820.059 43.8474 819.073 44.5197C818.289 45.3882 817.384 46.1406 816.387 46.7543C815.265 47.2336 814.067 47.513 812.849 47.58C811.728 47.4933 810.632 47.1987 809.619 46.711C808.534 46.468 807.503 46.0295 806.575 45.417C805.798 44.6045 805.164 43.6666 804.699 42.6429C804.127 41.7274 803.701 40.728 803.437 39.681C803.28 38.6087 803.275 37.5195 803.423 36.4459C803.443 35.3024 803.628 34.1677 803.973 33.0774C804.352 32.0002 804.881 30.9822 805.545 30.0534C806.203 29.0673 806.48 27.7549 807.358 26.9995C808.389 26.4039 809.503 25.9663 810.664 25.7014C811.695 25.0654 812.832 24.6191 814.021 24.3835Z" fill="#CF79ED"/>
<path d="M887.6 20.5274C888.725 20.3922 889.864 20.4555 890.967 20.7143C892.018 21.1442 892.978 21.769 893.797 22.5559C894.564 23.3228 895.196 24.2141 895.666 25.192C896.305 26.0915 896.796 27.0883 897.118 28.144C897.271 29.2403 897.271 30.3526 897.118 31.4489C897.074 32.6357 896.867 33.8107 896.505 34.9418C896.246 36.1029 895.846 37.228 895.314 38.292C894.533 39.1941 893.638 39.9913 892.652 40.6636C891.868 41.5321 890.963 42.2845 889.966 42.8982C888.844 43.3775 887.646 43.6569 886.428 43.7239C885.307 43.6372 884.211 43.3426 883.198 42.8549C882.114 42.6119 881.082 42.1734 880.154 41.5609C879.377 40.7483 878.743 39.8105 878.279 38.7868C877.706 37.8713 877.28 36.8719 877.016 35.8249C876.859 34.7525 876.854 33.6634 877.002 32.5898C877.022 31.4463 877.207 30.3116 877.552 29.2212C877.931 28.1441 878.46 27.1261 879.124 26.1973C879.782 25.2111 880.059 23.8988 880.937 23.1434C881.968 22.5478 883.082 22.1102 884.243 21.8453C885.274 21.2093 886.411 20.763 887.6 20.5274Z" fill="#CF79ED"/>
<path d="M961.179 16.6713C962.303 16.5361 963.443 16.5994 964.546 16.8582C965.597 17.2881 966.557 17.9129 967.376 18.6998C968.143 19.4667 968.775 20.358 969.245 21.3358C969.884 22.2354 970.375 23.2322 970.697 24.2879C970.85 25.3842 970.85 26.4965 970.697 27.5928C970.652 28.7795 970.446 29.9546 970.084 31.0857C969.825 32.2468 969.425 33.3719 968.893 34.4359C968.112 35.338 967.217 36.1351 966.231 36.8075C965.447 37.676 964.542 38.4284 963.545 39.0421C962.423 39.5214 961.225 39.8008 960.007 39.8677C958.886 39.7811 957.79 39.4865 956.777 38.9988C955.692 38.7558 954.661 38.3173 953.733 37.7048C952.956 36.8922 952.322 35.9544 951.857 34.9307C951.285 34.0152 950.859 33.0158 950.595 31.9687C950.438 30.8964 950.433 29.8073 950.581 28.7337C950.601 27.5902 950.786 26.4555 951.131 25.3651C951.51 24.288 952.039 23.27 952.703 22.3412C953.361 21.355 953.638 20.0427 954.516 19.2872C955.547 18.6917 956.661 18.2541 957.822 17.9892C958.853 17.3532 959.99 16.9069 961.179 16.6713Z" fill="#CF79ED"/>
<path d="M1034.76 12.8151C1035.88 12.6799 1037.02 12.7433 1038.12 13.0021C1039.18 13.432 1040.14 14.0567 1040.96 14.8436C1041.72 15.6105 1042.35 16.5019 1042.82 17.4797C1043.46 18.3792 1043.95 19.3761 1044.28 20.4318C1044.43 21.5281 1044.43 22.6404 1044.28 23.7367C1044.23 24.9234 1044.03 26.0985 1043.66 27.2296C1043.4 28.3907 1043 29.5158 1042.47 30.5798C1041.69 31.4819 1040.8 32.279 1039.81 32.9514C1039.03 33.8199 1038.12 34.5723 1037.12 35.186C1036 35.6653 1034.8 35.9447 1033.59 36.0116C1032.46 35.925 1031.37 35.6304 1030.36 35.1427C1029.27 34.8997 1028.24 34.4612 1027.31 33.8487C1026.54 33.0361 1025.9 32.0983 1025.44 31.0746C1024.86 30.1591 1024.44 29.1597 1024.17 28.1126C1024.02 27.0403 1024.01 25.9512 1024.16 24.8776C1024.18 23.7341 1024.36 22.5994 1024.71 21.509C1025.09 20.4319 1025.62 19.4139 1026.28 18.4851C1026.94 17.4989 1027.22 16.1866 1028.09 15.4311C1029.13 14.8356 1030.24 14.398 1031.4 14.1331C1032.43 13.4971 1033.57 13.0508 1034.76 12.8151Z" fill="#CF79ED"/>
<path d="M1108.34 8.95904C1109.46 8.82384 1110.6 8.88715 1111.7 9.14601C1112.75 9.57585 1113.72 10.2006 1114.53 10.9875C1115.3 11.7544 1115.93 12.6458 1116.4 13.6236C1117.04 14.5231 1117.53 15.5199 1117.86 16.5757C1118.01 17.672 1118.01 18.7843 1117.86 19.8806C1117.81 21.0673 1117.6 22.2424 1117.24 23.3735C1116.98 24.5346 1116.58 25.6597 1116.05 26.7237C1115.27 27.6258 1114.38 28.4229 1113.39 29.0953C1112.6 29.9638 1111.7 30.7162 1110.7 31.3298C1109.58 31.8092 1108.38 32.0886 1107.16 32.1555C1106.04 32.0689 1104.95 31.7743 1103.94 31.2866C1102.85 31.0436 1101.82 30.6051 1100.89 29.9926C1100.11 29.18 1099.48 28.2422 1099.02 27.2185C1098.44 26.303 1098.02 25.3036 1097.75 24.2565C1097.6 23.1842 1097.59 22.0951 1097.74 21.0215C1097.76 19.878 1097.94 18.7433 1098.29 17.6529C1098.67 16.5758 1099.2 15.5578 1099.86 14.629C1100.52 13.6428 1100.8 12.3305 1101.67 11.575C1102.7 10.9795 1103.82 10.5419 1104.98 10.277C1106.01 9.64097 1107.15 9.19466 1108.34 8.95904Z" fill="#CF79ED"/>
<path d="M1181.92 5.10293C1183.04 4.96773 1184.18 5.03104 1185.28 5.2899C1186.33 5.71974 1187.29 6.34453 1188.11 7.13143C1188.88 7.89833 1189.51 8.78965 1189.98 9.76752C1190.62 10.667 1191.11 11.6638 1191.43 12.7195C1191.59 13.8159 1191.59 14.9282 1191.43 16.0245C1191.39 17.2112 1191.18 18.3863 1190.82 19.5174C1190.56 20.6784 1190.16 21.8035 1189.63 22.8676C1188.85 23.7697 1187.95 24.5668 1186.97 25.2392C1186.18 26.1077 1185.28 26.8601 1184.28 27.4737C1183.16 27.9531 1181.96 28.2325 1180.74 28.2994C1179.62 28.2128 1178.53 27.9181 1177.51 27.4305C1176.43 27.1875 1175.4 26.749 1174.47 26.1365C1173.69 25.3239 1173.06 24.3861 1172.59 23.3624C1172.02 22.4468 1171.6 21.4475 1171.33 20.4004C1171.17 19.3281 1171.17 18.239 1171.32 17.1654C1171.34 16.0219 1171.52 14.8871 1171.87 13.7968C1172.25 12.7197 1172.78 11.7016 1173.44 10.7729C1174.1 9.78671 1174.37 8.47436 1175.25 7.71892C1176.28 7.12337 1177.4 6.68579 1178.56 6.42086C1179.59 5.78487 1180.73 5.33855 1181.92 5.10293Z" fill="#CF79ED"/>
<path d="M1255.49 1.24682C1256.62 1.11162 1257.76 1.17493 1258.86 1.43379C1259.91 1.86363 1260.87 2.48842 1261.69 3.27532C1262.46 4.04222 1263.09 4.93354 1263.56 5.91141C1264.2 6.81092 1264.69 7.80773 1265.01 8.86344C1265.17 9.95977 1265.17 11.072 1265.01 12.1684C1264.97 13.3551 1264.76 14.5302 1264.4 15.6613C1264.14 16.8223 1263.74 17.9474 1263.21 19.0114C1262.43 19.9136 1261.53 20.7107 1260.55 21.3831C1259.76 22.2516 1258.86 23.004 1257.86 23.6176C1256.74 24.097 1255.54 24.3764 1254.32 24.4433C1253.2 24.3567 1252.11 24.062 1251.09 23.5744C1250.01 23.3314 1248.98 22.8929 1248.05 22.2803C1247.27 21.4678 1246.64 20.53 1246.17 19.5063C1245.6 18.5907 1245.17 17.5914 1244.91 16.5443C1244.75 15.472 1244.75 14.3829 1244.9 13.3092C1244.92 12.1657 1245.1 11.031 1245.45 9.9407C1245.83 8.86356 1246.35 7.84554 1247.02 6.91677C1247.68 5.9306 1247.95 4.61825 1248.83 3.86281C1249.86 3.26726 1250.98 2.82968 1252.14 2.56475C1253.17 1.92876 1254.31 1.48244 1255.49 1.24682Z" fill="#CF79ED"/>
<path d="M1329.07 -2.60929C1330.2 -2.74449 1331.34 -2.68118 1332.44 -2.42232C1333.49 -1.99248 1334.45 -1.36769 1335.27 -0.580792C1336.04 0.18611 1336.67 1.07743 1337.14 2.0553C1337.78 2.95481 1338.27 3.95162 1338.59 5.00733C1338.75 6.10366 1338.75 7.21593 1338.59 8.31228C1338.55 9.49899 1338.34 10.6741 1337.98 11.8051C1337.72 12.9662 1337.32 14.0913 1336.79 15.1553C1336.01 16.0574 1335.11 16.8546 1334.13 17.527C1333.34 18.3955 1332.44 19.1479 1331.44 19.7615C1330.32 20.2409 1329.12 20.5203 1327.9 20.5872C1326.78 20.5006 1325.69 20.2059 1324.67 19.7183C1323.59 19.4753 1322.56 19.0367 1321.63 18.4242C1320.85 17.6117 1320.22 16.6739 1319.75 15.6502C1319.18 14.7346 1318.75 13.7353 1318.49 12.6882C1318.33 11.6159 1318.33 10.5267 1318.48 9.45314C1318.5 8.30963 1318.68 7.17493 1319.03 6.08459C1319.4 5.00745 1319.93 3.98943 1320.6 3.06066C1321.26 2.07449 1321.53 0.76214 1322.41 0.0067001C1323.44 -0.58885 1324.56 -1.02643 1325.72 -1.29135C1326.75 -1.92735 1327.89 -2.37367 1329.07 -2.60929Z" fill="#CF79ED"/>
<path d="M44.7741 128.465C45.8986 128.33 47.0381 128.393 48.1408 128.652C49.192 129.082 50.1524 129.707 50.9713 130.494C51.7385 131.261 52.3702 132.152 52.8398 133.13C53.4795 134.029 53.97 135.026 54.2923 136.082C54.4455 137.178 54.4456 138.291 54.2924 139.387C54.2476 140.574 54.0414 141.749 53.6795 142.88C53.4203 144.041 53.0202 145.166 52.4881 146.23C51.707 147.132 50.8124 147.929 49.8265 148.602C49.0417 149.47 48.1373 150.223 47.1404 150.836C46.018 151.316 44.8205 151.595 43.6018 151.662C42.4807 151.575 41.3856 151.281 40.3724 150.793C39.2876 150.55 38.2561 150.111 37.3284 149.499C36.5514 148.686 35.9173 147.749 35.4526 146.725C34.88 145.809 34.454 144.81 34.1899 143.763C34.0328 142.691 34.0281 141.601 34.1761 140.528C34.1958 139.384 34.3812 138.25 34.7263 137.159C35.1049 136.082 35.6342 135.064 36.2982 134.135C36.956 133.149 37.2333 131.837 38.1108 131.081C39.1417 130.486 40.2562 130.048 41.417 129.783C42.4485 129.147 43.5854 128.701 44.7741 128.465Z" fill="#CF79ED"/>
<path d="M118.353 124.609C119.478 124.474 120.617 124.537 121.72 124.796C122.771 125.226 123.731 125.851 124.55 126.638C125.317 127.405 125.949 128.296 126.419 129.274C127.059 130.173 127.549 131.17 127.871 132.226C128.025 133.322 128.025 134.434 127.871 135.531C127.827 136.718 127.62 137.893 127.259 139.024C126.999 140.185 126.599 141.31 126.067 142.374C125.286 143.276 124.391 144.073 123.406 144.746C122.621 145.614 121.716 146.366 120.719 146.98C119.597 147.459 118.399 147.739 117.181 147.806C116.06 147.719 114.965 147.424 113.951 146.937C112.867 146.694 111.835 146.255 110.907 145.643C110.13 144.83 109.496 143.892 109.032 142.869C108.459 141.953 108.033 140.954 107.769 139.907C107.612 138.834 107.607 137.745 107.755 136.672C107.775 135.528 107.96 134.393 108.305 133.303C108.684 132.226 109.213 131.208 109.877 130.279C110.535 129.293 110.812 127.981 111.69 127.225C112.721 126.63 113.835 126.192 114.996 125.927C116.027 125.291 117.164 124.845 118.353 124.609Z" fill="#CF79ED"/>
<path d="M191.932 120.753C193.057 120.618 194.196 120.681 195.299 120.94C196.35 121.37 197.31 121.995 198.129 122.782C198.896 123.549 199.528 124.44 199.998 125.418C200.638 126.317 201.128 127.314 201.45 128.37C201.604 129.466 201.604 130.578 201.45 131.675C201.406 132.861 201.199 134.037 200.838 135.168C200.578 136.329 200.178 137.454 199.646 138.518C198.865 139.42 197.97 140.217 196.985 140.889C196.2 141.758 195.295 142.51 194.298 143.124C193.176 143.603 191.978 143.883 190.76 143.95C189.639 143.863 188.544 143.568 187.53 143.081C186.446 142.838 185.414 142.399 184.486 141.787C183.709 140.974 183.075 140.036 182.611 139.013C182.038 138.097 181.612 137.098 181.348 136.051C181.191 134.978 181.186 133.889 181.334 132.816C181.354 131.672 181.539 130.537 181.884 129.447C182.263 128.37 182.792 127.352 183.456 126.423C184.114 125.437 184.391 124.125 185.269 123.369C186.3 122.774 187.414 122.336 188.575 122.071C189.606 121.435 190.743 120.989 191.932 120.753Z" fill="#CF79ED"/>
<path d="M265.511 116.897C266.636 116.762 267.775 116.825 268.878 117.084C269.929 117.514 270.889 118.139 271.708 118.926C272.475 119.692 273.107 120.584 273.577 121.562C274.217 122.461 274.707 123.458 275.029 124.514C275.183 125.61 275.183 126.722 275.029 127.819C274.985 129.005 274.778 130.18 274.417 131.311C274.157 132.473 273.757 133.598 273.225 134.662C272.444 135.564 271.549 136.361 270.564 137.033C269.779 137.902 268.874 138.654 267.877 139.268C266.755 139.747 265.557 140.027 264.339 140.094C263.218 140.007 262.123 139.712 261.109 139.225C260.025 138.982 258.993 138.543 258.065 137.931C257.288 137.118 256.654 136.18 256.19 135.156C255.617 134.241 255.191 133.242 254.927 132.195C254.77 131.122 254.765 130.033 254.913 128.959C254.933 127.816 255.118 126.681 255.463 125.591C255.842 124.514 256.371 123.496 257.035 122.567C257.693 121.581 257.97 120.268 258.848 119.513C259.879 118.917 260.993 118.48 262.154 118.215C263.185 117.579 264.322 117.133 265.511 116.897Z" fill="#CF79ED"/>
<path d="M339.09 113.041C340.215 112.906 341.354 112.969 342.457 113.228C343.508 113.658 344.468 114.283 345.287 115.069C346.055 115.836 346.686 116.728 347.156 117.706C347.796 118.605 348.286 119.602 348.608 120.658C348.762 121.754 348.762 122.866 348.608 123.962C348.564 125.149 348.357 126.324 347.996 127.455C347.736 128.616 347.336 129.742 346.804 130.806C346.023 131.708 345.128 132.505 344.143 133.177C343.358 134.046 342.453 134.798 341.456 135.412C340.334 135.891 339.137 136.17 337.918 136.237C336.797 136.151 335.702 135.856 334.688 135.368C333.604 135.125 332.572 134.687 331.644 134.074C330.867 133.262 330.233 132.324 329.769 131.3C329.196 130.385 328.77 129.385 328.506 128.338C328.349 127.266 328.344 126.177 328.492 125.103C328.512 123.96 328.697 122.825 329.042 121.735C329.421 120.658 329.95 119.64 330.614 118.711C331.272 117.725 331.549 116.412 332.427 115.657C333.458 115.061 334.572 114.624 335.733 114.359C336.765 113.723 337.901 113.277 339.09 113.041Z" fill="#CF79ED"/>
<path d="M412.669 109.185C413.794 109.05 414.933 109.113 416.036 109.372C417.087 109.802 418.047 110.426 418.866 111.213C419.634 111.98 420.265 112.872 420.735 113.849C421.375 114.749 421.865 115.746 422.187 116.801C422.341 117.898 422.341 119.01 422.187 120.106C422.143 121.293 421.936 122.468 421.575 123.599C421.315 124.76 420.915 125.885 420.383 126.949C419.602 127.852 418.707 128.649 417.722 129.321C416.937 130.19 416.032 130.942 415.035 131.556C413.913 132.035 412.716 132.314 411.497 132.381C410.376 132.295 409.281 132 408.267 131.512C407.183 131.269 406.151 130.831 405.223 130.218C404.446 129.406 403.812 128.468 403.348 127.444C402.775 126.529 402.349 125.529 402.085 124.482C401.928 123.41 401.923 122.321 402.071 121.247C402.091 120.104 402.276 118.969 402.621 117.879C403 116.802 403.529 115.784 404.193 114.855C404.851 113.869 405.128 112.556 406.006 111.801C407.037 111.205 408.151 110.768 409.312 110.503C410.344 109.867 411.48 109.42 412.669 109.185Z" fill="#CF79ED"/>
<path d="M486.248 105.329C487.373 105.193 488.512 105.257 489.615 105.516C490.666 105.946 491.626 106.57 492.445 107.357C493.212 108.124 493.844 109.015 494.314 109.993C494.954 110.893 495.444 111.89 495.766 112.945C495.92 114.042 495.92 115.154 495.766 116.25C495.722 117.437 495.515 118.612 495.154 119.743C494.894 120.904 494.494 122.029 493.962 123.093C493.181 123.995 492.286 124.793 491.301 125.465C490.516 126.333 489.611 127.086 488.614 127.7C487.492 128.179 486.294 128.458 485.076 128.525C483.955 128.439 482.86 128.144 481.846 127.656C480.762 127.413 479.73 126.975 478.802 126.362C478.025 125.55 477.391 124.612 476.927 123.588C476.354 122.673 475.928 121.673 475.664 120.626C475.507 119.554 475.502 118.465 475.65 117.391C475.67 116.248 475.855 115.113 476.2 114.023C476.579 112.945 477.108 111.927 477.772 110.999C478.43 110.012 478.707 108.7 479.585 107.945C480.616 107.349 481.73 106.912 482.891 106.647C483.922 106.011 485.059 105.564 486.248 105.329Z" fill="#CF79ED"/>
<path d="M559.827 101.473C560.952 101.337 562.091 101.401 563.194 101.66C564.245 102.089 565.205 102.714 566.024 103.501C566.792 104.268 567.423 105.159 567.893 106.137C568.533 107.037 569.023 108.033 569.345 109.089C569.499 110.186 569.499 111.298 569.346 112.394C569.301 113.581 569.095 114.756 568.733 115.887C568.473 117.048 568.073 118.173 567.541 119.237C566.76 120.139 565.865 120.936 564.88 121.609C564.095 122.477 563.19 123.23 562.194 123.843C561.071 124.323 559.874 124.602 558.655 124.669C557.534 124.582 556.439 124.288 555.425 123.8C554.341 123.557 553.309 123.119 552.381 122.506C551.605 121.694 550.97 120.756 550.506 119.732C549.933 118.817 549.507 117.817 549.243 116.77C549.086 115.698 549.081 114.609 549.229 113.535C549.249 112.392 549.434 111.257 549.779 110.166C550.158 109.089 550.687 108.071 551.351 107.143C552.009 106.156 552.286 104.844 553.164 104.089C554.195 103.493 555.309 103.055 556.47 102.791C557.502 102.155 558.638 101.708 559.827 101.473Z" fill="#CF79ED"/>
<path d="M633.406 97.6165C634.531 97.4813 635.67 97.5446 636.773 97.8034C637.824 98.2333 638.784 98.8581 639.603 99.645C640.371 100.412 641.002 101.303 641.472 102.281C642.112 103.181 642.602 104.177 642.924 105.233C643.078 106.329 643.078 107.442 642.924 108.538C642.88 109.725 642.673 110.9 642.312 112.031C642.052 113.192 641.652 114.317 641.12 115.381C640.339 116.283 639.444 117.08 638.459 117.753C637.674 118.621 636.769 119.374 635.772 119.987C634.65 120.467 633.453 120.746 632.234 120.813C631.113 120.726 630.018 120.432 629.004 119.944C627.92 119.701 626.888 119.262 625.96 118.65C625.183 117.837 624.549 116.9 624.085 115.876C623.512 114.96 623.086 113.961 622.822 112.914C622.665 111.842 622.66 110.753 622.808 109.679C622.828 108.535 623.013 107.401 623.358 106.31C623.737 105.233 624.266 104.215 624.93 103.286C625.588 102.3 625.865 100.988 626.743 100.232C627.774 99.6369 628.888 99.1993 630.049 98.9344C631.081 98.2984 632.217 97.8521 633.406 97.6165Z" fill="#CF79ED"/>
<path d="M706.985 93.7604C708.11 93.6252 709.249 93.6885 710.352 93.9473C711.403 94.3772 712.363 95.002 713.182 95.7889C713.95 96.5558 714.581 97.4471 715.051 98.4249C715.691 99.3245 716.181 100.321 716.503 101.377C716.657 102.473 716.657 103.586 716.504 104.682C716.459 105.869 716.253 107.044 715.891 108.175C715.631 109.336 715.231 110.461 714.699 111.525C713.918 112.427 713.023 113.224 712.038 113.897C711.253 114.765 710.348 115.518 709.352 116.131C708.229 116.611 707.032 116.89 705.813 116.957C704.692 116.87 703.597 116.576 702.584 116.088C701.499 115.845 700.467 115.406 699.539 114.794C698.763 113.981 698.128 113.043 697.664 112.02C697.091 111.104 696.665 110.105 696.401 109.058C696.244 107.986 696.239 106.896 696.387 105.823C696.407 104.679 696.592 103.545 696.937 102.454C697.316 101.377 697.845 100.359 698.509 99.4303C699.167 98.4441 699.444 97.1318 700.322 96.3763C701.353 95.7808 702.467 95.3432 703.628 95.0783C704.66 94.4423 705.797 93.996 706.985 93.7604Z" fill="#CF79ED"/>
<path d="M780.564 89.9042C781.689 89.769 782.828 89.8324 783.931 90.0912C784.982 90.5211 785.942 91.1458 786.761 91.9327C787.529 92.6996 788.16 93.591 788.63 94.5688C789.27 95.4683 789.76 96.4652 790.082 97.5209C790.236 98.6172 790.236 99.7295 790.083 100.826C790.038 102.013 789.832 103.188 789.47 104.319C789.21 105.48 788.81 106.605 788.278 107.669C787.497 108.571 786.602 109.368 785.617 110.04C784.832 110.909 783.927 111.661 782.931 112.275C781.808 112.754 780.611 113.034 779.392 113.101C778.271 113.014 777.176 112.719 776.162 112.232C775.078 111.989 774.046 111.55 773.118 110.938C772.342 110.125 771.707 109.187 771.243 108.164C770.67 107.248 770.244 106.249 769.98 105.202C769.823 104.129 769.818 103.04 769.966 101.967C769.986 100.823 770.171 99.6885 770.516 98.5981C770.895 97.521 771.424 96.503 772.088 95.5742C772.746 94.588 773.023 93.2757 773.901 92.5202C774.932 91.9247 776.046 91.4871 777.207 91.2222C778.239 90.5862 779.375 90.1399 780.564 89.9042Z" fill="#CF79ED"/>
<path d="M854.143 86.0481C855.268 85.9129 856.407 85.9762 857.51 86.2351C858.561 86.6649 859.521 87.2897 860.34 88.0766C861.108 88.8435 861.739 89.7349 862.209 90.7127C862.849 91.6122 863.339 92.609 863.661 93.6648C863.815 94.7611 863.815 95.8734 863.662 96.9697C863.617 98.1564 863.411 99.3315 863.049 100.463C862.789 101.624 862.389 102.749 861.857 103.813C861.076 104.715 860.181 105.512 859.196 106.184C858.411 107.053 857.506 107.805 856.51 108.419C855.387 108.898 854.19 109.178 852.971 109.245C851.85 109.158 850.755 108.863 849.742 108.376C848.657 108.133 847.625 107.694 846.697 107.082C845.921 106.269 845.286 105.331 844.822 104.308C844.249 103.392 843.823 102.393 843.559 101.346C843.402 100.273 843.397 99.1842 843.545 98.1106C843.565 96.9671 843.75 95.8324 844.095 94.742C844.474 93.6649 845.003 92.6469 845.667 91.7181C846.325 90.7319 846.602 89.4196 847.48 88.6641C848.511 88.0686 849.625 87.631 850.786 87.3661C851.818 86.7301 852.955 86.2838 854.143 86.0481Z" fill="#CF79ED"/>
<path d="M927.722 82.192C928.847 82.0568 929.986 82.1201 931.089 82.379C932.14 82.8088 933.1 83.4336 933.919 84.2205C934.687 84.9874 935.318 85.8787 935.788 86.8566C936.428 87.7561 936.918 88.7529 937.24 89.8086C937.394 90.905 937.394 92.0172 937.241 93.1136C937.196 94.3003 936.99 95.4754 936.628 96.6065C936.368 97.7675 935.968 98.8926 935.436 99.9566C934.655 100.859 933.76 101.656 932.775 102.328C931.99 103.197 931.085 103.949 930.089 104.563C928.966 105.042 927.769 105.322 926.55 105.389C925.429 105.302 924.334 105.007 923.321 104.52C922.236 104.277 921.204 103.838 920.276 103.226C919.5 102.413 918.865 101.475 918.401 100.451C917.828 99.5359 917.402 98.5366 917.138 97.4895C916.981 96.4172 916.976 95.3281 917.124 94.2545C917.144 93.1109 917.329 91.9762 917.674 90.8859C918.053 89.8088 918.582 88.7907 919.246 87.862C919.904 86.8758 920.181 85.5635 921.059 84.808C922.09 84.2125 923.204 83.7749 924.365 83.51C925.397 82.874 926.534 82.4276 927.722 82.192Z" fill="#CF79ED"/>
<path d="M1001.3 78.3359C1002.43 78.2007 1003.57 78.264 1004.67 78.5229C1005.72 78.9527 1006.68 79.5775 1007.5 80.3644C1008.27 81.1313 1008.9 82.0226 1009.37 83.0005C1010.01 83.9 1010.5 84.8968 1010.82 85.9525C1010.97 87.0489 1010.97 88.1611 1010.82 89.2575C1010.77 90.4442 1010.57 91.6193 1010.21 92.7503C1009.95 93.9114 1009.55 95.0365 1009.02 96.1005C1008.23 97.0027 1007.34 97.7998 1006.35 98.4722C1005.57 99.3407 1004.66 100.093 1003.67 100.707C1002.55 101.186 1001.35 101.465 1000.13 101.532C999.008 101.446 997.913 101.151 996.899 100.663C995.815 100.42 994.783 99.9819 993.855 99.3694C993.079 98.5569 992.444 97.6191 991.98 96.5954C991.407 95.6798 990.981 94.6805 990.717 93.6334C990.56 92.5611 990.555 91.472 990.703 90.3983C990.723 89.2548 990.908 88.1201 991.253 87.0298C991.632 85.9527 992.161 84.9346 992.825 84.0059C993.483 83.0197 993.76 81.7073 994.638 80.9519C995.669 80.3564 996.783 79.9188 997.944 79.6539C998.976 79.0179 1000.11 78.5715 1001.3 78.3359Z" fill="#CF79ED"/>
<path d="M1074.88 74.4798C1076 74.3446 1077.14 74.4079 1078.25 74.6668C1079.3 75.0966 1080.26 75.7214 1081.08 76.5083C1081.84 77.2752 1082.48 78.1665 1082.95 79.1444C1083.59 80.0439 1084.08 81.0407 1084.4 82.0964C1084.55 83.1928 1084.55 84.305 1084.4 85.4014C1084.35 86.5881 1084.15 87.7632 1083.79 88.8942C1083.53 90.0553 1083.13 91.1804 1082.59 92.2444C1081.81 93.1465 1080.92 93.9437 1079.93 94.6161C1079.15 95.4845 1078.24 96.237 1077.25 96.8506C1076.12 97.33 1074.93 97.6094 1073.71 97.6763C1072.59 97.5897 1071.49 97.295 1070.48 96.8074C1069.39 96.5644 1068.36 96.1258 1067.43 95.5133C1066.66 94.7008 1066.02 93.7629 1065.56 92.7393C1064.99 91.8237 1064.56 90.8243 1064.3 89.7773C1064.14 88.705 1064.13 87.6158 1064.28 86.5422C1064.3 85.3987 1064.49 84.264 1064.83 83.1737C1065.21 82.0965 1065.74 81.0785 1066.4 80.1498C1067.06 79.1636 1067.34 77.8512 1068.22 77.0958C1069.25 76.5002 1070.36 76.0627 1071.52 75.7977C1072.55 75.1617 1073.69 74.7154 1074.88 74.4798Z" fill="#CF79ED"/>
<path d="M1148.46 70.6237C1149.58 70.4885 1150.72 70.5518 1151.83 70.8107C1152.88 71.2405 1153.84 71.8653 1154.66 72.6522C1155.42 73.4191 1156.06 74.3104 1156.52 75.2883C1157.16 76.1878 1157.65 77.1846 1157.98 78.2403C1158.13 79.3366 1158.13 80.4489 1157.98 81.5453C1157.93 82.732 1157.73 83.9071 1157.36 85.0381C1157.11 86.1992 1156.71 87.3243 1156.17 88.3883C1155.39 89.2904 1154.5 90.0876 1153.51 90.7599C1152.73 91.6284 1151.82 92.3809 1150.83 92.9945C1149.7 93.4738 1148.51 93.7533 1147.29 93.8202C1146.17 93.7336 1145.07 93.4389 1144.06 92.9513C1142.97 92.7082 1141.94 92.2697 1141.01 91.6572C1140.24 90.8447 1139.6 89.9068 1139.14 88.8832C1138.57 87.9676 1138.14 86.9682 1137.87 85.9212C1137.72 84.8489 1137.71 83.7597 1137.86 82.6861C1137.88 81.5426 1138.07 80.4079 1138.41 79.3176C1138.79 78.2404 1139.32 77.2224 1139.98 76.2937C1140.64 75.3075 1140.92 73.9951 1141.8 73.2397C1142.83 72.6441 1143.94 72.2066 1145.1 71.9416C1146.13 71.3056 1147.27 70.8593 1148.46 70.6237Z" fill="#CF79ED"/>
<path d="M1222.04 66.7676C1223.16 66.6324 1224.3 66.6957 1225.4 66.9546C1226.46 67.3844 1227.42 68.0092 1228.24 68.7961C1229 69.563 1229.63 70.4543 1230.1 71.4322C1230.74 72.3317 1231.23 73.3285 1231.56 74.3842C1231.71 75.4805 1231.71 76.5928 1231.56 77.6892C1231.51 78.8759 1231.31 80.051 1230.94 81.182C1230.68 82.3431 1230.28 83.4682 1229.75 84.5322C1228.97 85.4343 1228.08 86.2315 1227.09 86.9038C1226.31 87.7723 1225.4 88.5247 1224.4 89.1384C1223.28 89.6177 1222.08 89.8972 1220.87 89.9641C1219.74 89.8774 1218.65 89.5828 1217.64 89.0951C1216.55 88.8521 1215.52 88.4136 1214.59 87.8011C1213.82 86.9886 1213.18 86.0507 1212.72 85.027C1212.14 84.1115 1211.72 83.1121 1211.45 82.0651C1211.3 80.9928 1211.29 79.9036 1211.44 78.83C1211.46 77.6865 1211.65 76.5518 1211.99 75.4615C1212.37 74.3843 1212.9 73.3663 1213.56 72.4375C1214.22 71.4514 1214.5 70.139 1215.37 69.3836C1216.41 68.788 1217.52 68.3504 1218.68 68.0855C1219.71 67.4495 1220.85 67.0032 1222.04 66.7676Z" fill="#CF79ED"/>
<path d="M1295.62 62.9115C1296.74 62.7763 1297.88 62.8396 1298.98 63.0984C1300.03 63.5283 1301 64.1531 1301.81 64.94C1302.58 65.7069 1303.21 66.5982 1303.68 67.5761C1304.32 68.4756 1304.81 69.4724 1305.14 70.5281C1305.29 71.6244 1305.29 72.7367 1305.14 73.833C1305.09 75.0197 1304.88 76.1948 1304.52 77.3259C1304.26 78.487 1303.86 79.6121 1303.33 80.6761C1302.55 81.5782 1301.66 82.3753 1300.67 83.0477C1299.88 83.9162 1298.98 84.6686 1297.98 85.2823C1296.86 85.7616 1295.66 86.041 1294.44 86.108C1293.32 86.0213 1292.23 85.7267 1291.22 85.239C1290.13 84.996 1289.1 84.5575 1288.17 83.945C1287.39 83.1324 1286.76 82.1946 1286.3 81.1709C1285.72 80.2554 1285.3 79.256 1285.03 78.2089C1284.88 77.1366 1284.87 76.0475 1285.02 74.9739C1285.04 73.8304 1285.22 72.6957 1285.57 71.6053C1285.95 70.5282 1286.48 69.5102 1287.14 68.5814C1287.8 67.5952 1288.08 66.2829 1288.95 65.5275C1289.98 64.9319 1291.1 64.4943 1292.26 64.2294C1293.29 63.5934 1294.43 63.1471 1295.62 62.9115Z" fill="#CF79ED"/>
<path d="M11.3173 193.986C12.4419 193.851 13.5814 193.914 14.6841 194.173C15.7353 194.603 16.6956 195.228 17.5145 196.015C18.2817 196.782 18.9135 197.673 19.3831 198.651C20.0228 199.55 20.5133 200.547 20.8356 201.603C20.9888 202.699 20.9889 203.811 20.8357 204.908C20.7909 206.094 20.5847 207.27 20.2228 208.401C19.9636 209.562 19.5635 210.687 19.0314 211.751C18.2503 212.653 17.3556 213.45 16.3698 214.122C15.585 214.991 14.6805 215.743 13.6837 216.357C12.5613 216.836 11.3637 217.116 10.1451 217.183C9.02401 217.096 7.92887 216.801 6.91569 216.314C5.83088 216.071 4.79937 215.632 3.87163 215.02C3.09471 214.207 2.46055 213.269 1.99588 212.246C1.42331 211.33 0.997257 210.331 0.733182 209.284C0.576049 208.211 0.571393 207.122 0.719367 206.049C0.739081 204.905 0.924433 203.77 1.26961 202.68C1.64823 201.603 2.17745 200.585 2.8415 199.656C3.49927 198.67 3.77654 197.358 4.65404 196.602C5.68501 196.007 6.79949 195.569 7.96026 195.304C8.99173 194.668 10.1287 194.222 11.3173 193.986Z" fill="#CF79ED"/>
<path d="M84.8964 190.13C86.0209 189.995 87.1604 190.058 88.2631 190.317C89.3143 190.747 90.2746 191.372 91.0935 192.159C91.8607 192.925 92.4925 193.817 92.9621 194.795C93.6018 195.694 94.0923 196.691 94.4146 197.747C94.5678 198.843 94.5679 199.955 94.4147 201.052C94.3699 202.238 94.1637 203.413 93.8018 204.545C93.5426 205.706 93.1425 206.831 92.6104 207.895C91.8293 208.797 90.9346 209.594 89.9488 210.266C89.164 211.135 88.2596 211.887 87.2627 212.501C86.1403 212.98 84.9427 213.26 83.7241 213.327C82.603 213.24 81.5079 212.945 80.4947 212.458C79.4099 212.215 78.3784 211.776 77.4506 211.164C76.6737 210.351 76.0396 209.413 75.5749 208.39C75.0023 207.474 74.5763 206.475 74.3122 205.428C74.1551 204.355 74.1504 203.266 74.2984 202.193C74.3181 201.049 74.5034 199.914 74.8486 198.824C75.2272 197.747 75.7565 196.729 76.4205 195.8C77.0783 194.814 77.3555 193.502 78.2331 192.746C79.264 192.151 80.3785 191.713 81.5393 191.448C82.5707 190.812 83.7077 190.366 84.8964 190.13Z" fill="#CF79ED"/>
<path d="M158.475 186.274C159.6 186.139 160.739 186.202 161.842 186.461C162.893 186.891 163.854 187.516 164.673 188.302C165.44 189.069 166.072 189.961 166.541 190.939C167.181 191.838 167.671 192.835 167.994 193.891C168.147 194.987 168.147 196.099 167.994 197.196C167.949 198.382 167.743 199.557 167.381 200.688C167.122 201.849 166.722 202.975 166.189 204.039C165.408 204.941 164.514 205.738 163.528 206.41C162.743 207.279 161.839 208.031 160.842 208.645C159.719 209.124 158.522 209.404 157.303 209.47C156.182 209.384 155.087 209.089 154.074 208.602C152.989 208.359 151.957 207.92 151.03 207.308C150.253 206.495 149.619 205.557 149.154 204.533C148.581 203.618 148.155 202.619 147.891 201.571C147.734 200.499 147.729 199.41 147.877 198.336C147.897 197.193 148.082 196.058 148.428 194.968C148.806 193.891 149.335 192.873 150 191.944C150.657 190.958 150.935 189.645 151.812 188.89C152.843 188.294 153.958 187.857 155.118 187.592C156.15 186.956 157.287 186.51 158.475 186.274Z" fill="#CF79ED"/>
<path d="M232.054 182.418C233.179 182.283 234.318 182.346 235.421 182.605C236.472 183.035 237.433 183.659 238.252 184.446C239.019 185.213 239.651 186.105 240.12 187.082C240.76 187.982 241.25 188.979 241.573 190.034C241.726 191.131 241.726 192.243 241.573 193.339C241.528 194.526 241.322 195.701 240.96 196.832C240.701 197.993 240.301 199.118 239.768 200.182C238.987 201.085 238.093 201.882 237.107 202.554C236.322 203.423 235.418 204.175 234.421 204.789C233.298 205.268 232.101 205.547 230.882 205.614C229.761 205.528 228.666 205.233 227.653 204.745C226.568 204.502 225.536 204.064 224.609 203.451C223.832 202.639 223.198 201.701 222.733 200.677C222.16 199.762 221.734 198.762 221.47 197.715C221.313 196.643 221.308 195.554 221.456 194.48C221.476 193.337 221.661 192.202 222.007 191.112C222.385 190.035 222.914 189.017 223.579 188.088C224.236 187.102 224.514 185.789 225.391 185.034C226.422 184.438 227.537 184.001 228.697 183.736C229.729 183.1 230.866 182.653 232.054 182.418Z" fill="#CF79ED"/>
<path d="M305.633 178.562C306.758 178.427 307.897 178.49 309 178.749C310.051 179.179 311.012 179.803 311.831 180.59C312.598 181.357 313.23 182.248 313.699 183.226C314.339 184.126 314.829 185.123 315.152 186.178C315.305 187.275 315.305 188.387 315.152 189.483C315.107 190.67 314.901 191.845 314.539 192.976C314.28 194.137 313.88 195.262 313.347 196.326C312.566 197.228 311.672 198.026 310.686 198.698C309.901 199.566 308.997 200.319 308 200.933C306.877 201.412 305.68 201.691 304.461 201.758C303.34 201.672 302.245 201.377 301.232 200.889C300.147 200.646 299.115 200.208 298.188 199.595C297.411 198.783 296.777 197.845 296.312 196.821C295.739 195.906 295.313 194.906 295.049 193.859C294.892 192.787 294.887 191.698 295.035 190.624C295.055 189.481 295.24 188.346 295.586 187.256C295.964 186.178 296.493 185.16 297.158 184.232C297.815 183.246 298.093 181.933 298.97 181.178C300.001 180.582 301.116 180.145 302.276 179.88C303.308 179.244 304.445 178.797 305.633 178.562Z" fill="#CF79ED"/>
<path d="M379.212 174.706C380.337 174.57 381.476 174.634 382.579 174.893C383.63 175.322 384.591 175.947 385.41 176.734C386.177 177.501 386.809 178.392 387.278 179.37C387.918 180.27 388.408 181.267 388.731 182.322C388.884 183.419 388.884 184.531 388.731 185.627C388.686 186.814 388.48 187.989 388.118 189.12C387.859 190.281 387.459 191.406 386.926 192.47C386.145 193.372 385.251 194.17 384.265 194.842C383.48 195.71 382.576 196.463 381.579 197.076C380.456 197.556 379.259 197.835 378.04 197.902C376.919 197.816 375.824 197.521 374.811 197.033C373.726 196.79 372.694 196.352 371.767 195.739C370.99 194.927 370.356 193.989 369.891 192.965C369.318 192.05 368.892 191.05 368.628 190.003C368.471 188.931 368.466 187.842 368.614 186.768C368.634 185.625 368.819 184.49 369.165 183.4C369.543 182.322 370.072 181.304 370.737 180.376C371.394 179.389 371.672 178.077 372.549 177.322C373.58 176.726 374.695 176.289 375.855 176.024C376.887 175.388 378.024 174.941 379.212 174.706Z" fill="#CF79ED"/>
<path d="M452.791 170.85C453.916 170.714 455.055 170.778 456.158 171.037C457.209 171.466 458.17 172.091 458.989 172.878C459.756 173.645 460.388 174.536 460.857 175.514C461.497 176.414 461.987 177.41 462.31 178.466C462.463 179.562 462.463 180.675 462.31 181.771C462.265 182.958 462.059 184.133 461.697 185.264C461.438 186.425 461.038 187.55 460.505 188.614C459.724 189.516 458.83 190.313 457.844 190.986C457.059 191.854 456.155 192.607 455.158 193.22C454.035 193.7 452.838 193.979 451.619 194.046C450.498 193.959 449.403 193.665 448.39 193.177C447.305 192.934 446.273 192.496 445.346 191.883C444.569 191.071 443.935 190.133 443.47 189.109C442.897 188.193 442.471 187.194 442.207 186.147C442.05 185.075 442.045 183.986 442.193 182.912C442.213 181.768 442.398 180.634 442.744 179.543C443.122 178.466 443.651 177.448 444.316 176.519C444.973 175.533 445.251 174.221 446.128 173.466C447.159 172.87 448.274 172.432 449.434 172.167C450.466 171.531 451.603 171.085 452.791 170.85Z" fill="#CF79ED"/>
<path d="M526.37 166.993C527.495 166.858 528.634 166.922 529.737 167.18C530.788 167.61 531.749 168.235 532.568 169.022C533.335 169.789 533.967 170.68 534.436 171.658C535.076 172.558 535.566 173.554 535.889 174.61C536.042 175.706 536.042 176.819 535.889 177.915C535.844 179.102 535.638 180.277 535.276 181.408C535.017 182.569 534.617 183.694 534.084 184.758C533.303 185.66 532.409 186.457 531.423 187.13C530.638 187.998 529.734 188.751 528.737 189.364C527.614 189.844 526.417 190.123 525.198 190.19C524.077 190.103 522.982 189.809 521.969 189.321C520.884 189.078 519.852 188.639 518.925 188.027C518.148 187.214 517.514 186.277 517.049 185.253C516.476 184.337 516.05 183.338 515.786 182.291C515.629 181.219 515.624 180.129 515.772 179.056C515.792 177.912 515.977 176.778 516.323 175.687C516.701 174.61 517.23 173.592 517.895 172.663C518.552 171.677 518.83 170.365 519.707 169.609C520.738 169.014 521.853 168.576 523.013 168.311C524.045 167.675 525.182 167.229 526.37 166.993Z" fill="#CF79ED"/>
<path d="M599.949 163.137C601.074 163.002 602.213 163.065 603.316 163.324C604.367 163.754 605.328 164.379 606.147 165.166C606.914 165.933 607.546 166.824 608.015 167.802C608.655 168.701 609.145 169.698 609.468 170.754C609.621 171.85 609.621 172.963 609.468 174.059C609.423 175.246 609.217 176.421 608.855 177.552C608.596 178.713 608.196 179.838 607.663 180.902C606.882 181.804 605.988 182.601 605.002 183.274C604.217 184.142 603.313 184.894 602.316 185.508C601.193 185.987 599.996 186.267 598.777 186.334C597.656 186.247 596.561 185.953 595.548 185.465C594.463 185.222 593.431 184.783 592.504 184.171C591.727 183.358 591.093 182.42 590.628 181.397C590.055 180.481 589.629 179.482 589.365 178.435C589.208 177.362 589.203 176.273 589.351 175.2C589.371 174.056 589.556 172.922 589.902 171.831C590.28 170.754 590.809 169.736 591.474 168.807C592.131 167.821 592.409 166.509 593.286 165.753C594.317 165.158 595.432 164.72 596.592 164.455C597.624 163.819 598.761 163.373 599.949 163.137Z" fill="#CF79ED"/>
<path d="M673.528 159.281C674.653 159.146 675.793 159.209 676.895 159.468C677.946 159.898 678.907 160.523 679.726 161.31C680.493 162.077 681.125 162.968 681.594 163.946C682.234 164.845 682.724 165.842 683.047 166.898C683.2 167.994 683.2 169.106 683.047 170.203C683.002 171.389 682.796 172.565 682.434 173.696C682.175 174.857 681.775 175.982 681.242 177.046C680.461 177.948 679.567 178.745 678.581 179.417C677.796 180.286 676.892 181.038 675.895 181.652C674.772 182.131 673.575 182.411 672.356 182.478C671.235 182.391 670.14 182.096 669.127 181.609C668.042 181.366 667.01 180.927 666.083 180.315C665.306 179.502 664.672 178.564 664.207 177.541C663.634 176.625 663.208 175.626 662.944 174.579C662.787 173.506 662.782 172.417 662.93 171.344C662.95 170.2 663.136 169.065 663.481 167.975C663.859 166.898 664.389 165.88 665.053 164.951C665.71 163.965 665.988 162.653 666.865 161.897C667.896 161.302 669.011 160.864 670.171 160.599C671.203 159.963 672.34 159.517 673.528 159.281Z" fill="#CF79ED"/>
<path d="M747.107 155.425C748.232 155.29 749.371 155.353 750.474 155.612C751.525 156.042 752.486 156.667 753.305 157.454C754.072 158.22 754.704 159.112 755.173 160.09C755.813 160.989 756.303 161.986 756.626 163.042C756.779 164.138 756.779 165.25 756.626 166.347C756.581 167.533 756.375 168.708 756.013 169.839C755.754 171.001 755.354 172.126 754.821 173.19C754.04 174.092 753.146 174.889 752.16 175.561C751.375 176.43 750.471 177.182 749.474 177.796C748.351 178.275 747.154 178.555 745.935 178.622C744.814 178.535 743.719 178.24 742.706 177.753C741.621 177.51 740.589 177.071 739.662 176.459C738.885 175.646 738.251 174.708 737.786 173.684C737.213 172.769 736.787 171.77 736.523 170.723C736.366 169.65 736.361 168.561 736.509 167.487C736.529 166.344 736.715 165.209 737.06 164.119C737.438 163.042 737.968 162.024 738.632 161.095C739.289 160.109 739.567 158.796 740.444 158.041C741.475 157.445 742.59 157.008 743.75 156.743C744.782 156.107 745.919 155.661 747.107 155.425Z" fill="#CF79ED"/>
<path d="M820.686 151.569C821.811 151.434 822.951 151.497 824.053 151.756C825.104 152.186 826.065 152.811 826.884 153.597C827.651 154.364 828.283 155.256 828.752 156.234C829.392 157.133 829.882 158.13 830.205 159.186C830.358 160.282 830.358 161.394 830.205 162.49C830.16 163.677 829.954 164.852 829.592 165.983C829.333 167.144 828.933 168.27 828.4 169.334C827.619 170.236 826.725 171.033 825.739 171.705C824.954 172.574 824.05 173.326 823.053 173.94C821.93 174.419 820.733 174.698 819.514 174.765C818.393 174.679 817.298 174.384 816.285 173.896C815.2 173.653 814.168 173.215 813.241 172.602C812.464 171.79 811.83 170.852 811.365 169.828C810.792 168.913 810.366 167.913 810.102 166.866C809.945 165.794 809.941 164.705 810.088 163.631C810.108 162.488 810.294 161.353 810.639 160.263C811.017 159.186 811.547 158.168 812.211 157.239C812.868 156.253 813.146 154.94 814.023 154.185C815.054 153.589 816.169 153.152 817.329 152.887C818.361 152.251 819.498 151.805 820.686 151.569Z" fill="#CF79ED"/>
<path d="M894.265 147.713C895.39 147.578 896.53 147.641 897.632 147.9C898.683 148.33 899.644 148.954 900.463 149.741C901.23 150.508 901.862 151.4 902.331 152.377C902.971 153.277 903.461 154.274 903.784 155.329C903.937 156.426 903.937 157.538 903.784 158.634C903.739 159.821 903.533 160.996 903.171 162.127C902.912 163.288 902.512 164.413 901.98 165.477C901.198 166.38 900.304 167.177 899.318 167.849C898.533 168.718 897.629 169.47 896.632 170.084C895.509 170.563 894.312 170.842 893.093 170.909C891.972 170.823 890.877 170.528 889.864 170.04C888.779 169.797 887.748 169.359 886.82 168.746C886.043 167.934 885.409 166.996 884.944 165.972C884.371 165.057 883.945 164.057 883.681 163.01C883.524 161.938 883.52 160.849 883.668 159.775C883.687 158.632 883.873 157.497 884.218 156.407C884.596 155.33 885.126 154.312 885.79 153.383C886.447 152.397 886.725 151.084 887.602 150.329C888.633 149.733 889.748 149.296 890.908 149.031C891.94 148.395 893.077 147.948 894.265 147.713Z" fill="#CF79ED"/>
<path d="M967.844 143.857C968.969 143.721 970.108 143.785 971.211 144.044C972.262 144.474 973.223 145.098 974.042 145.885C974.809 146.652 975.441 147.543 975.91 148.521C976.55 149.421 977.04 150.418 977.363 151.473C977.516 152.57 977.516 153.682 977.363 154.778C977.318 155.965 977.112 157.14 976.75 158.271C976.491 159.432 976.091 160.557 975.558 161.621C974.777 162.523 973.883 163.321 972.897 163.993C972.112 164.861 971.208 165.614 970.211 166.228C969.088 166.707 967.891 166.986 966.672 167.053C965.551 166.967 964.456 166.672 963.443 166.184C962.358 165.941 961.326 165.503 960.399 164.89C959.622 164.078 958.988 163.14 958.523 162.116C957.95 161.201 957.524 160.201 957.26 159.154C957.103 158.082 957.098 156.993 957.246 155.919C957.266 154.776 957.452 153.641 957.797 152.551C958.175 151.473 958.705 150.455 959.369 149.527C960.026 148.54 960.304 147.228 961.181 146.473C962.212 145.877 963.327 145.44 964.487 145.175C965.519 144.539 966.656 144.092 967.844 143.857Z" fill="#CF79ED"/>
<path d="M1041.42 140.001C1042.55 139.865 1043.69 139.929 1044.79 140.188C1045.84 140.617 1046.8 141.242 1047.62 142.029C1048.39 142.796 1049.02 143.687 1049.49 144.665C1050.13 145.565 1050.62 146.561 1050.94 147.617C1051.09 148.714 1051.09 149.826 1050.94 150.922C1050.9 152.109 1050.69 153.284 1050.33 154.415C1050.07 155.576 1049.67 156.701 1049.14 157.765C1048.36 158.667 1047.46 159.464 1046.48 160.137C1045.69 161.005 1044.79 161.758 1043.79 162.371C1042.67 162.851 1041.47 163.13 1040.25 163.197C1039.13 163.11 1038.03 162.816 1037.02 162.328C1035.94 162.085 1034.91 161.647 1033.98 161.034C1033.2 160.222 1032.57 159.284 1032.1 158.26C1031.53 157.345 1031.1 156.345 1030.84 155.298C1030.68 154.226 1030.68 153.137 1030.83 152.063C1030.85 150.92 1031.03 149.785 1031.38 148.694C1031.75 147.617 1032.28 146.599 1032.95 145.671C1033.61 144.684 1033.88 143.372 1034.76 142.617C1035.79 142.021 1036.91 141.583 1038.07 141.319C1039.1 140.683 1040.23 140.236 1041.42 140.001Z" fill="#CF79ED"/>
<path d="M1115 136.144C1116.13 136.009 1117.27 136.073 1118.37 136.331C1119.42 136.761 1120.38 137.386 1121.2 138.173C1121.97 138.94 1122.6 139.831 1123.07 140.809C1123.71 141.709 1124.2 142.705 1124.52 143.761C1124.67 144.857 1124.67 145.97 1124.52 147.066C1124.48 148.253 1124.27 149.428 1123.91 150.559C1123.65 151.72 1123.25 152.845 1122.72 153.909C1121.94 154.811 1121.04 155.608 1120.05 156.281C1119.27 157.149 1118.37 157.902 1117.37 158.515C1116.25 158.995 1115.05 159.274 1113.83 159.341C1112.71 159.254 1111.61 158.96 1110.6 158.472C1109.52 158.229 1108.48 157.791 1107.56 157.178C1106.78 156.365 1106.15 155.428 1105.68 154.404C1105.11 153.488 1104.68 152.489 1104.42 151.442C1104.26 150.37 1104.26 149.281 1104.4 148.207C1104.42 147.063 1104.61 145.929 1104.95 144.838C1105.33 143.761 1105.86 142.743 1106.53 141.814C1107.18 140.828 1107.46 139.516 1108.34 138.76C1109.37 138.165 1110.48 137.727 1111.65 137.462C1112.68 136.826 1113.81 136.38 1115 136.144Z" fill="#CF79ED"/>
<path d="M1188.58 132.288C1189.71 132.153 1190.85 132.216 1191.95 132.475C1193 132.905 1193.96 133.53 1194.78 134.317C1195.55 135.084 1196.18 135.975 1196.65 136.953C1197.29 137.852 1197.78 138.849 1198.1 139.905C1198.25 141.001 1198.25 142.114 1198.1 143.21C1198.05 144.397 1197.85 145.572 1197.49 146.703C1197.23 147.864 1196.83 148.989 1196.3 150.053C1195.51 150.955 1194.62 151.752 1193.63 152.425C1192.85 153.293 1191.94 154.046 1190.95 154.659C1189.83 155.139 1188.63 155.418 1187.41 155.485C1186.29 155.398 1185.19 155.104 1184.18 154.616C1183.09 154.373 1182.06 153.934 1181.14 153.322C1180.36 152.509 1179.72 151.572 1179.26 150.548C1178.69 149.632 1178.26 148.633 1178 147.586C1177.84 146.514 1177.84 145.424 1177.98 144.351C1178 143.207 1178.19 142.073 1178.53 140.982C1178.91 139.905 1179.44 138.887 1180.11 137.958C1180.76 136.972 1181.04 135.66 1181.92 134.904C1182.95 134.309 1184.06 133.871 1185.22 133.606C1186.26 132.97 1187.39 132.524 1188.58 132.288Z" fill="#CF79ED"/>
<path d="M1262.16 128.432C1263.28 128.297 1264.42 128.36 1265.53 128.619C1266.58 129.049 1267.54 129.674 1268.36 130.461C1269.12 131.228 1269.76 132.119 1270.23 133.097C1270.87 133.996 1271.36 134.993 1271.68 136.049C1271.83 137.145 1271.83 138.257 1271.68 139.354C1271.63 140.541 1271.43 141.716 1271.07 142.847C1270.81 144.008 1270.41 145.133 1269.87 146.197C1269.09 147.099 1268.2 147.896 1267.21 148.569C1266.43 149.437 1265.52 150.189 1264.53 150.803C1263.4 151.282 1262.21 151.562 1260.99 151.629C1259.87 151.542 1258.77 151.247 1257.76 150.76C1256.67 150.517 1255.64 150.078 1254.71 149.466C1253.94 148.653 1253.3 147.715 1252.84 146.692C1252.27 145.776 1251.84 144.777 1251.58 143.73C1251.42 142.657 1251.41 141.568 1251.56 140.495C1251.58 139.351 1251.77 138.216 1252.11 137.126C1252.49 136.049 1253.02 135.031 1253.68 134.102C1254.34 133.116 1254.62 131.804 1255.5 131.048C1256.53 130.453 1257.64 130.015 1258.8 129.75C1259.83 129.114 1260.97 128.668 1262.16 128.432Z" fill="#CF79ED"/>
<path d="M1335.74 124.576C1336.86 124.441 1338 124.504 1339.11 124.763C1340.16 125.193 1341.12 125.818 1341.94 126.605C1342.7 127.372 1343.34 128.263 1343.8 129.241C1344.44 130.14 1344.94 131.137 1345.26 132.193C1345.41 133.289 1345.41 134.401 1345.26 135.498C1345.21 136.684 1345.01 137.86 1344.64 138.991C1344.39 140.152 1343.99 141.277 1343.45 142.341C1342.67 143.243 1341.78 144.04 1340.79 144.712C1340.01 145.581 1339.1 146.333 1338.11 146.947C1336.98 147.426 1335.79 147.706 1334.57 147.773C1333.45 147.686 1332.35 147.391 1331.34 146.904C1330.25 146.661 1329.22 146.222 1328.29 145.61C1327.52 144.797 1326.88 143.859 1326.42 142.836C1325.85 141.92 1325.42 140.921 1325.16 139.874C1325 138.801 1324.99 137.712 1325.14 136.639C1325.16 135.495 1325.35 134.36 1325.69 133.27C1326.07 132.193 1326.6 131.175 1327.26 130.246C1327.92 129.26 1328.2 127.948 1329.08 127.192C1330.11 126.597 1331.22 126.159 1332.38 125.894C1333.41 125.258 1334.55 124.812 1335.74 124.576Z" fill="#CF79ED"/>
<path d="M51.4396 255.651C52.5641 255.516 53.7037 255.579 54.8063 255.838C55.8575 256.268 56.8179 256.892 57.6368 257.679C58.404 258.446 59.0357 259.338 59.5053 260.315C60.1451 261.215 60.6355 262.212 60.9578 263.267C61.1111 264.364 61.1111 265.476 60.958 266.572C60.9131 267.759 60.707 268.934 60.3451 270.065C60.0859 271.226 59.6858 272.351 59.1536 273.415C58.3725 274.318 57.4779 275.115 56.492 275.787C55.7072 276.656 54.8028 277.408 53.806 278.022C52.6836 278.501 51.486 278.78 50.2673 278.847C49.1463 278.761 48.0511 278.466 47.0379 277.978C45.9531 277.735 44.9216 277.297 43.9939 276.684C43.217 275.872 42.5828 274.934 42.1181 273.91C41.5456 272.995 41.1195 271.995 40.8554 270.948C40.6983 269.876 40.6936 268.787 40.8416 267.713C40.8613 266.57 41.0467 265.435 41.3919 264.345C41.7705 263.268 42.2997 262.25 42.9637 261.321C43.6215 260.335 43.8988 259.022 44.7763 258.267C45.8073 257.671 46.9217 257.234 48.0825 256.969C49.114 256.333 50.2509 255.886 51.4396 255.651Z" fill="#CF79ED"/>
<path d="M125.019 251.795C126.143 251.66 127.283 251.723 128.385 251.982C129.437 252.412 130.397 253.036 131.216 253.823C131.983 254.59 132.615 255.481 133.084 256.459C133.724 257.359 134.215 258.356 134.537 259.411C134.69 260.508 134.69 261.62 134.537 262.716C134.492 263.903 134.286 265.078 133.924 266.209C133.665 267.37 133.265 268.495 132.733 269.559C131.952 270.462 131.057 271.259 130.071 271.931C129.286 272.8 128.382 273.552 127.385 274.166C126.263 274.645 125.065 274.924 123.846 274.991C122.725 274.905 121.63 274.61 120.617 274.122C119.532 273.879 118.501 273.441 117.573 272.828C116.796 272.016 116.162 271.078 115.697 270.054C115.125 269.139 114.699 268.139 114.434 267.092C114.277 266.02 114.273 264.931 114.421 263.857C114.44 262.714 114.626 261.579 114.971 260.489C115.349 259.412 115.879 258.393 116.543 257.465C117.201 256.479 117.478 255.166 118.355 254.411C119.386 253.815 120.501 253.378 121.662 253.113C122.693 252.477 123.83 252.03 125.019 251.795Z" fill="#CF79ED"/>
<path d="M198.598 247.939C199.722 247.803 200.862 247.867 201.964 248.126C203.016 248.555 203.976 249.18 204.795 249.967C205.562 250.734 206.194 251.625 206.663 252.603C207.303 253.503 207.794 254.5 208.116 255.555C208.269 256.652 208.269 257.764 208.116 258.86C208.071 260.047 207.865 261.222 207.503 262.353C207.244 263.514 206.844 264.639 206.312 265.703C205.531 266.605 204.636 267.403 203.65 268.075C202.865 268.943 201.961 269.696 200.964 270.309C199.842 270.789 198.644 271.068 197.425 271.135C196.304 271.049 195.209 270.754 194.196 270.266C193.111 270.023 192.08 269.585 191.152 268.972C190.375 268.16 189.741 267.222 189.276 266.198C188.704 265.283 188.278 264.283 188.013 263.236C187.856 262.164 187.852 261.075 188 260.001C188.019 258.858 188.205 257.723 188.55 256.633C188.928 255.555 189.458 254.537 190.122 253.609C190.78 252.622 191.057 251.31 191.934 250.555C192.965 249.959 194.08 249.522 195.241 249.257C196.272 248.621 197.409 248.174 198.598 247.939Z" fill="#CF79ED"/>
<path d="M272.177 244.083C273.301 243.947 274.441 244.011 275.543 244.27C276.595 244.699 277.555 245.324 278.374 246.111C279.141 246.878 279.773 247.769 280.242 248.747C280.882 249.647 281.373 250.643 281.695 251.699C281.848 252.795 281.848 253.908 281.695 255.004C281.65 256.191 281.444 257.366 281.082 258.497C280.823 259.658 280.423 260.783 279.891 261.847C279.11 262.749 278.215 263.546 277.229 264.219C276.444 265.087 275.54 265.84 274.543 266.453C273.421 266.933 272.223 267.212 271.004 267.279C269.883 267.192 268.788 266.898 267.775 266.41C266.69 266.167 265.659 265.729 264.731 265.116C263.954 264.304 263.32 263.366 262.855 262.342C262.283 261.426 261.857 260.427 261.592 259.38C261.435 258.308 261.431 257.219 261.579 256.145C261.598 255.001 261.784 253.867 262.129 252.776C262.507 251.699 263.037 250.681 263.701 249.752C264.359 248.766 264.636 247.454 265.513 246.699C266.544 246.103 267.659 245.665 268.82 245.4C269.851 244.764 270.988 244.318 272.177 244.083Z" fill="#CF79ED"/>
<path d="M345.756 240.226C346.88 240.091 348.02 240.155 349.122 240.413C350.174 240.843 351.134 241.468 351.953 242.255C352.72 243.022 353.352 243.913 353.821 244.891C354.461 245.791 354.952 246.787 355.274 247.843C355.427 248.939 355.427 250.052 355.274 251.148C355.229 252.335 355.023 253.51 354.661 254.641C354.402 255.802 354.002 256.927 353.47 257.991C352.689 258.893 351.794 259.69 350.808 260.363C350.023 261.231 349.119 261.984 348.122 262.597C347 263.077 345.802 263.356 344.583 263.423C343.462 263.336 342.367 263.042 341.354 262.554C340.269 262.311 339.238 261.872 338.31 261.26C337.533 260.447 336.899 259.51 336.434 258.486C335.862 257.57 335.436 256.571 335.171 255.524C335.014 254.452 335.01 253.362 335.158 252.289C335.177 251.145 335.363 250.011 335.708 248.92C336.087 247.843 336.616 246.825 337.28 245.896C337.938 244.91 338.215 243.598 339.092 242.842C340.123 242.247 341.238 241.809 342.399 241.544C343.43 240.908 344.567 240.462 345.756 240.226Z" fill="#CF79ED"/>
<path d="M419.335 236.37C420.459 236.235 421.599 236.298 422.701 236.557C423.753 236.987 424.713 237.612 425.532 238.399C426.299 239.166 426.931 240.057 427.4 241.035C428.04 241.934 428.531 242.931 428.853 243.987C429.006 245.083 429.006 246.196 428.853 247.292C428.808 248.479 428.602 249.654 428.24 250.785C427.981 251.946 427.581 253.071 427.049 254.135C426.268 255.037 425.373 255.834 424.387 256.507C423.602 257.375 422.698 258.127 421.701 258.741C420.579 259.22 419.381 259.5 418.162 259.567C417.041 259.48 415.946 259.186 414.933 258.698C413.848 258.455 412.817 258.016 411.889 257.404C411.112 256.591 410.478 255.653 410.013 254.63C409.441 253.714 409.015 252.715 408.75 251.668C408.593 250.595 408.589 249.506 408.737 248.433C408.756 247.289 408.942 246.155 409.287 245.064C409.666 243.987 410.195 242.969 410.859 242.04C411.517 241.054 411.794 239.742 412.671 238.986C413.702 238.391 414.817 237.953 415.978 237.688C417.009 237.052 418.146 236.606 419.335 236.37Z" fill="#CF79ED"/>
<path d="M492.914 232.514C494.038 232.379 495.178 232.442 496.28 232.701C497.332 233.131 498.292 233.756 499.111 234.543C499.878 235.31 500.51 236.201 500.979 237.179C501.619 238.078 502.11 239.075 502.432 240.131C502.585 241.227 502.585 242.339 502.432 243.436C502.387 244.622 502.181 245.798 501.819 246.929C501.56 248.09 501.16 249.215 500.628 250.279C499.847 251.181 498.952 251.978 497.966 252.65C497.181 253.519 496.277 254.271 495.28 254.885C494.158 255.364 492.96 255.644 491.741 255.711C490.62 255.624 489.525 255.329 488.512 254.842C487.427 254.599 486.396 254.16 485.468 253.548C484.691 252.735 484.057 251.797 483.592 250.774C483.02 249.858 482.594 248.859 482.329 247.812C482.172 246.739 482.168 245.65 482.316 244.577C482.335 243.433 482.521 242.298 482.866 241.208C483.245 240.131 483.774 239.113 484.438 238.184C485.096 237.198 485.373 235.886 486.25 235.13C487.281 234.535 488.396 234.097 489.557 233.832C490.588 233.196 491.725 232.75 492.914 232.514Z" fill="#CF79ED"/>
<path d="M566.493 228.658C567.617 228.523 568.757 228.586 569.859 228.845C570.911 229.275 571.871 229.9 572.69 230.687C573.457 231.453 574.089 232.345 574.558 233.323C575.198 234.222 575.689 235.219 576.011 236.275C576.164 237.371 576.164 238.483 576.011 239.58C575.966 240.766 575.76 241.941 575.398 243.073C575.139 244.234 574.739 245.359 574.207 246.423C573.426 247.325 572.531 248.122 571.545 248.794C570.76 249.663 569.856 250.415 568.859 251.029C567.737 251.508 566.539 251.788 565.32 251.855C564.199 251.768 563.104 251.473 562.091 250.986C561.006 250.743 559.975 250.304 559.047 249.692C558.27 248.879 557.636 247.941 557.171 246.918C556.599 246.002 556.173 245.003 555.909 243.956C555.751 242.883 555.747 241.794 555.895 240.721C555.914 239.577 556.1 238.442 556.445 237.352C556.824 236.275 557.353 235.257 558.017 234.328C558.675 233.342 558.952 232.03 559.829 231.274C560.86 230.679 561.975 230.241 563.136 229.976C564.167 229.34 565.304 228.894 566.493 228.658Z" fill="#CF79ED"/>
<path d="M640.072 224.802C641.196 224.667 642.336 224.73 643.438 224.989C644.49 225.419 645.45 226.044 646.269 226.83C647.036 227.597 647.668 228.489 648.137 229.467C648.777 230.366 649.268 231.363 649.59 232.419C649.743 233.515 649.743 234.627 649.59 235.724C649.545 236.91 649.339 238.085 648.977 239.216C648.718 240.377 648.318 241.503 647.786 242.567C647.005 243.469 646.11 244.266 645.124 244.938C644.339 245.807 643.435 246.559 642.438 247.173C641.316 247.652 640.118 247.932 638.899 247.998C637.778 247.912 636.683 247.617 635.67 247.13C634.585 246.887 633.554 246.448 632.626 245.836C631.849 245.023 631.215 244.085 630.75 243.061C630.178 242.146 629.752 241.147 629.487 240.099C629.33 239.027 629.326 237.938 629.474 236.864C629.493 235.721 629.679 234.586 630.024 233.496C630.403 232.419 630.932 231.401 631.596 230.472C632.254 229.486 632.531 228.173 633.408 227.418C634.439 226.822 635.554 226.385 636.715 226.12C637.746 225.484 638.883 225.038 640.072 224.802Z" fill="#CF79ED"/>
<path d="M713.651 220.946C714.775 220.811 715.915 220.874 717.017 221.133C718.069 221.563 719.029 222.187 719.848 222.974C720.615 223.741 721.247 224.633 721.716 225.61C722.356 226.51 722.847 227.507 723.169 228.562C723.322 229.659 723.322 230.771 723.169 231.867C723.124 233.054 722.918 234.229 722.556 235.36C722.297 236.521 721.897 237.646 721.365 238.71C720.584 239.613 719.689 240.41 718.703 241.082C717.918 241.951 717.014 242.703 716.017 243.317C714.895 243.796 713.697 244.075 712.478 244.142C711.357 244.056 710.262 243.761 709.249 243.273C708.164 243.03 707.133 242.592 706.205 241.979C705.428 241.167 704.794 240.229 704.329 239.205C703.757 238.29 703.331 237.29 703.067 236.243C702.909 235.171 702.905 234.082 703.053 233.008C703.072 231.865 703.258 230.73 703.603 229.64C703.982 228.563 704.511 227.545 705.175 226.616C705.833 225.63 706.11 224.317 706.987 223.562C708.018 222.966 709.133 222.529 710.294 222.264C711.325 221.628 712.462 221.181 713.651 220.946Z" fill="#CF79ED"/>
<path d="M787.23 217.09C788.354 216.955 789.494 217.018 790.596 217.277C791.648 217.707 792.608 218.331 793.427 219.118C794.194 219.885 794.826 220.776 795.295 221.754C795.935 222.654 796.426 223.651 796.748 224.706C796.901 225.803 796.901 226.915 796.748 228.011C796.703 229.198 796.497 230.373 796.135 231.504C795.876 232.665 795.476 233.79 794.944 234.854C794.163 235.756 793.268 236.554 792.282 237.226C791.497 238.094 790.593 238.847 789.596 239.461C788.474 239.94 787.276 240.219 786.057 240.286C784.936 240.2 783.841 239.905 782.828 239.417C781.743 239.174 780.712 238.736 779.784 238.123C779.007 237.311 778.373 236.373 777.908 235.349C777.336 234.434 776.91 233.434 776.646 232.387C776.488 231.315 776.484 230.226 776.632 229.152C776.651 228.009 776.837 226.874 777.182 225.784C777.561 224.706 778.09 223.688 778.754 222.76C779.412 221.774 779.689 220.461 780.566 219.706C781.597 219.11 782.712 218.673 783.873 218.408C784.904 217.772 786.041 217.325 787.23 217.09Z" fill="#CF79ED"/>
<path d="M860.809 213.234C861.933 213.098 863.073 213.162 864.175 213.421C865.227 213.85 866.187 214.475 867.006 215.262C867.773 216.029 868.405 216.92 868.874 217.898C869.514 218.798 870.005 219.795 870.327 220.85C870.48 221.947 870.48 223.059 870.327 224.155C870.282 225.342 870.076 226.517 869.714 227.648C869.455 228.809 869.055 229.934 868.523 230.998C867.742 231.9 866.847 232.698 865.861 233.37C865.076 234.238 864.172 234.991 863.175 235.604C862.053 236.084 860.855 236.363 859.636 236.43C858.515 236.343 857.42 236.049 856.407 235.561C855.322 235.318 854.291 234.88 853.363 234.267C852.586 233.455 851.952 232.517 851.487 231.493C850.915 230.578 850.489 229.578 850.225 228.531C850.067 227.459 850.063 226.37 850.211 225.296C850.23 224.153 850.416 223.018 850.761 221.928C851.14 220.85 851.669 219.832 852.333 218.904C852.991 217.917 853.268 216.605 854.145 215.85C855.176 215.254 856.291 214.816 857.452 214.552C858.483 213.916 859.62 213.469 860.809 213.234Z" fill="#CF79ED"/>
<path d="M934.388 209.378C935.512 209.242 936.652 209.306 937.754 209.564C938.806 209.994 939.766 210.619 940.585 211.406C941.352 212.173 941.984 213.064 942.453 214.042C943.093 214.942 943.584 215.938 943.906 216.994C944.059 218.09 944.059 219.203 943.906 220.299C943.861 221.486 943.655 222.661 943.293 223.792C943.034 224.953 942.634 226.078 942.102 227.142C941.321 228.044 940.426 228.841 939.44 229.514C938.655 230.382 937.751 231.135 936.754 231.748C935.632 232.228 934.434 232.507 933.215 232.574C932.094 232.487 930.999 232.193 929.986 231.705C928.901 231.462 927.87 231.024 926.942 230.411C926.165 229.599 925.531 228.661 925.066 227.637C924.494 226.721 924.068 225.722 923.804 224.675C923.646 223.603 923.642 222.514 923.79 221.44C923.809 220.296 923.995 219.162 924.34 218.071C924.719 216.994 925.248 215.976 925.912 215.047C926.57 214.061 926.847 212.749 927.724 211.994C928.755 211.398 929.87 210.96 931.031 210.695C932.062 210.059 933.199 209.613 934.388 209.378Z" fill="#CF79ED"/>
<path d="M1007.97 205.521C1009.09 205.386 1010.23 205.45 1011.33 205.708C1012.38 206.138 1013.34 206.763 1014.16 207.55C1014.93 208.317 1015.56 209.208 1016.03 210.186C1016.67 211.086 1017.16 212.082 1017.48 213.138C1017.64 214.234 1017.64 215.347 1017.49 216.443C1017.44 217.63 1017.23 218.805 1016.87 219.936C1016.61 221.097 1016.21 222.222 1015.68 223.286C1014.9 224.188 1014 224.985 1013.02 225.658C1012.23 226.526 1011.33 227.279 1010.33 227.892C1009.21 228.372 1008.01 228.651 1006.79 228.718C1005.67 228.631 1004.58 228.337 1003.57 227.849C1002.48 227.606 1001.45 227.167 1000.52 226.555C999.744 225.742 999.11 224.805 998.645 223.781C998.073 222.865 997.647 221.866 997.383 220.819C997.225 219.747 997.221 218.657 997.369 217.584C997.388 216.44 997.574 215.306 997.919 214.215C998.298 213.138 998.827 212.12 999.491 211.191C1000.15 210.205 1000.43 208.893 1001.3 208.137C1002.33 207.542 1003.45 207.104 1004.61 206.839C1005.64 206.203 1006.78 205.757 1007.97 205.521Z" fill="#CF79ED"/>
<path d="M1081.55 201.665C1082.67 201.53 1083.81 201.593 1084.91 201.852C1085.96 202.282 1086.92 202.907 1087.74 203.694C1088.51 204.461 1089.14 205.352 1089.61 206.33C1090.25 207.229 1090.74 208.226 1091.06 209.282C1091.22 210.378 1091.22 211.491 1091.06 212.587C1091.02 213.774 1090.81 214.949 1090.45 216.08C1090.19 217.241 1089.79 218.366 1089.26 219.43C1088.48 220.332 1087.58 221.129 1086.6 221.802C1085.81 222.67 1084.91 223.422 1083.91 224.036C1082.79 224.515 1081.59 224.795 1080.37 224.862C1079.25 224.775 1078.16 224.481 1077.14 223.993C1076.06 223.75 1075.03 223.311 1074.1 222.699C1073.32 221.886 1072.69 220.948 1072.22 219.925C1071.65 219.009 1071.23 218.01 1070.96 216.963C1070.8 215.89 1070.8 214.801 1070.95 213.728C1070.97 212.584 1071.15 211.45 1071.5 210.359C1071.88 209.282 1072.41 208.264 1073.07 207.335C1073.73 206.349 1074 205.037 1074.88 204.281C1075.91 203.686 1077.03 203.248 1078.19 202.983C1079.22 202.347 1080.36 201.901 1081.55 201.665Z" fill="#CF79ED"/>
<path d="M1155.12 197.809C1156.25 197.674 1157.39 197.737 1158.49 197.996C1159.54 198.426 1160.5 199.051 1161.32 199.838C1162.09 200.605 1162.72 201.496 1163.19 202.474C1163.83 203.373 1164.32 204.37 1164.64 205.426C1164.8 206.522 1164.8 207.634 1164.64 208.731C1164.6 209.917 1164.39 211.093 1164.03 212.224C1163.77 213.385 1163.37 214.51 1162.84 215.574C1162.06 216.476 1161.16 217.273 1160.18 217.945C1159.39 218.814 1158.49 219.566 1157.49 220.18C1156.37 220.659 1155.17 220.939 1153.95 221.006C1152.83 220.919 1151.74 220.624 1150.72 220.137C1149.64 219.894 1148.61 219.455 1147.68 218.843C1146.9 218.03 1146.27 217.092 1145.8 216.069C1145.23 215.153 1144.8 214.154 1144.54 213.107C1144.38 212.034 1144.38 210.945 1144.53 209.872C1144.55 208.728 1144.73 207.593 1145.08 206.503C1145.46 205.426 1145.98 204.408 1146.65 203.479C1147.31 202.493 1147.58 201.181 1148.46 200.425C1149.49 199.83 1150.61 199.392 1151.77 199.127C1152.8 198.491 1153.94 198.045 1155.12 197.809Z" fill="#CF79ED"/>
<path d="M1228.7 193.953C1229.83 193.818 1230.97 193.881 1232.07 194.14C1233.12 194.57 1234.08 195.195 1234.9 195.982C1235.67 196.748 1236.3 197.64 1236.77 198.618C1237.41 199.517 1237.9 200.514 1238.22 201.57C1238.38 202.666 1238.38 203.778 1238.22 204.875C1238.18 206.061 1237.97 207.236 1237.61 208.368C1237.35 209.529 1236.95 210.654 1236.42 211.718C1235.64 212.62 1234.74 213.417 1233.76 214.089C1232.97 214.958 1232.07 215.71 1231.07 216.324C1229.95 216.803 1228.75 217.083 1227.53 217.15C1226.41 217.063 1225.32 216.768 1224.3 216.281C1223.22 216.038 1222.19 215.599 1221.26 214.987C1220.48 214.174 1219.85 213.236 1219.38 212.213C1218.81 211.297 1218.38 210.298 1218.12 209.251C1217.96 208.178 1217.96 207.089 1218.11 206.016C1218.13 204.872 1218.31 203.737 1218.66 202.647C1219.03 201.57 1219.56 200.552 1220.23 199.623C1220.89 198.637 1221.16 197.325 1222.04 196.569C1223.07 195.974 1224.19 195.536 1225.35 195.271C1226.38 194.635 1227.51 194.189 1228.7 193.953Z" fill="#CF79ED"/>
<path d="M1302.28 190.097C1303.41 189.962 1304.55 190.025 1305.65 190.284C1306.7 190.714 1307.66 191.339 1308.48 192.125C1309.25 192.892 1309.88 193.784 1310.35 194.762C1310.99 195.661 1311.48 196.658 1311.8 197.714C1311.95 198.81 1311.95 199.922 1311.8 201.019C1311.76 202.205 1311.55 203.38 1311.19 204.511C1310.93 205.672 1310.53 206.798 1310 207.862C1309.22 208.764 1308.32 209.561 1307.33 210.233C1306.55 211.102 1305.65 211.854 1304.65 212.468C1303.53 212.947 1302.33 213.227 1301.11 213.293C1299.99 213.207 1298.89 212.912 1297.88 212.425C1296.8 212.182 1295.76 211.743 1294.84 211.13C1294.06 210.318 1293.43 209.38 1292.96 208.356C1292.39 207.441 1291.96 206.442 1291.7 205.394C1291.54 204.322 1291.54 203.233 1291.68 202.159C1291.7 201.016 1291.89 199.881 1292.23 198.791C1292.61 197.714 1293.14 196.696 1293.81 195.767C1294.46 194.781 1294.74 193.468 1295.62 192.713C1296.65 192.117 1297.76 191.68 1298.93 191.415C1299.96 190.779 1301.09 190.333 1302.28 190.097Z" fill="#CF79ED"/>
</svg>
