<svg width="18" height="18" viewBox="0 0 18 18" fill="none" xmlns="http://www.w3.org/2000/svg">
<g id="Frame">
<path id="Vector" d="M14.9915 8.6787C14.9272 7.45885 14.4985 6.33559 13.8122 5.41573C13.6312 5.61305 13.4089 5.82735 13.1218 6.06869C12.4411 6.64093 11.6165 7.1573 10.6376 7.57575C10.7624 7.83795 10.8772 8.09243 10.9782 8.33235L10.9791 8.33438C10.9989 8.38065 11.0159 8.42295 11.0491 8.50635C11.0534 8.51715 11.0575 8.52727 11.0614 8.53687C12.1966 8.40915 13.3932 8.45617 14.5537 8.61337C14.7079 8.63422 14.8538 8.65613 14.9915 8.6787ZM7.9533 3.09098C8.08372 3.27466 8.22015 3.47144 8.38522 3.71534C8.84468 4.39418 9.297 5.11043 9.7203 5.8463C9.80617 5.99562 9.89025 6.14467 9.9723 6.29334C10.8895 5.93245 11.6472 5.47711 12.2578 4.96864C12.5048 4.76297 12.7037 4.56975 12.8552 4.40229C11.8126 3.52708 10.4678 3 9 3C8.643 3 8.2932 3.03119 7.9533 3.09098ZM3.18949 7.49816C3.62359 7.48839 4.1135 7.46206 4.71977 7.40639C5.92518 7.29569 7.15606 7.09687 8.36617 6.78956C7.92892 6.02791 7.45416 5.26748 6.97089 4.54034C6.73859 4.19081 6.51268 3.86244 6.34113 3.61981C4.79656 4.3846 3.62845 5.79493 3.18949 7.49816ZM4.33774 12.777C4.62833 12.352 5.01046 11.8735 5.51848 11.3531C6.60899 10.2358 7.89645 9.36585 9.38542 8.88547C9.40627 8.87932 9.4203 8.8752 9.432 8.87175C9.30825 8.59883 9.19215 8.35537 9.07522 8.12565C7.69823 8.52653 6.24773 8.77725 4.80209 8.90715C4.09739 8.97045 3.46504 8.99858 3 9.0033C3.00076 10.4334 3.50186 11.7465 4.33774 12.777ZM11.2534 14.5624C11.1751 14.1559 11.0752 13.7029 10.9424 13.1805C10.7017 12.2334 10.4001 11.259 10.0297 10.2808C8.5284 10.8257 7.3318 11.623 6.40732 12.5737C5.96178 13.0318 5.63433 13.4653 5.41982 13.8152C6.41919 14.5595 7.65817 15 9 15C9.79695 15 10.5577 14.8446 11.2534 14.5624ZM12.6583 13.7561C13.8055 12.8724 14.6239 11.583 14.8989 10.1027C14.644 10.0399 14.3205 9.97538 13.9647 9.92595C13.1817 9.81728 12.376 9.79913 11.5807 9.90135C11.92 10.8573 12.1982 11.7999 12.4206 12.7021C12.5177 13.0961 12.5969 13.4518 12.6583 13.7561ZM9 16.5C4.85786 16.5 1.5 13.1421 1.5 9C1.5 4.85786 4.85786 1.5 9 1.5C13.1421 1.5 16.5 4.85786 16.5 9C16.5 13.1421 13.1421 16.5 9 16.5Z" fill="#52645E"/>
</g>
</svg>
