<svg width="18" height="18" viewBox="0 0 18 18" fill="none" xmlns="http://www.w3.org/2000/svg">
<path d="M9.00075 6.75C7.7577 6.75 6.75073 7.75732 6.75073 9C6.75073 10.243 7.75807 11.25 9.00075 11.25C10.2437 11.25 11.2507 10.2427 11.2507 9C11.2507 7.75702 10.2434 6.75 9.00075 6.75ZM9.00075 5.25C11.071 5.25 12.7507 6.92782 12.7507 9C12.7507 11.0704 11.0729 12.75 9.00075 12.75C6.93038 12.75 5.25073 11.0722 5.25073 9C5.25073 6.92965 6.92856 5.25 9.00075 5.25ZM13.8757 5.06186C13.8757 5.57944 13.4551 5.99938 12.9382 5.99938C12.4207 5.99938 12.0007 5.5788 12.0007 5.06186C12.0007 4.54492 12.4213 4.125 12.9382 4.125C13.4545 4.12435 13.8757 4.54492 13.8757 5.06186ZM9.00075 3C7.14487 3 6.84238 3.00491 5.9792 3.04335C5.39111 3.07096 4.9969 3.15005 4.63062 3.29225C4.30512 3.41849 4.07032 3.56923 3.82014 3.81941C3.569 4.07055 3.41853 4.30472 3.2928 4.63037C3.15027 4.99749 3.0712 5.39108 3.04408 5.97836C3.00527 6.8064 3.00073 7.09579 3.00073 9C3.00073 10.8559 3.00565 11.1583 3.04408 12.0215C3.0717 12.6093 3.1509 13.0041 3.29275 13.3695C3.41932 13.6954 3.57037 13.9308 3.81934 14.1798C4.07147 14.4316 4.30634 14.5825 4.6289 14.707C4.99964 14.8504 5.39361 14.9296 5.97909 14.9566C6.80713 14.9954 7.09652 15 9.00075 15C10.8566 15 11.1591 14.995 12.0222 14.9566C12.6088 14.9291 13.0039 14.8497 13.3702 14.7079C13.6953 14.5817 13.9314 14.4301 14.1805 14.1814C14.4327 13.9288 14.5834 13.6945 14.708 13.3712C14.851 13.0018 14.9303 12.6073 14.9574 12.0217C14.9962 11.1936 15.0007 10.9042 15.0007 9C15.0007 7.14414 14.9958 6.84166 14.9574 5.97853C14.9298 5.39179 14.8504 4.99612 14.7085 4.62988C14.5825 4.30528 14.4313 4.06976 14.1813 3.81941C13.9297 3.56786 13.6962 3.4177 13.3703 3.29206C13.0035 3.14965 12.6093 3.07047 12.0223 3.04336C11.1943 3.00454 10.9049 3 9.00075 3ZM9.00075 1.5C11.0382 1.5 11.2926 1.5075 12.0926 1.545C12.8907 1.58188 13.4351 1.70813 13.9132 1.89375C14.4076 2.08438 14.8251 2.34187 15.2419 2.75875C15.6582 3.17563 15.9157 3.59437 16.107 4.0875C16.2919 4.565 16.4182 5.11 16.4557 5.90812C16.4914 6.70813 16.5007 6.9625 16.5007 9C16.5007 11.0375 16.4932 11.2918 16.4557 12.0919C16.4188 12.89 16.2919 13.4344 16.107 13.9125C15.9163 14.4069 15.6582 14.8243 15.2419 15.2413C14.8251 15.6575 14.4057 15.915 13.9132 16.1062C13.4351 16.2913 12.8907 16.4175 12.0926 16.455C11.2926 16.4906 11.0382 16.5 9.00075 16.5C6.96323 16.5 6.70885 16.4925 5.90886 16.455C5.11073 16.4181 4.56698 16.2913 4.08823 16.1062C3.59448 15.9156 3.17635 15.6575 2.75948 15.2413C2.34261 14.8243 2.08573 14.405 1.89448 13.9125C1.70886 13.4344 1.58323 12.89 1.54573 12.0919C1.51011 11.2918 1.50073 11.0375 1.50073 9C1.50073 6.9625 1.50823 6.70813 1.54573 5.90812C1.5826 5.10937 1.70886 4.56562 1.89448 4.0875C2.0851 3.59375 2.34261 3.17563 2.75948 2.75875C3.17635 2.34187 3.59511 2.085 4.08823 1.89375C4.56636 1.70813 5.11011 1.5825 5.90886 1.545C6.70885 1.50937 6.96323 1.5 9.00075 1.5Z" fill="#52645E"/>
</svg>
