<svg width="18" height="18" viewBox="0 0 18 18" fill="none" xmlns="http://www.w3.org/2000/svg">
<g id="Frame">
<path id="Vector" d="M13.7524 13.7543H11.7533V10.6216C11.7533 9.87465 11.7381 8.91337 10.7115 8.91337C9.66924 8.91337 9.51002 9.72623 9.51002 10.5665V13.7543H7.51089V7.3125H9.43127V8.19053H9.45714C9.72549 7.68428 10.378 7.14994 11.3528 7.14994C13.3784 7.14994 13.753 8.4831 13.753 10.2184L13.7524 13.7543ZM5.25304 6.43106C4.60954 6.43106 4.0926 5.91019 4.0926 5.2695C4.0926 4.62937 4.6101 4.10906 5.25304 4.10906C5.89429 4.10906 6.41404 4.62937 6.41404 5.2695C6.41404 5.91019 5.89373 6.43106 5.25304 6.43106ZM6.25541 13.7543H4.25066V7.3125H6.25541V13.7543ZM14.7525 2.25H3.24716C2.69648 2.25 2.25098 2.68538 2.25098 3.22256V14.7775C2.25098 15.3152 2.69648 15.75 3.24716 15.75H14.7509C15.301 15.75 15.751 15.3152 15.751 14.7775V3.22256C15.751 2.68538 15.301 2.25 14.7509 2.25H14.7525Z" fill="#52645E"/>
</g>
</svg>
