<svg width="374" height="260" viewBox="0 0 374 260" fill="none" xmlns="http://www.w3.org/2000/svg">
<path d="M24.7034 -0.0284405C25.4843 -0.122328 26.2756 -0.078363 27.0414 0.101402C27.7714 0.3999 28.4383 0.833782 29.007 1.38024C29.5398 1.91281 29.9785 2.53178 30.3046 3.21086C30.7488 3.83552 31.0894 4.52775 31.3132 5.26088C31.4197 6.02222 31.4197 6.79463 31.3133 7.55599C31.2822 8.38009 31.139 9.19612 30.8877 9.98159C30.7077 10.7879 30.4299 11.5692 30.0603 12.3081C29.5179 12.9346 28.8966 13.4881 28.212 13.9551C27.667 14.5582 27.0389 15.0807 26.3467 15.5068C25.5672 15.8397 24.7356 16.0338 23.8893 16.0802C23.1108 16.0201 22.3503 15.8155 21.6467 15.4768C20.8933 15.3081 20.177 15.0035 19.5327 14.5782C18.9932 14.0139 18.5528 13.3626 18.2301 12.6517C17.8325 12.0159 17.5366 11.3219 17.3533 10.5948C17.2441 9.85016 17.2409 9.09381 17.3437 8.34825C17.3574 7.55415 17.4861 6.76616 17.7258 6.00898C17.9887 5.26097 18.3562 4.55401 18.8174 3.90903C19.2742 3.22418 19.4667 2.31283 20.0761 1.78822C20.792 1.37464 21.566 1.07077 22.3721 0.886793C23.0884 0.445127 23.8779 0.135188 24.7034 -0.0284405Z" fill="#CF79ED"/>
<path d="M76.6321 -2.74991C77.413 -2.84379 78.2044 -2.79983 78.9701 -2.62006C79.7001 -2.32157 80.367 -1.88768 80.9357 -1.34123C81.4685 -0.808656 81.9072 -0.189685 82.2333 0.489392C82.6775 1.11405 83.0181 1.80628 83.242 2.53941C83.3484 3.30075 83.3484 4.07317 83.2421 4.83452C83.2109 5.65862 83.0678 6.47465 82.8164 7.26012C82.6364 8.06642 82.3586 8.84774 81.9891 9.58664C81.4466 10.2131 80.8253 10.7667 80.1407 11.2336C79.5957 11.8367 78.9676 12.3592 78.2754 12.7854C77.4959 13.1183 76.6643 13.3123 75.818 13.3588C75.0395 13.2986 74.279 13.094 73.5754 12.7553C72.822 12.5866 72.1057 12.2821 71.4615 11.8567C70.9219 11.2924 70.4815 10.6412 70.1588 9.93028C69.7612 9.29448 69.4654 8.60047 69.282 7.87335C69.1729 7.12869 69.1696 6.37234 69.2724 5.62678C69.2861 4.83268 69.4148 4.04469 69.6545 3.28751C69.9174 2.5395 70.2849 1.83254 70.7461 1.18756C71.2029 0.502718 71.3954 -0.408635 72.0048 -0.933246C72.7207 -1.34682 73.4947 -1.6507 74.3008 -1.83467C75.0171 -2.27634 75.8066 -2.58628 76.6321 -2.74991Z" fill="#CF79ED"/>
<path d="M128.561 -5.47137C129.342 -5.56526 130.133 -5.5213 130.899 -5.34153C131.629 -5.04303 132.296 -4.60915 132.864 -4.06269C133.397 -3.53012 133.836 -2.91115 134.162 -2.23207C134.606 -1.60742 134.947 -0.915185 135.171 -0.182055C135.277 0.579287 135.277 1.3517 135.171 2.11305C135.14 2.93716 134.996 3.75319 134.745 4.53865C134.565 5.34496 134.287 6.12628 133.918 6.86517C133.375 7.49164 132.754 8.04522 132.069 8.51214C131.524 9.11526 130.896 9.63777 130.204 10.0639C129.425 10.3968 128.593 10.5908 127.747 10.6373C126.968 10.5771 126.208 10.3725 125.504 10.0339C124.751 9.86513 124.034 9.5606 123.39 9.13525C122.851 8.57098 122.41 7.9197 122.088 7.20881C121.69 6.57302 121.394 5.87901 121.211 5.15188C121.102 4.40722 121.098 3.65088 121.201 2.90531C121.215 2.11121 121.343 1.32323 121.583 0.566045C121.846 -0.181967 122.214 -0.888927 122.675 -1.5339C123.132 -2.21875 123.324 -3.1301 123.934 -3.65471C124.649 -4.06829 125.423 -4.37216 126.229 -4.55614C126.946 -4.99781 127.735 -5.30774 128.561 -5.47137Z" fill="#CF79ED"/>
<path d="M180.49 -8.19284C181.27 -8.28673 182.062 -8.24276 182.828 -8.063C183.558 -7.7645 184.224 -7.33062 184.793 -6.78416C185.326 -6.25159 185.765 -5.63262 186.091 -4.95354C186.535 -4.32888 186.876 -3.63665 187.099 -2.90352C187.206 -2.14218 187.206 -1.36977 187.099 -0.608413C187.068 0.215693 186.925 1.03172 186.674 1.81719C186.494 2.62349 186.216 3.40481 185.846 4.14371C185.304 4.77018 184.683 5.32375 183.998 5.79067C183.453 6.39379 182.825 6.9163 182.133 7.34245C181.353 7.67532 180.522 7.86937 179.675 7.91584C178.897 7.85568 178.136 7.65107 177.433 7.31241C176.679 7.14366 175.963 6.83913 175.319 6.41378C174.779 5.84951 174.339 5.19823 174.016 4.48735C173.619 3.85155 173.323 3.15754 173.139 2.43042C173.03 1.68576 173.027 0.929412 173.13 0.183848C173.143 -0.610251 173.272 -1.39824 173.512 -2.15542C173.775 -2.90343 174.142 -3.61039 174.604 -4.25537C175.06 -4.94021 175.253 -5.85157 175.862 -6.37618C176.578 -6.78975 177.352 -7.09363 178.158 -7.27761C178.874 -7.71927 179.664 -8.02921 180.49 -8.19284Z" fill="#CF79ED"/>
<path d="M232.418 -10.9143C233.199 -11.0082 233.991 -10.9642 234.756 -10.7845C235.486 -10.486 236.153 -10.0521 236.722 -9.50563C237.255 -8.97305 237.693 -8.35408 238.02 -7.67501C238.464 -7.05035 238.804 -6.35812 239.028 -5.62499C239.135 -4.86364 239.135 -4.09123 239.028 -3.32988C238.997 -2.50577 238.854 -1.68974 238.603 -0.904279C238.423 -0.0979742 238.145 0.683344 237.775 1.42224C237.233 2.04871 236.612 2.60228 235.927 3.0692C235.382 3.67232 234.754 4.19484 234.062 4.62098C233.282 4.95385 232.451 5.1479 231.604 5.19437C230.826 5.13421 230.065 4.9296 229.362 4.59094C228.608 4.42219 227.892 4.11766 227.248 3.69231C226.708 3.12804 226.268 2.47677 225.945 1.76588C225.547 1.13008 225.252 0.436074 225.068 -0.291047C224.959 -1.03571 224.956 -1.79205 225.059 -2.53762C225.072 -3.33172 225.201 -4.11971 225.441 -4.87689C225.704 -5.6249 226.071 -6.33186 226.532 -6.97684C226.989 -7.66168 227.182 -8.57303 227.791 -9.09764C228.507 -9.51122 229.281 -9.8151 230.087 -9.99907C230.803 -10.4407 231.593 -10.7507 232.418 -10.9143Z" fill="#CF79ED"/>
<path d="M284.347 -13.6358C285.128 -13.7297 285.919 -13.6857 286.685 -13.5059C287.415 -13.2074 288.082 -12.7735 288.651 -12.2271C289.183 -11.6945 289.622 -11.0755 289.948 -10.3965C290.393 -9.77181 290.733 -9.07958 290.957 -8.34645C291.063 -7.58511 291.063 -6.8127 290.957 -6.05135C290.926 -5.22724 290.783 -4.41121 290.531 -3.62575C290.351 -2.81944 290.074 -2.03812 289.704 -1.29923C289.162 -0.672755 288.54 -0.119183 287.856 0.347738C287.311 0.950857 286.683 1.47337 285.99 1.89952C285.211 2.23239 284.379 2.42643 283.533 2.4729C282.754 2.41275 281.994 2.20813 281.29 1.86948C280.537 1.70073 279.821 1.3962 279.176 0.970849C278.637 0.406578 278.196 -0.244698 277.874 -0.955587C277.476 -1.59138 277.18 -2.28539 276.997 -3.01251C276.888 -3.75717 276.885 -4.51352 276.987 -5.25908C277.001 -6.05318 277.13 -6.84117 277.369 -7.59835C277.632 -8.34636 278 -9.05333 278.461 -9.6983C278.918 -10.3831 279.11 -11.2945 279.72 -11.8191C280.436 -12.2327 281.21 -12.5366 282.016 -12.7205C282.732 -13.1622 283.522 -13.4721 284.347 -13.6358Z" fill="#CF79ED"/>
<path d="M336.276 -16.3572C337.057 -16.4511 337.848 -16.4072 338.614 -16.2274C339.344 -15.9289 340.011 -15.495 340.579 -14.9486C341.112 -14.416 341.551 -13.797 341.877 -13.1179C342.321 -12.4933 342.662 -11.801 342.886 -11.0679C342.992 -10.3066 342.992 -9.53416 342.886 -8.77281C342.855 -7.94871 342.711 -7.13268 342.46 -6.34721C342.28 -5.54091 342.002 -4.75959 341.633 -4.02069C341.09 -3.39422 340.469 -2.84065 339.784 -2.37373C339.239 -1.77061 338.611 -1.24809 337.919 -0.821951C337.14 -0.489078 336.308 -0.295032 335.462 -0.248562C334.683 -0.308721 333.923 -0.513333 333.219 -0.851989C332.466 -1.02074 331.749 -1.32527 331.105 -1.75062C330.566 -2.31489 330.125 -2.96616 329.803 -3.67705C329.405 -4.31285 329.109 -5.00686 328.926 -5.73398C328.817 -6.47864 328.813 -7.23499 328.916 -7.98055C328.93 -8.77465 329.058 -9.56264 329.298 -10.3198C329.561 -11.0678 329.929 -11.7748 330.39 -12.4198C330.847 -13.1046 331.039 -14.016 331.648 -14.5406C332.364 -14.9542 333.138 -15.258 333.944 -15.442C334.661 -15.8837 335.45 -16.1936 336.276 -16.3572Z" fill="#CF79ED"/>
<path d="M1.46045 53.261C2.24138 53.1671 3.03273 53.2111 3.79846 53.3909C4.52846 53.6894 5.19538 54.1233 5.76406 54.6697C6.29683 55.2023 6.73556 55.8213 7.06165 56.5003C7.50591 57.125 7.84651 57.8172 8.07032 58.5504C8.17675 59.3117 8.17678 60.0841 8.07043 60.8455C8.03931 61.6696 7.89613 62.4856 7.6448 63.2711C7.46482 64.0774 7.18696 64.8587 6.81742 65.5976C6.27498 66.224 5.65372 66.7776 4.9691 67.2445C4.42408 67.8477 3.79601 68.3702 3.10376 68.7963C2.32432 69.1292 1.49267 69.3232 0.646398 69.3697C-0.132138 69.3096 -0.892653 69.1049 -1.59625 68.7663C-2.34959 68.5975 -3.06592 68.293 -3.71018 67.8677C-4.24971 67.3034 -4.6901 66.6521 -5.01279 65.9412C-5.4104 65.3054 -5.70627 64.6114 -5.88966 63.8843C-5.99878 63.1396 -6.00201 62.3833 -5.89925 61.6377C-5.88556 60.8436 -5.75684 60.0556 -5.51714 59.2985C-5.25421 58.5504 -4.8867 57.8435 -4.42555 57.1985C-3.96876 56.5137 -3.77622 55.6023 -3.16684 55.0777C-2.45089 54.6641 -1.67694 54.3602 -0.870854 54.1763C-0.154553 53.7346 0.634995 53.4247 1.46045 53.261Z" fill="#CF79ED"/>
<path d="M53.3892 50.5396C54.1701 50.4457 54.9614 50.4896 55.7272 50.6694C56.4572 50.9679 57.1241 51.4018 57.6928 51.9482C58.2255 52.4808 58.6643 53.0998 58.9904 53.7789C59.4346 54.4035 59.7752 55.0958 59.999 55.8289C60.1055 56.5902 60.1055 57.3626 59.9991 58.124C59.968 58.9481 59.8248 59.7641 59.5735 60.5496C59.3935 61.3559 59.1157 62.1372 58.7461 62.8761C58.2037 63.5026 57.5824 64.0562 56.8978 64.5231C56.3528 65.1262 55.7247 65.6487 55.0325 66.0749C54.253 66.4077 53.4214 66.6018 52.5751 66.6482C51.7966 66.5881 51.0361 66.3835 50.3325 66.0448C49.5791 65.8761 48.8628 65.5715 48.2185 65.1462C47.679 64.5819 47.2386 63.9306 46.9159 63.2198C46.5183 62.584 46.2224 61.8899 46.0391 61.1628C45.9299 60.4182 45.9267 59.6618 46.0295 58.9163C46.0431 58.1222 46.1719 57.3342 46.4116 56.577C46.6745 55.829 47.042 55.122 47.5032 54.477C47.9599 53.7922 48.1525 52.8808 48.7619 52.3562C49.4778 51.9427 50.2518 51.6388 51.0579 51.4548C51.7742 51.0131 52.5637 50.7032 53.3892 50.5396Z" fill="#CF79ED"/>
<path d="M105.318 47.8181C106.099 47.7242 106.89 47.7682 107.656 47.9479C108.386 48.2464 109.053 48.6803 109.621 49.2268C110.154 49.7594 110.593 50.3783 110.919 51.0574C111.363 51.6821 111.704 52.3743 111.928 53.1074C112.034 53.8688 112.034 54.6412 111.928 55.4025C111.897 56.2266 111.754 57.0427 111.502 57.8281C111.322 58.6344 111.044 59.4158 110.675 60.1546C110.132 60.7811 109.511 61.3347 108.827 61.8016C108.282 62.4047 107.653 62.9272 106.961 63.3534C106.182 63.6863 105.35 63.8803 104.504 63.9268C103.725 63.8666 102.965 63.662 102.261 63.3234C101.508 63.1546 100.792 62.8501 100.147 62.4247C99.6077 61.8605 99.1673 61.2092 98.8446 60.4983C98.447 59.8625 98.1511 59.1685 97.9678 58.4414C97.8586 57.6967 97.8554 56.9404 97.9582 56.1948C97.9719 55.4007 98.1006 54.6127 98.3403 53.8555C98.6032 53.1075 98.9707 52.4005 99.4319 51.7556C99.8887 51.0707 100.081 50.1594 100.691 49.6348C101.407 49.2212 102.18 48.9173 102.987 48.7333C103.703 48.2917 104.492 47.9817 105.318 47.8181Z" fill="#CF79ED"/>
<path d="M157.247 45.0966C158.028 45.0027 158.819 45.0467 159.585 45.2264C160.315 45.5249 160.982 45.9588 161.55 46.5053C162.083 47.0379 162.522 47.6568 162.848 48.3359C163.292 48.9606 163.633 49.6528 163.856 50.3859C163.963 51.1473 163.963 51.9197 163.857 52.681C163.825 53.5051 163.682 54.3212 163.431 55.1066C163.251 55.9129 162.973 56.6943 162.604 57.4331C162.061 58.0596 161.44 58.6132 160.755 59.0801C160.21 59.6832 159.582 60.2057 158.89 60.6319C158.11 60.9648 157.279 61.1588 156.433 61.2053C155.654 61.1451 154.893 60.9405 154.19 60.6019C153.437 60.4331 152.72 60.1286 152.076 59.7032C151.536 59.139 151.096 58.4877 150.773 57.7768C150.376 57.141 150.08 56.447 149.896 55.7199C149.787 54.9752 149.784 54.2189 149.887 53.4733C149.901 52.6792 150.029 51.8912 150.269 51.134C150.532 50.386 150.899 49.6791 151.361 49.0341C151.817 48.3492 152.01 47.4379 152.619 46.9133C153.335 46.4997 154.109 46.1958 154.915 46.0118C155.632 45.5702 156.421 45.2602 157.247 45.0966Z" fill="#CF79ED"/>
<path d="M209.175 42.3751C209.956 42.2813 210.748 42.3252 211.513 42.505C212.243 42.8035 212.91 43.2374 213.479 43.7838C214.012 44.3164 214.45 44.9354 214.776 45.6144C215.221 46.2391 215.561 46.9313 215.785 47.6645C215.892 48.4258 215.892 49.1982 215.785 49.9596C215.754 50.7837 215.611 51.5997 215.36 52.3852C215.18 53.1915 214.902 53.9728 214.532 54.7117C213.99 55.3382 213.369 55.8917 212.684 56.3586C212.139 56.9618 211.511 57.4843 210.819 57.9104C210.039 58.2433 209.208 58.4373 208.361 58.4838C207.583 58.4237 206.822 58.219 206.119 57.8804C205.365 57.7116 204.649 57.4071 204.005 56.9818C203.465 56.4175 203.025 55.7662 202.702 55.0553C202.304 54.4195 202.009 53.7255 201.825 52.9984C201.716 52.2537 201.713 51.4974 201.816 50.7518C201.829 49.9577 201.958 49.1697 202.198 48.4126C202.461 47.6645 202.828 46.9576 203.289 46.3126C203.746 45.6278 203.939 44.7164 204.548 44.1918C205.264 43.7782 206.038 43.4743 206.844 43.2904C207.56 42.8487 208.35 42.5388 209.175 42.3751Z" fill="#CF79ED"/>
<path d="M261.104 39.6537C261.885 39.5598 262.676 39.6038 263.442 39.7835C264.172 40.082 264.839 40.5159 265.408 41.0624C265.941 41.5949 266.379 42.2139 266.705 42.893C267.15 43.5176 267.49 44.2099 267.714 44.943C267.82 45.7043 267.82 46.4767 267.714 47.2381C267.683 48.0622 267.54 48.8782 267.288 49.6637C267.108 50.47 266.831 51.2513 266.461 51.9902C265.919 52.6167 265.297 53.1703 264.613 53.6372C264.068 54.2403 263.44 54.7628 262.747 55.189C261.968 55.5218 261.136 55.7159 260.29 55.7623C259.512 55.7022 258.751 55.4976 258.047 55.1589C257.294 54.9902 256.578 54.6856 255.933 54.2603C255.394 53.696 254.954 53.0447 254.631 52.3339C254.233 51.6981 253.937 51.0041 253.754 50.2769C253.645 49.5323 253.642 48.7759 253.744 48.0304C253.758 47.2363 253.887 46.4483 254.127 45.6911C254.389 44.9431 254.757 44.2361 255.218 43.5911C255.675 42.9063 255.867 41.9949 256.477 41.4703C257.193 41.0568 257.967 40.7529 258.773 40.5689C259.489 40.1272 260.279 39.8173 261.104 39.6537Z" fill="#CF79ED"/>
<path d="M313.033 36.9322C313.814 36.8383 314.605 36.8823 315.371 37.062C316.101 37.3605 316.768 37.7944 317.336 38.3409C317.869 38.8735 318.308 39.4924 318.634 40.1715C319.078 40.7962 319.419 41.4884 319.643 42.2215C319.749 42.9829 319.749 43.7553 319.643 44.5166C319.612 45.3407 319.469 46.1568 319.217 46.9422C319.037 47.7485 318.759 48.5299 318.39 49.2688C317.847 49.8952 317.226 50.4488 316.541 50.9157C315.996 51.5188 315.368 52.0413 314.676 52.4675C313.897 52.8004 313.065 52.9944 312.219 53.0409C311.44 52.9807 310.68 52.7761 309.976 52.4375C309.223 52.2687 308.506 51.9642 307.862 51.5388C307.323 50.9746 306.882 50.3233 306.56 49.6124C306.162 48.9766 305.866 48.2826 305.683 47.5555C305.574 46.8108 305.57 46.0545 305.673 45.3089C305.687 44.5148 305.816 43.7268 306.055 42.9696C306.318 42.2216 306.686 41.5147 307.147 40.8697C307.604 40.1848 307.796 39.2735 308.406 38.7489C309.121 38.3353 309.895 38.0314 310.702 37.8474C311.418 37.4058 312.207 37.0958 313.033 36.9322Z" fill="#CF79ED"/>
<path d="M364.962 34.2107C365.742 34.1169 366.534 34.1608 367.3 34.3406C368.03 34.6391 368.696 35.073 369.265 35.6194C369.798 36.152 370.237 36.771 370.563 37.45C371.007 38.0747 371.348 38.7669 371.571 39.5001C371.678 40.2614 371.678 41.0338 371.572 41.7952C371.54 42.6193 371.397 43.4353 371.146 44.2208C370.966 45.0271 370.688 45.8084 370.319 46.5473C369.776 47.1738 369.155 47.7273 368.47 48.1942C367.925 48.7974 367.297 49.3199 366.605 49.746C365.825 50.0789 364.994 50.2729 364.147 50.3194C363.369 50.2593 362.608 50.0546 361.905 49.716C361.152 49.5472 360.435 49.2427 359.791 48.8174C359.251 48.2531 358.811 47.6018 358.488 46.8909C358.091 46.2551 357.795 45.5611 357.611 44.834C357.502 44.0893 357.499 43.333 357.602 42.5874C357.616 41.7933 357.744 41.0053 357.984 40.2482C358.247 39.5001 358.614 38.7932 359.076 38.1482C359.532 37.4634 359.725 36.552 360.334 36.0274C361.05 35.6138 361.824 35.3099 362.63 35.126C363.347 34.6843 364.136 34.3744 364.962 34.2107Z" fill="#CF79ED"/>
<path d="M30.1464 103.829C30.9273 103.735 31.7186 103.779 32.4844 103.959C33.2144 104.257 33.8813 104.691 34.45 105.238C34.9827 105.77 35.4215 106.389 35.7476 107.068C36.1918 107.693 36.5324 108.385 36.7562 109.118C36.8627 109.88 36.8627 110.652 36.7563 111.413C36.7252 112.238 36.582 113.054 36.3307 113.839C36.1507 114.645 35.8729 115.427 35.5033 116.166C34.9609 116.792 34.3396 117.346 33.655 117.813C33.11 118.416 32.4819 118.938 31.7897 119.364C31.0102 119.697 30.1786 119.891 29.3323 119.938C28.5538 119.878 27.7933 119.673 27.0897 119.334C26.3363 119.166 25.62 118.861 24.9757 118.436C24.4362 117.871 23.9958 117.22 23.6731 116.509C23.2755 115.873 22.9796 115.179 22.7963 114.452C22.6871 113.708 22.6839 112.951 22.7867 112.206C22.8004 111.412 22.9291 110.624 23.1688 109.866C23.4317 109.118 23.7992 108.411 24.2604 107.766C24.7171 107.082 24.9097 106.17 25.5191 105.646C26.235 105.232 27.009 104.928 27.8151 104.744C28.5314 104.303 29.3209 103.993 30.1464 103.829Z" fill="#CF79ED"/>
<path d="M82.0751 101.108C82.856 101.014 83.6473 101.058 84.4131 101.237C85.1431 101.536 85.81 101.97 86.3787 102.516C86.9115 103.049 87.3502 103.668 87.6763 104.347C88.1205 104.972 88.4611 105.664 88.6849 106.397C88.7914 107.158 88.7914 107.931 88.6851 108.692C88.6539 109.516 88.5108 110.332 88.2594 111.118C88.0794 111.924 87.8016 112.705 87.432 113.444C86.8896 114.071 86.2683 114.624 85.5837 115.091C85.0387 115.694 84.4106 116.217 83.7184 116.643C82.9389 116.976 82.1073 117.17 81.261 117.216C80.4825 117.156 79.722 116.951 79.0184 116.613C78.265 116.444 77.5487 116.14 76.9044 115.714C76.3649 115.15 75.9245 114.499 75.6018 113.788C75.2042 113.152 74.9084 112.458 74.725 111.731C74.6158 110.986 74.6126 110.23 74.7154 109.484C74.7291 108.69 74.8578 107.902 75.0975 107.145C75.3604 106.397 75.7279 105.69 76.1891 105.045C76.6459 104.36 76.8384 103.449 77.4478 102.924C78.1637 102.511 78.9377 102.207 79.7438 102.023C80.4601 101.581 81.2496 101.271 82.0751 101.108Z" fill="#CF79ED"/>
<path d="M134.004 98.3861C134.785 98.2922 135.576 98.3362 136.342 98.5159C137.072 98.8144 137.739 99.2483 138.307 99.7948C138.84 100.327 139.279 100.946 139.605 101.625C140.049 102.25 140.39 102.942 140.614 103.675C140.72 104.437 140.72 105.209 140.614 105.971C140.583 106.795 140.439 107.611 140.188 108.396C140.008 109.202 139.73 109.984 139.361 110.723C138.818 111.349 138.197 111.903 137.512 112.37C136.967 112.973 136.339 113.495 135.647 113.921C134.868 114.254 134.036 114.448 133.19 114.495C132.411 114.435 131.651 114.23 130.947 113.891C130.194 113.723 129.477 113.418 128.833 112.993C128.294 112.428 127.853 111.777 127.531 111.066C127.133 110.43 126.837 109.736 126.654 109.009C126.545 108.265 126.541 107.508 126.644 106.763C126.658 105.969 126.786 105.181 127.026 104.424C127.289 103.676 127.657 102.969 128.118 102.324C128.575 101.639 128.767 100.727 129.376 100.203C130.092 99.7892 130.866 99.4853 131.672 99.3013C132.389 98.8597 133.178 98.5497 134.004 98.3861Z" fill="#CF79ED"/>
<path d="M185.932 95.6646C186.713 95.5707 187.505 95.6147 188.271 95.7945C189.001 96.093 189.667 96.5269 190.236 97.0733C190.769 97.6059 191.208 98.2249 191.534 98.9039C191.978 99.5286 192.319 100.221 192.542 100.954C192.649 101.715 192.649 102.488 192.542 103.249C192.511 104.073 192.368 104.889 192.117 105.675C191.937 106.481 191.659 107.262 191.289 108.001C190.747 108.628 190.126 109.181 189.441 109.648C188.896 110.251 188.268 110.774 187.576 111.2C186.796 111.533 185.965 111.727 185.118 111.773C184.34 111.713 183.579 111.509 182.876 111.17C182.122 111.001 181.406 110.697 180.762 110.271C180.222 109.707 179.782 109.056 179.459 108.345C179.062 107.709 178.766 107.015 178.582 106.288C178.473 105.543 178.47 104.787 178.573 104.041C178.586 103.247 178.715 102.459 178.955 101.702C179.218 100.954 179.585 100.247 180.046 99.6021C180.503 98.9173 180.696 98.0059 181.305 97.4813C182.021 97.0677 182.795 96.7638 183.601 96.5799C184.317 96.1382 185.107 95.8283 185.932 95.6646Z" fill="#CF79ED"/>
<path d="M237.861 92.9432C238.642 92.8493 239.434 92.8932 240.199 93.073C240.929 93.3715 241.596 93.8054 242.165 94.3518C242.698 94.8844 243.136 95.5034 243.463 96.1825C243.907 96.8071 244.247 97.4994 244.471 98.2325C244.578 98.9938 244.578 99.7662 244.471 100.528C244.44 101.352 244.297 102.168 244.046 102.953C243.866 103.759 243.588 104.541 243.218 105.28C242.676 105.906 242.055 106.46 241.37 106.927C240.825 107.53 240.197 108.052 239.505 108.478C238.725 108.811 237.894 109.005 237.047 109.052C236.269 108.992 235.508 108.787 234.805 108.448C234.051 108.28 233.335 107.975 232.691 107.55C232.151 106.986 231.711 106.334 231.388 105.623C230.99 104.988 230.695 104.294 230.511 103.566C230.402 102.822 230.399 102.065 230.502 101.32C230.515 100.526 230.644 99.7378 230.884 98.9806C231.147 98.2326 231.514 97.5256 231.975 96.8806C232.432 96.1958 232.625 95.2844 233.234 94.7598C233.95 94.3462 234.724 94.0424 235.53 93.8584C236.246 93.4167 237.036 93.1068 237.861 92.9432Z" fill="#CF79ED"/>
<path d="M289.79 90.2217C290.571 90.1278 291.362 90.1718 292.128 90.3515C292.858 90.65 293.525 91.0839 294.094 91.6304C294.626 92.1629 295.065 92.7819 295.391 93.461C295.836 94.0856 296.176 94.7779 296.4 95.511C296.506 96.2723 296.506 97.0448 296.4 97.8061C296.369 98.6302 296.226 99.4462 295.974 100.232C295.794 101.038 295.517 101.819 295.147 102.558C294.605 103.185 293.983 103.738 293.299 104.205C292.754 104.808 292.126 105.331 291.433 105.757C290.654 106.09 289.822 106.284 288.976 106.33C288.197 106.27 287.437 106.066 286.733 105.727C285.98 105.558 285.264 105.254 284.619 104.828C284.08 104.264 283.639 103.613 283.317 102.902C282.919 102.266 282.623 101.572 282.44 100.845C282.331 100.1 282.328 99.3439 282.43 98.5984C282.444 97.8043 282.573 97.0163 282.812 96.2591C283.075 95.5111 283.443 94.8041 283.904 94.1592C284.361 93.4743 284.553 92.563 285.163 92.0383C285.879 91.6248 286.653 91.3209 287.459 91.1369C288.175 90.6952 288.965 90.3853 289.79 90.2217Z" fill="#CF79ED"/>
<path d="M341.719 87.5002C342.5 87.4063 343.291 87.4503 344.057 87.6301C344.787 87.9286 345.454 88.3624 346.022 88.9089C346.555 89.4415 346.994 90.0604 347.32 90.7395C347.764 91.3642 348.105 92.0564 348.329 92.7895C348.435 93.5509 348.435 94.3233 348.329 95.0846C348.298 95.9087 348.154 96.7248 347.903 97.5102C347.723 98.3165 347.445 99.0979 347.076 99.8368C346.533 100.463 345.912 101.017 345.227 101.484C344.682 102.087 344.054 102.609 343.362 103.036C342.583 103.368 341.751 103.562 340.905 103.609C340.126 103.549 339.366 103.344 338.662 103.005C337.909 102.837 337.192 102.532 336.548 102.107C336.009 101.543 335.568 100.891 335.246 100.18C334.848 99.5446 334.552 98.8506 334.369 98.1235C334.26 97.3788 334.256 96.6225 334.359 95.8769C334.373 95.0828 334.501 94.2948 334.741 93.5376C335.004 92.7896 335.372 92.0827 335.833 91.4377C336.29 90.7528 336.482 89.8415 337.091 89.3169C337.807 88.9033 338.581 88.5994 339.387 88.4154C340.104 87.9738 340.893 87.6638 341.719 87.5002Z" fill="#CF79ED"/>
<path d="M6.90345 157.119C7.68437 157.025 8.47572 157.069 9.24145 157.248C9.97146 157.547 10.6384 157.981 11.2071 158.527C11.7398 159.06 12.1786 159.679 12.5046 160.358C12.9489 160.982 13.2895 161.675 13.5133 162.408C13.6197 163.169 13.6198 163.942 13.5134 164.703C13.4823 165.527 13.3391 166.343 13.0878 167.129C12.9078 167.935 12.6299 168.716 12.2604 169.455C11.718 170.082 11.0967 170.635 10.4121 171.102C9.86707 171.705 9.239 172.228 8.54676 172.654C7.76731 172.987 6.93567 173.181 6.08939 173.227C5.31085 173.167 4.55034 172.962 3.84674 172.624C3.0934 172.455 2.37708 172.15 1.73281 171.725C1.19329 171.161 0.752896 170.51 0.430206 169.799C0.0325894 169.163 -0.263279 168.469 -0.446664 167.742C-0.555785 166.997 -0.559018 166.241 -0.456259 165.495C-0.442568 164.701 -0.313852 163.913 -0.0741474 163.156C0.188782 162.408 0.556296 161.701 1.01745 161.056C1.47423 160.371 1.66678 159.46 2.27616 158.935C2.9921 158.522 3.76605 158.218 4.57214 158.034C5.28844 157.592 6.07799 157.282 6.90345 157.119Z" fill="#CF79ED"/>
<path d="M58.8322 154.397C59.6131 154.303 60.4044 154.347 61.1702 154.527C61.9002 154.825 62.5671 155.259 63.1358 155.806C63.6685 156.338 64.1073 156.957 64.4334 157.636C64.8776 158.261 65.2182 158.953 65.442 159.686C65.5485 160.448 65.5485 161.22 65.4421 161.981C65.411 162.806 65.2678 163.622 65.0165 164.407C64.8365 165.213 64.5587 165.995 64.1891 166.734C63.6467 167.36 63.0254 167.914 62.3408 168.381C61.7958 168.984 61.1677 169.506 60.4755 169.932C59.696 170.265 58.8644 170.459 58.0181 170.506C57.2396 170.446 56.4791 170.241 55.7755 169.902C55.0221 169.734 54.3058 169.429 53.6615 169.004C53.122 168.439 52.6816 167.788 52.3589 167.077C51.9613 166.441 51.6654 165.747 51.482 165.02C51.3729 164.276 51.3697 163.519 51.4725 162.774C51.4861 161.98 51.6149 161.192 51.8546 160.434C52.1175 159.686 52.485 158.979 52.9462 158.334C53.4029 157.65 53.5955 156.738 54.2049 156.214C54.9208 155.8 55.6948 155.496 56.5008 155.312C57.2172 154.871 58.0067 154.561 58.8322 154.397Z" fill="#CF79ED"/>
<path d="M110.761 151.676C111.542 151.582 112.333 151.626 113.099 151.805C113.829 152.104 114.496 152.538 115.064 153.084C115.597 153.617 116.036 154.236 116.362 154.915C116.806 155.54 117.147 156.232 117.371 156.965C117.477 157.726 117.477 158.499 117.371 159.26C117.34 160.084 117.197 160.9 116.945 161.686C116.765 162.492 116.487 163.273 116.118 164.012C115.575 164.639 114.954 165.192 114.27 165.659C113.724 166.262 113.096 166.785 112.404 167.211C111.625 167.544 110.793 167.738 109.947 167.784C109.168 167.724 108.408 167.519 107.704 167.181C106.951 167.012 106.234 166.708 105.59 166.282C105.051 165.718 104.61 165.067 104.288 164.356C103.89 163.72 103.594 163.026 103.411 162.299C103.302 161.554 103.298 160.798 103.401 160.052C103.415 159.258 103.544 158.47 103.783 157.713C104.046 156.965 104.414 156.258 104.875 155.613C105.332 154.928 105.524 154.017 106.134 153.492C106.85 153.079 107.623 152.775 108.43 152.591C109.146 152.149 109.935 151.839 110.761 151.676Z" fill="#CF79ED"/>
<path d="M162.69 148.954C163.471 148.86 164.262 148.904 165.028 149.084C165.758 149.382 166.425 149.816 166.993 150.363C167.526 150.895 167.965 151.514 168.291 152.193C168.735 152.818 169.076 153.51 169.299 154.243C169.406 155.005 169.406 155.777 169.3 156.539C169.268 157.363 169.125 158.179 168.874 158.964C168.694 159.77 168.416 160.552 168.047 161.291C167.504 161.917 166.883 162.471 166.198 162.938C165.653 163.541 165.025 164.063 164.333 164.489C163.553 164.822 162.722 165.016 161.876 165.063C161.097 165.003 160.336 164.798 159.633 164.459C158.88 164.291 158.163 163.986 157.519 163.561C156.979 162.996 156.539 162.345 156.216 161.634C155.819 160.998 155.523 160.304 155.339 159.577C155.23 158.833 155.227 158.076 155.33 157.331C155.344 156.537 155.472 155.749 155.712 154.992C155.975 154.243 156.342 153.537 156.804 152.892C157.26 152.207 157.453 151.295 158.062 150.771C158.778 150.357 159.552 150.053 160.358 149.869C161.075 149.428 161.864 149.118 162.69 148.954Z" fill="#CF79ED"/>
<path d="M214.618 146.233C215.399 146.139 216.191 146.183 216.956 146.362C217.686 146.661 218.353 147.095 218.922 147.641C219.455 148.174 219.893 148.793 220.219 149.472C220.664 150.097 221.004 150.789 221.228 151.522C221.335 152.283 221.335 153.056 221.228 153.817C221.197 154.641 221.054 155.457 220.803 156.243C220.623 157.049 220.345 157.83 219.975 158.569C219.433 159.196 218.812 159.749 218.127 160.216C217.582 160.819 216.954 161.342 216.262 161.768C215.482 162.101 214.651 162.295 213.804 162.341C213.026 162.281 212.265 162.077 211.562 161.738C210.808 161.569 210.092 161.265 209.448 160.839C208.908 160.275 208.468 159.624 208.145 158.913C207.747 158.277 207.452 157.583 207.268 156.856C207.159 156.111 207.156 155.355 207.259 154.609C207.272 153.815 207.401 153.027 207.641 152.27C207.904 151.522 208.271 150.815 208.732 150.17C209.189 149.485 209.382 148.574 209.991 148.049C210.707 147.636 211.481 147.332 212.287 147.148C213.003 146.706 213.793 146.396 214.618 146.233Z" fill="#CF79ED"/>
<path d="M266.547 143.511C267.328 143.417 268.119 143.461 268.885 143.641C269.615 143.939 270.282 144.373 270.851 144.92C271.384 145.452 271.822 146.071 272.148 146.75C272.593 147.375 272.933 148.067 273.157 148.8C273.263 149.562 273.263 150.334 273.157 151.096C273.126 151.92 272.983 152.736 272.731 153.521C272.551 154.327 272.274 155.109 271.904 155.848C271.362 156.474 270.74 157.028 270.056 157.495C269.511 158.098 268.883 158.62 268.19 159.046C267.411 159.379 266.579 159.573 265.733 159.62C264.955 159.56 264.194 159.355 263.49 159.016C262.737 158.848 262.021 158.543 261.376 158.118C260.837 157.554 260.397 156.902 260.074 156.191C259.676 155.556 259.38 154.862 259.197 154.134C259.088 153.39 259.085 152.633 259.187 151.888C259.201 151.094 259.33 150.306 259.57 149.549C259.832 148.801 260.2 148.094 260.661 147.449C261.118 146.764 261.31 145.852 261.92 145.328C262.636 144.914 263.41 144.61 264.216 144.426C264.932 143.985 265.722 143.675 266.547 143.511Z" fill="#CF79ED"/>
<path d="M318.476 140.79C319.257 140.696 320.048 140.74 320.814 140.92C321.544 141.218 322.211 141.652 322.779 142.198C323.312 142.731 323.751 143.35 324.077 144.029C324.521 144.654 324.862 145.346 325.086 146.079C325.192 146.84 325.192 147.613 325.086 148.374C325.055 149.198 324.912 150.014 324.66 150.8C324.48 151.606 324.202 152.387 323.833 153.126C323.29 153.753 322.669 154.306 321.984 154.773C321.439 155.376 320.811 155.899 320.119 156.325C319.34 156.658 318.508 156.852 317.662 156.898C316.883 156.838 316.123 156.634 315.419 156.295C314.666 156.126 313.949 155.822 313.305 155.396C312.766 154.832 312.325 154.181 312.003 153.47C311.605 152.834 311.309 152.14 311.126 151.413C311.017 150.668 311.013 149.912 311.116 149.166C311.13 148.372 311.259 147.584 311.498 146.827C311.761 146.079 312.129 145.372 312.59 144.727C313.047 144.042 313.239 143.131 313.849 142.606C314.564 142.193 315.338 141.889 316.145 141.705C316.861 141.263 317.65 140.953 318.476 140.79Z" fill="#CF79ED"/>
<path d="M370.405 138.068C371.185 137.974 371.977 138.018 372.743 138.198C373.473 138.497 374.139 138.93 374.708 139.477C375.241 140.009 375.68 140.628 376.006 141.308C376.45 141.932 376.791 142.624 377.014 143.358C377.121 144.119 377.121 144.891 377.015 145.653C376.983 146.477 376.84 147.293 376.589 148.078C376.409 148.885 376.131 149.666 375.762 150.405C375.219 151.031 374.598 151.585 373.913 152.052C373.368 152.655 372.74 153.177 372.048 153.603C371.268 153.936 370.437 154.13 369.59 154.177C368.812 154.117 368.051 153.912 367.348 153.573C366.595 153.405 365.878 153.1 365.234 152.675C364.694 152.111 364.254 151.459 363.931 150.748C363.534 150.113 363.238 149.419 363.054 148.691C362.945 147.947 362.942 147.19 363.045 146.445C363.059 145.651 363.187 144.863 363.427 144.106C363.69 143.358 364.057 142.651 364.519 142.006C364.975 141.321 365.168 140.409 365.777 139.885C366.493 139.471 367.267 139.167 368.073 138.983C368.79 138.542 369.579 138.232 370.405 138.068Z" fill="#CF79ED"/>
<path d="M35.5892 207.687C36.3702 207.593 37.1615 207.637 37.9272 207.816C38.6572 208.115 39.3242 208.549 39.8928 209.095C40.4256 209.628 40.8643 210.247 41.1904 210.926C41.6347 211.55 41.9753 212.243 42.1991 212.976C42.3055 213.737 42.3056 214.51 42.1992 215.271C42.1681 216.095 42.0249 216.911 41.7736 217.697C41.5936 218.503 41.3157 219.284 40.9462 220.023C40.4038 220.65 39.7825 221.203 39.0979 221.67C38.5529 222.273 37.9248 222.796 37.2325 223.222C36.4531 223.555 35.6215 223.749 34.7752 223.795C33.9966 223.735 33.2361 223.53 32.5325 223.192C31.7792 223.023 31.0629 222.718 30.4186 222.293C29.8791 221.729 29.4387 221.078 29.116 220.367C28.7184 219.731 28.4225 219.037 28.2391 218.31C28.13 217.565 28.1268 216.809 28.2295 216.063C28.2432 215.269 28.3719 214.481 28.6116 213.724C28.8746 212.976 29.2421 212.269 29.7032 211.624C30.16 210.939 30.3526 210.028 30.9619 209.503C31.6779 209.09 32.4518 208.786 33.2579 208.602C33.9742 208.16 34.7638 207.85 35.5892 207.687Z" fill="#CF79ED"/>
<path d="M87.5179 204.965C88.2989 204.871 89.0902 204.915 89.856 205.095C90.586 205.393 91.2529 205.827 91.8216 206.374C92.3543 206.906 92.7931 207.525 93.1191 208.204C93.5634 208.829 93.904 209.521 94.1278 210.254C94.2342 211.016 94.2343 211.788 94.1279 212.549C94.0968 213.374 93.9536 214.19 93.7023 214.975C93.5223 215.781 93.2445 216.563 92.8749 217.302C92.3325 217.928 91.7112 218.482 91.0266 218.949C90.4816 219.552 89.8535 220.074 89.1613 220.5C88.3818 220.833 87.5502 221.027 86.7039 221.074C85.9254 221.014 85.1648 220.809 84.4612 220.47C83.7079 220.302 82.9916 219.997 82.3473 219.572C81.8078 219.007 81.3674 218.356 81.0447 217.645C80.6471 217.009 80.3512 216.315 80.1678 215.588C80.0587 214.844 80.0555 214.087 80.1582 213.342C80.1719 212.548 80.3007 211.76 80.5404 211.002C80.8033 210.254 81.1708 209.547 81.6319 208.902C82.0887 208.218 82.2813 207.306 82.8907 206.782C83.6066 206.368 84.3806 206.064 85.1866 205.88C85.9029 205.439 86.6925 205.129 87.5179 204.965Z" fill="#CF79ED"/>
<path d="M139.447 202.244C140.228 202.15 141.019 202.194 141.785 202.373C142.515 202.672 143.182 203.106 143.75 203.652C144.283 204.185 144.722 204.804 145.048 205.483C145.492 206.108 145.833 206.8 146.057 207.533C146.163 208.294 146.163 209.067 146.057 209.828C146.026 210.652 145.882 211.468 145.631 212.254C145.451 213.06 145.173 213.841 144.804 214.58C144.261 215.207 143.64 215.76 142.955 216.227C142.41 216.83 141.782 217.353 141.09 217.779C140.311 218.112 139.479 218.306 138.633 218.352C137.854 218.292 137.094 218.087 136.39 217.749C135.637 217.58 134.92 217.276 134.276 216.85C133.736 216.286 133.296 215.635 132.973 214.924C132.576 214.288 132.28 213.594 132.097 212.867C131.987 212.122 131.984 211.366 132.087 210.62C132.101 209.826 132.229 209.038 132.469 208.281C132.732 207.533 133.1 206.826 133.561 206.181C134.017 205.496 134.21 204.585 134.819 204.06C135.535 203.647 136.309 203.343 137.115 203.159C137.832 202.717 138.621 202.407 139.447 202.244Z" fill="#CF79ED"/>
<path d="M191.375 199.522C192.156 199.428 192.948 199.472 193.713 199.652C194.443 199.95 195.11 200.384 195.679 200.931C196.212 201.463 196.65 202.082 196.977 202.761C197.421 203.386 197.761 204.078 197.985 204.811C198.092 205.573 198.092 206.345 197.985 207.107C197.954 207.931 197.811 208.747 197.56 209.532C197.38 210.338 197.102 211.12 196.732 211.859C196.19 212.485 195.569 213.039 194.884 213.506C194.339 214.109 193.711 214.631 193.019 215.057C192.239 215.39 191.408 215.584 190.561 215.631C189.783 215.571 189.022 215.366 188.319 215.027C187.565 214.859 186.849 214.554 186.205 214.129C185.665 213.564 185.225 212.913 184.902 212.202C184.505 211.566 184.209 210.872 184.025 210.145C183.916 209.401 183.913 208.644 184.016 207.899C184.029 207.105 184.158 206.317 184.398 205.56C184.661 204.812 185.028 204.105 185.489 203.46C185.946 202.775 186.139 201.863 186.748 201.339C187.464 200.925 188.238 200.621 189.044 200.437C189.76 199.996 190.55 199.686 191.375 199.522Z" fill="#CF79ED"/>
<path d="M243.304 196.801C244.085 196.707 244.876 196.751 245.642 196.93C246.372 197.229 247.039 197.663 247.608 198.209C248.141 198.742 248.579 199.361 248.905 200.04C249.35 200.665 249.69 201.357 249.914 202.09C250.02 202.851 250.021 203.624 249.914 204.385C249.883 205.209 249.74 206.025 249.489 206.811C249.309 207.617 249.031 208.398 248.661 209.137C248.119 209.764 247.497 210.317 246.813 210.784C246.268 211.387 245.64 211.91 244.948 212.336C244.168 212.669 243.336 212.863 242.49 212.909C241.712 212.849 240.951 212.645 240.247 212.306C239.494 212.137 238.778 211.833 238.134 211.407C237.594 210.843 237.154 210.192 236.831 209.481C236.433 208.845 236.137 208.151 235.954 207.424C235.845 206.679 235.842 205.923 235.944 205.177C235.958 204.383 236.087 203.595 236.327 202.838C236.59 202.09 236.957 201.383 237.418 200.738C237.875 200.053 238.068 199.142 238.677 198.617C239.393 198.204 240.167 197.9 240.973 197.716C241.689 197.274 242.479 196.964 243.304 196.801Z" fill="#CF79ED"/>
<path d="M295.233 194.079C296.014 193.985 296.805 194.029 297.571 194.209C298.301 194.507 298.968 194.941 299.537 195.488C300.069 196.02 300.508 196.639 300.834 197.318C301.278 197.943 301.619 198.635 301.843 199.368C301.949 200.13 301.949 200.902 301.843 201.664C301.812 202.488 301.669 203.304 301.417 204.089C301.237 204.895 300.959 205.677 300.59 206.416C300.047 207.042 299.426 207.596 298.742 208.063C298.197 208.666 297.568 209.188 296.876 209.614C296.097 209.947 295.265 210.141 294.419 210.188C293.64 210.128 292.88 209.923 292.176 209.584C291.423 209.416 290.707 209.111 290.062 208.686C289.523 208.122 289.082 207.47 288.76 206.759C288.362 206.124 288.066 205.43 287.883 204.702C287.774 203.958 287.77 203.201 287.873 202.456C287.887 201.662 288.016 200.874 288.255 200.117C288.518 199.369 288.886 198.662 289.347 198.017C289.804 197.332 289.996 196.42 290.606 195.896C291.322 195.482 292.096 195.178 292.902 194.994C293.618 194.553 294.407 194.243 295.233 194.079Z" fill="#CF79ED"/>
<path d="M347.162 191.358C347.943 191.264 348.734 191.308 349.5 191.488C350.23 191.786 350.897 192.22 351.465 192.766C351.998 193.299 352.437 193.918 352.763 194.597C353.207 195.222 353.548 195.914 353.771 196.647C353.878 197.408 353.878 198.181 353.772 198.942C353.74 199.766 353.597 200.582 353.346 201.368C353.166 202.174 352.888 202.955 352.519 203.694C351.976 204.321 351.355 204.874 350.67 205.341C350.125 205.944 349.497 206.467 348.805 206.893C348.025 207.226 347.194 207.42 346.348 207.466C345.569 207.406 344.809 207.202 344.105 206.863C343.352 206.694 342.635 206.39 341.991 205.964C341.451 205.4 341.011 204.749 340.688 204.038C340.291 203.402 339.995 202.708 339.812 201.981C339.702 201.236 339.699 200.48 339.802 199.734C339.816 198.94 339.944 198.152 340.184 197.395C340.447 196.647 340.814 195.94 341.276 195.295C341.732 194.61 341.925 193.699 342.534 193.174C343.25 192.761 344.024 192.457 344.83 192.273C345.547 191.831 346.336 191.521 347.162 191.358Z" fill="#CF79ED"/>
<path d="M64.2752 258.255C65.0561 258.161 65.8474 258.205 66.6132 258.384C67.3432 258.683 68.0101 259.117 68.5788 259.663C69.1115 260.196 69.5503 260.815 69.8763 261.494C70.3206 262.118 70.6612 262.811 70.885 263.544C70.9914 264.305 70.9915 265.078 70.8851 265.839C70.854 266.663 70.7108 267.479 70.4595 268.265C70.2795 269.071 70.0017 269.852 69.6321 270.591C69.0897 271.218 68.4684 271.771 67.7838 272.238C67.2388 272.841 66.6107 273.364 65.9185 273.79C65.139 274.123 64.3074 274.317 63.4611 274.363C62.6826 274.303 61.922 274.098 61.2184 273.76C60.4651 273.591 59.7488 273.286 59.1045 272.861C58.565 272.297 58.1246 271.646 57.8019 270.935C57.4043 270.299 57.1084 269.605 56.925 268.878C56.8159 268.133 56.8127 267.377 56.9154 266.631C56.9291 265.837 57.0579 265.049 57.2976 264.292C57.5605 263.544 57.928 262.837 58.3891 262.192C58.8459 261.507 59.0385 260.596 59.6479 260.071C60.3638 259.658 61.1378 259.354 61.9438 259.17C62.6601 258.728 63.4497 258.418 64.2752 258.255Z" fill="#CF79ED"/>
<path d="M116.204 255.533C116.985 255.439 117.776 255.483 118.542 255.663C119.272 255.961 119.939 256.395 120.507 256.942C121.04 257.474 121.479 258.093 121.805 258.772C122.249 259.397 122.59 260.089 122.814 260.822C122.92 261.584 122.92 262.356 122.814 263.117C122.783 263.942 122.64 264.758 122.388 265.543C122.208 266.349 121.93 267.131 121.561 267.87C121.018 268.496 120.397 269.05 119.713 269.517C119.167 270.12 118.539 270.642 117.847 271.068C117.068 271.401 116.236 271.595 115.39 271.642C114.611 271.582 113.851 271.377 113.147 271.038C112.394 270.87 111.677 270.565 111.033 270.14C110.494 269.575 110.053 268.924 109.731 268.213C109.333 267.577 109.037 266.883 108.854 266.156C108.745 265.412 108.741 264.655 108.844 263.91C108.858 263.116 108.987 262.328 109.226 261.57C109.489 260.822 109.857 260.115 110.318 259.471C110.775 258.786 110.967 257.874 111.577 257.35C112.293 256.936 113.066 256.632 113.873 256.448C114.589 256.007 115.378 255.697 116.204 255.533Z" fill="#CF79ED"/>
<path d="M168.133 252.812C168.913 252.718 169.705 252.762 170.471 252.941C171.201 253.24 171.868 253.674 172.436 254.22C172.969 254.753 173.408 255.372 173.734 256.051C174.178 256.676 174.519 257.368 174.742 258.101C174.849 258.862 174.849 259.635 174.743 260.396C174.711 261.22 174.568 262.036 174.317 262.822C174.137 263.628 173.859 264.409 173.49 265.148C172.947 265.775 172.326 266.328 171.641 266.795C171.096 267.398 170.468 267.921 169.776 268.347C168.996 268.68 168.165 268.874 167.319 268.92C166.54 268.86 165.779 268.655 165.076 268.317C164.323 268.148 163.606 267.844 162.962 267.418C162.422 266.854 161.982 266.203 161.659 265.492C161.262 264.856 160.966 264.162 160.782 263.435C160.673 262.69 160.67 261.934 160.773 261.188C160.787 260.394 160.915 259.606 161.155 258.849C161.418 258.101 161.785 257.394 162.247 256.749C162.703 256.064 162.896 255.153 163.505 254.628C164.221 254.215 164.995 253.911 165.801 253.727C166.518 253.285 167.307 252.975 168.133 252.812Z" fill="#CF79ED"/>
<path d="M220.061 250.09C220.842 249.996 221.634 250.04 222.399 250.22C223.129 250.518 223.796 250.952 224.365 251.499C224.898 252.031 225.336 252.65 225.662 253.329C226.107 253.954 226.447 254.646 226.671 255.379C226.778 256.141 226.778 256.913 226.671 257.675C226.64 258.499 226.497 259.315 226.246 260.1C226.066 260.906 225.788 261.688 225.418 262.427C224.876 263.053 224.255 263.607 223.57 264.074C223.025 264.677 222.397 265.199 221.705 265.625C220.925 265.958 220.094 266.152 219.247 266.199C218.469 266.139 217.708 265.934 217.005 265.595C216.251 265.427 215.535 265.122 214.891 264.697C214.351 264.132 213.911 263.481 213.588 262.77C213.19 262.134 212.895 261.44 212.711 260.713C212.602 259.969 212.599 259.212 212.702 258.467C212.715 257.673 212.844 256.885 213.084 256.128C213.347 255.38 213.714 254.673 214.175 254.028C214.632 253.343 214.825 252.431 215.434 251.907C216.15 251.493 216.924 251.189 217.73 251.005C218.446 250.564 219.236 250.254 220.061 250.09Z" fill="#CF79ED"/>
<path d="M271.99 247.369C272.771 247.275 273.562 247.319 274.328 247.498C275.058 247.797 275.725 248.231 276.294 248.777C276.826 249.31 277.265 249.929 277.591 250.608C278.036 251.233 278.376 251.925 278.6 252.658C278.706 253.419 278.706 254.192 278.6 254.953C278.569 255.777 278.426 256.593 278.174 257.379C277.994 258.185 277.717 258.966 277.347 259.705C276.805 260.332 276.183 260.885 275.499 261.352C274.954 261.955 274.326 262.478 273.633 262.904C272.854 263.237 272.022 263.431 271.176 263.477C270.398 263.417 269.637 263.213 268.933 262.874C268.18 262.705 267.464 262.401 266.819 261.975C266.28 261.411 265.84 260.76 265.517 260.049C265.119 259.413 264.823 258.719 264.64 257.992C264.531 257.247 264.528 256.491 264.63 255.745C264.644 254.951 264.773 254.163 265.013 253.406C265.275 252.658 265.643 251.951 266.104 251.306C266.561 250.621 266.753 249.71 267.363 249.185C268.079 248.772 268.853 248.468 269.659 248.284C270.375 247.842 271.165 247.532 271.99 247.369Z" fill="#CF79ED"/>
<path d="M323.919 244.647C324.7 244.553 325.491 244.597 326.257 244.777C326.987 245.076 327.654 245.509 328.222 246.056C328.755 246.588 329.194 247.207 329.52 247.886C329.964 248.511 330.305 249.203 330.529 249.936C330.635 250.698 330.635 251.47 330.529 252.232C330.498 253.056 330.355 253.872 330.103 254.657C329.923 255.463 329.645 256.245 329.276 256.984C328.733 257.61 328.112 258.164 327.427 258.631C326.882 259.234 326.254 259.756 325.562 260.182C324.783 260.515 323.951 260.709 323.105 260.756C322.326 260.696 321.566 260.491 320.862 260.152C320.109 259.984 319.392 259.679 318.748 259.254C318.209 258.69 317.768 258.038 317.446 257.327C317.048 256.692 316.752 255.998 316.569 255.27C316.46 254.526 316.456 253.769 316.559 253.024C316.573 252.23 316.702 251.442 316.941 250.685C317.204 249.937 317.572 249.23 318.033 248.585C318.49 247.9 318.682 246.988 319.292 246.464C320.007 246.05 320.781 245.746 321.588 245.562C322.304 245.121 323.093 244.811 323.919 244.647Z" fill="#CF79ED"/>
<path d="M375.848 241.926C376.628 241.832 377.42 241.876 378.186 242.056C378.916 242.354 379.582 242.788 380.151 243.334C380.684 243.867 381.123 244.486 381.449 245.165C381.893 245.79 382.234 246.482 382.457 247.215C382.564 247.976 382.564 248.749 382.458 249.51C382.426 250.334 382.283 251.15 382.032 251.936C381.852 252.742 381.574 253.523 381.205 254.262C380.662 254.889 380.041 255.442 379.356 255.909C378.811 256.512 378.183 257.035 377.491 257.461C376.711 257.794 375.88 257.988 375.033 258.034C374.255 257.974 373.494 257.77 372.791 257.431C372.037 257.262 371.321 256.958 370.677 256.532C370.137 255.968 369.697 255.317 369.374 254.606C368.977 253.97 368.681 253.276 368.497 252.549C368.388 251.804 368.385 251.048 368.488 250.302C368.502 249.508 368.63 248.72 368.87 247.963C369.133 247.215 369.5 246.508 369.962 245.863C370.418 245.178 370.611 244.267 371.22 243.742C371.936 243.329 372.71 243.025 373.516 242.841C374.233 242.399 375.022 242.089 375.848 241.926Z" fill="#CF79ED"/>
</svg>
