<svg width="42" height="42" viewBox="0 0 42 42" fill="none" xmlns="http://www.w3.org/2000/svg">
<rect width="42" height="42" rx="21" fill="#FF6154" fill-opacity="0.08"/>
<path d="M21.0012 30.1673C15.9385 30.1673 11.8345 26.0632 11.8345 21.0007C11.8345 15.938 15.9385 11.834 21.0012 11.834C26.0637 11.834 30.1678 15.938 30.1678 21.0007C30.1678 26.0632 26.0637 30.1673 21.0012 30.1673ZM22.2235 21.0007H19.6262V18.2507H22.2235C22.9829 18.2507 23.5985 18.8663 23.5985 19.6257C23.5985 20.385 22.9829 21.0007 22.2235 21.0007ZM22.2235 16.4173H17.7928V25.584H19.6262V22.834H22.2235C23.9955 22.834 25.4319 21.3976 25.4319 19.6257C25.4319 17.8537 23.9955 16.4173 22.2235 16.4173Z" fill="#FF6154"/>
</svg>
