<svg width="25" height="24" viewBox="0 0 25 24" fill="none" xmlns="http://www.w3.org/2000/svg">
<g id="ph">
<path id="v" d="M12.8342 22C7.31138 22 2.83423 17.5228 2.83423 12C2.83423 6.47715 7.31138 2 12.8342 2C18.357 2 22.8342 6.47715 22.8342 12C22.8342 17.5228 18.357 22 12.8342 22ZM14.1677 12H11.3342V9H14.1677C14.9961 9 15.6677 9.67157 15.6677 10.5C15.6677 11.3284 14.9961 12 14.1677 12ZM14.1677 7H9.33423V17H11.3342V14H14.1677C16.1007 14 17.6677 12.433 17.6677 10.5C17.6677 8.567 16.1007 7 14.1677 7Z" fill="#B6C2BA"/>
</g>
</svg>
