<svg width="185" height="37" viewBox="0 0 185 37" fill="none" xmlns="http://www.w3.org/2000/svg">
<g id="Vector">
<path d="M47.209 12.9971C49.3476 12.9971 51.1747 13.7777 52.6904 15.339C54.2061 16.9002 54.9639 18.821 54.9639 21.1013C54.9639 23.361 54.2061 25.2818 52.6904 26.8636C51.1747 28.4248 49.3476 29.2055 47.209 29.2055C44.8005 29.2055 42.9838 28.3324 41.7588 26.5862V28.8049H38.3952V7.23476H41.7588V15.6163C42.9838 13.8701 44.8005 12.9971 47.209 12.9971ZM43.1603 24.6449C44.0946 25.5694 45.2677 26.0316 46.6796 26.0316C48.0914 26.0316 49.2645 25.5694 50.1989 24.6449C51.1332 23.6999 51.6004 22.5187 51.6004 21.1013C51.6004 19.6838 51.1332 18.5128 50.1989 17.5884C49.2645 16.6434 48.0914 16.1709 46.6796 16.1709C45.2677 16.1709 44.0946 16.6434 43.1603 17.5884C42.2259 18.5128 41.7588 19.6838 41.7588 21.1013C41.7588 22.5187 42.2259 23.6999 43.1603 24.6449Z" fill="#0D131F"/>
<path d="M60.7531 15.7087C61.6044 13.9831 63.0993 13.1203 65.2379 13.1203V16.7256C63.9921 16.6434 62.9332 16.9413 62.0612 17.6192C61.1891 18.2766 60.7531 19.3654 60.7531 20.8856V28.8049H57.3895V13.3976H60.7531V15.7087Z" fill="#0D131F"/>
<path d="M69.0545 22.5187C69.3037 23.7513 69.8539 24.6963 70.7052 25.3537C71.5772 26.011 72.6257 26.3397 73.8507 26.3397C74.6812 26.3397 75.4287 26.1651 76.0931 25.8159C76.7575 25.4666 77.2351 25.0147 77.5257 24.46L80.9516 24.4292C80.4741 25.9083 79.5917 27.0793 78.3044 27.9421C77.0378 28.7843 75.5325 29.2055 73.7884 29.2055C71.3384 29.2055 69.3556 28.4454 67.8399 26.9252C66.3242 25.3845 65.5664 23.4432 65.5664 21.1013C65.5664 18.7799 66.3242 16.8489 67.8399 15.3081C69.3556 13.7674 71.3177 12.9971 73.7262 12.9971C76.0101 12.9971 77.8683 13.788 79.301 15.3698C80.7336 16.931 81.4499 18.8518 81.4499 21.1321C81.4499 21.4813 81.4084 21.9435 81.3253 22.5187H69.0545ZM69.0234 19.7762H78.0552C77.8476 18.5437 77.3389 17.609 76.5291 16.9721C75.7401 16.3353 74.8058 16.0169 73.7262 16.0169C72.4804 16.0169 71.4422 16.3558 70.6117 17.0338C69.7812 17.7117 69.2518 18.6258 69.0234 19.7762Z" fill="#0D131F"/>
<path d="M89.71 12.9971C91.5163 12.9971 93.0009 13.5209 94.1636 14.5686C95.3263 15.6163 95.9077 17.0748 95.9077 18.9442V28.8049H92.6064V27.3566C91.6098 28.5892 90.1356 29.2055 88.1839 29.2055C86.689 29.2055 85.4224 28.7843 84.3843 27.9421C83.3462 27.0793 82.8271 25.8672 82.8271 24.306C82.8271 22.7447 83.3462 21.5429 84.3843 20.7007C85.4224 19.8584 86.689 19.4373 88.1839 19.4373C90.0733 19.4373 91.5475 19.9611 92.6064 21.0088V19.0983C92.6064 18.0712 92.3468 17.3214 91.8278 16.8489C91.3087 16.3558 90.6028 16.1093 89.71 16.1093C88.8587 16.1093 88.1631 16.325 87.6233 16.7564C87.0835 17.1673 86.8135 17.7425 86.8135 18.482H83.5123C83.5123 16.8181 84.0936 15.493 85.2563 14.507C86.4398 13.5004 87.9244 12.9971 89.71 12.9971ZM89.2739 26.617C90.2706 26.617 91.0699 26.4013 91.672 25.9699C92.2949 25.5385 92.6064 24.9839 92.6064 24.306C92.6064 23.6075 92.2949 23.0528 91.672 22.642C91.0699 22.2311 90.2706 22.0257 89.2739 22.0257C88.2566 22.0257 87.4883 22.2311 86.9693 22.642C86.4502 23.0528 86.1907 23.6075 86.1907 24.306C86.1907 25.0044 86.4502 25.5694 86.9693 26.0008C87.4883 26.4116 88.2566 26.617 89.2739 26.617Z" fill="#0D131F"/>
<path d="M106.493 13.3976V16.6024H103.628V28.8049H100.264V16.6024H97.3989V13.3976H100.264V8.46734H103.628V13.3976H106.493Z" fill="#0D131F"/>
<path d="M116.183 12.9971C117.678 12.9971 118.903 13.5312 119.858 14.5994C120.834 15.6471 121.322 17.0748 121.322 18.8826V28.8049H117.958V19.0675C117.958 18.1225 117.688 17.3933 117.148 16.8797C116.629 16.3661 115.944 16.1093 115.093 16.1093C114.138 16.1093 113.338 16.4175 112.695 17.0338C112.072 17.65 111.76 18.6258 111.76 19.9611V28.8049H108.397V7.23476H111.76V15.1541C112.715 13.7161 114.19 12.9971 116.183 12.9971Z" fill="#0D131F"/>
<path d="M140.151 13.3976H143.732L138.531 28.8049H135.23L132.988 22.1798L130.745 28.8049H127.444L122.243 13.3976H125.824L129.313 24.8298L131.586 17.989L130.029 13.3976H133.143L136.756 24.5525L140.151 13.3976Z" fill="#0D131F"/>
<path d="M152.397 29.2055C150.113 29.2055 148.172 28.4248 146.573 26.8636C144.975 25.3023 144.175 23.3815 144.175 21.1013C144.175 18.821 144.975 16.9002 146.573 15.339C148.172 13.7777 150.113 12.9971 152.397 12.9971C154.702 12.9971 156.643 13.7777 158.221 15.339C159.82 16.9002 160.619 18.821 160.619 21.1013C160.619 23.3815 159.82 25.3023 158.221 26.8636C156.643 28.4248 154.702 29.2055 152.397 29.2055ZM148.94 24.5833C149.875 25.5077 151.027 25.9699 152.397 25.9699C153.768 25.9699 154.92 25.5077 155.854 24.5833C156.789 23.6589 157.256 22.4982 157.256 21.1013C157.256 19.7043 156.789 18.5437 155.854 17.6192C154.92 16.6948 153.768 16.2326 152.397 16.2326C151.027 16.2326 149.875 16.6948 148.94 17.6192C148.006 18.5437 147.539 19.7043 147.539 21.1013C147.539 22.4982 148.006 23.6589 148.94 24.5833Z" fill="#0D131F"/>
<path d="M166.401 15.7087C167.253 13.9831 168.748 13.1203 170.886 13.1203V16.7256C169.64 16.6434 168.582 16.9413 167.709 17.6192C166.837 18.2766 166.401 19.3654 166.401 20.8856V28.8049H163.038V13.3976H166.401V15.7087Z" fill="#0D131F"/>
<path d="M184.904 28.8049H181.291L177.99 23.6589L174.657 28.8049H171.044L176.183 20.8856L171.356 13.3976H174.969L177.99 18.0814L181.01 13.3976H184.623L179.796 20.8856L184.904 28.8049Z" fill="#0D131F"/>
<path fill-rule="evenodd" clip-rule="evenodd" d="M7.42039 19.8788C7.7211 20.011 8.07017 19.9752 8.33705 19.7847L16.6096 13.881C20.9793 10.7625 20.4397 4.16751 15.6198 1.78508L12.903 0.442177C12.5963 0.290604 12.2301 0.319269 11.9514 0.516662L6.54966 4.34186C6.34589 4.48616 6.37798 4.79497 6.60717 4.89522L12.9644 7.67613C13.0251 7.70614 13.0449 7.73221 13.0554 7.74802C13.071 7.77178 13.0873 7.81088 13.0916 7.86232C13.0958 7.91376 13.086 7.95495 13.0744 7.9809C13.0667 7.99816 13.0514 8.02704 12.9964 8.06632L1.03851 16.5445C0.835114 16.6887 0.866933 16.997 1.09559 17.0975L7.42039 19.8788Z" fill="#0D131F"/>
<path fill-rule="evenodd" clip-rule="evenodd" d="M7.42039 19.8788C7.7211 20.011 8.07017 19.9752 8.33705 19.7847L16.6096 13.881C20.9793 10.7625 20.4397 4.16751 15.6198 1.78508L12.903 0.442177C12.5963 0.290604 12.2301 0.319269 11.9514 0.516662L6.54966 4.34186C6.34589 4.48616 6.37798 4.79497 6.60717 4.89522L12.9644 7.67613C13.0251 7.70614 13.0449 7.73221 13.0554 7.74802C13.071 7.77178 13.0873 7.81088 13.0916 7.86232C13.0958 7.91376 13.086 7.95495 13.0744 7.9809C13.0667 7.99816 13.0514 8.02704 12.9964 8.06632L1.03851 16.5445C0.835114 16.6887 0.866933 16.997 1.09559 17.0975L7.42039 19.8788Z" fill="url(#paint0_radial_1142_8591)"/>
<path fill-rule="evenodd" clip-rule="evenodd" d="M12.0086 36.5413C12.3093 36.6736 12.6584 36.6378 12.9253 36.4473L21.1978 30.5436C25.5676 27.425 25.0279 20.8301 20.208 18.4477L17.4912 17.1048C17.1846 16.9532 16.8183 16.9818 16.5396 17.1792L11.1379 21.0044C10.9341 21.1487 10.9662 21.4575 11.1954 21.5578L17.5526 24.3387C17.6134 24.3687 17.6332 24.3948 17.6436 24.4106C17.6592 24.4344 17.6756 24.4735 17.6798 24.5249C17.684 24.5763 17.6742 24.6175 17.6626 24.6435C17.6549 24.6607 17.6396 24.6896 17.5846 24.7289L5.62672 33.2071C5.42333 33.3513 5.45515 33.6596 5.68381 33.7601L12.0086 36.5413Z" fill="#0D131F"/>
<path fill-rule="evenodd" clip-rule="evenodd" d="M12.0086 36.5413C12.3093 36.6736 12.6584 36.6378 12.9253 36.4473L21.1978 30.5436C25.5676 27.425 25.0279 20.8301 20.208 18.4477L17.4912 17.1048C17.1846 16.9532 16.8183 16.9818 16.5396 17.1792L11.1379 21.0044C10.9341 21.1487 10.9662 21.4575 11.1954 21.5578L17.5526 24.3387C17.6134 24.3687 17.6332 24.3948 17.6436 24.4106C17.6592 24.4344 17.6756 24.4735 17.6798 24.5249C17.684 24.5763 17.6742 24.6175 17.6626 24.6435C17.6549 24.6607 17.6396 24.6896 17.5846 24.7289L5.62672 33.2071C5.42333 33.3513 5.45515 33.6596 5.68381 33.7601L12.0086 36.5413Z" fill="url(#paint1_radial_1142_8591)"/>
</g>
<defs>
<radialGradient id="paint0_radial_1142_8591" cx="0" cy="0" r="1" gradientUnits="userSpaceOnUse" gradientTransform="translate(12.5381 0.345703) rotate(90) scale(36.2745 23.2695)">
<stop stop-color="#2670FF"/>
<stop offset="1" stop-color="#2868E4"/>
</radialGradient>
<radialGradient id="paint1_radial_1142_8591" cx="0" cy="0" r="1" gradientUnits="userSpaceOnUse" gradientTransform="translate(12.5381 0.345703) rotate(90) scale(36.2745 23.2695)">
<stop stop-color="#2670FF"/>
<stop offset="1" stop-color="#2868E4"/>
</radialGradient>
</defs>
</svg>
