<svg width="93" height="52" viewBox="0 0 93 52" fill="none" xmlns="http://www.w3.org/2000/svg">
<path fill-rule="evenodd" clip-rule="evenodd" d="M41.5843 35.5719L49.5128 33.2815C55.2095 31.6358 58.0578 30.813 60.3181 29.1304C61.4411 28.2945 62.4459 27.3107 63.3054 26.2057C65.0355 23.9815 65.9185 21.1511 67.6846 15.4904C67.9821 14.5368 68.1308 14.06 67.9787 13.7075C67.9053 13.5371 67.7874 13.3897 67.6375 13.2804C67.3272 13.0543 66.8294 13.0942 65.8336 13.174L61.7028 13.5051C62.7772 12.7289 63.3144 12.3408 63.7869 11.9005C64.8871 10.8753 65.751 9.62292 66.3185 8.23029C66.5623 7.63226 66.7343 6.99222 67.0782 5.71215L68.2267 1.43844C58.413 0.895911 50.5235 1.00258 50.5235 1.00258L45.2597 21.3587C48.8083 20.8572 52.8196 20.3359 52.8196 20.3359L53.771 17.2477C53.771 17.2477 57.349 16.6921 59.6643 16.3858L59.3601 17.4016C58.7181 19.545 58.3971 20.6168 57.6083 21.3053C56.8194 21.9939 55.699 22.1695 53.4583 22.5208C50.1254 23.0432 47.5681 23.4987 44.5587 24.0698L41.5843 35.5719ZM55.3647 10.086L56.385 6.38022L60.5394 6.25823C60.2552 7.46039 60.1131 8.06147 59.7984 8.53004C59.4905 8.9886 59.0659 9.35682 58.5684 9.59682C58.0601 9.84206 57.445 9.89773 56.2147 10.0091L55.3647 10.086ZM71.4402 1.67535L68.9984 9.95145C76.9 9.64326 90.5573 10.3362 90.5573 10.3362L92.9029 4.06012C81.6997 2.33332 71.4402 1.67535 71.4402 1.67535ZM72.2679 12.6788L67.0627 28.8948C70.7736 28.1447 72.629 27.7697 74.055 26.6769C74.3097 26.4818 74.552 26.271 74.7807 26.0459C76.0609 24.7854 76.69 23 77.9483 19.4293L79.5322 14.9342C80.0059 13.5901 80.2427 12.9181 79.8998 12.4723C79.5569 12.0266 78.8497 12.0828 77.4355 12.1954C75.6859 12.3347 73.5991 12.5151 72.2679 12.6788ZM35.2239 14.3902C34.961 15.5357 34.7001 16.6722 34.4451 17.7818C33.4364 22.1698 32.9321 24.3638 31.4376 25.9152C29.9431 27.4666 27.6832 28.0757 23.1634 29.2939C18.0411 30.6745 11.7917 32.549 3.50017 35.5547L0.903263 51.9717C7.0646 48.9196 12.3421 46.4255 17.5339 44.1761C28.2885 39.5166 33.6659 37.1867 36.7993 33.4808C39.9328 29.7749 41.1739 24.7432 43.6562 14.6798C45.0593 8.99166 46.35 3.77631 47.0647 1.03306C43.251 1.03307 38.2185 1.45443 38.2185 1.45443C37.3436 5.15382 36.2676 9.84234 35.2239 14.3902ZM8.4026 4.58341L4.33876 30.2543L16.0186 27.173L20.603 2.90799C15.7989 3.40114 8.4026 4.58341 8.4026 4.58341ZM19.8938 26.2729C20.5929 22.733 22.0642 15.3052 22.0642 15.3052C22.0642 15.3052 28.0195 14.1567 31.9122 13.5784L30.409 20.3179C29.9799 22.2418 29.7654 23.2037 29.1075 23.8483C28.4497 24.493 27.4775 24.6892 25.5333 25.0816C23.5427 25.4833 21.2717 25.9526 19.8938 26.2729Z" fill="#0D0912"/>
</svg>
