<svg width="152" height="28" viewBox="0 0 152 28" fill="none" xmlns="http://www.w3.org/2000/svg">
<g id="Group 1000004049">
<g id="Jobmaze">
<path d="M40.7248 26.2999C39.3269 26.3487 38.1139 26.0926 37.0857 25.5316C36.0781 24.9699 35.2232 24.0632 34.5208 22.8116L37.3505 20.7368C37.6577 21.2818 38.0634 21.6999 38.5675 21.991C39.0717 22.2822 39.6013 22.418 40.1563 22.3987C41.0403 22.3678 41.6888 22.0776 42.1019 21.528C42.5355 20.9777 42.7282 20.0139 42.6801 18.6365L42.23 5.74672L46.7629 5.58843L47.226 18.8482C47.2719 20.1639 47.0779 21.3851 46.6438 22.5117C46.209 23.6178 45.4995 24.5174 44.5151 25.2104C43.5506 25.8821 42.2872 26.2453 40.7248 26.2999Z" fill="#042F4A"/>
<path d="M57.5549 25.7121C56.2598 25.7574 55.0361 25.4913 53.8839 24.9141C52.731 24.3163 51.774 23.4338 51.0128 22.2665C50.2715 21.078 49.8714 19.6409 49.8126 17.9552C49.7537 16.2694 50.0529 14.8182 50.7102 13.6014C51.3874 12.3634 52.2805 11.4162 53.3897 10.76C54.4981 10.0833 55.6998 9.72225 56.995 9.67703C58.2695 9.63252 59.4833 9.90917 60.6362 10.507C61.7884 11.0842 62.7352 11.9671 63.4765 13.1556C64.2376 14.3228 64.6476 15.7493 64.7065 17.4351C64.7654 19.1208 64.4562 20.5827 63.7791 21.8207C63.1217 23.0375 62.2389 23.9843 61.1305 24.661C60.0213 25.3173 58.8295 25.6676 57.5549 25.7121ZM57.4268 22.0426C58.0435 22.021 58.5513 21.8283 58.9503 21.4645C59.3698 21.0999 59.6709 20.5851 59.8535 19.9201C60.0361 19.2551 60.1119 18.4806 60.0811 17.5966C60.0502 16.7126 59.9205 15.9453 59.6919 15.2946C59.4634 14.6439 59.1271 14.1514 58.6832 13.817C58.2599 13.4819 57.7398 13.3251 57.1231 13.3466C56.4858 13.3689 55.9677 13.5619 55.5688 13.9257C55.1698 14.2896 54.879 14.804 54.6964 15.469C54.5138 16.1341 54.438 16.9086 54.4688 17.7926C54.4997 18.6766 54.6294 19.4439 54.858 20.0946C55.0865 20.7452 55.4125 21.2381 55.8358 21.5733C56.2592 21.9084 56.7895 22.0648 57.4268 22.0426Z" fill="#042F4A"/>
<path d="M75.3378 25.0911C74.6595 25.1148 73.9753 24.9741 73.2854 24.6688C72.5948 24.343 71.9297 23.862 71.29 23.2257L71.1666 23.23L70.8537 24.8772L67.3075 25.0011L66.5526 3.38452L71.0856 3.22622L71.2708 8.53014L71.2293 10.878C71.7862 10.3234 72.4091 9.89003 73.098 9.57781C73.7862 9.24503 74.4901 9.06608 75.2096 9.04096C76.4431 8.99788 77.5232 9.2792 78.45 9.88491C79.3767 10.4906 80.097 11.3711 80.6108 12.5264C81.1443 13.6604 81.4384 15.0086 81.493 16.571C81.554 18.3184 81.298 19.8299 80.7251 21.1055C80.1514 22.3605 79.3827 23.3341 78.4189 24.0264C77.475 24.6975 76.448 25.0524 75.3378 25.0911ZM74.1602 21.4273C74.6741 21.4094 75.1416 21.2387 75.5625 20.9153C76.004 20.5911 76.3366 20.0958 76.5603 19.4293C76.7833 18.7423 76.8765 17.8746 76.8399 16.8261C76.8076 15.901 76.6783 15.144 76.4519 14.555C76.2453 13.9447 75.9414 13.4922 75.54 13.1975C75.1386 12.9027 74.6399 12.7658 74.0437 12.7866C73.5914 12.8024 73.1534 12.9309 72.7296 13.1721C72.3256 13.392 71.9061 13.7566 71.4711 14.2658L71.6897 20.5256C72.0925 20.8615 72.5126 21.1041 72.95 21.2535C73.3868 21.3823 73.7902 21.4403 74.1602 21.4273Z" fill="#042F4A"/>
<path d="M84.2133 24.4107L83.6791 9.11569L87.3795 8.98647L87.7568 10.9493L87.8801 10.9449C88.4746 10.2861 89.1237 9.718 89.8274 9.2406C90.551 8.74193 91.4164 8.475 92.4237 8.43983C93.5133 8.40178 94.4051 8.59705 95.0993 9.02563C95.7928 9.43365 96.3389 10.0424 96.7377 10.8518C97.3917 10.1291 98.0904 9.50779 98.8338 8.98784C99.5765 8.44733 100.451 8.15949 101.459 8.12432C103.124 8.06617 104.356 8.57887 105.156 9.66243C105.954 10.7254 106.387 12.2129 106.454 14.1248L106.785 23.6225L102.252 23.7808L101.941 14.8689C101.903 13.7588 101.722 13.0036 101.399 12.6032C101.097 12.2021 100.617 12.013 99.9591 12.036C99.5685 12.0496 99.1616 12.1873 98.7385 12.4491C98.3147 12.6903 97.8651 13.0765 97.3897 13.6077L97.7504 23.938L93.2175 24.0963L92.9063 15.1845C92.8675 14.0743 92.6867 13.3191 92.364 12.9187C92.0619 12.5176 91.5819 12.3285 90.924 12.3515C90.1428 12.3788 89.2966 12.9023 88.3855 13.9221L88.7462 24.2524L84.2133 24.4107Z" fill="#042F4A"/>
<path d="M113.75 23.7498C112.824 23.7821 112.005 23.6049 111.292 23.2181C110.599 22.8306 110.056 22.2939 109.661 21.6078C109.267 20.9218 109.054 20.1471 109.024 19.2836C108.967 17.639 109.601 16.351 110.927 15.4196C112.252 14.4677 114.42 13.7848 117.432 13.3709C117.395 12.9194 117.279 12.5426 117.083 12.2407C116.907 11.9175 116.642 11.6798 116.287 11.5276C115.931 11.3547 115.485 11.2777 114.951 11.2963C114.314 11.3186 113.67 11.4543 113.02 11.7034C112.37 11.9525 111.672 12.3062 110.927 12.7645L109.22 9.86012C109.864 9.42599 110.53 9.05282 111.219 8.7406C111.907 8.40782 112.618 8.14628 113.352 7.95598C114.107 7.76495 114.886 7.65544 115.687 7.62744C117.003 7.5815 118.112 7.80007 119.014 8.28314C119.935 8.74494 120.651 9.48153 121.159 10.4929C121.667 11.4837 121.949 12.7706 122.004 14.3536L122.309 23.0804L118.609 23.2096L118.245 21.6477L118.122 21.652C117.484 22.2506 116.812 22.7475 116.106 23.1426C115.398 23.5172 114.613 23.7196 113.75 23.7498ZM115.137 20.1508C115.651 20.1328 116.099 20.004 116.482 19.7642C116.864 19.5244 117.244 19.2024 117.621 18.7982L117.531 16.2079C116.467 16.3891 115.62 16.6039 114.991 16.8523C114.382 17.1 113.95 17.393 113.694 17.7312C113.458 18.0482 113.347 18.402 113.36 18.7926C113.377 19.2654 113.544 19.6198 113.861 19.8557C114.197 20.0704 114.623 20.1687 115.137 20.1508Z" fill="#042F4A"/>
<path d="M124.54 23.0025L124.455 20.5664L130.544 11.0297L124.839 11.2289L124.715 7.68268L136.063 7.28641L136.147 9.69168L130.059 19.2592L136.689 19.0277L136.813 22.5739L124.54 23.0025Z" fill="#042F4A"/>
<path d="M145.343 22.6465C143.883 22.6975 142.556 22.4248 141.362 21.8284C140.168 21.232 139.211 20.3495 138.491 19.1809C137.771 18.0122 137.382 16.585 137.323 14.8993C137.264 13.2341 137.554 11.7935 138.191 10.5774C138.848 9.36065 139.72 8.41424 140.808 7.73818C141.895 7.04156 143.045 6.67208 144.258 6.62972C145.718 6.57875 146.942 6.86532 147.932 7.48943C148.92 8.09298 149.67 8.94157 150.182 10.0352C150.693 11.1288 150.973 12.3643 151.021 13.7417C151.035 14.1323 151.028 14.5236 151 14.9156C150.972 15.2871 150.941 15.5866 150.908 15.8142L140.886 16.1641L140.715 13.021L147.098 12.7981C147.07 11.9963 146.852 11.3453 146.443 10.845C146.034 10.3241 145.377 10.0795 144.473 10.111C143.979 10.1283 143.501 10.2788 143.037 10.5625C142.574 10.8463 142.199 11.3225 141.914 11.9911C141.629 12.6597 141.517 13.5796 141.578 14.7507C141.639 15.9012 141.876 16.7985 142.29 17.4427C142.724 18.0862 143.254 18.5411 143.881 18.8074C144.507 19.0531 145.159 19.1641 145.838 19.1404C146.434 19.1196 146.996 19.0176 147.525 18.8345C148.074 18.6301 148.61 18.3644 149.133 18.0374L150.711 20.761C149.969 21.322 149.12 21.7736 148.164 22.1157C147.208 22.4373 146.268 22.6142 145.343 22.6465Z" fill="#042F4A"/>
</g>
<path id="Vector (Stroke)" fill-rule="evenodd" clip-rule="evenodd" d="M0.294873 13.6291C0.142193 9.25692 3.56242 5.58913 7.93454 5.43645C12.3066 5.28378 15.9744 8.70398 16.1271 13.0762C16.1576 13.9506 15.4735 14.6842 14.5991 14.7147C13.7248 14.7452 12.9912 14.0612 12.9606 13.1868C12.869 10.5634 10.6685 8.51133 8.04511 8.60294C5.42177 8.69455 3.3697 10.8952 3.46131 13.5185C3.67398 19.6084 8.77237 24.2402 14.9243 24.0254C21.045 23.8116 25.8335 18.6764 25.6198 12.5556L25.5158 9.57802C25.4853 8.70373 24.7516 8.01954 23.8773 8.05007C23.003 8.0806 22.3189 8.81431 22.3494 9.6886L22.4579 12.7968C22.6106 17.169 19.1904 20.8368 14.8183 20.9895C10.4461 21.1422 6.7784 17.7219 6.62572 13.3497L6.61912 13.1609C6.58859 12.2865 7.27267 11.5529 8.14706 11.5224C9.02144 11.4918 9.75503 12.1759 9.78556 13.0503L9.79216 13.2391C9.88377 15.8625 12.0843 17.9146 14.7077 17.823C17.331 17.7314 19.3831 15.5308 19.2915 12.9074L19.1829 9.79917C19.0913 7.17608 21.1437 4.97518 23.7667 4.88358C26.3898 4.79198 28.5907 6.84436 28.6823 9.46745L28.7862 12.4451C29.0611 20.3146 22.9043 26.917 15.0349 27.1918C7.19662 27.4656 0.570763 21.5296 0.294873 13.6291Z" fill="#0AD092"/>
</g>
</svg>
