<svg width="173" height="27" viewBox="0 0 173 27" fill="none" xmlns="http://www.w3.org/2000/svg">
<g id="Group 1000004049">
<g id="Jobmaze">
<path d="M46.5355 26.0429C44.9383 26.0429 43.5642 25.7023 42.4133 25.0211C41.2859 24.34 40.3464 23.2712 39.5947 21.8149L42.9066 19.56C43.2354 20.1942 43.6817 20.6875 44.2454 21.0398C44.8091 21.3922 45.4081 21.5683 46.0422 21.5683C47.0522 21.5683 47.8039 21.263 48.2971 20.6523C48.8139 20.0416 49.0722 18.9493 49.0722 17.3756V2.64828H54.2514V17.7984C54.2514 19.3017 53.9813 20.6875 53.441 21.9559C52.9008 23.2008 52.0552 24.199 50.9043 24.9507C49.7769 25.6788 48.3206 26.0429 46.5355 26.0429Z" fill="#042F4A"/>
<path d="M65.7649 26.0429C64.2852 26.0429 62.8994 25.6906 61.6075 24.9859C60.3157 24.2578 59.2587 23.2125 58.4366 21.8502C57.638 20.4644 57.2387 18.8084 57.2387 16.8824C57.2387 14.9563 57.638 13.3121 58.4366 11.9498C59.2587 10.5639 60.3157 9.51869 61.6075 8.81403C62.8994 8.08589 64.2852 7.72181 65.7649 7.72181C67.2212 7.72181 68.5953 8.08589 69.8871 8.81403C71.179 9.51869 72.2242 10.5639 73.0228 11.9498C73.8449 13.3121 74.2559 14.9563 74.2559 16.8824C74.2559 18.8084 73.8449 20.4644 73.0228 21.8502C72.2242 23.2125 71.179 24.2578 69.8871 24.9859C68.5953 25.6906 67.2212 26.0429 65.7649 26.0429ZM65.7649 21.8502C66.4696 21.8502 67.0568 21.6505 67.5265 21.2512C68.0198 20.8519 68.3839 20.2764 68.6187 19.5248C68.8536 18.7732 68.9711 17.8924 68.9711 16.8824C68.9711 15.8723 68.8536 14.9915 68.6187 14.2399C68.3839 13.4883 68.0198 12.9128 67.5265 12.5135C67.0568 12.1142 66.4696 11.9145 65.7649 11.9145C65.0368 11.9145 64.4378 12.1142 63.9681 12.5135C63.4983 12.9128 63.146 13.4883 62.9111 14.2399C62.6762 14.9915 62.5588 15.8723 62.5588 16.8824C62.5588 17.8924 62.6762 18.7732 62.9111 19.5248C63.146 20.2764 63.4983 20.8519 63.9681 21.2512C64.4378 21.6505 65.0368 21.8502 65.7649 21.8502Z" fill="#042F4A"/>
<path d="M86.083 26.0429C85.3079 26.0429 84.5328 25.855 83.7577 25.4792C82.9825 25.0799 82.2427 24.5044 81.538 23.7528H81.3971L80.9743 25.6201H76.9226V0.921875L82.1017 0.921875V6.98192L81.9608 9.65962C82.6185 9.04892 83.3466 8.57915 84.1452 8.25031C84.9438 7.89798 85.7542 7.72181 86.5762 7.72181C87.9855 7.72181 89.2069 8.08589 90.2404 8.81403C91.2739 9.54218 92.0607 10.5757 92.601 11.9145C93.1647 13.2299 93.4465 14.7801 93.4465 16.5653C93.4465 18.5618 93.0942 20.2764 92.3896 21.7093C91.6849 23.1186 90.7689 24.199 89.6415 24.9507C88.5375 25.6788 87.3514 26.0429 86.083 26.0429ZM84.8851 21.8149C85.4723 21.8149 86.0125 21.6388 86.5058 21.2865C87.0225 20.9341 87.4218 20.3821 87.7037 19.6305C87.9855 18.8554 88.1265 17.8689 88.1265 16.671C88.1265 15.614 88.009 14.7449 87.7741 14.0637C87.5627 13.3591 87.2339 12.8306 86.7876 12.4782C86.3414 12.1259 85.7776 11.9498 85.0965 11.9498C84.5797 11.9498 84.0747 12.0789 83.5815 12.3373C83.1117 12.5722 82.6185 12.9715 82.1017 13.5352V20.6875C82.548 21.0868 83.0178 21.3804 83.511 21.5683C84.0043 21.7327 84.4623 21.8149 84.8851 21.8149Z" fill="#042F4A"/>
<path d="M96.2384 25.6201V8.14461H100.466L100.819 10.3995H100.96C101.664 9.67136 102.428 9.04892 103.25 8.53217C104.095 7.99193 105.093 7.72181 106.244 7.72181C107.489 7.72181 108.499 7.98019 109.274 8.49693C110.05 8.99019 110.648 9.7066 111.071 10.6461C111.846 9.84753 112.668 9.16636 113.538 8.60263C114.407 8.01542 115.417 7.72181 116.568 7.72181C118.47 7.72181 119.856 8.356 120.725 9.62438C121.594 10.8693 122.029 12.5839 122.029 14.7684V25.6201H116.849V15.4378C116.849 14.1694 116.673 13.3003 116.321 12.8306C115.992 12.3608 115.452 12.1259 114.7 12.1259C114.254 12.1259 113.784 12.2668 113.291 12.5487C112.798 12.8071 112.269 13.2299 111.705 13.8171V25.6201H106.526V15.4378C106.526 14.1694 106.35 13.3003 105.998 12.8306C105.669 12.3608 105.129 12.1259 104.377 12.1259C103.485 12.1259 102.498 12.6896 101.418 13.8171V25.6201H96.2384Z" fill="#042F4A"/>
<path d="M129.971 26.0429C128.914 26.0429 127.986 25.808 127.187 25.3382C126.412 24.8685 125.813 24.2343 125.39 23.4357C124.968 22.637 124.756 21.7445 124.756 20.758C124.756 18.8789 125.531 17.4343 127.082 16.4243C128.632 15.3908 131.133 14.6979 134.586 14.3456C134.563 13.8288 134.445 13.3943 134.234 13.042C134.046 12.6662 133.752 12.3843 133.353 12.1964C132.954 11.985 132.449 11.8793 131.838 11.8793C131.11 11.8793 130.37 12.0085 129.618 12.2669C128.867 12.5252 128.056 12.901 127.187 13.3943L125.355 10.0119C126.107 9.54218 126.882 9.14287 127.681 8.81403C128.479 8.4617 129.301 8.19158 130.147 8.00368C131.016 7.81577 131.908 7.72181 132.824 7.72181C134.328 7.72181 135.584 8.01542 136.594 8.60263C137.628 9.16636 138.415 10.0354 138.955 11.2099C139.495 12.3608 139.765 13.8406 139.765 15.6492V25.6201H135.537L135.185 23.8232H135.044C134.292 24.4809 133.506 25.0211 132.684 25.4439C131.861 25.8432 130.957 26.0429 129.971 26.0429ZM131.697 21.9911C132.284 21.9911 132.801 21.8619 133.247 21.6036C133.694 21.3452 134.14 20.9928 134.586 20.5466V17.587C133.365 17.7514 132.39 17.9628 131.662 18.2212C130.957 18.4796 130.452 18.7967 130.147 19.1725C129.865 19.5248 129.724 19.9241 129.724 20.3704C129.724 20.9106 129.9 21.3217 130.253 21.6036C130.628 21.8619 131.11 21.9911 131.697 21.9911Z" fill="#042F4A"/>
<path d="M142.314 25.6201V22.8367L149.642 12.1964H143.124V8.14461L156.09 8.14461V10.8928L148.762 21.5683H156.337V25.6201H142.314Z" fill="#042F4A"/>
<path d="M166.068 26.0429C164.4 26.0429 162.897 25.6788 161.558 24.9507C160.219 24.2225 159.162 23.1773 158.387 21.8149C157.612 20.4526 157.224 18.8084 157.224 16.8824C157.224 14.9798 157.612 13.3473 158.387 11.985C159.186 10.6227 160.219 9.57741 161.487 8.84926C162.756 8.09763 164.083 7.72181 165.469 7.72181C167.136 7.72181 168.522 8.09763 169.626 8.84926C170.73 9.57741 171.552 10.5757 172.092 11.8441C172.633 13.1124 172.903 14.5335 172.903 16.1072C172.903 16.5535 172.879 16.9998 172.832 17.4461C172.785 17.8689 172.738 18.2095 172.691 18.4678H161.241L161.17 14.8741L168.463 14.8741C168.463 13.958 168.24 13.2064 167.794 12.6192C167.348 12.0085 166.608 11.7031 165.574 11.7031C165.011 11.7031 164.459 11.8558 163.918 12.1612C163.378 12.4665 162.932 12.995 162.58 13.7466C162.227 14.4983 162.063 15.5435 162.086 16.8824C162.11 18.1977 162.345 19.2312 162.791 19.9828C163.261 20.7345 163.848 21.2747 164.553 21.6036C165.257 21.9089 165.997 22.0616 166.772 22.0616C167.453 22.0616 168.099 21.9676 168.71 21.7797C169.344 21.5683 169.967 21.2865 170.577 20.9341L172.268 24.1051C171.399 24.7158 170.413 25.1973 169.309 25.5496C168.205 25.8785 167.125 26.0429 166.068 26.0429Z" fill="#042F4A"/>
</g>
<path id="Vector (Stroke)" fill-rule="evenodd" clip-rule="evenodd" d="M0.902344 9.97249C0.902344 4.97701 4.95156 0.927734 9.94697 0.927734C14.9424 0.927734 18.9916 4.97693 18.9916 9.97242C18.9916 10.9715 18.1817 11.7814 17.1827 11.7814C16.1836 11.7814 15.3737 10.9715 15.3737 9.97242C15.3737 6.97507 12.9443 4.54564 9.94697 4.54564C6.94964 4.54564 4.52019 6.97512 4.52019 9.97249C4.52019 16.9305 10.1537 22.4194 17.1827 22.4194C24.1759 22.4194 29.8451 16.75 29.8451 9.7567L29.8451 6.35459C29.8451 5.35566 29.0351 4.54564 28.0362 4.54564C27.0373 4.54564 26.2273 5.35565 26.2273 6.35459L26.2273 9.90595C26.2273 14.9014 22.1781 18.9507 17.1827 18.9507C12.1873 18.9507 8.13804 14.9014 8.13804 9.90594V9.69022C8.13804 8.69117 8.94792 7.88127 9.94696 7.88127C10.946 7.88127 11.7559 8.69117 11.7559 9.69022V9.90594C11.7559 12.9033 14.1853 15.3328 17.1827 15.3328C20.18 15.3328 22.6094 12.9033 22.6094 9.90594L22.6094 6.35459C22.6094 3.35754 25.0392 0.927734 28.0362 0.927734C31.0332 0.927734 33.463 3.35754 33.463 6.35459L33.463 9.75671C33.463 18.7482 26.174 26.0373 17.1827 26.0373C8.22702 26.0373 0.902344 18.9992 0.902344 9.97249Z" fill="#0AD092"/>
</g>
</svg>
