<svg width="191" height="24" viewBox="0 0 191 24" fill="none" xmlns="http://www.w3.org/2000/svg">
<path fill-rule="evenodd" clip-rule="evenodd" d="M76.0549 0.966797L72.8912 23.63L76.9371 23.63L78.2148 14.4431L88.01 14.4431L86.7324 23.63L90.7782 23.63L93.9419 0.966797L89.8961 0.966797L88.4967 10.8839L78.7015 10.8839L80.1008 0.966797L76.0549 0.966797ZM95.0018 19.7616C95.7104 21.0573 96.6932 22.0908 97.9485 22.8602L97.9509 22.8617C99.2295 23.6126 100.698 23.986 102.352 23.986C103.481 23.986 104.513 23.8146 105.447 23.4696L105.449 23.469C106.398 23.1054 107.21 22.6191 107.881 22.0089C108.572 21.399 109.083 20.7051 109.411 19.927L109.465 19.7983L106.352 18.2417L106.281 18.3616C105.895 19.0179 105.384 19.558 104.747 19.983C104.12 20.3815 103.335 20.5854 102.382 20.5854C101.472 20.5854 100.664 20.373 99.9542 19.9511C99.2635 19.5094 98.7255 18.9048 98.3396 18.1338C98.1172 17.6532 97.976 17.1281 97.9173 16.5574L109.808 16.5574L109.836 16.4445C109.898 16.1965 109.939 15.9293 109.959 15.6433C109.979 15.3614 109.989 15.0794 109.989 14.7974C109.989 13.7265 109.808 12.7143 109.443 11.7619C109.098 10.8094 108.581 9.95775 107.892 9.20795C107.221 8.45554 106.398 7.8667 105.425 7.44109C104.449 7.01381 103.334 6.80209 102.084 6.80209C100.547 6.80209 99.1576 7.17652 97.9196 7.92736C96.7031 8.65733 95.7307 9.67108 95.0027 10.9653C94.2927 12.2433 93.9394 13.7115 93.9394 15.3642C93.9394 16.9779 94.2926 18.4445 95.0013 19.7608L95.0018 19.7616ZM105.676 12.4088C105.817 12.7455 105.906 13.1039 105.941 13.4849L98.0312 13.4849C98.1051 13.1313 98.2088 12.8032 98.3418 12.5004C98.6893 11.7087 99.1884 11.1061 99.8376 10.686C100.488 10.2654 101.235 10.0536 102.084 10.0536C102.933 10.0536 103.669 10.2654 104.298 10.6849C104.929 11.1051 105.387 11.6773 105.674 12.4057L105.676 12.4088ZM111.449 7.16009L111.449 23.628L115.267 23.628L115.267 14.2604C115.267 13.0348 115.597 12.1021 116.238 11.4412C116.902 10.7778 117.777 10.4414 118.877 10.4414L120.428 10.4414L120.428 6.98109L119.295 6.98109C118.16 6.98109 117.168 7.22449 116.326 7.71722C115.844 7.99439 115.442 8.38467 115.118 8.88384L115.118 7.16009L111.449 7.16009ZM116.238 11.4412L116.238 11.442L116.132 11.3366L116.239 11.4404L116.238 11.4412ZM124.384 22.8622L124.385 22.8627C125.701 23.6121 127.159 23.986 128.755 23.986C130.33 23.986 131.767 23.6222 133.064 22.8929L133.066 22.892C134.361 22.1434 135.393 21.1209 136.162 19.8266C136.953 18.5283 137.347 17.0493 137.347 15.3941C137.347 13.7395 136.963 12.261 136.192 10.9629C135.443 9.66773 134.42 8.65453 133.125 7.92553C131.827 7.17573 130.369 6.80209 128.755 6.80209C127.14 6.80209 125.672 7.17587 124.355 7.92544L124.354 7.92594C123.059 8.67462 122.027 9.69716 121.258 10.9916C120.487 12.2704 120.103 13.7394 120.103 15.3941C120.103 17.0294 120.487 18.4981 121.258 19.796L121.259 19.7975C122.047 21.0914 123.089 22.1136 124.384 22.8622ZM128.755 10.3818C129.643 10.3818 130.431 10.6035 131.121 11.0445L131.123 11.0461C131.816 11.4692 132.365 12.0558 132.77 12.8095C133.175 13.5608 133.379 14.421 133.379 15.3941C133.379 16.3666 133.175 17.2372 132.77 18.009C132.364 18.7625 131.815 19.3594 131.122 19.8025C130.432 20.224 129.644 20.4362 128.755 20.4362C127.845 20.4362 127.047 20.2236 126.357 19.8025C125.664 19.3592 125.105 18.762 124.679 18.0079C124.274 17.2364 124.071 16.3662 124.071 15.3941C124.071 14.4215 124.275 13.5617 124.679 12.8107C125.104 12.0563 125.664 11.4694 126.356 11.0461L126.359 11.0445C127.048 10.6039 127.845 10.3818 128.755 10.3818Z" fill="#392966"/>
<path fill-rule="evenodd" clip-rule="evenodd" d="M141.79 0.966797L138.627 23.63L148.574 23.63C150.379 23.63 151.94 23.3157 153.259 22.687C154.577 22.0583 155.591 21.166 156.301 20.01C157.031 18.854 157.396 17.4851 157.396 15.9032C157.396 14.8284 157.122 13.8346 156.574 12.922C156.251 12.3498 155.779 11.8462 155.158 11.4113C155.441 11.1921 155.7 10.9555 155.936 10.7013C156.443 10.1538 156.818 9.52508 157.061 8.81527C157.325 8.10546 157.457 7.34495 157.457 6.53374C157.457 4.78963 156.889 3.43085 155.753 2.4574C154.617 1.46366 153.015 0.966797 150.947 0.966797L141.79 0.966797ZM149.334 20.0404L143.159 20.0404L144.102 13.3479L150.065 13.3479C151.058 13.3479 151.849 13.6217 152.437 14.1693C153.025 14.6966 153.319 15.3962 153.319 16.2683C153.319 16.9984 153.147 17.6575 152.802 18.2456C152.478 18.8135 152.011 19.2596 151.403 19.5841C150.815 19.8883 150.125 20.0404 149.334 20.0404ZM150.217 9.78873L144.619 9.78873L145.349 4.43473L150.795 4.43473C151.586 4.43473 152.214 4.64767 152.681 5.07356C153.147 5.47916 153.38 6.02673 153.38 6.71626C153.38 7.32467 153.248 7.8621 152.985 8.32855C152.721 8.77471 152.346 9.12962 151.859 9.39326C151.393 9.65691 150.845 9.78873 150.217 9.78873ZM163.205 22.8621L163.206 22.8626C164.522 23.612 165.98 23.986 167.576 23.986C169.151 23.986 170.589 23.6221 171.885 22.8928L171.887 22.8919C173.182 22.1433 174.214 21.1208 174.983 19.8265C175.774 18.5282 176.168 17.0493 176.168 15.394C176.168 13.7394 175.784 12.2609 175.013 10.9628C174.264 9.66765 173.241 8.65445 171.946 7.92545C170.648 7.17565 169.19 6.802 167.576 6.802C165.961 6.802 164.493 7.17579 163.176 7.92536L163.175 7.92586C161.88 8.67453 160.848 9.69708 160.079 10.9916C159.308 12.2703 158.924 13.7393 158.924 15.394C158.924 17.0293 159.308 18.498 160.079 19.796L160.08 19.7974C160.868 21.0913 161.91 22.1135 163.205 22.8621ZM167.576 10.3817C168.464 10.3817 169.252 10.6035 169.942 11.0444L169.944 11.046C170.637 11.4691 171.186 12.0557 171.591 12.8094C171.996 13.5607 172.2 14.4209 172.2 15.394C172.2 16.3666 171.996 17.2371 171.591 18.0089C171.185 18.7624 170.636 19.3593 169.943 19.8024C169.253 20.2239 168.465 20.4361 167.576 20.4361C166.666 20.4361 165.868 20.2236 165.178 19.8024C164.485 19.3592 163.926 18.7619 163.5 18.0078C163.095 17.2363 162.892 16.3661 162.892 15.394C162.892 14.4215 163.096 13.5617 163.5 12.8107C163.925 12.0563 164.485 11.4693 165.177 11.046L165.18 11.0444C165.869 10.6038 166.666 10.3817 167.576 10.3817ZM180.589 15.3942L174.847 23.6279L179.358 23.6279L182.871 18.4516L186.36 23.6279L190.841 23.6279L185.129 15.3944L190.902 7.16001L186.36 7.16001L182.871 12.3255L179.358 7.16001L174.816 7.16001L180.589 15.3942Z" fill="#392966"/>
<path fill-rule="evenodd" clip-rule="evenodd" d="M0.902344 23.63L4.06603 0.966797L8.1119 0.966797L5.43493 20.0404L15.1694 20.0404L14.6522 23.63L0.902344 23.63ZM65.8663 23.6405L69.7173 23.6405L72.8911 0.974253L69.0401 0.974253L65.8663 23.6405ZM19.7905 22.8752L19.7896 22.8747C18.4948 22.1261 17.4526 21.1039 16.6641 19.81L16.6632 19.8085C15.8926 18.5106 15.5087 17.0419 15.5087 15.4066C15.5087 13.7519 15.8923 12.2829 16.6635 11.0041C17.4322 9.70966 18.4648 8.68711 19.7598 7.93844L19.7607 7.93794C21.0775 7.18836 22.5451 6.81458 24.1602 6.81458C25.775 6.81458 27.2328 7.18821 28.53 7.93798C29.8257 8.66699 30.849 9.6802 31.5979 10.9754C32.3685 12.2735 32.7521 13.752 32.7521 15.4066C32.7521 17.0619 32.3582 18.5409 31.5672 19.8392C30.7986 21.1335 29.766 22.1559 28.4711 22.9045L28.4696 22.9054C27.173 23.6347 25.7355 23.9985 24.1602 23.9985C22.5647 23.9985 21.107 23.6246 19.7905 22.8752ZM28.1756 18.0216C28.5806 17.2498 28.7846 16.3792 28.7846 15.4066C28.7846 14.4335 28.5805 13.5733 28.1759 12.822C27.7701 12.0683 27.2212 11.4817 26.5289 11.0586L26.5264 11.057C25.8362 10.616 25.049 10.3942 24.1602 10.3942C23.2509 10.3942 22.4539 10.6164 21.7642 11.057L21.7617 11.0586C21.0691 11.4819 20.5099 12.0689 20.0841 12.8232C19.6801 13.5743 19.4761 14.4341 19.4761 15.4066C19.4761 16.3787 19.6799 17.2489 20.0845 18.0204C20.5103 18.7745 21.0697 19.3717 21.7629 19.8149C22.4527 20.2361 23.2502 20.4487 24.1602 20.4487C25.0497 20.4487 25.8374 20.2364 26.5277 19.8149C27.2207 19.3719 27.7698 18.775 28.1756 18.0216Z" fill="#392966"/>
<path d="M60.963 15.0528C56.3671 20.9403 50.0044 24.222 43.1549 23.6281C40.0663 23.3602 37.844 22.5201 36.3937 21.1281C34.9401 19.7329 34.2832 17.8039 34.2832 15.4063C34.2832 11.8209 35.9092 9.49293 38.3525 8.23833C41.063 6.84655 44.3047 6.82188 47.2472 7.29819L46.727 10.9754C44.8314 10.615 42.7577 10.5368 40.9285 11.2448C39.144 11.9355 38.1066 13.4828 38.1066 15.4063C38.1066 17.9566 40.1351 19.5253 42.5228 19.8062C49.5707 20.6353 54.9899 16.9548 59.0685 10.9967L49.4308 10.9967L49.9654 7.17834L56.6235 7.17838C58.7383 7.17839 60.341 7.1784 61.5627 7.35056C63.9007 7.68004 65.1403 9.1053 65.1423 11.4665C65.1434 12.7001 64.9211 14.2876 64.6279 16.3817L63.6187 23.5891L59.7676 23.5891L60.963 15.0528Z" fill="#A889FF"/>
</svg>
