<svg width="201" height="35" viewBox="0 0 201 35" fill="none" xmlns="http://www.w3.org/2000/svg">
<g id="Logo Color Black">
<g id="Mark">
<path d="M21.9891 0.183472C23.8946 0.369522 25.2678 2.31787 25.4533 5.0991C25.469 5.33447 25.4748 5.93399 25.4615 5.93399C25.4574 5.93399 25.3531 5.87352 25.2296 5.79963C24.5668 5.40296 23.6325 4.9505 23.1077 4.77198C22.6102 4.60284 22.024 4.75483 21.3452 5.22895C20.7646 5.63435 20.2022 6.1769 19.1635 7.33345C18.2706 8.32769 17.9384 8.67742 17.6194 8.9592C16.9858 9.51878 16.5873 9.61706 16.4174 9.25569C16.2711 8.94472 16.2636 7.66484 16.4022 6.67636C16.9307 2.90671 19.4844 -0.0610962 21.9891 0.183472ZM11.3368 1.92263C12.6495 2.13443 13.9694 2.89301 15.1483 4.11306L15.2206 4.18789L14.9288 4.26077C13.9129 4.51448 12.7092 4.96617 12.4343 5.19691C12.0475 5.52171 11.8121 6.09708 11.7087 6.9706C11.6369 7.57825 11.6409 8.43243 11.7228 9.89895C11.8163 11.5775 11.7976 12.2123 11.6423 12.6249C11.482 13.0505 11.2193 13.0804 10.79 12.722C9.14573 11.3489 7.88993 9.23824 7.49211 7.17897C6.97514 4.50279 7.97263 2.38351 9.95159 1.95366C10.3355 1.87028 10.9297 1.85699 11.3368 1.92263ZM30.5024 6.65411C33.9288 7.01713 34.8668 10.2541 32.4662 13.4303C32.2127 13.7656 31.5706 14.4844 31.5244 14.4844C31.519 14.4844 31.4819 14.3533 31.4418 14.193C31.1968 13.2142 30.7628 12.0393 30.5337 11.7347C30.2177 11.3146 29.5659 11.0519 28.6079 10.9588C28.1198 10.9113 26.9575 10.9076 26.423 10.9519C26.2439 10.9667 24.8389 11.0327 24.5378 11.0404C23.1617 11.0757 22.5558 10.8334 22.789 10.3408C22.8449 10.2226 22.917 10.1283 23.157 9.85973C25.085 7.70152 28.0745 6.39684 30.5024 6.65411ZM6.68424 10.1683C6.70555 10.1772 6.68139 10.2261 6.53285 10.4743C6.11953 11.1652 5.68846 12.0528 5.50413 12.5927C5.34021 13.0725 5.48418 13.662 5.92142 14.3018C6.34537 14.9222 6.93483 15.5321 8.21823 16.6781C9.49481 17.8181 9.93384 18.2804 10.1273 18.6886C10.2886 19.0289 10.198 19.2514 9.8645 19.3342C9.46323 19.4338 8.1952 19.4177 7.39314 19.3027C4.62662 18.9061 2.21778 17.4253 1.29117 15.5515C0.0404147 13.0223 1.88229 10.6484 5.42511 10.2237C5.83451 10.1746 6.61715 10.1402 6.68424 10.1683ZM28.3586 15.5899C29.8131 15.7056 31.3098 16.1438 32.4402 16.7848C32.4735 16.8038 32.5314 16.8363 32.5688 16.8571C33.4369 17.3406 34.2742 18.0777 34.7813 18.8049C35.5917 19.9669 35.7449 21.2151 35.2105 22.3008C34.5296 23.6839 32.8025 24.6105 30.5991 24.7749C30.382 24.7911 29.7433 24.8007 29.7306 24.788C29.7264 24.7838 29.7594 24.7231 29.8039 24.653C30.2315 23.9776 30.8531 22.6994 30.9655 22.2642C31.0027 22.1199 31.0062 21.8199 30.9724 21.6576C30.7948 20.8048 30.0967 19.9533 28.1558 18.2226C26.4905 16.7377 26.0322 16.1279 26.3196 15.7794C26.4328 15.642 26.5812 15.6092 27.2779 15.5677C27.4283 15.5587 28.1542 15.5736 28.3586 15.5899ZM4.92553 20.4719C4.92553 20.4846 4.95575 20.6153 4.99268 20.7623C5.26535 21.8471 5.69298 22.983 5.93721 23.271C6.45757 23.8844 7.60437 24.1181 9.67155 24.032C10.0348 24.0168 10.8432 23.9748 10.9432 23.9659C11.4365 23.9217 12.6104 23.921 12.9268 23.9647C13.4731 24.0401 13.7208 24.1987 13.7031 24.4618C13.693 24.6116 13.6543 24.6708 13.3057 25.0702C12.3232 26.1962 10.9577 27.1598 9.54284 27.7255C8.55384 28.1209 7.65436 28.3172 6.7195 28.3417C3.87401 28.4162 2.17402 26.6222 2.69498 24.0943C2.93233 22.9425 3.62515 21.7372 4.65856 20.6783C4.88415 20.4471 4.92553 20.4151 4.92553 20.4719ZM25.3704 22.0502C25.5299 22.1249 26.0771 22.6137 26.4502 23.0148C27.6894 24.3469 28.5635 25.9968 28.9184 27.6733C29.0318 28.2092 29.0643 28.5387 29.0638 29.1487C29.0634 29.7709 29.0334 30.0388 28.9117 30.5076C28.1239 33.5431 24.8091 33.9657 21.826 31.411C21.5435 31.1691 21.1565 30.7873 21.1845 30.7782C21.197 30.7742 21.3367 30.7398 21.4949 30.7017C22.4183 30.4797 23.6587 30.0235 23.9652 29.7931C24.2991 29.5421 24.5382 29.0791 24.665 28.4374C24.8097 27.7049 24.8225 26.8758 24.7187 24.9416C24.6514 23.6867 24.6536 23.0899 24.7273 22.6659C24.826 22.0977 25.0382 21.8945 25.3704 22.0502ZM19.8425 25.5224C19.9896 25.5837 20.0513 25.6996 20.0776 25.9631C20.2606 27.8006 19.9045 29.7249 19.073 31.3903C17.5005 34.54 14.6846 35.707 12.7068 34.0286C11.5748 33.0679 10.8913 31.2815 10.8904 29.281L10.8902 28.9669L11.0151 29.0452C11.6712 29.4565 12.4985 29.8736 13.1913 30.1424C13.6596 30.3242 14.0475 30.2961 14.5781 30.0423C15.3212 29.6867 15.9718 29.096 17.5367 27.3562C18.3697 26.4301 18.7377 26.0596 19.0807 25.8015C19.418 25.5478 19.6765 25.453 19.8425 25.5224Z" fill="url(#paint0_linear_461_5565)"/>
<path d="M21.9891 0.183472C23.8946 0.369522 25.2678 2.31787 25.4533 5.0991C25.469 5.33447 25.4748 5.93399 25.4615 5.93399C25.4574 5.93399 25.3531 5.87352 25.2296 5.79963C24.5668 5.40296 23.6325 4.9505 23.1077 4.77198C22.6102 4.60284 22.024 4.75483 21.3452 5.22895C20.7646 5.63435 20.2022 6.1769 19.1635 7.33345C18.2706 8.32769 17.9384 8.67742 17.6194 8.9592C16.9858 9.51878 16.5873 9.61706 16.4174 9.25569C16.2711 8.94472 16.2636 7.66484 16.4022 6.67636C16.9307 2.90671 19.4844 -0.0610962 21.9891 0.183472ZM11.3368 1.92263C12.6495 2.13443 13.9694 2.89301 15.1483 4.11306L15.2206 4.18789L14.9288 4.26077C13.9129 4.51448 12.7092 4.96617 12.4343 5.19691C12.0475 5.52171 11.8121 6.09708 11.7087 6.9706C11.6369 7.57825 11.6409 8.43243 11.7228 9.89895C11.8163 11.5775 11.7976 12.2123 11.6423 12.6249C11.482 13.0505 11.2193 13.0804 10.79 12.722C9.14573 11.3489 7.88993 9.23824 7.49211 7.17897C6.97514 4.50279 7.97263 2.38351 9.95159 1.95366C10.3355 1.87028 10.9297 1.85699 11.3368 1.92263ZM30.5024 6.65411C33.9288 7.01713 34.8668 10.2541 32.4662 13.4303C32.2127 13.7656 31.5706 14.4844 31.5244 14.4844C31.519 14.4844 31.4819 14.3533 31.4418 14.193C31.1968 13.2142 30.7628 12.0393 30.5337 11.7347C30.2177 11.3146 29.5659 11.0519 28.6079 10.9588C28.1198 10.9113 26.9575 10.9076 26.423 10.9519C26.2439 10.9667 24.8389 11.0327 24.5378 11.0404C23.1617 11.0757 22.5558 10.8334 22.789 10.3408C22.8449 10.2226 22.917 10.1283 23.157 9.85973C25.085 7.70152 28.0745 6.39684 30.5024 6.65411ZM6.68424 10.1683C6.70555 10.1772 6.68139 10.2261 6.53285 10.4743C6.11953 11.1652 5.68846 12.0528 5.50413 12.5927C5.34021 13.0725 5.48418 13.662 5.92142 14.3018C6.34537 14.9222 6.93483 15.5321 8.21823 16.6781C9.49481 17.8181 9.93384 18.2804 10.1273 18.6886C10.2886 19.0289 10.198 19.2514 9.8645 19.3342C9.46323 19.4338 8.1952 19.4177 7.39314 19.3027C4.62662 18.9061 2.21778 17.4253 1.29117 15.5515C0.0404147 13.0223 1.88229 10.6484 5.42511 10.2237C5.83451 10.1746 6.61715 10.1402 6.68424 10.1683ZM28.3586 15.5899C29.8131 15.7056 31.3098 16.1438 32.4402 16.7848C32.4735 16.8038 32.5314 16.8363 32.5688 16.8571C33.4369 17.3406 34.2742 18.0777 34.7813 18.8049C35.5917 19.9669 35.7449 21.2151 35.2105 22.3008C34.5296 23.6839 32.8025 24.6105 30.5991 24.7749C30.382 24.7911 29.7433 24.8007 29.7306 24.788C29.7264 24.7838 29.7594 24.7231 29.8039 24.653C30.2315 23.9776 30.8531 22.6994 30.9655 22.2642C31.0027 22.1199 31.0062 21.8199 30.9724 21.6576C30.7948 20.8048 30.0967 19.9533 28.1558 18.2226C26.4905 16.7377 26.0322 16.1279 26.3196 15.7794C26.4328 15.642 26.5812 15.6092 27.2779 15.5677C27.4283 15.5587 28.1542 15.5736 28.3586 15.5899ZM4.92553 20.4719C4.92553 20.4846 4.95575 20.6153 4.99268 20.7623C5.26535 21.8471 5.69298 22.983 5.93721 23.271C6.45757 23.8844 7.60437 24.1181 9.67155 24.032C10.0348 24.0168 10.8432 23.9748 10.9432 23.9659C11.4365 23.9217 12.6104 23.921 12.9268 23.9647C13.4731 24.0401 13.7208 24.1987 13.7031 24.4618C13.693 24.6116 13.6543 24.6708 13.3057 25.0702C12.3232 26.1962 10.9577 27.1598 9.54284 27.7255C8.55384 28.1209 7.65436 28.3172 6.7195 28.3417C3.87401 28.4162 2.17402 26.6222 2.69498 24.0943C2.93233 22.9425 3.62515 21.7372 4.65856 20.6783C4.88415 20.4471 4.92553 20.4151 4.92553 20.4719ZM25.3704 22.0502C25.5299 22.1249 26.0771 22.6137 26.4502 23.0148C27.6894 24.3469 28.5635 25.9968 28.9184 27.6733C29.0318 28.2092 29.0643 28.5387 29.0638 29.1487C29.0634 29.7709 29.0334 30.0388 28.9117 30.5076C28.1239 33.5431 24.8091 33.9657 21.826 31.411C21.5435 31.1691 21.1565 30.7873 21.1845 30.7782C21.197 30.7742 21.3367 30.7398 21.4949 30.7017C22.4183 30.4797 23.6587 30.0235 23.9652 29.7931C24.2991 29.5421 24.5382 29.0791 24.665 28.4374C24.8097 27.7049 24.8225 26.8758 24.7187 24.9416C24.6514 23.6867 24.6536 23.0899 24.7273 22.6659C24.826 22.0977 25.0382 21.8945 25.3704 22.0502ZM19.8425 25.5224C19.9896 25.5837 20.0513 25.6996 20.0776 25.9631C20.2606 27.8006 19.9045 29.7249 19.073 31.3903C17.5005 34.54 14.6846 35.707 12.7068 34.0286C11.5748 33.0679 10.8913 31.2815 10.8904 29.281L10.8902 28.9669L11.0151 29.0452C11.6712 29.4565 12.4985 29.8736 13.1913 30.1424C13.6596 30.3242 14.0475 30.2961 14.5781 30.0423C15.3212 29.6867 15.9718 29.096 17.5367 27.3562C18.3697 26.4301 18.7377 26.0596 19.0807 25.8015C19.418 25.5478 19.6765 25.453 19.8425 25.5224Z" fill="url(#paint1_linear_461_5565)" fill-opacity="0.9" style="mix-blend-mode:soft-light"/>
</g>
<g id="Group 55">
<g id="Logolivery">
<path d="M47.7129 27.7966L47.7129 6.69535L50.7765 6.69535L50.7765 25.0209L59.9674 25.0209L59.9674 27.7966L47.7129 27.7966Z" fill="#070A1D"/>
<path d="M68.8209 28.1365C67.3459 28.1365 66.0032 27.7966 64.7928 27.1169C63.6014 26.4182 62.6464 25.4646 61.9278 24.2562C61.2281 23.0477 60.8782 21.6692 60.8782 20.1209C60.8782 18.5914 61.2281 17.2318 61.9278 16.0422C62.6275 14.8526 63.5731 13.9085 64.7645 13.2098C65.9748 12.5112 67.3269 12.1619 68.8209 12.1619C70.3149 12.1619 71.6576 12.5112 72.849 13.2098C74.0593 13.8896 75.0144 14.8337 75.7141 16.0422C76.4138 17.2318 76.7637 18.5914 76.7637 20.1209C76.7637 21.6692 76.4043 23.0477 75.6857 24.2562C74.9671 25.4646 74.0121 26.4182 72.8207 27.1169C71.6293 27.7966 70.296 28.1365 68.8209 28.1365ZM68.8209 25.3608C69.7476 25.3608 70.5797 25.1342 71.3172 24.681C72.0548 24.2278 72.6315 23.6047 73.0476 22.8116C73.4826 22.0186 73.7 21.1216 73.7 20.1209C73.7 19.139 73.4826 18.2609 73.0476 17.4867C72.6315 16.6937 72.0548 16.0706 71.3172 15.6174C70.5797 15.1642 69.7476 14.9376 68.8209 14.9376C67.8943 14.9376 67.0622 15.1642 66.3247 15.6174C65.606 16.0706 65.0292 16.6937 64.5943 17.4867C64.1593 18.2609 63.9418 19.139 63.9418 20.1209C63.9418 21.1216 64.1593 22.0186 64.5943 22.8116C65.0292 23.6047 65.606 24.2278 66.3247 24.681C67.0622 25.1342 67.8943 25.3608 68.8209 25.3608Z" fill="#070A1D"/>
<path d="M86.275 34.0279C85.1781 34.0279 84.1569 33.8485 83.2114 33.4897C82.2847 33.1498 81.4904 32.6683 80.8285 32.0452C80.1666 31.441 79.6655 30.7234 79.3251 29.8926L82.0199 28.7313C82.2847 29.4489 82.7764 30.0437 83.495 30.5157C84.2326 31.0067 85.1498 31.2522 86.2466 31.2522C87.0787 31.2522 87.8351 31.0916 88.516 30.7706C89.1968 30.4685 89.7357 30.0059 90.1329 29.3828C90.53 28.7596 90.7286 28.0043 90.7286 27.1169L90.7286 23.6897L91.2392 24.2562C90.7097 25.2758 89.9627 26.05 88.9982 26.5787C88.0526 27.1074 86.9841 27.3718 85.7927 27.3718C84.3555 27.3718 83.0695 27.0413 81.9348 26.3804C80.8002 25.7007 79.9113 24.7849 79.2684 23.633C78.6254 22.4812 78.3039 21.1877 78.3039 19.7527C78.3039 18.3176 78.6254 17.0336 79.2684 15.9006C79.9113 14.7488 80.7907 13.8424 81.9065 13.1815C83.0412 12.5017 84.3271 12.1619 85.7644 12.1619C86.9369 12.1619 87.9959 12.4262 88.9415 12.9549C89.887 13.4648 90.6529 14.1917 91.2392 15.1359L90.842 15.9006L90.842 12.5017L93.6504 12.5017L93.6504 27.1169C93.6504 28.4386 93.3289 29.6188 92.6859 30.6573C92.0618 31.7148 91.1919 32.5362 90.0761 33.1215C88.9793 33.7258 87.7122 34.0279 86.275 34.0279ZM86.0764 24.596C86.9652 24.596 87.75 24.3883 88.4309 23.9729C89.1306 23.5386 89.6885 22.9533 90.1045 22.2168C90.5205 21.4804 90.7286 20.6685 90.7286 19.781C90.7286 18.8746 90.5205 18.0532 90.1045 17.3168C89.6885 16.5804 89.1306 16.0045 88.4309 15.5891C87.75 15.1548 86.9652 14.9376 86.0764 14.9376C85.1876 14.9376 84.3839 15.1548 83.6652 15.5891C82.9466 16.0045 82.3793 16.5804 81.9632 17.3168C81.5661 18.0343 81.3675 18.8557 81.3675 19.781C81.3675 20.6685 81.5661 21.4804 81.9632 22.2168C82.3793 22.9344 82.9371 23.5103 83.6369 23.9446C84.3555 24.3789 85.1687 24.596 86.0764 24.596Z" fill="#070A1D"/>
<path d="M103.755 28.1365C102.28 28.1365 100.938 27.7966 99.7273 27.1169C98.5359 26.4182 97.5809 25.4646 96.8622 24.2562C96.1625 23.0477 95.8127 21.6692 95.8127 20.1209C95.8127 18.5914 96.1625 17.2318 96.8622 16.0422C97.562 14.8526 98.5075 13.9085 99.6989 13.2098C100.909 12.5112 102.261 12.1619 103.755 12.1619C105.249 12.1619 106.592 12.5112 107.783 13.2098C108.994 13.8896 109.949 14.8337 110.649 16.0422C111.348 17.2318 111.698 18.5914 111.698 20.1209C111.698 21.6692 111.339 23.0477 110.62 24.2562C109.902 25.4646 108.947 26.4182 107.755 27.1169C106.564 27.7966 105.23 28.1365 103.755 28.1365ZM103.755 25.3608C104.682 25.3608 105.514 25.1342 106.252 24.681C106.989 24.2278 107.566 23.6047 107.982 22.8116C108.417 22.0186 108.634 21.1216 108.634 20.1209C108.634 19.139 108.417 18.2609 107.982 17.4867C107.566 16.6937 106.989 16.0706 106.252 15.6174C105.514 15.1642 104.682 14.9376 103.755 14.9376C102.829 14.9376 101.997 15.1642 101.259 15.6174C100.54 16.0706 99.9637 16.6937 99.5287 17.4867C99.0938 18.2609 98.8763 19.139 98.8763 20.1209C98.8763 21.1216 99.0938 22.0186 99.5287 22.8116C99.9637 23.6047 100.54 24.2278 101.259 24.681C101.997 25.1342 102.829 25.3608 103.755 25.3608Z" fill="#070A1D"/>
<path d="M113.862 27.7966L113.862 6.35547L116.784 6.35547L116.784 27.7966L113.862 27.7966Z" fill="#070A1D"/>
<path d="M119.57 27.7966L119.57 12.5017L122.492 12.5017L122.492 27.7966L119.57 27.7966ZM119.57 10.2358L119.57 6.69535L122.492 6.69535L122.492 10.2358L119.57 10.2358Z" fill="#070A1D"/>
<path d="M129.618 27.7966L123.633 12.5017L126.838 12.5017L131.547 25.2192L130.412 25.2192L135.15 12.5017L138.355 12.5017L132.341 27.7966L129.618 27.7966Z" fill="#070A1D"/>
<path d="M146.333 28.1365C144.82 28.1365 143.478 27.7872 142.305 27.0885C141.151 26.371 140.244 25.408 139.582 24.1995C138.92 22.991 138.589 21.622 138.589 20.0925C138.589 18.5631 138.92 17.2035 139.582 16.0139C140.244 14.8243 141.133 13.8896 142.248 13.2098C143.383 12.5112 144.66 12.1619 146.078 12.1619C147.231 12.1619 148.253 12.3601 149.141 12.7567C150.03 13.1532 150.787 13.7008 151.411 14.3994C152.035 15.0981 152.508 15.8912 152.829 16.7787C153.17 17.6473 153.34 18.5631 153.34 19.5261C153.34 19.7715 153.321 20.0265 153.283 20.2908C153.264 20.5363 153.236 20.7723 153.198 20.9989L140.802 20.9989L140.802 18.5914L151.524 18.5914L150.134 19.6677C150.305 18.7236 150.219 17.8738 149.879 17.1185C149.558 16.3632 149.056 15.7684 148.376 15.3341C147.714 14.8998 146.948 14.6827 146.078 14.6827C145.208 14.6827 144.423 14.9093 143.723 15.3625C143.024 15.7968 142.485 16.4199 142.106 17.2318C141.728 18.0438 141.577 19.0068 141.653 20.1209C141.558 21.2161 141.709 22.1696 142.106 22.9816C142.523 23.7746 143.099 24.3978 143.837 24.851C144.593 25.2853 145.435 25.5024 146.362 25.5024C147.345 25.5024 148.168 25.2853 148.829 24.851C149.51 24.3978 150.059 23.8313 150.475 23.1515L152.886 24.3411C152.583 25.0587 152.111 25.7007 151.468 26.2672C150.825 26.8336 150.068 27.2868 149.198 27.6267C148.328 27.9666 147.373 28.1365 146.333 28.1365Z" fill="#070A1D"/>
<path d="M155.503 27.7966L155.503 12.5017L158.311 12.5017L158.311 15.4474L158.028 15.0226C158.387 14.0784 158.935 13.3987 159.673 12.9833C160.429 12.549 161.337 12.3318 162.396 12.3318L164.436 12.3318L164.436 15.0226L161.999 15.0226C160.921 15.0226 160.051 15.353 159.389 16.0139C158.746 16.6748 158.425 17.6095 158.425 18.818L158.425 27.7966L155.503 27.7966Z" fill="#070A1D"/>
<path d="M165.586 34.0562C165.227 34.0562 164.867 34.0279 164.508 33.9712C164.149 33.9146 163.818 33.8107 163.515 33.6597L163.515 31.1389C163.723 31.1766 163.988 31.2144 164.309 31.2522C164.631 31.3088 164.943 31.3371 165.245 31.3371C166.134 31.3371 166.796 31.1389 167.231 30.7423C167.685 30.3647 168.101 29.7321 168.479 28.8446L169.472 26.5221L169.415 29.0429L162.834 12.5017L164.436 12.3318L165.916 12.3318L170.465 24.0965L174.947 12.5017L178.124 12.5017L171.288 29.5527C170.947 30.4024 170.512 31.1672 169.983 31.847C169.472 32.5456 168.848 33.0838 168.11 33.4614C167.392 33.8579 166.55 34.0562 165.586 34.0562Z" fill="#070A1D"/>
</g>
<g id="AI">
<path d="M200.897 6.69531L197.833 6.69531L197.833 27.7966L200.897 27.7966L200.897 6.69531Z" fill="url(#paint2_linear_461_5565)"/>
<path d="M200.897 6.69531L197.833 6.69531L197.833 27.7966L200.897 27.7966L200.897 6.69531Z" fill="url(#paint3_linear_461_5565)" fill-opacity="0.9" style="mix-blend-mode:soft-light"/>
<path fill-rule="evenodd" clip-rule="evenodd" d="M185.192 6.69531L188.908 6.69531L196.397 27.7966L193.106 27.7966L191.433 22.9532L182.639 22.9532L180.965 27.7966L177.675 27.7966L185.192 6.69531ZM190.497 20.2058L183.547 20.2058L187.034 10.1122L190.497 20.2058Z" fill="url(#paint4_linear_461_5565)"/>
<path fill-rule="evenodd" clip-rule="evenodd" d="M185.192 6.69531L188.908 6.69531L196.397 27.7966L193.106 27.7966L191.433 22.9532L182.639 22.9532L180.965 27.7966L177.675 27.7966L185.192 6.69531ZM190.497 20.2058L183.547 20.2058L187.034 10.1122L190.497 20.2058Z" fill="url(#paint5_linear_461_5565)" fill-opacity="0.9" style="mix-blend-mode:soft-light"/>
</g>
</g>
</g>
<defs>
<linearGradient id="paint0_linear_461_5565" x1="18.2116" y1="34.7949" x2="18.2116" y2="0.169369" gradientUnits="userSpaceOnUse">
<stop stop-color="#415EED"/>
<stop offset="1" stop-color="#3651DA"/>
</linearGradient>
<linearGradient id="paint1_linear_461_5565" x1="0.899415" y1="0.169368" x2="35.525" y2="34.7937" gradientUnits="userSpaceOnUse">
<stop stop-color="#F7F8FC" stop-opacity="0"/>
<stop offset="0.119535" stop-color="#F7F8FC" stop-opacity="0.466594"/>
<stop offset="0.275284" stop-color="#F7F8FC" stop-opacity="0.1"/>
<stop offset="0.525208" stop-color="#F7F8FC"/>
<stop offset="0.821602" stop-color="#F7F8FC" stop-opacity="0"/>
<stop offset="1" stop-color="#F7F8FC" stop-opacity="0"/>
</linearGradient>
<linearGradient id="paint2_linear_461_5565" x1="189.286" y1="6.69531" x2="189.286" y2="27.7966" gradientUnits="userSpaceOnUse">
<stop stop-color="#415EED"/>
<stop offset="1" stop-color="#3651DA"/>
</linearGradient>
<linearGradient id="paint3_linear_461_5565" x1="177.675" y1="27.7966" x2="200.865" y2="6.66028" gradientUnits="userSpaceOnUse">
<stop stop-color="#F7F8FC" stop-opacity="0"/>
<stop offset="0.119535" stop-color="#F7F8FC" stop-opacity="0.466594"/>
<stop offset="0.275284" stop-color="#F7F8FC" stop-opacity="0.1"/>
<stop offset="0.525208" stop-color="#F7F8FC"/>
<stop offset="0.821602" stop-color="#F7F8FC" stop-opacity="0"/>
<stop offset="1" stop-color="#F7F8FC" stop-opacity="0"/>
</linearGradient>
<linearGradient id="paint4_linear_461_5565" x1="189.286" y1="6.69531" x2="189.286" y2="27.7966" gradientUnits="userSpaceOnUse">
<stop stop-color="#415EED"/>
<stop offset="1" stop-color="#3651DA"/>
</linearGradient>
<linearGradient id="paint5_linear_461_5565" x1="177.675" y1="27.7966" x2="200.865" y2="6.66028" gradientUnits="userSpaceOnUse">
<stop stop-color="#F7F8FC" stop-opacity="0"/>
<stop offset="0.119535" stop-color="#F7F8FC" stop-opacity="0.466594"/>
<stop offset="0.275284" stop-color="#F7F8FC" stop-opacity="0.1"/>
<stop offset="0.525208" stop-color="#F7F8FC"/>
<stop offset="0.821602" stop-color="#F7F8FC" stop-opacity="0"/>
<stop offset="1" stop-color="#F7F8FC" stop-opacity="0"/>
</linearGradient>
</defs>
</svg>
