<svg width="191" height="24" viewBox="0 0 191 24" fill="none" xmlns="http://www.w3.org/2000/svg">
<g clip-path="url(#clip0_1142_8599)">
<path d="M182.46 16.0399C182.46 17.2291 182.155 18.2856 181.541 19.1996C180.926 20.1185 180.057 20.8409 178.931 21.3618C177.801 21.8876 176.445 22.148 174.853 22.148C173.261 22.148 171.909 21.8826 170.745 21.347C169.58 20.8163 168.666 20.0546 168.003 19.0768C167.433 18.2414 167.074 17.2782 166.912 16.1873C166.868 15.8876 167.094 15.6124 167.398 15.6124H170.44C170.681 15.6124 170.892 15.7844 170.922 16.0203C171.035 16.8802 171.379 17.5731 171.949 18.1038C172.602 18.718 173.546 19.0227 174.769 19.0227C175.452 19.0227 176.052 18.9244 176.568 18.7328C177.084 18.5411 177.492 18.261 177.786 17.8925C178.081 17.5239 178.234 17.0964 178.234 16.605C178.234 16.0104 178.012 15.5338 177.58 15.1751C177.143 14.8163 176.524 14.5608 175.718 14.3987L172.622 13.7942C171.904 13.6714 171.241 13.4699 170.627 13.1898C170.013 12.9097 169.482 12.5608 169.025 12.1382C168.568 11.7205 168.209 11.2095 167.949 10.6149C167.688 10.0203 167.556 9.33726 167.556 8.56576C167.556 7.44537 167.855 6.44784 168.46 5.57315C169.064 4.69846 169.895 4.01542 170.951 3.52893C172.013 3.06211 173.226 2.81641 174.592 2.81641C175.958 2.81641 177.27 3.07685 178.371 3.60264C179.472 4.12844 180.366 4.86554 181.049 5.81885C181.634 6.63457 181.993 7.57805 182.125 8.65421C182.165 8.95397 181.939 9.21932 181.639 9.21932H178.582C178.347 9.21932 178.135 9.05224 178.101 8.82129C178.027 8.32006 177.87 7.87289 177.629 7.47486C177.325 6.97855 176.917 6.59034 176.411 6.32007C175.904 6.0498 175.315 5.91221 174.651 5.91221C173.988 5.91221 173.457 6.02032 173.01 6.24145C172.563 6.46258 172.219 6.74759 171.973 7.10631C171.727 7.46503 171.605 7.87289 171.605 8.32498C171.605 8.74266 171.723 9.09647 171.958 9.37657C172.194 9.65666 172.504 9.87779 172.892 10.0449C173.275 10.2119 173.698 10.3397 174.15 10.4232L177.379 11.0768C179.039 11.411 180.302 11.9711 181.172 12.7672C182.037 13.5633 182.469 14.6542 182.469 16.035L182.46 16.0399Z" fill="black"/>
<path d="M183.888 3.31836H186.762V3.95718H185.711V6.75814H184.934V3.95718H183.888V3.31836Z" fill="black"/>
<path d="M187.183 3.31836H188.047L189.119 5.46085L190.18 3.31836H191.04V6.75814H190.342V4.38961L189.364 6.40925H188.863L187.88 4.38961V6.75814H187.183V3.31836Z" fill="black"/>
<path d="M147.517 21.3045L143.885 15.7271C143.846 15.6632 143.87 15.5846 143.934 15.5551C144.46 15.2996 144.937 14.99 145.35 14.6165C146.662 13.4372 147.315 11.7861 147.315 9.67308C147.315 7.56007 146.662 6.10062 145.35 4.99006C144.038 3.8795 142.175 3.32422 139.762 3.32422H133.065C132.794 3.32422 132.573 3.54535 132.573 3.81562V21.2013C132.573 21.4715 132.794 21.6927 133.065 21.6927H135.728C135.998 21.6927 136.219 21.4715 136.219 21.2013V16.6362C136.219 16.4986 136.328 16.3905 136.465 16.3905H139.63C139.713 16.3905 139.787 16.4298 139.836 16.4986L143.119 21.4666C143.207 21.6042 143.364 21.6878 143.531 21.6878H147.315C147.512 21.6878 147.63 21.4715 147.522 21.3094L147.517 21.3045ZM136.219 6.89668C136.219 6.75909 136.328 6.65098 136.465 6.65098H140.052C141.207 6.65098 142.097 6.91142 142.73 7.43722C143.359 7.96301 143.674 8.74925 143.674 9.80084C143.674 10.8524 143.359 11.6927 142.73 12.2283C142.101 12.764 141.207 13.0293 140.052 13.0293H136.465C136.328 13.0293 136.219 12.9212 136.219 12.7836V6.90159V6.89668Z" fill="black"/>
<path d="M166.58 21.3074L159.651 10.6687C159.587 10.5753 159.602 10.4475 159.681 10.364L165.99 3.73504C166.138 3.57779 166.029 3.32227 165.813 3.32227H161.651C161.518 3.32227 161.386 3.37632 161.297 3.4746L154.162 10.9733C154.084 11.052 153.951 10.9979 153.951 10.8898V3.81366C153.951 3.54339 153.73 3.32227 153.459 3.32227H150.796C150.526 3.32227 150.305 3.54339 150.305 3.81366V21.1993C150.305 21.4696 150.526 21.6907 150.796 21.6907H153.459C153.73 21.6907 153.951 21.4696 153.951 21.1993V16.5851C153.951 16.4573 154 16.3394 154.088 16.246L156.771 13.4303C156.826 13.3714 156.919 13.3812 156.963 13.45L162.187 21.4696C162.275 21.6072 162.432 21.6907 162.599 21.6907H166.383C166.58 21.6907 166.698 21.4745 166.59 21.3123L166.58 21.3074Z" fill="black"/>
<path d="M83.4377 3.3125H79.9685C79.7866 3.3125 79.6245 3.41078 79.536 3.56803L75.2953 11.2928C75.2019 11.4599 74.9611 11.4648 74.8677 11.2928L70.5287 3.56311C70.4402 3.40587 70.2781 3.3125 70.1012 3.3125H66.6319C66.4452 3.3125 66.3272 3.51397 66.4157 3.67613L72.8481 15.4255C72.9267 15.568 72.971 15.7301 72.971 15.8972V21.1896C72.971 21.4598 73.1921 21.681 73.4623 21.681H76.6024C76.8727 21.681 77.0938 21.4598 77.0938 21.1896V16.0102C77.0938 15.8481 77.1331 15.6859 77.2117 15.5434L83.654 3.67613C83.7424 3.51397 83.6245 3.3125 83.4377 3.3125Z" fill="black"/>
<path d="M109.192 3.29883L106.131 3.29883C105.919 3.29883 105.733 3.43151 105.664 3.63298L101.408 16.2029C101.335 16.4241 101.02 16.4241 100.941 16.2029L96.6909 3.63298C96.6221 3.43151 96.4354 3.29883 96.2241 3.29883H93.1676C92.9563 3.29883 92.7695 3.43151 92.7007 3.63298L88.4452 16.2275C88.3715 16.4486 88.057 16.4486 87.9784 16.2275L84.9465 7.27424C84.9121 7.17104 84.7745 7.16122 84.7204 7.25458L82.6467 11.0777C82.5829 11.1956 82.5681 11.3381 82.6123 11.4708L85.9588 21.3528C86.0276 21.5543 86.2143 21.6869 86.4256 21.6869H89.998C90.2094 21.6869 90.3961 21.5543 90.4649 21.3528L94.4649 9.53467C94.5386 9.31354 94.8531 9.31354 94.9317 9.53467L98.9218 21.338C98.9906 21.5395 99.1774 21.6722 99.3887 21.6722H102.961C103.172 21.6722 103.359 21.5346 103.428 21.338L109.423 3.62315C109.477 3.4659 109.359 3.29883 109.192 3.29883Z" fill="black"/>
<path d="M45.1301 3.31445H48.9531C49.1399 3.31445 49.3119 3.41765 49.3905 3.58472L54.7516 14.3119C54.8401 14.4938 55.1005 14.4938 55.1939 14.3119L60.5108 3.58964C60.5944 3.42256 60.7664 3.31445 60.9531 3.31445H64.7467C65.017 3.31445 65.2381 3.53558 65.2381 3.80585V21.1915C65.2381 21.4618 65.017 21.6829 64.7467 21.6829H62.0047C61.7344 21.6829 61.5133 21.4618 61.5133 21.1915V10.1056C61.5133 9.84513 61.1595 9.76159 61.0465 9.99746L56.4273 19.5404C56.3438 19.7124 56.1718 19.8156 55.9851 19.8156H53.9261C53.7394 19.8156 53.5674 19.7075 53.4838 19.5404L48.8303 9.99255C48.7173 9.75668 48.3635 9.84022 48.3635 10.1007V21.1915C48.3635 21.4618 48.1423 21.6829 47.8721 21.6829H45.1301C44.8598 21.6829 44.6387 21.4618 44.6387 21.1915V3.80585C44.6387 3.53558 44.8598 3.31445 45.1301 3.31445Z" fill="black"/>
<path d="M129.069 8.65812C128.558 7.50333 127.84 6.47631 126.941 5.59671C126.037 4.72202 124.961 4.02915 123.747 3.54758C122.533 3.06601 121.202 2.82031 119.791 2.82031C118.381 2.82031 117.054 3.06601 115.845 3.54758C114.641 4.02915 113.565 4.71711 112.651 5.58197C111.737 6.45174 111.015 7.48368 110.504 8.64338C109.993 9.80799 109.732 11.0856 109.732 12.4468C109.732 13.808 109.993 15.0905 110.504 16.265C111.015 17.4394 111.737 18.4762 112.646 19.3558C113.56 20.2305 114.632 20.9234 115.84 21.4197C117.049 21.916 118.376 22.1617 119.786 22.1617C121.197 22.1617 122.528 21.9111 123.742 21.4197C124.956 20.9283 126.032 20.2355 126.936 19.3558C127.84 18.4762 128.558 17.4345 129.069 16.2551C129.58 15.0709 129.84 13.7932 129.84 12.4517C129.84 11.1102 129.58 9.81782 129.069 8.65812ZM125.379 14.9333C125.059 15.6949 124.622 16.378 124.076 16.9578C123.531 17.5377 122.887 17.9947 122.165 18.319C120.715 18.9676 118.971 18.9627 117.506 18.319C116.774 17.9947 116.116 17.5377 115.551 16.9529C114.985 16.3731 114.533 15.69 114.209 14.9284C113.885 14.1716 113.723 13.3362 113.723 12.4468C113.723 11.5574 113.885 10.7269 114.199 9.97506C114.514 9.22323 114.961 8.55492 115.526 7.97999C116.091 7.40997 116.745 6.95788 117.482 6.64339C118.214 6.32889 119.01 6.16673 119.845 6.16673C120.681 6.16673 121.447 6.32889 122.17 6.64339C122.892 6.95788 123.536 7.40997 124.081 7.97999C124.627 8.55492 125.064 9.22323 125.383 9.97506C125.698 10.7269 125.86 11.5574 125.86 12.4468C125.86 13.3362 125.698 14.1716 125.383 14.9333H125.379Z" fill="black"/>
</g>
<g clip-path="url(#clip1_1142_8599)">
<path d="M15.922 22.9638L23.9278 14.958C25.2949 13.5909 25.2949 11.3739 23.9278 10.0006L20.1835 6.25634L17.0736 9.36627L20.1835 12.4762L13.588 19.0717C13.2616 19.3981 12.8121 19.5829 12.3502 19.5829L5.87784 19.5829C5.55761 19.5829 5.2928 19.3242 5.2928 18.9978L5.2928 5.94843C5.2928 5.6282 5.55145 5.36339 5.87784 5.36339L12.3502 5.36339C12.8121 5.36339 13.2616 5.54814 13.588 5.87453L13.9637 6.25018L17.0736 3.14025L15.922 1.98865C15.2631 1.32971 14.3763 0.960218 13.4464 0.960217L4.39985 0.960217C2.46615 0.960217 0.89579 2.53058 0.89579 4.46428L0.895788 20.4881C0.895788 22.4218 2.46615 23.9922 4.39985 23.9922L13.4464 23.9922C14.3763 23.9922 15.2692 23.6227 15.922 22.9638Z" fill="#3370FD"/>
<path d="M13.9652 18.71L17.0751 15.6001L13.959 12.4902L20.5545 5.89465C20.8809 5.56826 21.3305 5.38351 21.7924 5.38351L28.2647 5.38351C28.585 5.38351 28.8498 5.64216 28.8498 5.96855L28.8498 19.0118C28.8498 19.332 28.5911 19.5968 28.2647 19.5968L21.7924 19.5968C21.3305 19.5968 20.8809 19.4121 20.5545 19.0857L20.1789 18.71L17.069 21.82L18.2206 22.9716C18.8795 23.6305 19.7663 24 20.6962 24L29.7489 24C31.6826 23.9938 33.2529 22.4235 33.2529 20.4898L33.2529 4.47824C33.2529 2.54454 31.6826 0.974184 29.7489 0.974184L20.7023 0.974183C19.7724 0.974183 18.8795 1.34368 18.2267 2.00262L10.2209 10.0084C8.85381 11.3755 8.85381 13.5925 10.2209 14.9658L13.9652 18.71Z" fill="#23B4F3"/>
</g>
<defs>
<clipPath id="clip0_1142_8599">
<rect width="146.265" height="19.3365" fill="white" transform="translate(44.6377 2.81641)"/>
</clipPath>
<clipPath id="clip1_1142_8599">
<rect width="32.3556" height="23.0196" fill="white" transform="translate(33.2578 23.9922) rotate(-180)"/>
</clipPath>
</defs>
</svg>
