<svg width="181" height="41" viewBox="0 0 181 41" fill="none" xmlns="http://www.w3.org/2000/svg">
<path fill-rule="evenodd" clip-rule="evenodd" d="M23.3344 4.66005C19.704 4.66005 16.3493 6.59659 14.5338 9.7403L5.30571 25.7198C4.76608 26.6543 5.44048 27.8224 6.51958 27.8224L9.21355 27.8224L16.9845 14.3662C18.9251 11.0056 22.5112 8.93555 26.392 8.93555L44.0883 8.93555L45.3418 6.76185C45.8806 5.82742 45.2061 4.66005 44.1274 4.66005L23.3344 4.66005ZM41.6636 13.1405L26.7336 13.1405C26.7329 13.1407 26.7321 13.1409 26.7314 13.1411L26.3925 13.1411C24.014 13.1411 21.8161 14.4099 20.6266 16.4695L16.6398 23.3732L16.6389 23.3732L14.0695 27.8224L30.7649 27.8224L26.5577 20.5336C26.1823 19.8831 26.1823 19.0817 26.5579 18.4312C26.9335 17.7808 27.6276 17.3801 28.3788 17.3801L35.3723 17.3801C37.7524 17.3801 39.9515 16.1097 41.1404 14.0479L41.6636 13.1405ZM10.8922 7.63751C13.4589 3.19295 18.2017 0.455078 23.3344 0.455078L44.1274 0.455078C48.4422 0.455078 51.14 5.12455 48.9847 8.8623L44.7833 16.1484C42.8436 19.5123 39.2556 21.5851 35.3723 21.5851L32.02 21.5851L36.2272 28.8739C36.6027 29.5244 36.6026 30.3258 36.227 30.9763C35.8514 31.6267 35.1573 32.0274 34.4062 32.0274L6.51958 32.0274C2.20316 32.0274 -0.494444 27.3548 1.66409 23.617L10.8922 7.63751ZM6.21582 36.4744C6.88153 38.7218 8.93164 40.5084 11.6007 40.5084L39.4874 40.5084C40.2385 40.5084 40.9326 40.1078 41.3082 39.4573C41.6838 38.8069 41.6839 38.0055 41.3084 37.3549L39.4412 34.1201C38.2086 35.5999 36.3699 36.4787 34.4061 36.4787L6.51944 36.4787C6.41773 36.4787 6.31652 36.4772 6.21582 36.4744ZM40.9586 29.842C45.0876 29.1038 48.7383 26.5824 50.8758 22.8756L54.0659 17.3433C55.4328 14.9728 54.8477 12.2275 53.1361 10.5363C53.0438 10.7207 52.9451 10.9041 52.8401 11.0863L48.6387 18.3724C48.5157 18.5856 48.3881 18.7952 48.2559 19.001L47.2328 20.7752C45.613 23.5842 42.7647 25.4308 39.5879 25.795L40.0816 26.6503C40.6522 27.6387 40.9445 28.739 40.9586 29.842Z" fill="#08C5FC"/>
<path d="M66.5107 33.3362L66.5107 8.53124L82.2407 8.53124C84.0246 8.53124 85.5072 8.85667 86.6884 9.50753C87.8697 10.1584 88.7496 11.0744 89.3282 12.2556C89.9067 13.4127 90.196 14.7385 90.196 16.2331C90.196 17.8 89.8224 19.2222 89.075 20.4998C88.3518 21.7533 87.255 22.7055 85.7844 23.3564L90.9554 33.3362L85.4228 33.3362L80.8666 24.2603L71.5371 24.2603L71.5371 33.3362L66.5107 33.3362ZM71.5371 20.0659L81.409 20.0659C82.5902 20.0659 83.4942 19.7284 84.121 19.0535C84.7478 18.3544 85.0612 17.4384 85.0612 16.3054C85.0612 15.534 84.9166 14.8952 84.6273 14.389C84.3621 13.8586 83.9523 13.4609 83.3978 13.1957C82.8675 12.9065 82.2045 12.7618 81.409 12.7618L71.5371 12.7618L71.5371 20.0659Z" fill="#08C5FC"/>
<path d="M103.618 33.7701C101.424 33.7701 99.5682 33.4206 98.0494 32.7215C96.5307 31.9984 95.3735 30.9015 94.578 29.4311C93.7824 27.9606 93.3847 26.0924 93.3847 23.8264C93.3847 21.5605 93.7704 19.6923 94.5418 18.2218C95.3374 16.7514 96.4945 15.6666 98.0133 14.9675C99.532 14.2443 101.376 13.8828 103.546 13.8828C105.667 13.8828 107.439 14.2323 108.861 14.9314C110.308 15.6304 111.393 16.6911 112.116 18.1133C112.839 19.5356 113.201 21.3315 113.201 23.501L113.201 24.9835L98.1941 24.9835C98.2664 26.1647 98.5074 27.141 98.9173 27.9124C99.3271 28.6597 99.9298 29.2262 100.725 29.6119C101.521 29.9735 102.509 30.1542 103.69 30.1542C104.245 30.1542 104.799 30.0819 105.354 29.9373C105.908 29.7927 106.415 29.5878 106.873 29.3226C107.331 29.0333 107.704 28.6717 107.994 28.2378C108.307 27.8039 108.161 27.9887 108.333 27.4066L113.128 27.4066C112.974 28.6761 112.899 28.8284 112.441 29.7203C112.007 30.5882 111.369 31.3234 110.525 31.926C109.681 32.5287 108.669 32.9867 107.487 33.3001C106.33 33.6134 105.04 33.7701 103.618 33.7701ZM98.2664 21.7654L108.319 21.7654C108.319 21.0181 108.199 20.3793 107.957 19.849C107.716 19.2945 107.379 18.8486 106.945 18.5111C106.535 18.1736 106.041 17.9325 105.462 17.7879C104.884 17.6192 104.257 17.5348 103.582 17.5348C102.521 17.5348 101.605 17.6915 100.834 18.0049C100.086 18.2941 99.4958 18.7642 99.0619 19.4151C98.6521 20.0418 98.3869 20.8253 98.2664 21.7654Z" fill="#08C5FC"/>
<path d="M117.171 33.3362L117.171 14.3167L121.365 14.3167L121.365 17.1371L121.655 17.1371C122.161 16.4139 122.74 15.8112 123.39 15.3291C124.065 14.847 124.801 14.4854 125.596 14.2443C126.416 14.0033 127.26 13.8828 128.128 13.8828C129.502 13.8828 130.683 14.1359 131.671 14.6421C132.66 15.1483 133.407 15.98 133.913 17.1371L134.203 17.1371C134.733 16.4139 135.336 15.8112 136.011 15.3291C136.686 14.847 137.433 14.4854 138.253 14.2443C139.096 14.0033 139.952 13.8828 140.82 13.8828C142.194 13.8828 143.363 14.1118 144.328 14.5698C145.316 15.0278 146.075 15.7751 146.606 16.8116C147.136 17.8241 147.401 19.1499 147.401 20.7891L147.401 33.3362L142.773 33.3362L142.773 21.6931C142.773 20.9699 142.676 20.3672 142.483 19.8851C142.315 19.3789 142.074 18.9812 141.76 18.6919C141.471 18.4026 141.097 18.1977 140.639 18.0772C140.205 17.9325 139.723 17.8602 139.193 17.8602C138.349 17.8602 137.578 18.0651 136.878 18.4749C136.203 18.8847 135.661 19.4512 135.251 20.1744C134.841 20.8735 134.636 21.6931 134.636 22.6332L134.636 33.3362L130.008 33.3362L130.008 21.6931C130.008 20.9699 129.911 20.3672 129.719 19.8851C129.55 19.3789 129.309 18.9812 128.995 18.6919C128.682 18.4026 128.296 18.1977 127.838 18.0772C127.404 17.9325 126.922 17.8602 126.392 17.8602C125.572 17.8602 124.813 18.0651 124.114 18.4749C123.415 18.8847 122.86 19.4512 122.45 20.1744C122.04 20.8735 121.836 21.6931 121.836 22.6332L121.836 33.3362L117.171 33.3362Z" fill="#08C5FC"/>
<path d="M152.131 11.3155L152.131 7.19336L156.796 7.19336L156.796 11.3155L152.131 11.3155ZM152.131 33.3362L152.131 14.3167L156.796 14.3167L156.796 33.3362L152.131 33.3362Z" fill="#08C5FC"/>
<path d="M159.605 33.3362L167.307 23.501L160.111 14.3167L165.861 14.3167L170.345 20.2467L170.598 20.2467L175.082 14.3167L180.506 14.3167L173.274 23.4649L180.904 33.3362L175.227 33.3362L170.236 26.683L170.019 26.683L165.029 33.3362L159.605 33.3362Z" fill="#08C5FC"/>
</svg>
