<svg width="177" height="39" viewBox="0 0 177 39" fill="none" xmlns="http://www.w3.org/2000/svg">
<g id="uilearn-c-logo">
<path d="M67.0166 21.8739C67.0166 23.4548 66.7048 24.149 66.1547 24.6885C65.4359 25.3304 64.4988 25.6861 63.5268 25.6861C62.5547 25.6861 61.6176 25.3304 60.8989 24.6885C60.3487 24.149 60.0369 23.4548 60.0369 21.8739L60.0369 10.9901L54.9107 10.9901L54.9107 22.142C54.9107 24.8432 55.6991 26.6096 57.0726 27.9258C58.83 29.5123 61.1313 30.3929 63.5198 30.3929C65.9083 30.3929 68.2095 29.5123 69.9669 27.9258C71.3404 26.6165 72.1288 24.8329 72.1288 22.142L72.1288 10.9901L67.0166 10.9901L67.0166 21.8739ZM79.7533 8.73906C80.5922 8.73001 81.3937 8.39701 81.9841 7.81224C82.5744 7.22747 82.9059 6.43806 82.9068 5.61515L76.5717 5.61515C76.5736 6.44251 76.9093 7.23552 77.5054 7.82087C78.1016 8.40623 78.9097 8.73633 79.7533 8.73906ZM77.1604 29.8744L82.2691 29.8744L82.2691 11.0072L77.1604 11.0072L77.1604 29.8744ZM87.5354 29.8744L92.6476 29.8744L92.6476 5.59797L87.5354 5.59797L87.5354 29.8744ZM115.878 20.4683C115.885 20.9993 115.832 21.5295 115.721 22.0492L101.765 22.0492C102.161 24.2074 104.217 25.7882 106.835 25.7882C107.737 25.8004 108.625 25.5742 109.407 25.1334C110.188 24.6926 110.835 24.0534 111.278 23.2829L115.398 25.6164C114.505 27.0885 113.233 28.3044 111.71 29.1422C110.187 29.98 108.466 30.4103 106.719 30.3899C100.903 30.3899 96.6175 26.0735 96.6175 20.4443C96.6175 14.7394 100.664 10.4986 106.246 10.4986C111.828 10.4986 115.878 14.7463 115.878 20.4511L115.878 20.4683ZM110.766 18.3617C110.451 16.2034 108.685 14.6604 106.246 14.6604C103.807 14.6604 102.042 16.2034 101.726 18.3617L110.766 18.3617ZM134.242 10.9832L138.958 10.9832L138.958 29.8503L134.235 29.8503L134.235 28.077C132.658 29.5817 130.538 30.4131 128.338 30.3899C122.756 30.3899 118.552 26.0013 118.552 20.4511C118.552 14.901 122.756 10.5055 128.338 10.5055C130.539 10.4804 132.659 11.3121 134.235 12.8183L134.242 10.9832ZM134.043 20.4443C134.043 17.4372 131.884 15.1999 128.934 15.1999C125.984 15.1999 123.808 17.4441 123.808 20.4511C123.808 23.4582 125.97 25.6954 128.916 25.6954C131.863 25.6954 134.035 23.4582 134.035 20.4511L134.043 20.4443ZM149.61 12.7737C149.376 13.0039 149.179 13.2342 148.983 13.461L148.983 10.9797L144.218 10.9797L144.218 29.8469L149.33 29.8469L149.33 21.111C149.33 18.9906 149.838 17.7946 150.704 16.908C151.193 16.4321 151.778 16.0599 152.42 15.8146C153.063 15.5693 153.75 15.456 154.439 15.4817C154.991 15.4792 155.543 15.5171 156.089 15.5952L156.089 10.9282C155.559 10.8171 155.019 10.7652 154.477 10.7735C152.648 10.7929 150.899 11.5132 149.603 12.7805L149.61 12.7737ZM169.232 10.4986C168.291 10.4909 167.357 10.6653 166.485 11.0121C165.612 11.3589 164.818 11.8711 164.148 12.5194L164.148 11.0004L159.39 11.0004L159.39 29.8675L164.502 29.8675L164.502 19.4201C164.502 17.6468 164.894 16.798 165.553 16.1038C166.244 15.4364 167.176 15.0623 168.146 15.0623C169.116 15.0623 170.047 15.4364 170.739 16.1038C171.408 16.7602 171.79 17.6468 171.79 19.4201L171.79 29.8675L176.902 29.8675L176.902 18.9871C176.902 16.0179 176.037 14.0899 174.582 12.7015C173.885 11.9997 173.051 11.4435 172.129 11.0661C171.207 10.6887 170.217 10.498 169.218 10.5055L169.232 10.4986Z" fill="#09072A"/>
<path d="M38.5639 8.83796C38.5639 13.3598 34.8983 17.0254 30.3766 17.0254C25.8549 17.0254 22.1893 13.3598 22.1893 8.83796C22.1893 4.31616 25.8549 0.65052 30.3766 0.65052C34.8983 0.65052 38.5639 4.31616 38.5639 8.83796Z" fill="#5E53F6"/>
<path d="M6.96873 3.08095C7.48441 1.87766 7.74225 1.27602 8.05016 1.02286C8.65418 0.526235 9.52512 0.526235 10.1291 1.02286C10.437 1.27602 10.6949 1.87766 11.2106 3.08095C11.5227 3.80922 11.6787 4.17336 11.8828 4.49821C12.2754 5.12339 12.804 5.65199 13.4292 6.04466C13.754 6.2487 14.1182 6.40476 14.8464 6.71688C16.0497 7.23257 16.6513 7.49042 16.9045 7.79833C17.4011 8.40236 17.4011 9.27331 16.9045 9.87733C16.6513 10.1852 16.0497 10.4431 14.8464 10.9588C14.1182 11.2709 13.754 11.427 13.4292 11.631C12.804 12.0237 12.2754 12.5523 11.8828 13.1775C11.6787 13.5023 11.5227 13.8664 11.2106 14.5947C10.6949 15.798 10.437 16.3996 10.1291 16.6528C9.52512 17.1494 8.65418 17.1494 8.05016 16.6528C7.74225 16.3996 7.48441 15.798 6.96873 14.5947C6.65661 13.8664 6.50056 13.5023 6.29652 13.1775C5.90386 12.5523 5.37527 12.0237 4.7501 11.631C4.42526 11.427 4.06112 11.2709 3.33286 10.9588C2.12959 10.4431 1.52796 10.1852 1.2748 9.87733C0.77819 9.27331 0.77819 8.40236 1.2748 7.79833C1.52796 7.49042 2.12959 7.23257 3.33286 6.71688C4.06112 6.40476 4.42526 6.2487 4.7501 6.04466C5.37527 5.65199 5.90386 5.12339 6.29652 4.49821C6.50056 4.17336 6.65662 3.80922 6.96873 3.08095Z" fill="#5E53F6"/>
<path d="M22.2714 23.9777C21.868 22.7677 23.0192 21.6165 24.2292 22.0198L37.5056 26.4454C38.9067 26.9124 38.92 28.8895 37.5253 29.3754L32.374 31.1702C31.9278 31.3257 31.577 31.6764 31.4216 32.1226L29.6268 37.2741C29.1409 38.6687 27.1639 38.6554 26.6968 37.2543L22.2714 23.9777Z" fill="#5E53F6"/>
<path d="M0.902346 30.1253C0.902346 26.2657 0.902345 24.3359 2.10135 23.1369C3.30035 21.9378 5.23012 21.9378 9.08965 21.9378C12.9492 21.9378 14.879 21.9378 16.078 23.1369C17.277 24.3359 17.277 26.2657 17.277 30.1253C17.277 33.9849 17.277 35.9147 16.078 37.1137C14.879 38.3127 12.9492 38.3127 9.08965 38.3127C5.23012 38.3127 3.30035 38.3127 2.10135 37.1137C0.902345 35.9147 0.902346 33.9849 0.902346 30.1253Z" fill="#5E53F6"/>
</g>
</svg>
