<svg width="115" height="73" viewBox="0 0 115 73" fill="none" xmlns="http://www.w3.org/2000/svg">
<g id="Logo">
<path id="Vector 38" d="M66.0782 2.33573C64.5385 2.72357 63.5991 7.50577 63.5991 15.5373C63.5991 19.2689 60.8881 21.4997 55.264 20.8032C45.1909 19.5558 48.0505 15.5373 44.9333 8.68994C42.7904 3.9829 39.0642 0.0898437 32.0823 0.0898437C28.7286 0.0898438 33.3299 2.64708 32.5929 9.04009C31.812 15.8134 38.003 19.8599 42.1251 20.5475C45.1909 21.0589 36.715 34.783 40.837 34.783C43.1556 34.783 44.7013 28.6894 46.7623 28.6894C48.5657 28.6894 47.4638 35.4395 49.5962 35.4395C51.516 35.4395 52.1724 32.3106 54.2334 32.3106C57.0674 32.3106 56.2945 40.8261 58.0979 40.8261C60.6741 40.8261 60.1589 34.783 63.5991 34.783C67.8876 34.783 68.4029 40.8261 70.7215 40.8261C73.9651 40.8261 68.9181 21.8261 74.3283 21.3147C79.4576 20.8298 86.0641 17.8677 84.6333 15.5373C82.7268 12.4323 73.7338 17.4789 73.7338 8.68994C73.7338 4.1814 72.5249 0.857036 71.409 1.04713C69.9486 1.29591 71.1176 7.99155 69.4334 8.2854C67.1147 8.68994 67.8876 1.87992 66.0782 2.33573Z" fill="#B391EF"/>
<g id="userfox">
<path d="M16.7687 53.8627C17.487 53.829 17.8462 53.8122 18.0725 54.0281C18.2988 54.2441 18.2988 54.6037 18.2988 55.3228L18.2988 71.0336C18.2988 71.7227 18.2988 72.0672 18.0848 72.2813C17.8707 72.4953 17.5262 72.4953 16.8371 72.4953L14.3561 72.4953C13.6671 72.4953 13.3225 72.4953 13.1085 72.2813C12.8944 72.0672 12.8944 71.7227 12.8944 71.0336L12.8944 70.9331C12.0218 71.6087 11.1352 72.1013 10.2344 72.4109C9.33368 72.7205 8.36257 72.8753 7.32109 72.8753C5.40702 72.8753 3.85887 72.3405 2.67665 71.2709C1.49443 70.1731 0.90332 68.4702 0.90332 66.162L0.90332 55.4391C0.90332 54.779 0.90332 54.449 1.10543 54.2372C1.30753 54.0254 1.63722 54.0099 2.29661 53.979L4.77758 53.8627C5.49595 53.829 5.85513 53.8122 6.08144 54.0281C6.30775 54.2441 6.30776 54.6037 6.30776 55.3228L6.30776 65.022C6.30776 66.1198 6.57516 66.908 7.10998 67.3865C7.64479 67.865 8.37664 68.1043 9.30553 68.1043C9.92478 68.1043 10.544 68.0057 11.1633 67.8087C11.7826 67.5835 12.3596 67.302 12.8944 66.9643L12.8944 55.4391C12.8944 54.779 12.8944 54.449 13.0965 54.2372C13.2986 54.0254 13.6283 54.0099 14.2877 53.979L16.7687 53.8627Z" fill="#050038"/>
<path d="M32.0717 53.9843C32.6617 54.1262 32.9567 54.1971 33.1684 54.5222C33.3801 54.8474 33.3156 55.2002 33.1867 55.9057L32.9905 56.9799C32.8378 57.8156 32.7615 58.2334 32.502 58.4052C32.2424 58.5771 31.7743 58.4722 30.838 58.2625C30.7125 58.2344 30.5838 58.2076 30.4519 58.1821C29.6075 57.985 28.7489 57.8865 27.8763 57.8865C27.0882 57.8865 26.4971 58.0132 26.103 58.2665C25.7371 58.5198 25.5541 58.8576 25.5541 59.2798C25.5541 59.6176 25.7652 59.9132 26.1875 60.1665C26.6097 60.3917 27.1445 60.6028 27.7919 60.7998C28.4675 60.9969 29.1712 61.2361 29.903 61.5176C30.663 61.7991 31.3667 62.1509 32.0141 62.5732C32.6897 62.9954 33.2245 63.5583 33.6186 64.262C34.0408 64.9376 34.2519 65.7961 34.2519 66.8376C34.2519 67.9072 33.9845 68.9065 33.4497 69.8354C32.943 70.7361 32.0986 71.4679 30.9163 72.0309C29.7623 72.5939 28.2563 72.8753 26.3986 72.8753C25.1319 72.8753 23.8934 72.7346 22.683 72.4531C22.0049 72.2917 21.4009 72.1024 20.8709 71.8854C20.4016 71.6932 20.1669 71.5971 20.0004 71.328C19.8339 71.0588 19.8557 70.7635 19.8995 70.1729L19.9686 69.2399C20.0479 68.1697 20.0875 67.6346 20.3915 67.4372C20.6954 67.2397 21.2511 67.4392 22.3624 67.8382C22.5341 67.8999 22.7113 67.9604 22.8941 68.0198C24.0482 68.3576 25.1882 68.5265 26.3141 68.5265C27.9186 68.5265 28.7208 68.048 28.7208 67.0909C28.7208 66.725 28.5097 66.4294 28.0875 66.2043C27.6652 65.9791 27.1304 65.768 26.483 65.5709C25.8356 65.3457 25.1319 65.0924 24.3719 64.8109C23.6119 64.5295 22.9082 64.1776 22.2608 63.7554C21.6134 63.305 21.0786 62.7421 20.6564 62.0665C20.2341 61.3909 20.023 60.5324 20.023 59.491C20.023 58.365 20.3327 57.3658 20.9519 56.4932C21.5993 55.5925 22.5141 54.8747 23.6964 54.3399C24.8786 53.805 26.286 53.5376 27.9186 53.5376C29.0163 53.5376 30.0578 53.6221 31.043 53.791C31.4115 53.8436 31.7544 53.9081 32.0717 53.9843Z" fill="#050038"/>
<path d="M52.6549 63.2306C52.6183 63.8226 52.6 64.1186 52.389 64.317C52.178 64.5154 51.8676 64.5154 51.2467 64.5154L40.6304 64.5154C40.7993 65.2754 41.1371 65.9369 41.6438 66.4998C42.1786 67.0346 42.8541 67.4428 43.6704 67.7243C44.5149 68.0057 45.5001 68.1465 46.626 68.1465C47.583 68.1465 48.6104 68.0198 49.7082 67.7665C49.8606 67.7274 50.0092 67.687 50.154 67.6452C51.3003 67.3144 51.8734 67.149 52.1614 67.3555C52.4495 67.5619 52.4739 68.0938 52.5226 69.1574L52.5474 69.6966C52.5846 70.5084 52.6032 70.9142 52.3429 71.3104C52.0825 71.7066 51.7829 71.8201 51.1839 72.047C50.7292 72.2193 50.2232 72.3687 49.666 72.4953C48.4556 72.7487 47.3156 72.8753 46.246 72.8753C43.8534 72.8753 41.7986 72.4813 40.0816 71.6931C38.3927 70.8768 37.1119 69.7368 36.2393 68.2731C35.3949 66.8094 34.9727 65.0924 34.9727 63.122C34.9727 61.1798 35.3667 59.505 36.1549 58.0976C36.9712 56.6621 38.083 55.5502 39.4904 54.7621C40.926 53.9458 42.5304 53.5376 44.3038 53.5376C45.9364 53.5376 47.386 53.8613 48.6526 54.5087C49.9475 55.1562 50.9467 56.0991 51.6504 57.3376C52.3823 58.548 52.7482 60.0117 52.7482 61.7287C52.7482 62.0946 52.72 62.545 52.6638 63.0798C52.6609 63.1304 52.658 63.1806 52.6549 63.2306ZM44.346 57.4221C43.2482 57.4221 42.3475 57.788 41.6438 58.5198C40.9682 59.2517 40.5601 60.2228 40.4193 61.4332L47.7238 61.4332C47.7238 61.3769 47.7238 61.2924 47.7238 61.1798C47.7238 61.0391 47.7238 60.9406 47.7238 60.8843C47.7238 59.8428 47.4141 59.0124 46.7949 58.3932C46.2038 57.7458 45.3875 57.4221 44.346 57.4221Z" fill="#050038"/>
<path d="M76.2635 64.3043C76.2635 62.165 76.7421 60.2932 77.6991 58.6887C78.6843 57.0561 80.0072 55.7895 81.668 54.8887C83.3569 53.988 85.2428 53.5376 87.3257 53.5376C89.1835 53.5376 90.7739 53.9176 92.0968 54.6776C93.4479 55.4376 94.4894 56.465 95.2213 57.7598C95.9813 59.0547 96.3613 60.5043 96.3613 62.1087C96.3613 64.2198 95.8687 66.0917 94.8835 67.7243C93.9265 69.3568 92.6176 70.6235 90.9568 71.5242C89.2961 72.425 87.4102 72.8753 85.2991 72.8753C83.4694 72.8753 81.865 72.4953 80.4858 71.7354C79.1346 70.9754 78.0932 69.948 77.3613 68.6531C76.6295 67.3583 76.2635 65.9087 76.2635 64.3043ZM81.8369 63.9243C81.8369 64.7687 82.0057 65.5146 82.3435 66.162C82.6813 66.8094 83.1457 67.302 83.7368 67.6398C84.328 67.9776 85.0176 68.1465 85.8057 68.1465C86.7909 68.1465 87.6494 67.9213 88.3813 67.4709C89.1413 66.9924 89.7183 66.3309 90.1124 65.4865C90.5346 64.642 90.7457 63.6428 90.7457 62.4887C90.7457 61.6161 90.5768 60.8702 90.2391 60.2509C89.9294 59.6035 89.4791 59.111 88.888 58.7732C88.2968 58.4354 87.5931 58.2665 86.7768 58.2665C85.8198 58.2665 84.9613 58.5058 84.2013 58.9843C83.4695 59.4347 82.8924 60.0821 82.4702 60.9265C82.048 61.7709 81.8369 62.7702 81.8369 63.9243Z" fill="#050038"/>
<path d="M112.627 53.9176C113.982 53.9176 114.66 53.9176 114.856 54.3395C115.053 54.7614 114.618 55.2805 113.747 56.3186L107.865 63.3332L111.703 70.3308C112.232 71.2958 112.496 71.7784 112.284 72.1369C112.072 72.4953 111.522 72.4953 110.421 72.4953L108.442 72.4953C107.565 72.4953 107.127 72.4953 106.775 72.2781C106.422 72.0609 106.225 71.6695 105.831 70.8867L103.643 66.542L99.7073 71.4099C99.276 71.9434 99.0603 72.2101 98.7616 72.3527C98.4628 72.4953 98.1199 72.4953 97.4339 72.4953L95.9482 72.4953C94.6007 72.4953 93.9269 72.4953 93.7296 72.075C93.5323 71.6547 93.9628 71.1364 94.8238 70.0997L101.11 62.5309L97.6543 56.1002C97.1585 55.1773 96.9105 54.7158 97.1109 54.3643C97.3113 54.0128 97.8347 53.9911 98.8815 53.9478L100.763 53.87C101.689 53.8316 102.152 53.8125 102.526 54.0353C102.9 54.2582 103.104 54.6747 103.511 55.5076L105.374 59.3221L108.845 55.0083C109.277 54.4724 109.492 54.2044 109.792 54.061C110.091 53.9176 110.435 53.9176 111.123 53.9176L112.627 53.9176Z" fill="#050038"/>
<path d="M59.6189 60.0398L59.6189 71.0336C59.6189 71.7227 59.6189 72.0672 59.4048 72.2813C59.1907 72.4953 58.8462 72.4953 58.1571 72.4953L55.6762 72.4953C54.9871 72.4953 54.6426 72.4953 54.4285 72.2813C54.2144 72.0672 54.2144 71.7227 54.2144 71.0336L54.2144 55.4391C54.2144 54.779 54.2144 54.449 54.4165 54.2372C54.6186 54.0254 54.9483 54.0099 55.6077 53.979L58.0887 53.8627C58.8071 53.829 59.1662 53.8122 59.3926 54.0281C59.6189 54.2441 59.6189 54.6037 59.6189 55.3228L59.6189 55.9865C62.5779 52.9254 65.9621 53.157 68.181 53.9176C68.6301 51.5223 69.3483 49.1552 71.3476 47.5843C72.9239 46.3458 74.9224 45.7266 77.3432 45.7266C77.5834 45.7266 77.8269 45.7331 78.0712 45.7478C78.8271 45.7931 79.2051 45.8158 79.4758 46.1606C79.7464 46.5054 79.6691 46.9305 79.5145 47.7807L79.3179 48.862C79.1821 49.6092 79.1142 49.9828 78.9233 50.1507C78.7325 50.3185 78.2186 50.3454 77.1906 50.3992C76.3413 50.4436 75.4816 50.6883 74.8943 51.0888C74.3032 51.511 73.9091 52.2569 73.7121 53.3265L73.5854 53.9176L76.3072 53.9176C77.1724 53.9176 77.605 53.9176 77.8244 54.2C78.0439 54.4823 77.9372 54.9015 77.7237 55.74L77.4725 56.7268C77.2481 57.6085 77.1359 58.0493 76.8061 58.3057C76.4763 58.5621 76.0214 58.5621 75.1116 58.5621L72.7832 58.5621L70.586 71.2824C70.4859 71.862 70.4359 72.1517 70.2318 72.3235C70.0278 72.4953 69.7337 72.4953 69.1456 72.4953L66.7079 72.4953C65.9026 72.4953 65.5 72.4953 65.281 72.2353C65.0619 71.9752 65.1305 71.5784 65.2675 70.7848L67.3787 58.5621C65.373 58.0939 62.0463 58.1903 59.6189 60.0398Z" fill="#050038"/>
</g>
</g>
</svg>
