<svg width="24" height="24" viewBox="0 0 24 24" fill="none" xmlns="http://www.w3.org/2000/svg">
<g id="refund-2-line">
<path id="Vector" d="M5.67689 4.25667C9.6049 1.03828 15.4104 1.26236 19.077 4.92893C22.9822 8.83418 22.9822 15.1658 19.077 19.0711C15.1717 22.9763 8.84004 22.9763 4.9348 19.0711C2.4103 16.5466 1.51774 13.0081 2.25709 9.76666L2.33373 9.45394L4.26816 9.96315C3.57065 12.623 4.26427 15.5721 6.34901 17.6569C9.4732 20.781 14.5385 20.781 17.6627 17.6569C20.7869 14.5327 20.7869 9.46734 17.6627 6.34315C14.8451 3.5255 10.4485 3.24903 7.32104 5.51375L7.09984 5.67983L8.11678 6.6967L3.52058 7.75736L4.58124 3.16117L5.67689 4.25667ZM13.0059 6V8H15.5059V10H10.0059C9.72972 10 9.50586 10.2239 9.50586 10.5C9.50586 10.7455 9.68274 10.9496 9.91599 10.9919L10.0059 11H14.0059C15.3866 11 16.5059 12.1193 16.5059 13.5C16.5059 14.8807 15.3866 16 14.0059 16H13.0059V18H11.0059V16H8.50586V14H14.0059C14.282 14 14.5059 13.7761 14.5059 13.5C14.5059 13.2545 14.329 13.0504 14.0958 13.0081L14.0059 13H10.0059C8.62515 13 7.50586 11.8807 7.50586 10.5C7.50586 9.11929 8.62515 8 10.0059 8H11.0059V6H13.0059Z" fill="#F6F5F4"/>
</g>
</svg>
