<svg width="201" height="43" viewBox="0 0 201 43" fill="none" xmlns="http://www.w3.org/2000/svg">
<g id="Group 6427">
<g id="ascendot">
<path d="M69.7516 28.8704L64.6709 28.8704L64.671 24.5513L64.3806 24.4787L64.3807 18.127C64.3807 16.9414 64.0783 16.1429 63.4734 15.7316C62.8928 15.3202 61.8766 15.1146 60.425 15.1146C59.046 15.1146 58.054 15.3202 57.4492 15.7316C56.8444 16.1429 56.5419 16.8688 56.5419 17.9093L56.5419 18.0545L51.0621 18.0545L51.0621 17.9456C51.0621 16.4454 51.4613 15.1267 52.2597 13.9894C53.0581 12.828 54.1831 11.9327 55.6347 11.3036C57.1105 10.6503 58.8404 10.3236 60.8242 10.3236C62.8565 10.3236 64.5259 10.6502 65.8323 11.3035C67.163 11.9569 68.1428 12.8763 68.7718 14.062C69.4251 15.2234 69.7517 16.6026 69.7517 18.1996L69.7516 28.8704ZM56.9774 29.2334C55.0177 29.2334 53.4814 28.7978 52.3685 27.9268C51.2556 27.0557 50.6991 25.8701 50.6991 24.3699C50.6991 23.4504 50.9169 22.664 51.3524 22.0107C51.7879 21.3574 52.4411 20.8371 53.3121 20.45C54.183 20.0386 55.2718 19.7604 56.5782 19.6152L64.7436 18.7803L64.7436 21.9017L58.0661 22.6639C57.4129 22.7123 56.929 22.8454 56.6145 23.0632C56.3242 23.2568 56.179 23.5713 56.179 24.0069C56.179 24.4908 56.3725 24.8417 56.7596 25.0594C57.1467 25.2772 57.7395 25.3861 58.5379 25.3861C59.8443 25.3861 60.9209 25.2651 61.7677 25.0231C62.6145 24.7811 63.2556 24.394 63.6911 23.8617C64.1508 23.3051 64.3807 22.5671 64.3807 21.6477L64.8887 21.6114L64.8887 24.6964L64.3806 24.6964C63.9693 26.0999 63.1347 27.2129 61.8766 28.0356C60.6427 28.8341 59.0096 29.2334 56.9774 29.2334Z" fill="#1C2339"/>
<path d="M69.7516 28.8704L64.6709 28.8704L64.671 24.5513L64.3806 24.4787L64.3807 18.127C64.3807 16.9414 64.0783 16.1429 63.4734 15.7316C62.8928 15.3202 61.8766 15.1146 60.425 15.1146C59.046 15.1146 58.054 15.3202 57.4492 15.7316C56.8444 16.1429 56.5419 16.8688 56.5419 17.9093L56.5419 18.0545L51.0621 18.0545L51.0621 17.9456C51.0621 16.4454 51.4613 15.1267 52.2597 13.9894C53.0581 12.828 54.1831 11.9327 55.6347 11.3036C57.1105 10.6503 58.8404 10.3236 60.8242 10.3236C62.8565 10.3236 64.5259 10.6502 65.8323 11.3035C67.163 11.9569 68.1428 12.8763 68.7718 14.062C69.4251 15.2234 69.7517 16.6026 69.7517 18.1996L69.7516 28.8704ZM56.9774 29.2334C55.0177 29.2334 53.4814 28.7978 52.3685 27.9268C51.2556 27.0557 50.6991 25.8701 50.6991 24.3699C50.6991 23.4504 50.9169 22.664 51.3524 22.0107C51.7879 21.3574 52.4411 20.8371 53.3121 20.45C54.183 20.0386 55.2718 19.7604 56.5782 19.6152L64.7436 18.7803L64.7436 21.9017L58.0661 22.6639C57.4129 22.7123 56.929 22.8454 56.6145 23.0632C56.3242 23.2568 56.179 23.5713 56.179 24.0069C56.179 24.4908 56.3725 24.8417 56.7596 25.0594C57.1467 25.2772 57.7395 25.3861 58.5379 25.3861C59.8443 25.3861 60.9209 25.2651 61.7677 25.0231C62.6145 24.7811 63.2556 24.394 63.6911 23.8617C64.1508 23.3051 64.3807 22.5671 64.3807 21.6477L64.8887 21.6114L64.8887 24.6964L64.3806 24.6964C63.9693 26.0999 63.1347 27.2129 61.8766 28.0356C60.6427 28.8341 59.0096 29.2334 56.9774 29.2334Z" fill="url(#paint0_linear_1142_8561)"/>
<path d="M81.3294 29.2333C78.281 29.2333 75.9342 28.6647 74.2891 27.5274C72.6439 26.366 71.8213 24.7327 71.8213 22.6276L71.8213 22.5187L77.2649 22.5187L77.2649 22.8453C77.2649 23.668 77.5552 24.2245 78.1359 24.5149C78.7407 24.7811 79.8173 24.9141 81.3657 24.9141C82.8173 24.9141 83.773 24.7931 84.2327 24.5512C84.7166 24.285 84.9585 23.8858 84.9585 23.3534C84.9585 22.8453 84.777 22.4944 84.4141 22.3009C84.0512 22.0831 83.3375 21.9016 82.273 21.7565L77.156 21.1395C75.3415 20.9459 73.9383 20.4378 72.9464 19.6151C71.9786 18.7924 71.4947 17.6068 71.4948 16.0582C71.4948 14.9935 71.8093 14.0378 72.4383 13.1909C73.0674 12.3198 74.0351 11.6302 75.3416 11.122C76.6722 10.5897 78.3779 10.3235 80.4585 10.3235C82.4424 10.3235 84.1239 10.5776 85.5029 11.0857C86.9061 11.5696 87.9707 12.3076 88.6965 13.2997C89.4223 14.2917 89.7852 15.5258 89.7852 17.0018L89.7852 17.1107L84.3416 17.1107L84.3416 16.8929C84.3416 16.3848 84.2327 15.9734 84.015 15.6589C83.8214 15.3201 83.4222 15.0661 82.8174 14.8967C82.2367 14.7273 81.39 14.6426 80.2771 14.6426C78.9222 14.6426 78.015 14.7757 77.5553 15.0419C77.0956 15.2839 76.8657 15.6952 76.8657 16.2759C76.8657 16.7357 77.0472 17.0865 77.4101 17.3285C77.7972 17.5463 78.5835 17.7398 79.769 17.9092L83.6521 18.381C86.0714 18.6472 87.7892 19.2037 88.8053 20.0506C89.8214 20.8974 90.3295 22.071 90.3295 23.5712C90.3295 24.7084 89.9666 25.7005 89.2408 26.5474C88.5149 27.3943 87.4867 28.0597 86.1561 28.5436C84.8254 29.0034 83.2165 29.2332 81.3294 29.2333Z" fill="#1C2339"/>
<path d="M81.3294 29.2333C78.281 29.2333 75.9342 28.6647 74.2891 27.5274C72.6439 26.366 71.8213 24.7327 71.8213 22.6276L71.8213 22.5187L77.2649 22.5187L77.2649 22.8453C77.2649 23.668 77.5552 24.2245 78.1359 24.5149C78.7407 24.7811 79.8173 24.9141 81.3657 24.9141C82.8173 24.9141 83.773 24.7931 84.2327 24.5512C84.7166 24.285 84.9585 23.8858 84.9585 23.3534C84.9585 22.8453 84.777 22.4944 84.4141 22.3009C84.0512 22.0831 83.3375 21.9016 82.273 21.7565L77.156 21.1395C75.3415 20.9459 73.9383 20.4378 72.9464 19.6151C71.9786 18.7924 71.4947 17.6068 71.4948 16.0582C71.4948 14.9935 71.8093 14.0378 72.4383 13.1909C73.0674 12.3198 74.0351 11.6302 75.3416 11.122C76.6722 10.5897 78.3779 10.3235 80.4585 10.3235C82.4424 10.3235 84.1239 10.5776 85.5029 11.0857C86.9061 11.5696 87.9707 12.3076 88.6965 13.2997C89.4223 14.2917 89.7852 15.5258 89.7852 17.0018L89.7852 17.1107L84.3416 17.1107L84.3416 16.8929C84.3416 16.3848 84.2327 15.9734 84.015 15.6589C83.8214 15.3201 83.4222 15.0661 82.8174 14.8967C82.2367 14.7273 81.39 14.6426 80.2771 14.6426C78.9222 14.6426 78.015 14.7757 77.5553 15.0419C77.0956 15.2839 76.8657 15.6952 76.8657 16.2759C76.8657 16.7357 77.0472 17.0865 77.4101 17.3285C77.7972 17.5463 78.5835 17.7398 79.769 17.9092L83.6521 18.381C86.0714 18.6472 87.7892 19.2037 88.8053 20.0506C89.8214 20.8974 90.3295 22.071 90.3295 23.5712C90.3295 24.7084 89.9666 25.7005 89.2408 26.5474C88.5149 27.3943 87.4867 28.0597 86.1561 28.5436C84.8254 29.0034 83.2165 29.2332 81.3294 29.2333Z" fill="url(#paint1_linear_1142_8561)"/>
<path d="M101.853 29.2332C99.7961 29.2332 97.9937 28.846 96.4453 28.0717C94.8969 27.2975 93.6993 26.2086 92.8525 24.8052C92.0299 23.3776 91.6187 21.708 91.6187 19.7965C91.6187 17.8607 92.03 16.1912 92.8526 14.7878C93.6994 13.3601 94.8969 12.2592 96.4453 11.4849C97.9937 10.7106 99.7962 10.3234 101.853 10.3234C103.812 10.3234 105.53 10.6501 107.006 11.3034C108.482 11.9567 109.631 12.8761 110.453 14.0618C111.276 15.2232 111.687 16.5903 111.687 18.1631L111.687 18.6712L106.28 18.6713L106.28 18.3809C106.28 17.2195 105.881 16.4089 105.082 15.9491C104.284 15.4652 103.171 15.2232 101.744 15.2233C100.123 15.2233 98.9252 15.562 98.151 16.2395C97.401 16.917 97.026 18.1027 97.026 19.7965C97.0259 21.4418 97.4009 22.6154 98.1509 23.3171C98.9251 23.9946 100.123 24.3333 101.744 24.3333C103.171 24.3333 104.284 24.1034 105.082 23.6437C105.881 23.1598 106.28 22.3371 106.28 21.1756L106.28 20.8853L111.687 20.8852L111.687 21.3934C111.687 22.9662 111.276 24.3454 110.453 25.531C109.631 26.6925 108.482 27.5998 107.006 28.2532C105.53 28.9065 103.812 29.2332 101.853 29.2332Z" fill="#1C2339"/>
<path d="M101.853 29.2332C99.7961 29.2332 97.9937 28.846 96.4453 28.0717C94.8969 27.2975 93.6993 26.2086 92.8525 24.8052C92.0299 23.3776 91.6187 21.708 91.6187 19.7965C91.6187 17.8607 92.03 16.1912 92.8526 14.7878C93.6994 13.3601 94.8969 12.2592 96.4453 11.4849C97.9937 10.7106 99.7962 10.3234 101.853 10.3234C103.812 10.3234 105.53 10.6501 107.006 11.3034C108.482 11.9567 109.631 12.8761 110.453 14.0618C111.276 15.2232 111.687 16.5903 111.687 18.1631L111.687 18.6712L106.28 18.6713L106.28 18.3809C106.28 17.2195 105.881 16.4089 105.082 15.9491C104.284 15.4652 103.171 15.2232 101.744 15.2233C100.123 15.2233 98.9252 15.562 98.151 16.2395C97.401 16.917 97.026 18.1027 97.026 19.7965C97.0259 21.4418 97.4009 22.6154 98.1509 23.3171C98.9251 23.9946 100.123 24.3333 101.744 24.3333C103.171 24.3333 104.284 24.1034 105.082 23.6437C105.881 23.1598 106.28 22.3371 106.28 21.1756L106.28 20.8853L111.687 20.8852L111.687 21.3934C111.687 22.9662 111.276 24.3454 110.453 25.531C109.631 26.6925 108.482 27.5998 107.006 28.2532C105.53 28.9065 103.812 29.2332 101.853 29.2332Z" fill="url(#paint2_linear_1142_8561)"/>
<path d="M123.32 29.2331C121.312 29.2331 119.533 28.8943 117.985 28.2168C116.437 27.5393 115.239 26.4989 114.392 25.0955C113.546 23.6921 113.122 21.9257 113.122 19.7964C113.122 17.8606 113.546 16.1911 114.392 14.7877C115.239 13.36 116.413 12.2591 117.913 11.4848C119.437 10.7105 121.203 10.3233 123.211 10.3233C125.195 10.3233 126.925 10.6621 128.401 11.3396C129.901 12.0171 131.062 13.0212 131.884 14.352C132.707 15.6587 133.118 17.2556 133.118 19.143C133.118 19.4575 133.106 19.7479 133.082 20.0141C133.058 20.2802 133.021 20.5706 132.973 20.8851L116.642 20.8852L116.642 18.0179L129.126 18.0178L127.892 19.7963C127.892 19.5543 127.892 19.3245 127.892 19.1067C127.892 18.8889 127.892 18.6712 127.892 18.4534C127.892 17.0742 127.517 16.0821 126.767 15.4772C126.017 14.8723 124.796 14.5698 123.102 14.5698C121.263 14.5698 119.981 14.9328 119.255 15.6587C118.53 16.3604 118.167 17.4856 118.167 19.0342L118.167 20.4134C118.167 21.962 118.529 23.0992 119.255 23.8251C119.981 24.5268 121.275 24.8777 123.138 24.8776C124.735 24.8776 125.86 24.672 126.513 24.2606C127.167 23.8493 127.493 23.2564 127.493 22.4822L127.493 22.1192L132.937 22.1192L132.937 22.5184C132.937 23.825 132.538 24.9865 131.739 26.0028C130.941 27.019 129.816 27.8175 128.364 28.3982C126.937 28.9548 125.255 29.2331 123.32 29.2331Z" fill="#1C2339"/>
<path d="M123.32 29.2331C121.312 29.2331 119.533 28.8943 117.985 28.2168C116.437 27.5393 115.239 26.4989 114.392 25.0955C113.546 23.6921 113.122 21.9257 113.122 19.7964C113.122 17.8606 113.546 16.1911 114.392 14.7877C115.239 13.36 116.413 12.2591 117.913 11.4848C119.437 10.7105 121.203 10.3233 123.211 10.3233C125.195 10.3233 126.925 10.6621 128.401 11.3396C129.901 12.0171 131.062 13.0212 131.884 14.352C132.707 15.6587 133.118 17.2556 133.118 19.143C133.118 19.4575 133.106 19.7479 133.082 20.0141C133.058 20.2802 133.021 20.5706 132.973 20.8851L116.642 20.8852L116.642 18.0179L129.126 18.0178L127.892 19.7963C127.892 19.5543 127.892 19.3245 127.892 19.1067C127.892 18.8889 127.892 18.6712 127.892 18.4534C127.892 17.0742 127.517 16.0821 126.767 15.4772C126.017 14.8723 124.796 14.5698 123.102 14.5698C121.263 14.5698 119.981 14.9328 119.255 15.6587C118.53 16.3604 118.167 17.4856 118.167 19.0342L118.167 20.4134C118.167 21.962 118.529 23.0992 119.255 23.8251C119.981 24.5268 121.275 24.8777 123.138 24.8776C124.735 24.8776 125.86 24.672 126.513 24.2606C127.167 23.8493 127.493 23.2564 127.493 22.4822L127.493 22.1192L132.937 22.1192L132.937 22.5184C132.937 23.825 132.538 24.9865 131.739 26.0028C130.941 27.019 129.816 27.8175 128.364 28.3982C126.937 28.9548 125.255 29.2331 123.32 29.2331Z" fill="url(#paint3_linear_1142_8561)"/>
<path d="M155.169 28.87L149.725 28.87L149.725 19.3607C149.725 17.8847 149.386 16.8321 148.709 16.203C148.032 15.5497 146.858 15.223 145.189 15.2231C143.447 15.2231 142.225 15.586 141.524 16.3119C140.846 17.0136 140.507 18.1388 140.507 19.6874L139.818 19.6874L139.419 16.2756L140.435 16.2756C140.604 15.2594 140.967 14.3036 141.524 13.4083C142.08 12.4888 142.866 11.7508 143.882 11.1943C144.923 10.6136 146.241 10.3232 147.838 10.3232C149.483 10.3232 150.85 10.6498 151.939 11.3031C153.028 11.9323 153.838 12.7912 154.37 13.8801C154.903 14.9689 155.169 16.1909 155.169 17.5459L155.169 28.87ZM140.507 28.87L135.064 28.8701L135.064 10.6862L140.108 10.6862L140.108 16.3482L140.507 16.5297L140.507 28.87Z" fill="#1C2339"/>
<path d="M155.169 28.87L149.725 28.87L149.725 19.3607C149.725 17.8847 149.386 16.8321 148.709 16.203C148.032 15.5497 146.858 15.223 145.189 15.2231C143.447 15.2231 142.225 15.586 141.524 16.3119C140.846 17.0136 140.507 18.1388 140.507 19.6874L139.818 19.6874L139.419 16.2756L140.435 16.2756C140.604 15.2594 140.967 14.3036 141.524 13.4083C142.08 12.4888 142.866 11.7508 143.882 11.1943C144.923 10.6136 146.241 10.3232 147.838 10.3232C149.483 10.3232 150.85 10.6498 151.939 11.3031C153.028 11.9323 153.838 12.7912 154.37 13.8801C154.903 14.9689 155.169 16.1909 155.169 17.5459L155.169 28.87ZM140.507 28.87L135.064 28.8701L135.064 10.6862L140.108 10.6862L140.108 16.3482L140.507 16.5297L140.507 28.87Z" fill="url(#paint4_linear_1142_8561)"/>
<path d="M165.689 29.2329C163.802 29.2329 162.205 28.8457 160.898 28.0714C159.592 27.2972 158.6 26.2083 157.923 24.8049C157.245 23.3773 156.906 21.7077 156.906 19.7962C156.906 17.8604 157.233 16.1909 157.886 14.7875C158.564 13.3598 159.531 12.2589 160.79 11.4846C162.072 10.7103 163.608 10.3231 165.398 10.3231C167.552 10.3231 169.209 10.807 170.37 11.7749C171.532 12.7428 172.257 13.9889 172.548 15.5133L173.564 15.5133L173.564 19.6146L172.874 19.6146C172.874 18.0418 172.415 16.9288 171.495 16.2755C170.6 15.6222 169.281 15.2955 167.54 15.2955C166.378 15.2955 165.411 15.4407 164.636 15.7311C163.886 16.0215 163.33 16.4933 162.967 17.1466C162.604 17.7757 162.423 18.6589 162.423 19.7962C162.423 20.885 162.604 21.7561 162.967 22.4094C163.33 23.0627 163.886 23.5345 164.636 23.8249C165.41 24.1153 166.378 24.2604 167.54 24.2604C168.701 24.2604 169.669 24.1152 170.443 23.8249C171.241 23.5345 171.846 23.0748 172.257 22.4456C172.669 21.7923 172.874 20.9454 172.874 19.905L173.564 19.905L173.927 23.8249L172.947 23.8249C172.608 25.6154 171.834 26.9704 170.624 27.8899C169.414 28.7852 167.769 29.2329 165.689 29.2329ZM178.318 28.8699L173.237 28.8699L173.237 23.4982L172.874 23.0264L172.874 4.55217L178.318 4.55214L178.318 28.8699Z" fill="#1C2339"/>
<path d="M165.689 29.2329C163.802 29.2329 162.205 28.8457 160.898 28.0714C159.592 27.2972 158.6 26.2083 157.923 24.8049C157.245 23.3773 156.906 21.7077 156.906 19.7962C156.906 17.8604 157.233 16.1909 157.886 14.7875C158.564 13.3598 159.531 12.2589 160.79 11.4846C162.072 10.7103 163.608 10.3231 165.398 10.3231C167.552 10.3231 169.209 10.807 170.37 11.7749C171.532 12.7428 172.257 13.9889 172.548 15.5133L173.564 15.5133L173.564 19.6146L172.874 19.6146C172.874 18.0418 172.415 16.9288 171.495 16.2755C170.6 15.6222 169.281 15.2955 167.54 15.2955C166.378 15.2955 165.411 15.4407 164.636 15.7311C163.886 16.0215 163.33 16.4933 162.967 17.1466C162.604 17.7757 162.423 18.6589 162.423 19.7962C162.423 20.885 162.604 21.7561 162.967 22.4094C163.33 23.0627 163.886 23.5345 164.636 23.8249C165.41 24.1153 166.378 24.2604 167.54 24.2604C168.701 24.2604 169.669 24.1152 170.443 23.8249C171.241 23.5345 171.846 23.0748 172.257 22.4456C172.669 21.7923 172.874 20.9454 172.874 19.905L173.564 19.905L173.927 23.8249L172.947 23.8249C172.608 25.6154 171.834 26.9704 170.624 27.8899C169.414 28.7852 167.769 29.2329 165.689 29.2329ZM178.318 28.8699L173.237 28.8699L173.237 23.4982L172.874 23.0264L172.874 4.55217L178.318 4.55214L178.318 28.8699Z" fill="url(#paint5_linear_1142_8561)"/>
<path d="M190.525 29.2327C188.468 29.2328 186.654 28.8456 185.081 28.0713C183.533 27.297 182.323 26.2082 181.452 24.8048C180.581 23.3772 180.146 21.7076 180.146 19.7961C180.146 17.8603 180.581 16.1908 181.452 14.7873C182.323 13.3597 183.533 12.2588 185.081 11.4845C186.654 10.7102 188.468 10.323 190.525 10.323C192.605 10.323 194.42 10.7101 195.968 11.4844C197.517 12.2587 198.726 13.3597 199.597 14.7873C200.468 16.1907 200.904 17.8602 200.904 19.796C200.904 21.7075 200.468 23.3771 199.597 24.8047C198.726 26.2081 197.517 27.297 195.968 28.0713C194.42 28.8456 192.605 29.2327 190.525 29.2327ZM190.525 24.4055C192.363 24.4055 193.646 24.0425 194.372 23.3166C195.122 22.5665 195.497 21.393 195.497 19.796C195.497 18.1748 195.122 16.9892 194.372 16.2391C193.646 15.489 192.363 15.1139 190.525 15.114C188.686 15.114 187.392 15.489 186.642 16.2391C185.916 16.9892 185.553 18.1749 185.553 19.796C185.553 21.393 185.916 22.5666 186.642 23.3167C187.392 24.0426 188.686 24.4055 190.525 24.4055Z" fill="#1C2339"/>
<path d="M190.525 29.2327C188.468 29.2328 186.654 28.8456 185.081 28.0713C183.533 27.297 182.323 26.2082 181.452 24.8048C180.581 23.3772 180.146 21.7076 180.146 19.7961C180.146 17.8603 180.581 16.1908 181.452 14.7873C182.323 13.3597 183.533 12.2588 185.081 11.4845C186.654 10.7102 188.468 10.323 190.525 10.323C192.605 10.323 194.42 10.7101 195.968 11.4844C197.517 12.2587 198.726 13.3597 199.597 14.7873C200.468 16.1907 200.904 17.8602 200.904 19.796C200.904 21.7075 200.468 23.3771 199.597 24.8047C198.726 26.2081 197.517 27.297 195.968 28.0713C194.42 28.8456 192.605 29.2327 190.525 29.2327ZM190.525 24.4055C192.363 24.4055 193.646 24.0425 194.372 23.3166C195.122 22.5665 195.497 21.393 195.497 19.796C195.497 18.1748 195.122 16.9892 194.372 16.2391C193.646 15.489 192.363 15.1139 190.525 15.114C188.686 15.114 187.392 15.489 186.642 16.2391C185.916 16.9892 185.553 18.1749 185.553 19.796C185.553 21.393 185.916 22.5666 186.642 23.3167C187.392 24.0426 188.686 24.4055 190.525 24.4055Z" fill="url(#paint6_linear_1142_8561)"/>
</g>
<g id="Logo">
<g id="Union">
<path fill-rule="evenodd" clip-rule="evenodd" d="M27.4774 4.83884C28.1297 4.46897 28.4965 4.01139 28.4965 3.45597C28.4965 1.53569 24.1124 0.785048 18.7043 0.785073C13.2962 0.785099 8.91206 1.53578 8.91206 3.45606C8.91205 4.03244 9.30703 4.50344 10.0061 4.8804C6.11174 5.46665 3.57221 6.56401 3.57221 8.34426C3.5722 9.46359 4.57613 10.313 6.28954 10.935C2.96695 11.8118 0.903263 13.1619 0.903254 15.0254C0.903246 16.7294 2.62866 18.0041 5.46424 18.8802C3.70957 19.5716 2.68354 20.5004 2.68353 21.6996C2.68352 23.2438 4.38499 24.3397 7.15283 25.0577C6.00927 25.5835 5.35444 26.2434 5.35443 27.0417C5.35443 28.6768 8.10201 29.7317 12.1696 30.2415C11.2417 30.663 10.6962 31.2263 10.6962 31.9404C10.6962 33.7717 14.2832 34.6114 18.708 34.6113C23.1328 34.6113 26.7198 33.7716 26.7199 31.9404C26.7199 31.2262 26.1743 30.6628 25.2463 30.2413C29.3133 29.7314 32.0605 28.6766 32.0605 27.0416C32.0605 26.2432 31.4056 25.5833 30.2619 25.0575C33.0295 24.3394 34.7308 23.2435 34.7308 21.6994C34.7308 20.5003 33.7048 19.5715 31.9502 18.8801C34.7858 18.004 36.5113 16.7293 36.5113 15.0253C36.5113 13.1995 34.5305 11.8666 31.3258 10.9889C33.1317 10.3622 34.1951 9.49616 34.1951 8.34412C34.1951 6.52098 31.5318 5.41406 27.4774 4.83884ZM21.8231 39.0633C21.8231 40.9623 20.6062 42.1794 18.7074 42.1794C16.8086 42.1794 15.5917 40.9624 15.5917 39.0633C15.5918 37.1643 16.8087 35.9472 18.7075 35.9472C20.6063 35.9472 21.8232 37.1643 21.8231 39.0633Z" fill="#FF9C1A"/>
<path fill-rule="evenodd" clip-rule="evenodd" d="M27.4774 4.83884C28.1297 4.46897 28.4965 4.01139 28.4965 3.45597C28.4965 1.53569 24.1124 0.785048 18.7043 0.785073C13.2962 0.785099 8.91206 1.53578 8.91206 3.45606C8.91205 4.03244 9.30703 4.50344 10.0061 4.8804C6.11174 5.46665 3.57221 6.56401 3.57221 8.34426C3.5722 9.46359 4.57613 10.313 6.28954 10.935C2.96695 11.8118 0.903263 13.1619 0.903254 15.0254C0.903246 16.7294 2.62866 18.0041 5.46424 18.8802C3.70957 19.5716 2.68354 20.5004 2.68353 21.6996C2.68352 23.2438 4.38499 24.3397 7.15283 25.0577C6.00927 25.5835 5.35444 26.2434 5.35443 27.0417C5.35443 28.6768 8.10201 29.7317 12.1696 30.2415C11.2417 30.663 10.6962 31.2263 10.6962 31.9404C10.6962 33.7717 14.2832 34.6114 18.708 34.6113C23.1328 34.6113 26.7198 33.7716 26.7199 31.9404C26.7199 31.2262 26.1743 30.6628 25.2463 30.2413C29.3133 29.7314 32.0605 28.6766 32.0605 27.0416C32.0605 26.2432 31.4056 25.5833 30.2619 25.0575C33.0295 24.3394 34.7308 23.2435 34.7308 21.6994C34.7308 20.5003 33.7048 19.5715 31.9502 18.8801C34.7858 18.004 36.5113 16.7293 36.5113 15.0253C36.5113 13.1995 34.5305 11.8666 31.3258 10.9889C33.1317 10.3622 34.1951 9.49616 34.1951 8.34412C34.1951 6.52098 31.5318 5.41406 27.4774 4.83884ZM21.8231 39.0633C21.8231 40.9623 20.6062 42.1794 18.7074 42.1794C16.8086 42.1794 15.5917 40.9624 15.5917 39.0633C15.5918 37.1643 16.8087 35.9472 18.7075 35.9472C20.6063 35.9472 21.8232 37.1643 21.8231 39.0633Z" fill="url(#paint7_linear_1142_8561)"/>
</g>
<g id="Union_2" filter="url(#filter0_d_1142_8561)">
<path fill-rule="evenodd" clip-rule="evenodd" d="M11.0682 20.3406C9.44745 21.7973 13.3589 25.259 18.7072 25.2599L18.7094 25.2599L18.7125 25.2599C24.0608 25.2589 27.9723 21.7973 26.3515 20.3406C25.5062 19.5808 24.6043 19.9726 23.3407 20.5216C22.1812 21.0253 20.7171 21.6614 18.7125 21.6614L18.7072 21.6614C16.7027 21.6614 15.2385 21.0253 14.079 20.5216C12.8154 19.9727 11.9136 19.5809 11.0682 20.3406Z" fill="#FFFBFF"/>
</g>
</g>
</g>
<defs>
<filter id="filter0_d_1142_8561" x="3.71543" y="16.4266" width="29.9891" height="19.3074" filterUnits="userSpaceOnUse" color-interpolation-filters="sRGB">
<feFlood flood-opacity="0" result="BackgroundImageFix"/>
<feColorMatrix in="SourceAlpha" type="matrix" values="0 0 0 0 0 0 0 0 0 0 0 0 0 0 0 0 0 0 127 0" result="hardAlpha"/>
<feOffset dy="3.49141"/>
<feGaussianBlur stdDeviation="3.49141"/>
<feComposite in2="hardAlpha" operator="out"/>
<feColorMatrix type="matrix" values="0 0 0 0 0.404167 0 0 0 0 0.311384 0 0 0 0 0.188611 0 0 0 0.2 0"/>
<feBlend mode="normal" in2="BackgroundImageFix" result="effect1_dropShadow_1142_8561"/>
<feBlend mode="normal" in="SourceGraphic" in2="effect1_dropShadow_1142_8561" result="shape"/>
</filter>
<linearGradient id="paint0_linear_1142_8561" x1="125.838" y1="4.56533" x2="125.838" y2="29.2201" gradientUnits="userSpaceOnUse">
<stop stop-color="white" stop-opacity="0.2"/>
<stop offset="1" stop-color="white" stop-opacity="0"/>
</linearGradient>
<linearGradient id="paint1_linear_1142_8561" x1="125.838" y1="4.56533" x2="125.838" y2="29.2201" gradientUnits="userSpaceOnUse">
<stop stop-color="white" stop-opacity="0.2"/>
<stop offset="1" stop-color="white" stop-opacity="0"/>
</linearGradient>
<linearGradient id="paint2_linear_1142_8561" x1="125.838" y1="4.56533" x2="125.838" y2="29.2201" gradientUnits="userSpaceOnUse">
<stop stop-color="white" stop-opacity="0.2"/>
<stop offset="1" stop-color="white" stop-opacity="0"/>
</linearGradient>
<linearGradient id="paint3_linear_1142_8561" x1="125.838" y1="4.56533" x2="125.838" y2="29.2201" gradientUnits="userSpaceOnUse">
<stop stop-color="white" stop-opacity="0.2"/>
<stop offset="1" stop-color="white" stop-opacity="0"/>
</linearGradient>
<linearGradient id="paint4_linear_1142_8561" x1="125.838" y1="4.56533" x2="125.838" y2="29.2201" gradientUnits="userSpaceOnUse">
<stop stop-color="white" stop-opacity="0.2"/>
<stop offset="1" stop-color="white" stop-opacity="0"/>
</linearGradient>
<linearGradient id="paint5_linear_1142_8561" x1="125.838" y1="4.56533" x2="125.838" y2="29.2201" gradientUnits="userSpaceOnUse">
<stop stop-color="white" stop-opacity="0.2"/>
<stop offset="1" stop-color="white" stop-opacity="0"/>
</linearGradient>
<linearGradient id="paint6_linear_1142_8561" x1="125.838" y1="4.56533" x2="125.838" y2="29.2201" gradientUnits="userSpaceOnUse">
<stop stop-color="white" stop-opacity="0.2"/>
<stop offset="1" stop-color="white" stop-opacity="0"/>
</linearGradient>
<linearGradient id="paint7_linear_1142_8561" x1="18.716" y1="0.806782" x2="18.7162" y2="42.1577" gradientUnits="userSpaceOnUse">
<stop stop-color="white" stop-opacity="0.2"/>
<stop offset="1" stop-color="white" stop-opacity="0"/>
</linearGradient>
</defs>
</svg>
