<svg width="181" height="35" viewBox="0 0 181 35" fill="none" xmlns="http://www.w3.org/2000/svg">
<g id="Group 1000004086">
<g id="Blockloads">
<path d="M37.5332 30.4825L37.5332 3.55921L44.8302 3.55921C46.7883 3.55921 48.211 4.03852 49.0982 4.99716C49.9957 5.94559 50.4444 7.51611 50.4444 9.70872L50.4444 10.8866C50.4444 12.1512 50.215 13.1761 49.756 13.9614C49.3073 14.7466 48.6189 15.2616 47.6908 15.5064C48.9045 15.8123 49.7152 16.5313 50.1232 17.6633C50.5413 18.7851 50.7504 20.1568 50.7504 21.7783C50.7504 23.5222 50.5872 25.0468 50.2608 26.3522C49.9345 27.6576 49.343 28.6723 48.4863 29.3963C47.6297 30.1204 46.4109 30.4825 44.8302 30.4825L37.5332 30.4825ZM42.7956 13.7013L43.897 13.7013C44.3967 13.7013 44.718 13.5076 44.8608 13.12C45.0036 12.7325 45.0749 12.2685 45.0749 11.728L45.0749 9.02034C45.0749 8.1535 44.6925 7.72007 43.9276 7.72007L42.7956 7.72007L42.7956 13.7013ZM43.331 25.7403C44.7282 25.7403 45.4268 25.0774 45.4268 23.7516L45.4268 20.3862C45.4268 19.6214 45.3095 19.0197 45.0749 18.5812C44.8506 18.1324 44.4222 17.9081 43.7899 17.9081L42.7956 17.9081L42.7956 25.7097C43.02 25.7301 43.1984 25.7403 43.331 25.7403Z" fill="#580900"/>
<path d="M52.5249 30.4825L52.5249 3.55921L57.9097 3.55921L57.9097 25.8933L63.4474 25.8933L63.4474 30.4825L52.5249 30.4825Z" fill="#580900"/>
<path d="M71.4022 30.7272C69.2503 30.7272 67.6033 30.0796 66.4611 28.7845C65.329 27.4791 64.763 25.5975 64.763 23.1397L64.763 10.3512C64.763 8.04642 65.3239 6.29743 66.4458 5.10424C67.5778 3.91105 69.2299 3.31445 71.4022 3.31445C73.5745 3.31445 75.2215 3.91105 76.3433 5.10424C77.4754 6.29743 78.0414 8.04642 78.0414 10.3512L78.0414 23.1397C78.0414 25.5975 77.4703 27.4791 76.328 28.7845C75.196 30.0796 73.5541 30.7272 71.4022 30.7272ZM71.4481 25.7709C72.264 25.7709 72.6719 24.9805 72.6719 23.3998L72.6719 10.2594C72.6719 8.93366 72.2742 8.27078 71.4787 8.27078C70.5812 8.27078 70.1325 8.94896 70.1325 10.3053L70.1325 23.4304C70.1325 24.2667 70.2345 24.8683 70.4384 25.2355C70.6424 25.5924 70.979 25.7709 71.4481 25.7709Z" fill="#580900"/>
<path d="M86.4857 30.7272C84.5378 30.7272 82.9672 30.1204 81.774 28.9068C80.591 27.6932 79.9995 25.9952 79.9995 23.8128L79.9995 11.3914C79.9995 8.78069 80.5145 6.78184 81.5445 5.39489C82.5848 4.00793 84.2726 3.31445 86.6081 3.31445C87.8829 3.31445 89.0149 3.54901 90.0041 4.01813C91.0036 4.48725 91.7889 5.19092 92.36 6.12916C92.9311 7.05719 93.2167 8.22998 93.2167 9.64753L93.2167 14.2979L87.8625 14.2979L87.8625 10.3206C87.8625 9.51496 87.7605 8.97445 87.5565 8.6991C87.3526 8.41355 87.0364 8.27078 86.6081 8.27078C86.1083 8.27078 85.7718 8.45435 85.5984 8.82148C85.425 9.17842 85.3384 9.65773 85.3384 10.2594L85.3384 23.7363C85.3384 24.4808 85.4454 25.006 85.6596 25.312C85.884 25.6179 86.2001 25.7709 86.6081 25.7709C87.067 25.7709 87.3882 25.5822 87.5718 25.2049C87.7656 24.8276 87.8625 24.338 87.8625 23.7363L87.8625 18.8871L93.2778 18.8871L93.2778 23.9811C93.2778 26.3471 92.6812 28.0655 91.488 29.1363C90.2948 30.1969 88.6274 30.7272 86.4857 30.7272Z" fill="#580900"/>
<path d="M95.083 30.4825L95.083 3.55921L100.407 3.55921L100.407 14.3438L102.915 3.55921L108.331 3.55921L105.317 15.8888L108.958 30.4825L103.374 30.4825L100.437 17.4492L100.437 30.4825L95.083 30.4825Z" fill="#580900"/>
<path d="M109.891 30.4825L109.891 3.55921L115.276 3.55921L115.276 25.8933L120.814 25.8933L120.814 30.4825L109.891 30.4825Z" fill="#580900"/>
<path d="M128.768 30.7272C126.617 30.7272 124.969 30.0796 123.827 28.7845C122.695 27.4791 122.129 25.5975 122.129 23.1397L122.129 10.3512C122.129 8.04642 122.69 6.29743 123.812 5.10424C124.944 3.91105 126.596 3.31445 128.768 3.31445C130.941 3.31445 132.588 3.91105 133.71 5.10424C134.842 6.29743 135.408 8.04642 135.408 10.3512L135.408 23.1397C135.408 25.5975 134.836 27.4791 133.694 28.7845C132.562 30.0796 130.92 30.7272 128.768 30.7272ZM128.814 25.7709C129.63 25.7709 130.038 24.9805 130.038 23.3998L130.038 10.2594C130.038 8.93366 129.64 8.27078 128.845 8.27078C127.947 8.27078 127.499 8.94896 127.499 10.3053L127.499 23.4304C127.499 24.2667 127.601 24.8683 127.805 25.2355C128.009 25.5924 128.345 25.7709 128.814 25.7709Z" fill="#580900"/>
<path d="M136.846 30.4825L139.446 3.55921L148.579 3.55921L151.134 30.4825L146.039 30.4825L145.657 26.138L142.414 26.138L142.077 30.4825L136.846 30.4825ZM142.796 21.8395L145.244 21.8395L144.066 8.1484L143.821 8.1484L142.796 21.8395Z" fill="#580900"/>
<path d="M152.786 30.4825L152.786 3.55921L160.19 3.55921C162.127 3.55921 163.586 4.09971 164.565 5.18072C165.544 6.25153 166.033 7.82206 166.033 9.89229L166.033 22.4973C166.033 25.0468 165.585 27.0151 164.687 28.402C163.8 29.789 162.24 30.4825 160.006 30.4825L152.786 30.4825ZM158.201 25.725L159.134 25.725C160.123 25.725 160.618 25.2457 160.618 24.287L160.618 10.3971C160.618 9.49966 160.496 8.92346 160.251 8.66851C160.016 8.40335 159.532 8.27078 158.798 8.27078L158.201 8.27078L158.201 25.725Z" fill="#580900"/>
<path d="M174.631 30.7272C172.173 30.7272 170.398 30.1153 169.307 28.8915C168.226 27.6677 167.686 25.7199 167.686 23.048L167.686 20.4168L173.009 20.4168L173.009 23.7822C173.009 24.4043 173.101 24.8938 173.285 25.2508C173.478 25.5975 173.81 25.7709 174.279 25.7709C174.768 25.7709 175.105 25.6281 175.289 25.3426C175.482 25.057 175.579 24.5879 175.579 23.9352C175.579 23.1092 175.498 22.4208 175.334 21.8701C175.171 21.3092 174.886 20.7789 174.478 20.2792C174.08 19.7692 173.524 19.1778 172.81 18.5047L170.393 16.2101C168.588 14.507 167.686 12.5591 167.686 10.3665C167.686 8.07191 168.216 6.32292 169.277 5.11953C170.347 3.91615 171.892 3.31445 173.912 3.31445C176.38 3.31445 178.129 3.97224 179.159 5.2878C180.199 6.60337 180.719 8.60222 180.719 11.2843L175.243 11.2843L175.243 9.43337C175.243 9.06624 175.136 8.78069 174.921 8.57672C174.717 8.37276 174.437 8.27078 174.08 8.27078C173.652 8.27078 173.336 8.39316 173.132 8.63791C172.938 8.87247 172.841 9.17842 172.841 9.55575C172.841 9.93308 172.943 10.341 173.147 10.7795C173.351 11.2181 173.754 11.7229 174.355 12.294L177.461 15.2769C178.083 15.8684 178.654 16.4956 179.174 17.1585C179.694 17.8112 180.112 18.5761 180.429 19.4531C180.745 20.3199 180.903 21.3806 180.903 22.6349C180.903 25.1641 180.434 27.1476 179.495 28.5856C178.567 30.0133 176.946 30.7272 174.631 30.7272Z" fill="#580900"/>
</g>
<path id="Subtract" fill-rule="evenodd" clip-rule="evenodd" d="M18.7062 14.6555L18.8478 16.003C20.6584 16.0725 22.1787 17.1009 23.2227 18.3646C24.418 19.8115 25.1965 21.7721 25.4193 23.8922C25.6422 26.0124 25.2884 28.092 24.42 29.7558C23.4418 31.6298 21.6642 32.9978 19.5372 33.2213L5.36447 34.7109C4.75248 34.7752 4.20423 34.3312 4.1399 33.7193L0.908538 2.97558C0.844215 2.36361 1.28818 1.81536 1.90017 1.75104C6.62441 1.25452 11.3488 0.757981 16.0729 0.26146C17.5484 0.10639 19.1803 1.32556 20.0538 2.38277C21.0928 3.64041 21.7582 5.32879 21.9484 7.13855C22.1386 8.94831 21.8388 10.7381 21.084 12.1843C20.5723 13.1646 19.7777 14.0996 18.7062 14.6555ZM15.9709 12.864L15.9876 13.0227L11.8399 13.4587L11.8395 13.455C9.96409 13.5892 8.21974 11.4442 7.9221 8.61246C7.62446 5.78069 8.88471 3.3199 10.747 3.06134L10.7469 3.06015L10.8021 3.05435C10.8095 3.0535 10.817 3.05268 10.8244 3.0519C10.8319 3.05111 10.8393 3.05037 10.8468 3.04966L14.8947 2.62422L14.9111 2.7802C13.4732 3.50424 12.5791 5.66322 12.8348 8.096C13.0905 10.5288 14.4139 12.4547 15.9709 12.864ZM18.6207 30.8033L18.6412 30.9991L13.5966 31.5293L13.5963 31.5263C11.2927 31.7401 9.13711 29.1159 8.77194 25.6416C8.40678 22.1674 9.96967 19.1523 12.2673 18.8825L12.2673 18.8822L17.312 18.352L17.3322 18.5448C15.5877 19.429 14.5036 22.0517 14.8142 25.0064C15.1248 27.9612 16.7304 30.3012 18.6207 30.8033Z" fill="#FE8046"/>
</g>
</svg>
