<svg width="161" height="43" viewBox="0 0 161 43" fill="none" xmlns="http://www.w3.org/2000/svg">
<g id="Group 413">
<g id="Vector">
<path d="M121.745 15.3327L117.064 15.3327C116.939 15.3327 116.837 15.4343 116.837 15.5596L116.837 35.5771C116.837 35.7025 116.939 35.8041 117.064 35.8041L121.745 35.8041C121.87 35.8041 121.971 35.7025 121.971 35.5771L121.971 15.5596C121.971 15.4343 121.87 15.3327 121.745 15.3327Z" fill="#041C49"/>
<path d="M75.6922 16.7373C74.7003 15.8 73.5705 15.0999 72.3061 14.6381C71.0406 14.1774 69.775 13.9459 68.5095 13.9459C66.899 13.9459 65.4819 14.2636 64.2605 14.8979C63.0379 15.5334 61.9952 16.3991 61.3053 17.4953L61.3053 7.68226C61.3053 7.55744 61.2035 7.45531 61.0791 7.45531L56.3981 7.45531C56.2737 7.45531 56.1719 7.55743 56.1719 7.68225L56.1719 25.0264C56.1719 26.758 56.4524 28.3307 57.0133 29.7445C57.5743 31.1584 58.3501 32.3635 59.3431 33.3586C60.3361 34.3538 61.5281 35.1186 62.9237 35.653C64.3182 36.1863 65.8642 36.4541 67.5606 36.4541C69.2571 36.4541 70.7669 36.1727 72.1761 35.6099C73.5852 35.0471 74.7999 34.2687 75.8211 33.2724C76.8413 32.2773 77.6329 31.0869 78.1939 29.7015C78.7548 28.316 79.0353 26.8159 79.0353 25.2C79.0353 23.296 78.7254 21.6438 78.1079 20.2447C77.4893 18.8456 76.684 17.6769 75.6922 16.7384L75.6922 16.7373ZM72.1331 29.8524C70.9829 31.0506 69.4584 31.6486 67.5606 31.6486C65.6629 31.6486 64.1451 31.0506 63.0097 29.8523C61.8731 28.6552 61.3053 27.1041 61.3053 25.2C61.3053 23.296 61.873 21.7448 63.0097 20.5477C64.1451 19.3505 65.6629 18.7514 67.5606 18.7514C69.4584 18.7514 70.9829 19.3506 72.1331 20.5477C73.2833 21.7459 73.8589 23.296 73.8589 25.2C73.8589 27.1041 73.2833 28.6564 72.1331 29.8524Z" fill="#041C49"/>
<path d="M86.9622 7.45535L82.2811 7.45535C82.1562 7.45535 82.055 7.55695 82.055 7.68229L82.055 35.577C82.055 35.7024 82.1563 35.804 82.2812 35.804L86.9622 35.804C87.0871 35.804 87.1884 35.7024 87.1884 35.577L87.1884 7.6823C87.1884 7.55696 87.0871 7.45535 86.9622 7.45535Z" fill="#041C49"/>
<path d="M106.988 25.6324C106.988 27.6817 106.498 29.1965 105.521 30.1769C104.543 31.1584 103.234 31.6486 101.596 31.6486C99.9569 31.6486 98.6473 31.1584 97.6701 30.1769C96.6918 29.1965 96.2033 27.6817 96.2033 25.6324L96.2032 15.412C96.2032 15.2872 96.1014 15.185 95.977 15.185L91.296 15.185C91.1716 15.185 91.0698 15.2871 91.0698 15.412L91.0698 25.6323C91.0698 27.4218 91.3209 28.9945 91.8253 30.3505C92.3286 31.7076 93.04 32.8389 93.9606 33.7478C94.8812 34.6568 95.9884 35.3353 97.2822 35.7824C98.576 36.2295 100.015 36.453 101.596 36.453C103.177 36.453 104.615 36.2215 105.909 35.7609C107.203 35.3002 108.31 34.6137 109.231 33.7048C110.151 32.7958 110.863 31.6702 111.366 30.329C111.869 28.9877 112.121 27.4218 112.121 25.6324L112.121 15.412C112.121 15.2872 112.02 15.1851 111.895 15.1851L107.214 15.185C107.09 15.185 106.988 15.2872 106.988 15.412L106.988 25.6324Z" fill="#041C49"/>
<path d="M160.677 27.0554C160.801 27.0554 160.903 26.9533 160.903 26.8285L160.903 25.2376C160.903 23.6218 160.622 22.1217 160.062 20.7362C159.501 19.3507 158.725 18.1604 157.732 17.1652C156.74 16.1701 155.539 15.3905 154.13 14.8277C152.72 14.2649 151.181 13.9835 149.514 13.9835C147.847 13.9835 146.272 14.2649 144.877 14.8277C143.482 15.3905 142.274 16.1689 141.254 17.1652C140.232 18.1604 139.442 19.3507 138.881 20.7362C138.32 22.1217 138.04 23.6217 138.04 25.2376C138.04 26.8534 138.32 28.3535 138.881 29.739C139.442 31.1245 140.233 32.3148 141.254 33.31C142.274 34.3051 143.482 35.0847 144.877 35.6475C146.272 36.2103 147.818 36.4917 149.514 36.4917C152.044 36.4917 154.23 35.8858 156.072 34.6739C157.815 33.5256 159.095 32.0017 159.91 30.101C159.974 29.9512 159.866 29.7833 159.702 29.7833L154.775 29.7833C154.645 29.7833 154.521 29.8378 154.436 29.9365C153.367 31.1903 151.726 31.8167 149.514 31.8167C147.904 31.8167 146.574 31.3991 145.524 30.5617C144.545 29.7821 143.873 28.6633 143.507 27.3459C143.466 27.2007 143.574 27.0554 143.725 27.0554L160.677 27.0554ZM143.875 22.9704C143.719 22.9704 143.61 22.815 143.662 22.6663C144.078 21.4953 144.755 20.4752 145.696 19.7842C146.716 19.0341 147.99 18.6585 149.514 18.6585C151.039 18.6585 152.275 19.0341 153.311 19.7842C154.264 20.4752 154.95 21.4953 155.367 22.6663C155.42 22.8139 155.31 22.9705 155.153 22.9705L143.875 22.9704Z" fill="#041C49"/>
<path d="M137.201 15.4075L137.201 20.1041C137.201 20.2289 137.1 20.3311 136.975 20.3311L132.294 20.331C132.17 20.331 132.068 20.4332 132.068 20.558L132.068 35.5771C132.068 35.7019 131.966 35.804 131.842 35.804L127.16 35.804C127.035 35.804 126.934 35.7019 126.934 35.5771L126.934 7.68236C126.934 7.55754 127.035 7.45542 127.16 7.45542L131.842 7.45542C131.966 7.45542 132.068 7.55755 132.068 7.68237L132.068 14.9536C132.068 15.0784 132.17 15.1806 132.294 15.1806L136.975 15.1806C137.1 15.1806 137.201 15.2827 137.201 15.4075Z" fill="#041C49"/>
<path d="M119.405 12.6059C121.27 12.6059 122.783 11.2251 122.783 9.52176C122.783 7.81843 121.27 6.4376 119.405 6.4376C117.539 6.43759 116.027 7.81842 116.027 9.52175C116.027 11.2251 117.539 12.6059 119.405 12.6059Z" fill="#041C49"/>
</g>
<g id="logomark">
<path id="Vector_2" d="M26.1493 35.8337C26.8462 32.311 25.7609 29.1288 23.7252 28.7261C21.6895 28.3234 19.4743 30.8527 18.7774 34.3754C18.0806 37.8982 19.1659 41.0804 21.2015 41.4831C23.2372 41.8858 25.4524 39.3565 26.1493 35.8337Z" fill="#0079EB"/>
<path id="Vector_3" d="M34.5331 36.4118C36.7337 36.0817 38.1319 33.2421 37.656 30.0692C37.1801 26.8964 35.0104 24.5919 32.8098 24.9219C30.6091 25.252 29.211 28.0916 29.6869 31.2645C30.1628 34.4373 32.3325 36.7418 34.5331 36.4118Z" fill="#0079EB"/>
<path id="Vector_4" d="M39.3886 24.9682C41.0362 24.7211 42.083 22.5953 41.7268 20.2202C41.3705 17.845 39.7461 16.1199 38.0985 16.367C36.4509 16.6141 35.404 18.7399 35.7603 21.115C36.1165 23.4902 37.741 25.2153 39.3886 24.9682Z" fill="#0079EB"/>
<path id="Vector_5" d="M8.74767 24.3582C12.2696 23.657 14.7962 21.4388 14.391 19.4036C13.9858 17.3684 10.8023 16.287 7.28033 16.9882C3.7584 17.6894 1.2318 19.9076 1.63699 21.9428C2.04218 23.978 5.22574 25.0594 8.74767 24.3582Z" fill="#0079EB"/>
<path id="Vector_6" d="M18.2196 10.2905C18.547 8.08945 16.2398 5.92255 13.0663 5.45054C9.89286 4.97853 7.05489 6.38015 6.72752 8.58115C6.40015 10.7821 8.70735 12.949 11.8808 13.4211C15.0542 13.8931 17.8922 12.4914 18.2196 10.2905Z" fill="#0079EB"/>
<path id="Vector_7" d="M26.7341 5.01454C26.9792 3.36664 25.2521 1.74432 22.8765 1.39098C20.5009 1.03764 18.3764 2.08708 18.1313 3.73498C17.8862 5.38287 19.6133 7.00519 21.9889 7.35853C24.3645 7.71187 26.489 6.66243 26.7341 5.01454Z" fill="#0079EB"/>
<path id="Effect" fill-rule="evenodd" clip-rule="evenodd" d="M22.8771 1.39075C25.2527 1.74409 26.9798 3.36641 26.7347 5.0143C26.4896 6.6622 24.3651 7.71164 21.9895 7.3583C19.6139 7.00496 17.8868 5.38264 18.1319 3.73474C18.377 2.08685 20.5015 1.03741 22.8771 1.39075ZM18.2153 10.2866C18.5427 8.08563 16.2355 5.91873 13.0621 5.44672C9.88862 4.97471 7.05064 6.37633 6.72327 8.57732C6.3959 10.7783 8.7031 12.9452 11.8765 13.4172C15.05 13.8892 17.888 12.4876 18.2153 10.2866ZM39.387 24.9623C41.0347 24.7152 42.0815 22.5894 41.7253 20.2143C41.369 17.8391 39.7446 16.114 38.097 16.3612C36.4494 16.6083 35.4025 18.734 35.7588 21.1092C36.115 23.4843 37.7394 25.2094 39.387 24.9623ZM37.6545 30.0673C38.1304 33.2401 36.7322 36.0798 34.5316 36.4098C32.331 36.7399 30.1612 34.4354 29.6854 31.2625C29.2095 28.0897 30.6076 25.25 32.8082 24.92C35.0089 24.5899 37.1786 26.8944 37.6545 30.0673ZM23.7246 28.7202C25.7603 29.1229 26.8456 32.3051 26.1487 35.8279C25.4518 39.3506 23.2367 41.8799 21.201 41.4772C19.1653 41.0745 18.08 37.8923 18.7769 34.3695C19.4738 30.8468 21.689 28.3175 23.7246 28.7202ZM14.3895 19.3997C14.7947 21.4348 12.2681 23.6531 8.74615 24.3543C5.22422 25.0555 2.04066 23.9741 1.63547 21.9389C1.23027 19.9037 3.75688 17.6855 7.27881 16.9843C10.8007 16.2831 13.9843 17.3645 14.3895 19.3997Z" fill="#0079EB"/>
<path id="Vector_8" d="M36.8473 12.1609C37.9781 11.0289 37.5779 8.79574 35.9534 7.17297C34.3289 5.5502 32.0953 5.15235 30.9645 6.28434C29.8337 7.41633 30.2339 9.6495 31.8584 11.2723C33.4829 12.895 35.7165 13.2929 36.8473 12.1609Z" fill="#0079EB"/>
<path id="Vector_9" d="M26.0456 25.7399L23.8382 19.9385C23.7228 19.6365 23.484 19.3976 23.1847 19.285L17.3832 17.0776C16.3234 16.674 16.4525 15.1337 17.5644 14.9141L29.1921 12.6023C29.9828 12.4458 30.6775 13.1404 30.521 13.9312L28.2092 25.5587C27.9868 26.6706 26.4492 26.7997 26.0456 25.7399Z" fill="#0079EB"/>
</g>
</g>
</svg>
