<svg width="141" height="37" viewBox="0 0 141 37" fill="none" xmlns="http://www.w3.org/2000/svg">
<g id="Group 383">
<g id="cubic">
<path d="M52.4664 29.5219C50.532 29.5219 48.7723 29.1189 47.1872 28.3129C45.6289 27.5069 44.393 26.3382 43.4796 24.8068C42.5661 23.2754 42.1094 21.4216 42.1094 19.2454L42.1094 18.6812C42.1094 16.505 42.5661 14.6512 43.4796 13.1198C44.393 11.5885 45.6289 10.4198 47.1872 9.61376C48.7723 8.80776 50.532 8.40476 52.4664 8.40476C54.374 8.40476 56.0128 8.7406 57.383 9.41226C58.7532 10.0839 59.8547 11.0108 60.6876 12.193C61.5473 13.3482 62.1115 14.6647 62.3802 16.1423L57.4636 17.1901C57.3562 16.3841 57.1144 15.6587 56.7382 15.0139C56.3621 14.3691 55.8248 13.8587 55.1262 13.4825C54.4546 13.1064 53.6083 12.9183 52.5873 12.9183C51.5664 12.9183 50.6395 13.1467 49.8066 13.6034C49.0006 14.0333 48.3559 14.6915 47.8723 15.5781C47.4155 16.4379 47.1872 17.4991 47.1872 18.7618L47.1872 19.1648C47.1872 20.4276 47.4155 21.5022 47.8723 22.3888C48.3559 23.2485 49.0006 23.9068 49.8066 24.3635C50.6395 24.7934 51.5664 25.0083 52.5873 25.0083C54.1187 25.0083 55.274 24.6187 56.0531 23.8396C56.8591 23.0336 57.3696 21.9858 57.5845 20.6962L62.5011 21.8649C62.1518 23.2888 61.5473 24.5919 60.6876 25.774C59.8547 26.9293 58.7532 27.8427 57.383 28.5144C56.0128 29.1861 54.374 29.5219 52.4664 29.5219Z" fill="#2F5AFC"/>
<path d="M72.6944 29.2801C71.1362 29.2801 69.766 28.9308 68.5839 28.2323C67.4286 27.5069 66.5286 26.5128 65.8838 25.2501C65.239 23.9874 64.9166 22.5366 64.9166 20.8977L64.9166 8.96896L69.9944 8.96896L69.9944 20.4947C69.9944 21.9993 70.3571 23.1276 71.0825 23.8799C71.8347 24.6322 72.8959 25.0083 74.2661 25.0083C75.8244 25.0083 77.0334 24.4978 77.8931 23.4769C78.7529 22.4291 79.1827 20.9783 79.1827 19.1245L79.1827 8.96896L84.2605 8.96896L84.2605 28.9577L79.2633 28.9577L79.2633 26.3382L78.5379 26.3382C78.2155 27.0099 77.611 27.6681 76.7244 28.3129C75.8378 28.9577 74.4945 29.2801 72.6944 29.2801Z" fill="#2F5AFC"/>
<path d="M100.308 29.5219C98.5083 29.5219 97.1247 29.2129 96.1575 28.595C95.1903 27.9771 94.4783 27.292 94.0216 26.5397L93.2962 26.5397L93.2962 28.9577L88.299 28.9577L88.299 0.747792L93.3768 0.747792L93.3768 11.2661L94.1022 11.2661C94.3977 10.7825 94.7873 10.3257 95.2709 9.89586C95.7813 9.46599 96.4396 9.11673 97.2456 8.84806C98.0784 8.55253 99.0993 8.40476 100.308 8.40476C101.92 8.40476 103.411 8.80776 104.782 9.61376C106.152 10.3929 107.253 11.5482 108.086 13.0795C108.919 14.6109 109.336 16.4647 109.336 18.6409L109.336 19.2857C109.336 21.4619 108.919 23.3157 108.086 24.8471C107.253 26.3785 106.152 27.5472 104.782 28.3532C103.411 29.1323 101.92 29.5219 100.308 29.5219ZM98.7769 25.0889C100.335 25.0889 101.638 24.5919 102.686 23.5978C103.734 22.5769 104.258 21.0992 104.258 19.1648L104.258 18.7618C104.258 16.8274 103.734 15.3632 102.686 14.3691C101.665 13.3482 100.362 12.8378 98.7769 12.8378C97.2187 12.8378 95.9157 13.3482 94.8679 14.3691C93.8201 15.3632 93.2962 16.8274 93.2962 18.7618L93.2962 19.1648C93.2962 21.0992 93.8201 22.5769 94.8679 23.5978C95.9157 24.5919 97.2187 25.0889 98.7769 25.0889Z" fill="#2F5AFC"/>
<path d="M112.386 28.9577L112.386 8.96896L117.464 8.96896L117.464 28.9577L112.386 28.9577ZM114.925 6.63157C114.011 6.63157 113.232 6.33604 112.588 5.74497C111.97 5.15391 111.661 4.37478 111.661 3.40758C111.661 2.44039 111.97 1.66126 112.588 1.07019C113.232 0.479126 114.011 0.183594 114.925 0.183594C115.865 0.183594 116.644 0.479126 117.262 1.07019C117.88 1.66126 118.189 2.44039 118.189 3.40758C118.189 4.37478 117.88 5.15391 117.262 5.74497C116.644 6.33604 115.865 6.63157 114.925 6.63157Z" fill="#2F5AFC"/>
<path d="M130.869 29.5219C128.934 29.5219 127.174 29.1189 125.589 28.3129C124.031 27.5069 122.795 26.3382 121.882 24.8068C120.968 23.2754 120.511 21.4216 120.511 19.2454L120.511 18.6812C120.511 16.505 120.968 14.6512 121.882 13.1198C122.795 11.5885 124.031 10.4198 125.589 9.61376C127.174 8.80776 128.934 8.40476 130.869 8.40476C132.776 8.40476 134.415 8.7406 135.785 9.41226C137.155 10.0839 138.257 11.0108 139.09 12.193C139.949 13.3482 140.514 14.6647 140.782 16.1423L135.866 17.1901C135.758 16.3841 135.516 15.6587 135.14 15.0139C134.764 14.3691 134.227 13.8587 133.528 13.4825C132.857 13.1064 132.01 12.9183 130.989 12.9183C129.969 12.9183 129.042 13.1467 128.209 13.6034C127.403 14.0333 126.758 14.6915 126.274 15.5781C125.818 16.4379 125.589 17.4991 125.589 18.7618L125.589 19.1648C125.589 20.4276 125.818 21.5022 126.274 22.3888C126.758 23.2485 127.403 23.9068 128.209 24.3635C129.042 24.7934 129.969 25.0083 130.989 25.0083C132.521 25.0083 133.676 24.6187 134.455 23.8396C135.261 23.0336 135.772 21.9858 135.987 20.6962L140.903 21.8649C140.554 23.2888 139.949 24.5919 139.09 25.774C138.257 26.9293 137.155 27.8427 135.785 28.5144C134.415 29.1861 132.776 29.5219 130.869 29.5219Z" fill="#2F5AFC"/>
</g>
<path id="Vector" d="M33.5165 29.3107L28.99 33.8372C28.6202 34.207 28.0193 34.207 27.6495 33.8372L24.4493 30.6382C23.8531 30.0408 22.8314 30.464 22.8314 31.3079L22.8314 35.8331C22.8314 36.357 22.4071 36.7813 21.8832 36.7813L15.4829 36.7813C14.959 36.7813 14.5347 36.357 14.5347 35.8331L14.5347 31.3067C14.5347 30.4794 13.5533 30.0574 12.9524 30.6015C12.9441 30.6097 10.8296 32.7242 9.71426 33.8384C9.34447 34.2082 8.74473 34.2082 8.37374 33.8384L3.84727 29.3119C3.47748 28.9421 3.47748 28.3412 3.84727 27.9714L7.04745 24.7712C7.64482 24.1738 7.22168 23.1522 6.3766 23.1522L1.8525 23.1522C1.32862 23.1522 0.904297 22.7278 0.904297 22.204L0.904297 15.8036C0.904297 15.2797 1.32862 14.8554 1.8525 14.8554L6.37778 14.8554C7.20627 14.8554 7.62822 13.874 7.08419 13.2731C7.07234 13.2612 7.06049 13.2482 7.04863 13.2364L3.84846 10.0362C3.47866 9.66638 3.47866 9.06546 3.84846 8.69566L8.37374 4.168C8.74354 3.7982 9.34447 3.7982 9.71426 4.168L12.9144 7.36818C13.5118 7.96554 14.5335 7.54241 14.5335 6.69733L14.5335 2.17086C14.5335 1.64698 14.9578 1.22266 15.4817 1.22266L21.882 1.22266C22.4059 1.22266 22.8302 1.64698 22.8302 2.17086L22.8302 8.03785C22.8302 8.56173 22.4059 8.98604 21.882 8.98604L15.3181 8.98604C14.8156 8.98604 14.3332 9.18635 13.9776 9.54193L9.2212 14.2972C8.86562 14.6527 8.66532 15.1351 8.66532 15.6377L8.66532 22.3628C8.66532 22.8653 8.86562 23.3477 9.2212 23.7033L13.9776 28.4597C14.3332 28.8153 14.8156 29.0156 15.3181 29.0156L22.0432 29.0156C22.547 29.0156 23.0294 28.8165 23.3849 28.4609L28.0252 23.8195C28.395 23.4485 28.9959 23.4485 29.3657 23.8195L33.5141 27.9678C33.8839 28.3376 33.8839 28.9385 33.5141 29.3083L33.5165 29.3107Z" fill="#2F5AFC"/>
</g>
</svg>
