<svg width="24" height="24" viewBox="0 0 24 24" fill="none" xmlns="http://www.w3.org/2000/svg">
<path fill-rule="evenodd" clip-rule="evenodd" d="M6.6224 4.4707C5.43933 4.4707 4.47136 5.43867 4.47136 6.62174C4.47136 7.80481 5.43933 8.77278 6.6224 8.77278C7.80547 8.77278 8.77344 7.80481 8.77344 6.62174C8.77344 5.43867 7.80547 4.4707 6.6224 4.4707ZM15.2266 6.62174C15.2266 5.43867 16.1945 4.4707 17.3776 4.4707C18.5607 4.4707 19.5286 5.43867 19.5286 6.62174C19.5286 7.80481 18.5607 8.77278 17.3776 8.77278C16.1945 8.77278 15.2266 7.80481 15.2266 6.62174ZM17.3776 15.2262C16.1945 15.2262 15.2266 16.1942 15.2266 17.3773C15.2266 18.5603 16.1945 19.5283 17.3776 19.5283C18.5607 19.5283 19.5286 18.5603 19.5286 17.3773C19.5286 16.1942 18.5607 15.2262 17.3776 15.2262ZM6.6224 15.2262C5.43933 15.2262 4.47136 16.1942 4.47136 17.3773C4.47136 18.5603 5.43933 19.5283 6.6224 19.5283C7.80547 19.5283 8.77344 18.5603 8.77344 17.3773C8.77344 16.1942 7.80547 15.2262 6.6224 15.2262Z" fill="black"/>
</svg>
