<svg width="151" height="29" viewBox="0 0 151 29" fill="none" xmlns="http://www.w3.org/2000/svg">
<g id="Group 372">
<path id="Union" fill-rule="evenodd" clip-rule="evenodd" d="M74.1953 0.384766L67.8353 0.384766V28.3065H74.1953V0.384766ZM57.5409 1.16037L38.393 1.16037V28.3065H45.1408V17.1766H54.0462V14.6634V11.9025H45.1408V6.82228H57.5409V3.94392V1.16037ZM86.1047 28.578C84.0881 28.578 82.3301 28.1643 80.8305 27.337C79.3569 26.4839 78.2064 25.2946 77.3791 23.7692C76.5776 22.2439 76.1769 20.46 76.1769 18.4176C76.1769 16.5044 76.5776 14.811 77.3791 13.3374C78.2064 11.8637 79.344 10.7132 80.7918 9.88592C82.2396 9.05861 83.9071 8.64495 85.7944 8.64495C87.7593 8.64495 89.4657 9.04568 90.9135 9.84714C92.3613 10.6227 93.4859 11.7344 94.2874 13.1822C95.0888 14.63 95.4896 16.3234 95.4896 18.2625C95.4896 18.5468 95.4767 18.8571 95.4508 19.1932C95.4249 19.5293 95.3862 19.9042 95.3345 20.3178H82.9635C83.0927 20.9124 83.3125 21.4295 83.6227 21.869C83.9588 22.2827 84.3596 22.6058 84.8249 22.8385C85.3162 23.0453 85.8591 23.1488 86.4537 23.1488C87.1259 23.1488 87.7205 23.0066 88.2376 22.7222C88.7547 22.4378 89.1684 22.0241 89.4786 21.4812L95.2181 22.9161C94.4425 24.7517 93.2662 26.1607 91.6891 27.1431C90.1379 28.0997 88.2764 28.578 86.1047 28.578ZM88.5479 16.5949C88.522 16.052 88.3798 15.5737 88.1213 15.16C87.8886 14.7464 87.5784 14.4232 87.1906 14.1905C86.8027 13.9578 86.3632 13.8544 85.872 13.8803C85.3808 13.9061 84.9283 14.0354 84.5147 14.2681C84.1269 14.5008 83.7908 14.8239 83.5064 15.2376C83.2479 15.6254 83.0927 16.0778 83.041 16.5949H88.5479ZM129.39 25.9022L129.816 28.3065H135.75V16.2071C135.75 13.8544 135.039 12.0059 133.617 10.6615C132.195 9.31714 130.127 8.64495 127.412 8.64495C125.266 8.64495 123.482 9.09739 122.06 10.0023C120.638 10.8813 119.63 12.1998 119.035 13.9578L124.426 15.8969C124.607 15.2505 124.943 14.7464 125.434 14.3844C125.925 14.0225 126.507 13.8415 127.179 13.8415C127.929 13.8415 128.485 14.0354 128.847 14.4232C129.209 14.7852 129.39 15.1471 129.39 15.5091V16.6337L125.124 17.099C122.668 17.3834 120.871 18.0427 119.733 19.0768C118.596 20.111 118.027 21.4295 118.027 23.0324C118.027 24.2217 118.312 25.23 118.88 26.0573C119.449 26.8846 120.199 27.518 121.13 27.9575C122.086 28.3712 123.133 28.578 124.271 28.578C125.512 28.578 126.494 28.3324 127.218 27.8412C127.968 27.35 128.692 26.7036 129.39 25.9022ZM126.365 20.5505L129.39 20.2015V20.5893C129.39 21.2873 129.273 21.869 129.041 22.3344C128.808 22.7997 128.485 23.1617 128.071 23.4202C127.683 23.6529 127.218 23.7692 126.675 23.7692C126.003 23.7692 125.473 23.6271 125.085 23.3427C124.723 23.0583 124.542 22.6963 124.542 22.2568C124.542 21.8173 124.697 21.4424 125.008 21.1322C125.318 20.8219 125.77 20.628 126.365 20.5505ZM137.719 8.91642H143.497L143.923 11.5535C144.415 10.8554 144.996 10.2866 145.669 9.84714C146.341 9.38178 147.103 9.07154 147.957 8.91642C148.836 8.73544 149.818 8.73544 150.904 8.91642V11.9413V14.9661C150.232 14.7593 149.495 14.6947 148.693 14.7722C147.918 14.8498 147.168 15.0954 146.444 15.5091C145.746 15.9227 145.177 16.5432 144.738 17.3705C144.298 18.1978 144.079 19.2707 144.079 20.5893V28.3065H137.719V8.91642ZM59.5062 1.16037H65.8662V6.90731H59.5062V1.16037ZM65.8662 28.3065V9.54361L59.5062 9.54361V23.8856V28.3065H65.8662ZM102.087 27.3758C103.561 28.2031 105.254 28.6038 107.167 28.578C109.365 28.5521 111.291 27.9704 112.946 26.8329C114.626 25.6695 115.619 24.399 116.138 22.2956C116.325 21.5366 116.358 20.3061 116.358 20.3061H110.309C110.263 20.4049 110.215 20.5141 110.165 20.6293C109.898 21.2378 109.558 22.013 109.145 22.2956C108.68 22.6317 108.137 22.7997 107.516 22.7997C106.56 22.7997 105.771 22.4119 105.151 21.6363C104.53 20.8607 104.22 19.8654 104.22 18.6503C104.22 17.8488 104.362 17.1249 104.647 16.4786C104.931 15.8322 105.319 15.3281 105.81 14.9661C106.327 14.6042 106.909 14.4232 107.555 14.4232C108.176 14.4232 108.719 14.5913 109.184 14.9274C109.554 15.1805 109.851 16.1438 110.074 16.869L110.074 16.8693C110.147 17.1067 110.212 17.3185 110.27 17.4715H116.358C116.358 17.4715 116.531 15.976 116.358 15.0437C115.945 12.8068 114.561 11.4888 112.907 10.3513C111.252 9.21373 109.313 8.64495 107.09 8.64495C105.202 8.64495 103.535 9.07153 102.087 9.9247C100.639 10.752 99.5017 11.9283 98.6744 13.4537C97.8729 14.9532 97.4722 16.6854 97.4722 18.6503C97.4722 20.641 97.8729 22.3861 98.6744 23.8856C99.5017 25.3851 100.639 26.5485 102.087 27.3758ZM28.2448 12.9697H16.5127L20.0032 6.63894L16.5127 0.385214L28.2448 0.385214L32.1235 6.63894L28.2448 12.9697ZM12.6344 28.5791H0.902344L4.39284 22.2483L0.902344 15.9946H12.6344L16.5131 22.2483L12.6344 28.5791ZM16.5117 28.5791H28.2438L32.1225 22.2483L28.2438 15.9946H16.5117L20.0022 22.2483L16.5117 28.5791ZM12.6344 12.9697H0.902344L4.39284 6.63894L0.902344 0.385214L12.6344 0.385214L16.5131 6.63894L12.6344 12.9697Z" fill="#2A7973"/>
</g>
</svg>
