<svg width="110" height="36" viewBox="0 0 110 36" fill="none" xmlns="http://www.w3.org/2000/svg">
<g id="Logo">
<path id="Stroke" d="M1.76075 25.8316V16.2239C1.24493 16.2239 0.987023 16.2239 0.781272 16.1463C0.456396 16.0239 0.199982 15.7675 0.0775434 15.4426C0 15.2368 0 14.9789 0 14.4631V7.89249C0 6.78623 0 6.2331 0.335624 5.88296C0.347408 5.87066 0.359452 5.85862 0.371746 5.84683C0.721886 5.51121 1.27502 5.51121 2.38128 5.51121C3.67539 2.00595 7.23115 0 10.8833 0C13.8698 0 16.3429 1.34844 18.9186 2.71722L21.7126 5.51121H31.9286C36.1774 5.51121 39.7925 5.03913 43.6972 7.39007C47.7797 4.17473 54.5543 4.47479 58.1168 8.34716C61.0655 5.3487 64.3914 5.41455 68.0358 5.48669C77.3384 5.67085 86.6572 5.51053 95.9615 5.51121C98.3433 4.8605 101.02 5.25458 103.039 6.69644C107.228 9.6881 110 13.9767 110 19.209C110 22.7577 108.947 26.6705 105.927 28.7267C104.231 29.882 102.139 30.3162 100.11 30.1215V32.9666C100.11 34.1045 100.11 34.6734 99.757 35.0269C99.4035 35.3804 98.8345 35.3804 97.6967 35.3804H89.1451C88.6518 35.3804 88.4051 35.3804 88.1833 35.2885C87.9615 35.1966 87.7871 35.0222 87.4383 34.6734L85.8146 33.0497C85.4657 32.7008 85.2913 32.5264 85.1994 32.3046C85.1076 32.0828 85.1076 31.8362 85.1076 31.3428V30.1057C81.9128 30.5399 78.4111 29.8286 76.0522 27.7922C71.9507 31.0636 65.398 31.0008 61.5156 27.3934C57.5503 30.8944 50.8719 31.1727 46.6764 27.8924C43.3762 30.7961 38.9966 29.8692 34.9663 29.8692H5.79829C5.30496 29.8692 5.0583 29.8692 4.83651 29.7773C4.61471 29.6854 4.4403 29.511 4.09147 29.1622L2.46773 27.5385C2.1189 27.1896 1.94449 27.0152 1.85262 26.7934C1.76075 26.5716 1.76075 26.325 1.76075 25.8316Z" fill="#F0F5F0"/>
<path id="Union" fill-rule="evenodd" clip-rule="evenodd" d="M5.10205 23.4903H10.3843V12.8827H13.3189V8.853H10.3843V8.46781C10.3843 8.11225 10.4723 7.8357 10.6484 7.63817C10.844 7.42088 11.1277 7.31224 11.4994 7.31224C11.832 7.31224 12.1548 7.39125 12.4678 7.54928C12.7809 7.70731 13.0645 7.89496 13.3189 8.11225L14.7568 4.28996C14.3851 4.09243 13.8569 3.88502 13.1721 3.66773C12.507 3.45044 11.744 3.3418 10.8832 3.3418C9.57239 3.3418 8.4866 3.59859 7.62579 4.11218C6.78454 4.60602 6.14872 5.29739 5.71831 6.18629C5.34451 6.97708 5.14076 7.86599 5.10706 8.853H3.34131V12.8827H5.10205V23.4903ZM16.2323 23.2533C16.878 23.6088 17.6507 23.7866 18.5507 23.7866C19.6462 23.7866 20.5266 23.5298 21.1918 23.0162C21.8765 22.5026 22.3852 21.8508 22.7178 21.0606C22.9886 20.4376 23.1843 19.7913 23.3047 19.1215V23.4903H28.5869V8.853H23.3047V16.8235C23.3047 17.6137 23.246 18.226 23.1286 18.6606C23.0308 19.0754 22.8449 19.3618 22.571 19.5199C22.2971 19.6779 21.9059 19.7569 21.3972 19.7569C20.6146 19.7569 20.0962 19.5297 19.8419 19.0754C19.6071 18.6013 19.4897 17.9198 19.4897 17.0309V8.853H14.2075V19.105C14.2075 20.0927 14.3836 20.9421 14.7357 21.6532C15.0879 22.3446 15.5867 22.8779 16.2323 23.2533ZM36.8273 23.7866C35.7122 23.7866 34.6558 23.678 33.658 23.4607C32.6602 23.2434 31.7701 22.9668 30.9875 22.631C30.2245 22.2952 29.5985 21.9397 29.1094 21.5643L31.0756 17.7124C31.6429 18.0877 32.269 18.4433 32.9537 18.7791C33.658 19.1149 34.3525 19.3816 35.0372 19.5791C35.7415 19.7767 36.3872 19.8754 36.9741 19.8754C37.3653 19.8754 37.6588 19.826 37.8544 19.7273C38.0501 19.6285 38.1479 19.4804 38.1479 19.2828C38.1479 19.0655 38.0012 18.8878 37.7077 18.7495C37.4338 18.6112 36.9252 18.4433 36.1817 18.2458L34.1862 17.7124C33.208 17.4359 32.3668 17.1198 31.6625 16.7643C30.9777 16.4087 30.4593 15.9544 30.1072 15.4013C29.755 14.8482 29.5789 14.1667 29.5789 13.3568C29.5789 11.8358 30.1561 10.6604 31.3103 9.8308C32.4646 9.00116 34.0004 8.58633 35.9176 8.58633C37.5219 8.58633 38.8913 8.82337 40.026 9.29746C41.1607 9.77154 42.0118 10.2259 42.5791 10.6604L40.789 14.4531C39.8499 13.7617 38.9011 13.258 37.9425 12.942C36.9838 12.6259 36.1426 12.4679 35.4187 12.4679C35.047 12.4679 34.7731 12.5271 34.5971 12.6457C34.421 12.7444 34.3329 12.8827 34.3329 13.0605C34.3329 13.2778 34.4797 13.4654 34.7731 13.6235C35.0666 13.7815 35.6829 13.9988 36.6219 14.2753L38.1185 14.7198C39.6837 15.1741 40.8575 15.7371 41.64 16.4087C42.4422 17.0803 42.8432 18.0087 42.8432 19.1939C42.8432 20.1026 42.5987 20.9026 42.1096 21.594C41.6205 22.2853 40.926 22.8286 40.026 23.2236C39.1457 23.5989 38.0794 23.7866 36.8273 23.7866ZM46.577 22.8088C47.7313 23.4607 49.1399 23.7866 50.8028 23.7866C52.4657 23.7866 53.7961 23.4903 54.7938 22.8977C55.8111 22.3051 56.5937 21.6434 57.1415 20.9125L53.9428 17.8309C53.7667 18.2458 53.5222 18.5816 53.2091 18.8384C52.9157 19.0754 52.5733 19.2532 52.182 19.3717C51.8103 19.4705 51.3799 19.5199 50.8908 19.5199C50.3235 19.5199 49.805 19.431 49.3355 19.2532C48.8855 19.0754 48.5236 18.789 48.2497 18.3939C48.11 18.166 48.0086 17.8993 47.9457 17.5939H57.2589C57.298 17.4161 57.3273 17.1001 57.3469 16.6457C57.386 16.1914 57.4056 15.7865 57.4056 15.4309C57.4056 14.2457 57.1513 13.1296 56.6426 12.0827C56.1535 11.0358 55.3905 10.1864 54.3536 9.5345C53.3167 8.88264 51.9668 8.5567 50.3039 8.5567C48.8366 8.5567 47.5552 8.88264 46.4596 9.5345C45.3836 10.1864 44.5424 11.0851 43.9359 12.2308C43.349 13.3765 43.0555 14.6901 43.0555 16.1717C43.0555 17.6532 43.349 18.9668 43.9359 20.1125C44.5424 21.2582 45.4227 22.1569 46.577 22.8088ZM47.8771 14.8383C47.9216 14.1158 48.1338 13.5627 48.5138 13.179C48.9638 12.7444 49.5703 12.5271 50.3333 12.5271C51.1941 12.5271 51.8005 12.7543 52.1527 13.2086C52.4584 13.603 52.6314 14.1462 52.6717 14.8383H47.8771ZM65.9729 23.7866C64.4274 23.7866 63.0873 23.4607 61.9526 22.8088C60.8374 22.1372 59.9668 21.2285 59.3408 20.0828C58.7343 18.9174 58.4311 17.6137 58.4311 16.1717C58.4311 14.7099 58.7343 13.4062 59.3408 12.2605C59.9668 11.1148 60.8374 10.216 61.9526 9.56413C63.0873 8.89251 64.4274 8.5567 65.9729 8.5567C67.5967 8.5567 69.0053 8.93202 70.1987 9.68265C71.3921 10.4333 72.2431 11.3716 72.7518 12.4975L68.6434 15.2235C68.4478 14.4729 68.1445 13.9099 67.7337 13.5346C67.3424 13.1593 66.8338 12.9716 66.2077 12.9716C65.7577 12.9716 65.3469 13.0901 64.9752 13.3272C64.6035 13.5444 64.31 13.8901 64.0948 14.3642C63.8992 14.8185 63.8014 15.421 63.8014 16.1717C63.8014 16.9025 63.8992 17.505 64.0948 17.9791C64.31 18.4532 64.6035 18.8087 64.9752 19.0458C65.3469 19.2631 65.7577 19.3717 66.2077 19.3717C66.8338 19.3717 67.3424 19.1841 67.7337 18.8087C68.1445 18.4334 68.4478 17.8704 68.6434 17.1198L72.7518 19.8458C72.2431 20.9717 71.3921 21.91 70.1987 22.6607C69.0053 23.4113 67.5967 23.7866 65.9729 23.7866ZM95.4038 23.0162C96.0103 23.5298 96.8809 23.7866 98.0156 23.7866C99.1699 23.7866 100.168 23.5002 101.009 22.9273C101.85 22.3545 102.496 21.5051 102.946 20.3791C103.396 19.2334 103.621 17.8309 103.621 16.1717C103.621 14.4926 103.396 13.0901 102.946 11.9642C102.515 10.8382 101.899 9.98883 101.097 9.41598C100.295 8.84313 99.3655 8.5567 98.3091 8.5567C97.1743 8.5567 96.2842 8.8135 95.6386 9.32709C94.993 9.82092 94.5235 10.4728 94.23 11.2827C94.0074 11.8969 93.8412 12.5338 93.7311 13.1934V8.853H88.4489V29.0015H93.7311V19.1838C93.83 19.8313 93.967 20.457 94.142 21.0606C94.3963 21.8508 94.8169 22.5026 95.4038 23.0162ZM93.7311 16.8235C93.7311 17.6137 93.8191 18.226 93.9952 18.6606C94.1909 19.0754 94.4452 19.3618 94.7582 19.5199C95.0713 19.6779 95.4136 19.7569 95.7853 19.7569C96.6461 19.7569 97.2722 19.431 97.6634 18.7791C98.0547 18.1272 98.2504 17.2581 98.2504 16.1717C98.2504 15.0852 98.0547 14.2161 97.6634 13.5642C97.2722 12.9123 96.6461 12.5864 95.7853 12.5864C95.4136 12.5864 95.0713 12.6654 94.7582 12.8234C94.4452 12.9815 94.1909 13.2778 93.9952 13.7124C93.8191 14.1272 93.7311 14.7297 93.7311 15.5198V16.8235ZM77.6466 16.7728V8.85284L73.102 8.85184V16.2526C73.102 18.8716 73.7149 20.7836 74.9408 21.9886C76.3551 23.3789 78.3755 23.799 80.2881 23.7961C82.2007 23.799 84.221 23.3789 85.6353 21.9886C86.8612 20.7836 87.4741 18.8716 87.4741 16.2526V8.85184L83.2564 8.85277L81.624 14.3219H83.3702L80.2631 21.8774H79.474V16.773L77.6466 16.7728Z" fill="#152928"/>
</g>
</svg>
