<svg width="137" height="45" viewBox="0 0 137 45" fill="none" xmlns="http://www.w3.org/2000/svg">
<g id="Logo">
<path id="Stroke" d="M3.08025 32.1196L3.08025 20.6686C2.92422 20.6686 2.84621 20.6686 2.78035 20.6642C1.77476 20.5981 0.973807 19.7971 0.907653 18.7915C0.90332 18.7257 0.90332 18.6477 0.90332 18.4916L0.90332 10.3676C0.90332 9.49647 0.90332 9.06092 1.03612 8.71406C1.24012 8.1812 1.66109 7.76023 2.19395 7.55623C2.54081 7.42343 2.97636 7.42343 3.84746 7.42343C5.44744 3.08953 9.84367 0.609375 14.3591 0.609375C18.0515 0.609375 21.1092 2.27659 24.2937 3.96895L27.7481 7.42343L40.3787 7.42343C45.6319 7.42343 50.1014 6.83975 54.9291 9.74646C59.9766 5.77101 68.3525 6.14201 72.757 10.9298C76.4026 7.22251 80.5147 7.30392 85.0205 7.39312C96.5219 7.62081 108.043 7.4226 119.547 7.42343C122.492 6.6189 125.801 7.10613 128.297 8.88885C133.476 12.5877 136.904 17.8901 136.904 24.3594C136.904 28.747 135.602 33.5848 131.868 36.127C129.771 37.5555 127.184 38.0923 124.677 37.8515L124.677 40.3358C124.677 42.2299 124.677 43.1769 124.088 43.7653C123.5 44.3536 122.553 44.3536 120.659 44.3536L111.547 44.3536C110.726 44.3536 110.316 44.3536 109.947 44.2007C109.577 44.0478 109.287 43.7575 108.706 43.1768L107.304 41.7746C106.724 41.194 106.433 40.9037 106.28 40.5345C106.127 40.1653 106.127 39.7548 106.127 38.9336L106.127 37.832C102.177 38.3689 97.8481 37.4894 94.9317 34.9717C89.8608 39.0163 81.7592 38.9388 76.9591 34.4786C72.0566 38.8072 63.7996 39.1512 58.6124 35.0955C54.5321 38.6856 49.1174 37.5396 44.1344 37.5396L8.50023 37.5396C7.67907 37.5396 7.26849 37.5396 6.89931 37.3867C6.53013 37.2338 6.23981 36.9434 5.65917 36.3628L4.25699 34.9606C3.67638 34.3799 3.38607 34.0896 3.23316 33.7204C3.08025 33.3513 3.08025 32.9407 3.08025 32.1196Z" fill="#0C0B26"/>
<path id="Union" fill-rule="evenodd" clip-rule="evenodd" d="M7.21013 29.6616L13.7409 29.6616L13.7409 16.5464L17.3691 16.5464L17.3691 11.5641L13.7409 11.5641L13.7409 11.0878C13.7409 10.6482 13.8497 10.3063 14.0674 10.062C14.3093 9.79338 14.66 9.65905 15.1196 9.65905C15.5308 9.65905 15.9299 9.75674 16.3169 9.95213C16.7039 10.1475 17.0547 10.3795 17.3691 10.6482L19.1469 5.92231C18.6874 5.67808 18.0343 5.42163 17.1877 5.15298C16.3653 4.88433 15.422 4.75 14.3577 4.75C12.7371 4.75 11.3947 5.0675 10.3304 5.7025C9.2903 6.31308 8.50419 7.16789 7.97205 8.26693C7.5099 9.24466 7.25799 10.3437 7.21632 11.5641L5.0332 11.5641L5.0332 16.5464L7.21013 16.5464L7.21013 29.6616ZM20.9712 29.3685C21.7694 29.8081 22.7249 30.0279 23.8375 30.0279C25.1921 30.0279 26.2805 29.7104 27.1029 29.0754C27.9495 28.4404 28.5784 27.6345 28.9896 26.6575C29.3245 25.8873 29.5664 25.0881 29.7152 24.26L29.7152 29.6616L36.246 29.6616L36.246 11.5641L29.7152 11.5641L29.7152 21.4188C29.7152 22.3957 29.6427 23.1528 29.4975 23.6901C29.3766 24.203 29.1468 24.5572 28.8082 24.7525C28.4695 24.9479 27.9858 25.0456 27.3569 25.0456C26.3894 25.0456 25.7484 24.7648 25.4339 24.203C25.1437 23.6169 24.9986 22.7743 24.9986 21.6752L24.9986 11.5641L18.4678 11.5641L18.4678 24.2397C18.4678 25.4608 18.6855 26.511 19.1209 27.3902C19.5562 28.2451 20.173 28.9045 20.9712 29.3685ZM46.4342 30.0279C45.0555 30.0279 43.7493 29.8936 42.5157 29.625C41.2821 29.3563 40.1816 29.0144 39.214 28.5992C38.2707 28.184 37.4967 27.7444 36.892 27.2803L39.3229 22.5178C40.0243 22.9819 40.7984 23.4215 41.6449 23.8367C42.5157 24.2519 43.3744 24.5816 44.221 24.8258C45.0917 25.07 45.8899 25.1922 46.6156 25.1922C47.0994 25.1922 47.4622 25.1311 47.704 25.009C47.9459 24.8869 48.0669 24.7037 48.0669 24.4595C48.0669 24.1908 47.8855 23.971 47.5226 23.8C47.184 23.6291 46.5551 23.4215 45.636 23.1773L43.1688 22.5178C41.9594 22.1759 40.9193 21.7851 40.0485 21.3455C39.202 20.9059 38.561 20.3442 38.1256 19.6603C37.6902 18.9765 37.4725 18.1339 37.4725 17.1325C37.4725 15.2519 38.1861 13.7988 39.6131 12.773C41.0402 11.7472 42.939 11.2343 45.3094 11.2343C47.2929 11.2343 48.986 11.5274 50.3889 12.1136C51.7918 12.6997 52.844 13.2615 53.5455 13.7988L51.3323 18.488C50.1712 17.6332 48.9981 17.0104 47.8129 16.6196C46.6277 16.2289 45.5876 16.0335 44.6926 16.0335C44.2331 16.0335 43.8944 16.1068 43.6767 16.2533C43.459 16.3754 43.3502 16.5464 43.3502 16.7662C43.3502 17.0348 43.5316 17.2669 43.8944 17.4622C44.2573 17.6576 45.0192 17.9263 46.1802 18.2682L48.0306 18.8177C49.9656 19.3795 51.4169 20.0755 52.3844 20.9059C53.3761 21.7363 53.872 22.8842 53.872 24.3496C53.872 25.473 53.5697 26.4622 52.965 27.317C52.3602 28.1718 51.5016 28.8434 50.3889 29.3319C49.3005 29.7959 47.9822 30.0279 46.4342 30.0279ZM58.4883 28.819C59.9154 29.625 61.657 30.0279 63.713 30.0279C65.7689 30.0279 67.4137 29.6616 68.6473 28.9289C69.9051 28.1962 70.8726 27.378 71.5499 26.4744L67.5951 22.6644C67.3774 23.1773 67.0751 23.5924 66.6881 23.9099C66.3253 24.203 65.902 24.4228 65.4182 24.5694C64.9586 24.6915 64.4265 24.7525 63.8218 24.7525C63.1203 24.7525 62.4794 24.6426 61.8988 24.4228C61.3425 24.203 60.895 23.8489 60.5564 23.3604C60.3836 23.0786 60.2583 22.7489 60.1805 22.3713L71.695 22.3713C71.7434 22.1515 71.7797 21.7607 71.8039 21.199C71.8522 20.6372 71.8764 20.1366 71.8764 19.697C71.8764 18.2316 71.562 16.8517 70.9331 15.5572C70.3284 14.2628 69.385 13.2126 68.1031 12.4067C66.8211 11.6007 65.1521 11.1977 63.0962 11.1977C61.282 11.1977 59.6977 11.6007 58.3432 12.4067C57.0129 13.2126 55.9728 14.3239 55.2229 15.7404C54.4973 17.1569 54.1345 18.7811 54.1345 20.6128C54.1345 22.4446 54.4973 24.0687 55.2229 25.4852C55.9728 26.9018 57.0612 28.013 58.4883 28.819ZM60.0957 18.9643C60.1507 18.071 60.4131 17.3871 60.8829 16.9127C61.4393 16.3754 62.1891 16.1068 63.1324 16.1068C64.1967 16.1068 64.9465 16.3876 65.3819 16.9494C65.7599 17.437 65.9738 18.1086 66.0236 18.9643L60.0957 18.9643ZM82.4688 30.0279C80.558 30.0279 78.9011 29.625 77.4982 28.819C76.1194 27.9886 75.0431 26.8651 74.2691 25.4486C73.5192 24.0076 73.1443 22.3957 73.1443 20.6128C73.1443 18.8055 73.5192 17.1936 74.2691 15.777C75.0431 14.3605 76.1194 13.2492 77.4982 12.4433C78.9011 11.6129 80.558 11.1977 82.4688 11.1977C84.4764 11.1977 86.218 11.6617 87.6934 12.5898C89.1689 13.5179 90.2211 14.678 90.85 16.0701L85.7705 19.4405C85.5286 18.5124 85.1537 17.8164 84.6457 17.3523C84.162 16.8883 83.5331 16.6563 82.7591 16.6563C82.2027 16.6563 81.6948 16.8028 81.2352 17.0959C80.7756 17.3645 80.4128 17.792 80.1468 18.3781C79.9049 18.9398 79.7839 19.6847 79.7839 20.6128C79.7839 21.5165 79.9049 22.2614 80.1468 22.8475C80.4128 23.4337 80.7756 23.8733 81.2352 24.1664C81.6948 24.435 82.2027 24.5694 82.7591 24.5694C83.5331 24.5694 84.162 24.3374 84.6457 23.8733C85.1537 23.4093 85.5286 22.7132 85.7705 21.7851L90.85 25.1555C90.2211 26.5476 89.1689 27.7077 87.6934 28.6358C86.218 29.5639 84.4764 30.0279 82.4688 30.0279ZM118.856 29.0754C119.606 29.7104 120.682 30.0279 122.085 30.0279C123.512 30.0279 124.746 29.6738 125.786 28.9655C126.826 28.2573 127.624 27.2071 128.181 25.8149C128.737 24.3984 129.015 22.6644 129.015 20.6128C129.015 18.5369 128.737 16.8028 128.181 15.4107C127.648 14.0186 126.887 12.9684 125.895 12.2601C124.903 11.5518 123.754 11.1977 122.448 11.1977C121.045 11.1977 119.945 11.5152 119.146 12.1502C118.348 12.7608 117.768 13.5667 117.405 14.5681C117.13 15.3275 116.924 16.115 116.788 16.9306L116.788 11.5641L110.257 11.5641L110.257 36.4756L116.788 36.4756L116.788 24.337C116.91 25.1376 117.08 25.9112 117.296 26.6575C117.61 27.6345 118.13 28.4404 118.856 29.0754ZM116.788 21.4188C116.788 22.3957 116.897 23.1528 117.115 23.6901C117.356 24.203 117.671 24.5572 118.058 24.7525C118.445 24.9479 118.868 25.0456 119.328 25.0456C120.392 25.0456 121.166 24.6426 121.65 23.8367C122.134 23.0307 122.375 21.9561 122.375 20.6128C122.375 19.2695 122.134 18.1949 121.65 17.389C121.166 16.583 120.392 16.18 119.328 16.18C118.868 16.18 118.445 16.2777 118.058 16.4731C117.671 16.6685 117.356 17.0348 117.115 17.5721C116.897 18.085 116.788 18.8299 116.788 19.8069L116.788 21.4188ZM96.9017 21.3561L96.9017 11.5639L91.2829 11.5626L91.2829 20.7129C91.2829 23.951 92.0407 26.315 93.5564 27.8049C95.305 29.5238 97.8028 30.0433 100.168 30.0397C102.532 30.0433 105.03 29.5238 106.779 27.8049C108.294 26.315 109.052 23.951 109.052 20.7129L109.052 11.5626L103.837 11.5638L101.819 18.3258L103.978 18.3258L100.137 27.6674L99.1611 27.6674L99.1611 21.3564L96.9017 21.3561Z" fill="white"/>
</g>
</svg>
