<svg width="20" height="20" viewBox="0 0 20 20" fill="none" xmlns="http://www.w3.org/2000/svg">
<g id="hourglass-fill">
<path id="v" d="M4.99998 3.33268H3.33331V1.66602H16.6666V3.33268H15V4.99935C15 6.34554 14.3198 7.42825 13.4634 8.31324C12.8776 8.91852 12.165 9.47602 11.4424 9.99935C12.165 10.5227 12.8776 11.0802 13.4634 11.6854C14.3198 12.5704 15 13.6532 15 14.9993V16.666H16.6666V18.3327H3.33331V16.666H4.99998V14.9993C4.99998 13.6532 5.68011 12.5704 6.53656 11.6854C7.12233 11.0802 7.835 10.5227 8.55756 9.99935C7.835 9.47602 7.12233 8.91852 6.53656 8.31324C5.68011 7.42825 4.99998 6.34554 4.99998 4.99935V3.33268ZM6.66665 3.33268V4.99935C6.66665 5.5703 6.88353 6.11184 7.3094 6.66602H12.6906C13.1164 6.11184 13.3333 5.5703 13.3333 4.99935V3.33268H6.66665ZM9.99998 11.0176C9.12898 11.6328 8.33998 12.2185 7.73423 12.8445C7.57505 13.009 7.43337 13.1713 7.3094 13.3327H12.6906C12.5666 13.1713 12.4249 13.009 12.2657 12.8445C11.66 12.2185 10.871 11.6328 9.99998 11.0176Z" fill="#8B78FA"/>
</g>
</svg>
