<svg width="197" height="31" viewBox="0 0 197 31" fill="none" xmlns="http://www.w3.org/2000/svg">
<g id="Logotype">
<g id="Hyperaide">
<path d="M51.5215 23.6061L51.5215 1.9044L56.0168 1.9044L56.0168 10.6471L65.9995 10.6471L65.9995 1.9044L70.4948 1.9044L70.4948 23.6061L65.9995 23.6061L65.9995 14.7084L56.0168 14.7084L56.0168 23.6061L51.5215 23.6061Z" fill="black"/>
<path d="M75.1221 30.2716C74.7501 30.2716 74.3884 30.2509 74.0371 30.2096C73.7064 30.1889 73.4274 30.1579 73.2 30.1165L73.2 26.4583C73.6134 26.5409 74.1094 26.5823 74.6881 26.5823C76.2382 26.5823 77.313 25.8486 77.9123 24.3811L78.1604 23.7611L71.8669 7.45382L76.5483 7.45382L80.5785 18.4597L85.1359 7.45382L89.7242 7.45382L82.2837 24.9082C81.7256 26.2102 81.1159 27.254 80.4545 28.0394C79.7931 28.8248 79.0284 29.3932 78.1604 29.7445C77.313 30.0959 76.3002 30.2716 75.1221 30.2716Z" fill="black"/>
<path d="M90.8139 29.9305L90.8139 7.45382L94.9992 7.45382L94.9992 8.78692C96.3219 7.75351 97.8514 7.2368 99.5875 7.2368C101.117 7.2368 102.502 7.60883 103.742 8.35289C104.982 9.09694 105.964 10.0994 106.687 11.3601C107.431 12.6002 107.803 13.9953 107.803 15.5454C107.803 17.0956 107.431 18.501 106.687 19.7618C105.943 21.0018 104.941 21.9939 103.68 22.738C102.419 23.4614 101.014 23.8231 99.4635 23.8231C98.6574 23.8231 97.8824 23.7197 97.1383 23.513C96.3943 23.2857 95.7019 22.9653 95.0612 22.552L95.0612 29.9305L90.8139 29.9305ZM98.9054 20.2268C99.7942 20.2268 100.59 20.0201 101.293 19.6067C102.016 19.1934 102.584 18.6353 102.998 17.9326C103.411 17.2299 103.618 16.4342 103.618 15.5454C103.618 14.6567 103.411 13.861 102.998 13.1583C102.584 12.4349 102.016 11.8768 101.293 11.4841C100.59 11.0708 99.7942 10.8641 98.9054 10.8641C98.1201 10.8641 97.3967 10.9984 96.7353 11.2671C96.0946 11.5151 95.5365 11.8975 95.0612 12.4142L95.0612 18.7077C95.5159 19.183 96.0739 19.5551 96.7353 19.8238C97.4173 20.0924 98.1407 20.2268 98.9054 20.2268Z" fill="black"/>
<path d="M117.657 23.9161C116.045 23.9161 114.578 23.544 113.255 22.8C111.953 22.0559 110.92 21.0535 110.155 19.7928C109.39 18.532 109.008 17.1162 109.008 15.5454C109.008 13.9746 109.369 12.5589 110.093 11.2981C110.837 10.0373 111.839 9.03494 113.1 8.29088C114.361 7.54682 115.766 7.17479 117.316 7.17479C118.866 7.17479 120.241 7.55716 121.44 8.32188C122.638 9.08661 123.579 10.12 124.261 11.4221C124.964 12.7242 125.315 14.202 125.315 15.8555L125.315 16.9715L113.348 16.9715C113.534 17.6123 113.834 18.191 114.247 18.7077C114.681 19.2244 115.208 19.6274 115.828 19.9168C116.469 20.2061 117.151 20.3508 117.874 20.3508C118.598 20.3508 119.259 20.2371 119.859 20.0098C120.479 19.7824 121.006 19.4621 121.44 19.0487L124.23 21.5909C123.238 22.397 122.215 22.986 121.161 23.358C120.127 23.7301 118.959 23.9161 117.657 23.9161ZM113.286 13.9333L121.13 13.9333C120.985 13.2926 120.716 12.7345 120.324 12.2592C119.952 11.7631 119.497 11.3808 118.96 11.1121C118.443 10.8227 117.864 10.6781 117.223 10.6781C116.562 10.6781 115.963 10.8124 115.425 11.0811C114.888 11.3498 114.433 11.7321 114.061 12.2282C113.71 12.7035 113.451 13.2719 113.286 13.9333Z" fill="black"/>
<path d="M127.297 23.606L127.297 7.45381L131.544 7.45381L131.544 9.25195C132.061 8.54923 132.681 8.01186 133.405 7.63983C134.128 7.2678 134.944 7.08178 135.854 7.08178C136.639 7.10245 137.228 7.22646 137.621 7.45381L137.621 11.1741C137.311 11.0294 136.97 10.9261 136.598 10.8641C136.226 10.7814 135.843 10.7401 135.451 10.7401C134.624 10.7401 133.87 10.9467 133.188 11.3601C132.506 11.7735 131.958 12.3625 131.544 13.1272L131.544 23.606L127.297 23.606Z" fill="black"/>
<path d="M144.025 23.8851C142.867 23.8851 141.844 23.6784 140.955 23.265C140.067 22.831 139.374 22.2419 138.878 21.4979C138.382 20.7538 138.134 19.8961 138.134 18.9247C138.134 17.3746 138.713 16.1758 139.87 15.3284C141.048 14.4603 142.66 14.0263 144.707 14.0263C146.112 14.0263 147.435 14.2433 148.675 14.6774L148.675 13.4993C148.675 12.5692 148.386 11.8665 147.807 11.3911C147.228 10.9157 146.381 10.6781 145.265 10.6781C144.583 10.6781 143.849 10.7917 143.063 11.0191C142.278 11.2258 141.369 11.5565 140.335 12.0112L138.785 8.87992C140.067 8.30121 141.286 7.86718 142.443 7.57782C143.622 7.28846 144.8 7.14379 145.978 7.14379C148.148 7.14379 149.832 7.67083 151.031 8.72491C152.25 9.75832 152.86 11.2258 152.86 13.1272L152.86 23.606L148.675 23.606L148.675 22.459C148.013 22.955 147.3 23.3167 146.536 23.544C145.771 23.7714 144.934 23.8851 144.025 23.8851ZM142.164 18.8317C142.164 19.4517 142.433 19.9478 142.97 20.3198C143.508 20.6711 144.221 20.8468 145.11 20.8468C145.812 20.8468 146.463 20.7642 147.063 20.5988C147.662 20.4128 148.2 20.1441 148.675 19.7927L148.675 17.4366C148.158 17.2299 147.621 17.0749 147.063 16.9715C146.505 16.8682 145.905 16.8165 145.265 16.8165C144.293 16.8165 143.529 17.0025 142.97 17.3746C142.433 17.7259 142.164 18.2116 142.164 18.8317Z" fill="black"/>
<path d="M155.455 23.606L155.455 7.45381L159.702 7.45381L159.702 23.606L155.455 23.606ZM157.563 5.53166C156.901 5.53166 156.333 5.29398 155.858 4.81861C155.382 4.34324 155.145 3.77486 155.145 3.11348C155.145 2.43143 155.382 1.86305 155.858 1.40835C156.333 0.932979 156.901 0.695294 157.563 0.695294C158.245 0.695294 158.813 0.932978 159.268 1.40835C159.743 1.86305 159.981 2.43143 159.981 3.11348C159.981 3.77486 159.743 4.34324 159.268 4.81861C158.813 5.29398 158.245 5.53166 157.563 5.53166Z" fill="black"/>
<path d="M169.875 23.823C168.346 23.8231 166.961 23.451 165.721 22.707C164.481 21.9629 163.489 20.9708 162.745 19.7307C162.021 18.47 161.659 17.0645 161.659 15.5144C161.659 13.9643 162.021 12.5692 162.745 11.3291C163.489 10.0683 164.491 9.07626 165.752 8.35288C167.013 7.60882 168.428 7.23679 169.999 7.23679C170.805 7.23679 171.58 7.35046 172.324 7.57781C173.068 7.7845 173.761 8.09452 174.401 8.50788L174.401 1.90438L178.649 1.19133L178.649 23.606L174.463 23.606L174.463 22.2729C173.141 23.3063 171.611 23.823 169.875 23.823ZM170.557 20.1958C171.342 20.1958 172.056 20.0718 172.696 19.8237C173.358 19.5551 173.926 19.1624 174.401 18.6457L174.401 12.3522C173.926 11.8768 173.358 11.5048 172.696 11.2361C172.035 10.9674 171.322 10.8331 170.557 10.8331C169.668 10.8331 168.862 11.0397 168.139 11.4531C167.436 11.8458 166.878 12.4038 166.465 13.1272C166.051 13.83 165.845 14.6257 165.845 15.5144C165.845 16.4032 166.051 17.1989 166.465 17.9016C166.878 18.6043 167.436 19.1624 168.139 19.5757C168.862 19.9891 169.668 20.1958 170.557 20.1958Z" fill="black"/>
<path d="M189.247 23.9161C187.635 23.9161 186.168 23.544 184.845 22.8C183.543 22.0559 182.509 21.0535 181.745 19.7927C180.98 18.532 180.597 17.1162 180.597 15.5454C180.597 13.9746 180.959 12.5589 181.683 11.2981C182.427 10.0373 183.429 9.03492 184.69 8.29087C185.95 7.54681 187.356 7.17478 188.906 7.17478C190.456 7.17478 191.831 7.55714 193.029 8.32187C194.228 9.08659 195.169 10.12 195.851 11.4221C196.553 12.7242 196.905 14.202 196.905 15.8554L196.905 16.9715L184.938 16.9715C185.124 17.6122 185.423 18.191 185.837 18.7077C186.271 19.2244 186.798 19.6274 187.418 19.9168C188.059 20.2061 188.741 20.3508 189.464 20.3508C190.187 20.3508 190.849 20.2371 191.448 20.0098C192.068 19.7824 192.595 19.462 193.029 19.0487L195.82 21.5909C194.827 22.3969 193.804 22.986 192.75 23.358C191.717 23.73 190.549 23.9161 189.247 23.9161ZM184.876 13.9333L192.719 13.9333C192.575 13.2926 192.306 12.7345 191.913 12.2592C191.541 11.7631 191.087 11.3808 190.549 11.1121C190.032 10.8227 189.454 10.678 188.813 10.678C188.152 10.678 187.552 10.8124 187.015 11.0811C186.478 11.3498 186.023 11.7321 185.651 12.2282C185.299 12.7035 185.041 13.2719 184.876 13.9333Z" fill="black"/>
</g>
<path id="Union" fill-rule="evenodd" clip-rule="evenodd" d="M20.0602 15.1232L15.0436 25.083C14.9083 25.3544 14.7 25.5828 14.4421 25.7425C14.1842 25.9021 13.8868 25.9867 13.5835 25.9867C13.2802 25.9867 12.9829 25.9021 12.725 25.7425C12.467 25.5828 12.2587 25.3544 12.1234 25.083L1.07881 3.05891C0.953669 2.81056 0.894087 2.53434 0.905726 2.25649C0.917365 1.97863 0.999839 1.70836 1.14532 1.47135C1.29079 1.23434 1.49444 1.03845 1.73692 0.902283C1.9794 0.766119 2.25267 0.694201 2.53076 0.693359L12.5721 0.693357C12.8756 0.693518 13.173 0.778344 13.431 0.938297C13.6889 1.09825 13.8971 1.32699 14.0322 1.59879L20.0602 13.6631C20.1736 13.8897 20.2327 14.1397 20.2327 14.3931C20.2327 14.6466 20.1736 14.8965 20.0602 15.1232ZM20.0729 25.7274L25.375 15.1232C25.4898 14.8955 25.5495 14.6441 25.5495 14.3891C25.5495 14.1341 25.4898 13.8826 25.375 13.6549L20.073 3.05075C19.9494 2.80209 19.8913 2.526 19.9043 2.24864C19.9173 1.97127 20.0008 1.7018 20.147 1.46574C20.2932 1.22968 20.4973 1.03485 20.7398 0.899685C20.9824 0.764523 21.2554 0.693506 21.5331 0.693359L31.5744 0.693357C31.8779 0.693518 32.1753 0.778344 32.4332 0.938297C32.6912 1.09825 32.8994 1.32699 33.0345 1.59879L39.0625 13.7283C39.1746 13.9539 39.2329 14.2024 39.2329 14.4543C39.2329 14.7062 39.1746 14.9547 39.0625 15.1803L33.0345 27.1875C32.8994 27.4593 32.6912 27.688 32.4332 27.848C32.1753 28.0079 31.8779 28.0928 31.5743 28.0929L21.5331 28.0929C21.2543 28.0935 20.98 28.0226 20.7364 27.887C20.4928 27.7514 20.288 27.5556 20.1416 27.3184C19.9952 27.0812 19.912 26.8104 19.8999 26.5318C19.8879 26.2533 19.9475 25.9763 20.0729 25.7274Z" fill="#2970FF"/>
</g>
</svg>
