<svg width="20" height="20" viewBox="0 0 20 20" fill="none" xmlns="http://www.w3.org/2000/svg">
<path fill-rule="evenodd" clip-rule="evenodd" d="M9.83661 3.13183C9.8366 3.13175 9.83832 3.13236 9.84181 3.1339C9.83837 3.13268 9.83663 3.13191 9.83661 3.13183ZM9.99238 3.22833C10.0898 3.3001 10.216 3.40907 10.367 3.56521C10.7747 3.98695 11.2235 4.60671 11.6303 5.30525C12.0352 6.00035 12.3579 6.70337 12.5426 7.25942C12.5523 7.28858 12.5615 7.31686 12.5701 7.34425C12.5268 7.3535 12.4811 7.36277 12.433 7.372C11.7827 7.49656 10.9025 7.57185 9.98672 7.57835C9.06927 7.58487 8.19595 7.52176 7.55565 7.40204C7.50079 7.39179 7.44943 7.38143 7.40146 7.3711C7.41643 7.32027 7.43328 7.26618 7.45217 7.20886C7.63584 6.65148 7.95684 5.95497 8.36016 5.26905C8.76539 4.57986 9.21248 3.97162 9.61822 3.55886C9.769 3.40547 9.89509 3.29861 9.99238 3.22833ZM6.87643 7.20679C6.87736 7.20648 6.88792 7.21152 6.90531 7.22283C6.8842 7.21275 6.8755 7.2071 6.87643 7.20679ZM7.29727 7.87614C7.29804 7.88732 7.29784 7.89338 7.29755 7.89362C7.29725 7.89385 7.29686 7.88826 7.29727 7.87614ZM14.2012 8.27825C14.7647 7.16721 11.8127 1.58008 9.99727 1.58008C8.18187 1.58008 5.22786 7.0558 5.79318 8.27825C6.35849 9.50071 13.6378 9.38929 14.2012 8.27825ZM12.6967 7.92403C12.6963 7.92362 12.6957 7.9148 12.6966 7.89883C12.6977 7.91645 12.6972 7.92444 12.6967 7.92403ZM13.1213 7.1821C13.1419 7.16879 13.1546 7.1629 13.1558 7.16328C13.1569 7.16366 13.1466 7.17032 13.1213 7.1821ZM10.1433 3.13587C10.1464 3.13452 10.148 3.13399 10.148 3.13406C10.1479 3.13413 10.1464 3.1348 10.1433 3.13587ZM7.11189 16.2536C7.42801 15.9375 7.70196 15.3805 7.70196 14.4181C7.70196 13.4557 7.42801 12.8986 7.11189 12.5825C6.79576 12.2664 6.2387 11.9924 5.2763 11.9924C4.3139 11.9924 3.75684 12.2664 3.44072 12.5825C3.12459 12.8986 2.85064 13.4557 2.85064 14.4181C2.85064 15.3805 3.12459 15.9375 3.44072 16.2536C3.75685 16.5698 4.3139 16.8437 5.2763 16.8437C6.2387 16.8437 6.79576 16.5698 7.11189 16.2536ZM17.1865 16.3571C17.1867 16.3572 17.1831 16.3592 17.1753 16.3627C17.1824 16.3588 17.1863 16.357 17.1865 16.3571ZM16.9572 16.4329C16.9791 16.347 17.002 16.2405 17.0242 16.1124C17.1041 15.6496 17.1496 15.0444 17.1494 14.41C17.1491 13.7757 17.1032 13.1704 17.0231 12.7078C17.0012 12.5812 16.9785 12.4758 16.9568 12.3905C16.8717 12.3686 16.7666 12.3458 16.6405 12.3236C16.1796 12.2427 15.5765 12.1957 14.9444 12.1946C14.312 12.1936 13.7089 12.2387 13.2474 12.3189C13.1142 12.342 13.0044 12.3661 12.9169 12.389C12.8937 12.4765 12.8692 12.5862 12.8456 12.7192C12.7642 13.1791 12.7174 13.7801 12.7173 14.4104C12.7171 15.0407 12.7636 15.6416 12.8449 16.1016C12.8686 16.2358 12.8933 16.3463 12.9167 16.4342C13.0046 16.4574 13.1151 16.4818 13.2493 16.5052C13.7102 16.5857 14.3125 16.6311 14.944 16.6301C15.5753 16.6291 16.1775 16.582 16.6379 16.5008C16.7655 16.4784 16.8716 16.4551 16.9572 16.4329ZM12.6999 16.3616C12.7001 16.3615 12.7037 16.3631 12.7103 16.3668C12.703 16.3635 12.6997 16.3616 12.6999 16.3616ZM12.9847 16.6404C12.9882 16.6469 12.9899 16.6505 12.9898 16.6507C12.9897 16.6508 12.9879 16.6476 12.9847 16.6404ZM12.9905 12.1703C12.9906 12.1705 12.9889 12.1742 12.9853 12.1807C12.9886 12.1734 12.9904 12.1702 12.9905 12.1703ZM12.7084 12.4567C12.7016 12.4604 12.6978 12.4621 12.6976 12.462C12.6975 12.4619 12.7008 12.46 12.7084 12.4567ZM17.1894 12.4668C17.1892 12.4669 17.1851 12.4651 17.1779 12.4611C17.1859 12.4647 17.1896 12.4667 17.1894 12.4668ZM16.8809 12.1574C16.881 12.1572 16.883 12.161 16.8867 12.1692C16.8826 12.1617 16.8808 12.1576 16.8809 12.1574ZM16.8877 16.6514C16.8841 16.6595 16.8821 16.6632 16.882 16.663C16.882 16.6627 16.8838 16.6587 16.8877 16.6514ZM5.2763 18.4187C7.80683 18.4187 9.27697 16.9486 9.27697 14.4181C9.27697 11.8875 7.80683 10.4174 5.2763 10.4174C2.74577 10.4174 1.27563 11.8875 1.27563 14.4181C1.27563 16.9486 2.74577 18.4187 5.2763 18.4187ZM11.7507 17.602C12.5633 18.4146 17.3337 18.3976 18.1293 17.602C18.9249 16.8065 18.9206 12.0112 18.1293 11.22C17.3381 10.4288 12.5605 10.4102 11.7507 11.22C10.9409 12.0298 10.9381 16.7894 11.7507 17.602Z" fill="#8B78FA"/>
</svg>
