<svg width="1336" height="234" viewBox="0 0 1336 234" fill="none" xmlns="http://www.w3.org/2000/svg">
<path fill-rule="evenodd" clip-rule="evenodd" d="M301.47 175.718H267.354V0H301.47V175.718ZM310.968 117.301C310.968 104.995 313.694 94.2459 319.146 85.055C324.598 75.8641 332.154 68.6983 341.812 63.5576C351.47 58.4169 362.452 55.8465 374.759 55.8465C387.065 55.8465 397.97 58.4169 407.472 63.5576C417.131 68.6983 424.686 75.8641 430.138 85.055C435.59 94.2459 438.316 104.995 438.316 117.301C438.316 129.452 435.59 140.123 430.138 149.314C424.686 158.504 417.131 165.67 407.472 170.811C397.97 175.952 387.065 178.522 374.759 178.522C362.452 178.522 351.47 175.952 341.812 170.811C332.154 165.67 324.598 158.504 319.146 149.314C313.694 140.123 310.968 129.452 310.968 117.301ZM345.317 117.067C345.317 123.299 346.563 128.751 349.056 133.424C351.548 137.942 354.975 141.525 359.337 144.173C363.699 146.665 368.839 147.912 374.759 147.912C380.523 147.912 385.586 146.665 389.947 144.173C394.465 141.525 397.892 137.942 400.229 133.424C402.721 128.751 403.967 123.299 403.967 117.067C403.967 110.836 402.721 105.462 400.229 100.944C397.892 96.271 394.465 92.6881 389.947 90.1957C385.586 87.7032 380.523 86.457 374.759 86.457C368.839 86.457 363.699 87.7032 359.337 90.1957C354.975 92.6881 351.548 96.271 349.056 100.944C346.563 105.462 345.317 110.836 345.317 117.067ZM589.57 85.055C584.118 94.2459 581.392 104.995 581.392 117.301C581.392 129.452 584.118 140.123 589.57 149.314C595.023 158.504 602.578 165.67 612.236 170.811C621.894 175.952 632.877 178.522 645.183 178.522C657.49 178.522 668.394 175.952 677.897 170.811C687.555 165.67 695.11 158.504 700.562 149.314C706.015 140.123 708.741 129.452 708.741 117.301C708.741 104.995 706.015 94.2459 700.562 85.055C695.11 75.8641 687.555 68.6983 677.897 63.5576C668.394 58.4169 657.49 55.8465 645.183 55.8465C632.877 55.8465 621.894 58.4169 612.236 63.5576C602.578 68.6983 595.023 75.8641 589.57 85.055ZM619.48 133.424C616.987 128.751 615.741 123.299 615.741 117.067C615.741 110.836 616.987 105.462 619.48 100.944C621.972 96.271 625.399 92.6881 629.761 90.1957C634.123 87.7032 639.264 86.457 645.183 86.457C650.947 86.457 656.01 87.7032 660.372 90.1957C664.889 92.6881 668.316 96.271 670.653 100.944C673.145 105.462 674.392 110.836 674.392 117.067C674.392 123.299 673.145 128.751 670.653 133.424C668.316 137.942 664.889 141.525 660.372 144.173C656.01 146.665 650.947 147.912 645.183 147.912C639.264 147.912 634.123 146.665 629.761 144.173C625.399 141.525 621.972 137.942 619.48 133.424ZM744.813 175.718H711.866L739.439 0H772.386L744.813 175.718ZM779.102 59.1179L760.642 175.718H793.823L812.049 59.1179H779.102ZM786.813 34.8165C789.928 37.7762 793.823 39.2561 798.496 39.2561C802.391 39.2561 806.052 38.2436 809.479 36.2185C812.906 34.0376 815.632 31.2336 817.657 27.8064C819.838 24.3793 820.928 20.7964 820.928 17.0577C820.928 12.3844 819.448 8.56781 816.489 5.60802C813.529 2.49245 809.634 0.934672 804.805 0.934672C800.911 0.934672 797.25 2.02512 793.823 4.20602C790.396 6.23114 787.592 8.95726 785.411 12.3844C783.386 15.6557 782.373 19.2386 782.373 23.1331C782.373 27.8064 783.853 31.7009 786.813 34.8165ZM844.012 175.718L817.608 59.1179H850.789L859.434 104.917C860.68 111.304 861.771 117.379 862.706 123.143C863.64 128.907 864.497 134.593 865.276 140.201C867.768 134.748 870.494 128.829 873.454 122.442C876.414 116.055 879.218 110.213 881.866 104.917L906.168 59.1179H942.62L876.492 175.718H844.012ZM1128.09 203.057L1123.65 230.864C1126.92 231.798 1130.35 232.499 1133.93 232.967C1137.51 233.59 1141.41 233.901 1145.61 233.901C1156.99 233.901 1166.18 230.864 1173.19 224.788C1180.35 218.869 1186.74 211.002 1192.35 201.188L1272.03 59.1179H1236.04L1194.93 137.612L1180.9 59.1179C1174.86 59.1179 1168.76 58.9187 1162.8 58.7242C1142.72 58.0684 1124.25 57.4653 1115.17 64.7259C1111.06 68.0151 1107.7 71.8807 1105.08 76.3227L1106.06 59.1179H1074.98L1056.52 175.718H1089.7L1097.88 122.675C1099.13 115.042 1101.39 108.811 1104.66 103.982C1108.09 99.1529 1112.37 95.57 1117.51 93.2333C1122.81 90.8967 1128.8 89.7283 1135.5 89.7283H1154.5L1173.98 177.601L1169.21 186.7C1167.19 190.751 1165.01 193.944 1162.67 196.281C1160.34 198.773 1157.84 200.487 1155.19 201.421C1152.55 202.512 1149.66 203.057 1146.55 203.057H1128.09ZM1050.39 153.921L1030.89 133.687C1015.34 152.307 958.532 160.377 958.532 126.107L1047.16 125.713L1048.56 116.834C1054.7 74.44 1031.4 56.0802 995.817 56.0802C970.185 56.0802 948.138 67.4769 935.831 90.4293C930.067 101.022 927.185 113.017 927.185 126.414C927.185 188.169 1018.77 193.689 1050.39 153.921ZM961.731 105.384C962.033 104.593 962.357 103.814 962.702 103.047C968.972 89.8472 979.285 82.952 993.948 82.952C1007.37 82.952 1020.03 89.3488 1017.48 105.384H961.731ZM446.816 115.198C446.816 103.515 449.153 93.2333 453.826 84.354C458.5 75.3188 465.042 68.2309 473.454 63.0902C481.866 57.9496 491.524 55.3792 502.429 55.3792C511.776 55.3792 519.798 57.3264 526.497 61.2209C531.448 64.0999 535.294 67.6599 538.032 71.9009L539.816 59.1179H571.828V149.781C571.828 204.942 544.606 230.038 504.174 230.038C470.47 230.038 444.869 213.845 436.263 193.767L461.71 174.082C469.383 187.014 483.093 198.961 503.94 198.961C526.039 198.961 537.713 184.341 537.713 159.371C535.015 162.825 531.354 165.781 526.73 168.241C519.565 172.135 511.23 174.082 501.728 174.082C490.823 174.082 481.243 171.59 472.987 166.605C464.731 161.62 458.266 154.688 453.592 145.809C449.075 136.929 446.816 126.726 446.816 115.198ZM480.932 114.497C480.932 120.261 482.1 125.402 484.437 129.919C486.929 134.281 490.278 137.786 494.484 140.434C498.69 143.082 503.597 144.407 509.205 144.407C514.969 144.407 519.954 143.16 524.16 140.668C528.522 138.02 531.871 134.515 534.208 130.153C536.544 125.635 537.713 120.417 537.713 114.497C537.713 108.422 536.544 103.281 534.208 99.075C531.871 94.7132 528.522 91.2861 524.16 88.7937C519.954 86.3012 514.891 85.055 508.972 85.055C503.364 85.055 498.457 86.3012 494.251 88.7937C490.045 91.2861 486.773 94.7132 484.437 99.075C482.1 103.437 480.932 108.578 480.932 114.497ZM1281.72 14.9097H1272.03V7.98668H1298.89V14.9097H1289.2V42.14H1281.72V14.9097ZM1301.06 42.14H1308.31V32.5863C1308.31 30.7094 1308.28 29.0325 1308.22 27.5556C1308.18 26.0787 1308.06 24.7095 1307.85 23.448L1315.05 42.14H1321.88L1329.12 23.448C1329.03 24.0941 1328.95 24.7249 1328.89 25.3403C1328.86 25.9249 1328.83 26.6172 1328.8 27.4171C1328.77 28.2171 1328.75 29.2171 1328.75 30.4171V34.9863V42.14H1336V7.98668H1328.66L1318.46 33.4632L1308.31 7.98668H1301.06V42.14Z" fill="#364944"/>
<path fill-rule="evenodd" clip-rule="evenodd" d="M183.254 57.0008C174.89 42.5148 111.213 5.65784 94.6959 5.65784C78.1788 5.65784 14.3285 42.8147 6.13818 57.0008C-2.05218 71.1869 -2.03993 145.522 6.13818 159.687C14.3163 173.852 78.1788 211.03 94.696 211.03C111.213 211.03 174.878 174.194 183.254 159.687C191.629 145.18 191.617 71.4868 183.254 57.0008ZM26.7229 73.8792L31.0008 66.4694L94.696 94.7812L158.502 66.4203L162.767 73.8077L106.392 115.125L98.9797 184.503H90.4123L82.9994 115.125L26.7229 73.8792Z" fill="#364944"/>
</svg>
