<svg width="126" height="22" viewBox="0 0 126 22" fill="none" xmlns="http://www.w3.org/2000/svg">
<g id="logo">
<path fill-rule="evenodd" clip-rule="evenodd" d="M28.3553 16.5275H25.1465V0H28.3553V16.5275ZM29.2486 11.033C29.2486 9.87546 29.505 8.86447 30.0179 8C30.5307 7.13553 31.2413 6.46154 32.1497 5.97802C33.0582 5.49451 34.0911 5.25275 35.2486 5.25275C36.4061 5.25275 37.4318 5.49451 38.3255 5.97802C39.234 6.46154 39.9446 7.13553 40.4574 8C40.9702 8.86447 41.2266 9.87546 41.2266 11.033C41.2266 12.1758 40.9702 13.1795 40.4574 14.044C39.9446 14.9084 39.234 15.5824 38.3255 16.0659C37.4318 16.5494 36.4061 16.7912 35.2486 16.7912C34.0911 16.7912 33.0582 16.5494 32.1497 16.0659C31.2413 15.5824 30.5307 14.9084 30.0179 14.044C29.505 13.1795 29.2486 12.1758 29.2486 11.033ZM32.4794 11.011C32.4794 11.5971 32.5966 12.1099 32.831 12.5494C33.0655 12.9744 33.3878 13.3114 33.7981 13.5604C34.2083 13.7949 34.6918 13.9121 35.2486 13.9121C35.7907 13.9121 36.2669 13.7949 36.6772 13.5604C37.1021 13.3114 37.4244 12.9744 37.6442 12.5494C37.8787 12.1099 37.9959 11.5971 37.9959 11.011C37.9959 10.4249 37.8787 9.91941 37.6442 9.4945C37.4244 9.05494 37.1021 8.71795 36.6772 8.48352C36.2669 8.24908 35.7907 8.13187 35.2486 8.13187C34.6918 8.13187 34.2083 8.24908 33.7981 8.48352C33.3878 8.71795 33.0655 9.05494 32.831 9.4945C32.5966 9.91941 32.4794 10.4249 32.4794 11.011ZM55.4531 8C54.9403 8.86447 54.6839 9.87546 54.6839 11.033C54.6839 12.1758 54.9403 13.1795 55.4531 14.044C55.9659 14.9084 56.6765 15.5824 57.585 16.0659C58.4934 16.5494 59.5263 16.7912 60.6838 16.7912C61.8414 16.7912 62.867 16.5494 63.7608 16.0659C64.6692 15.5824 65.3798 14.9084 65.8926 14.044C66.4055 13.1795 66.6619 12.1758 66.6619 11.033C66.6619 9.87546 66.4055 8.86447 65.8926 8C65.3798 7.13553 64.6692 6.46154 63.7608 5.97802C62.867 5.49451 61.8414 5.25275 60.6838 5.25275C59.5263 5.25275 58.4934 5.49451 57.585 5.97802C56.6765 6.46154 55.9659 7.13553 55.4531 8ZM58.2663 12.5494C58.0318 12.1099 57.9146 11.5971 57.9146 11.011C57.9146 10.4249 58.0318 9.91941 58.2663 9.4945C58.5007 9.05494 58.823 8.71795 59.2333 8.48352C59.6436 8.24908 60.1271 8.13187 60.6838 8.13187C61.226 8.13187 61.7022 8.24908 62.1124 8.48352C62.5373 8.71795 62.8597 9.05494 63.0795 9.4945C63.3139 9.91941 63.4311 10.4249 63.4311 11.011C63.4311 11.5971 63.3139 12.1099 63.0795 12.5494C62.8597 12.9744 62.5373 13.3114 62.1124 13.5604C61.7022 13.7949 61.226 13.9121 60.6838 13.9121C60.1271 13.9121 59.6436 13.7949 59.2333 13.5604C58.823 13.3114 58.5007 12.9744 58.2663 12.5494ZM70.0547 16.5275H66.9558L69.5492 0H72.6481L70.0547 16.5275ZM73.2798 5.56044L71.5436 16.5275H74.6644L76.3787 5.56044H73.2798ZM74.0051 3.27472C74.2981 3.55311 74.6644 3.69231 75.104 3.69231C75.4703 3.69231 75.8146 3.59707 76.1369 3.40659C76.4593 3.20147 76.7157 2.93773 76.9062 2.61538C77.1113 2.29304 77.2139 1.95604 77.2139 1.6044C77.2139 1.16483 77.0747 0.80586 76.7963 0.527472C76.5179 0.234432 76.1516 0.0879123 75.6974 0.0879123C75.3311 0.0879123 74.9868 0.190476 74.6644 0.395604C74.3421 0.586081 74.0783 0.842491 73.8732 1.16483C73.6827 1.47253 73.5875 1.80952 73.5875 2.17582C73.5875 2.61538 73.7267 2.98168 74.0051 3.27472ZM79.3851 16.5275L76.9016 5.56044H80.0224L80.8356 9.86813C80.9528 10.4689 81.0554 11.0403 81.1433 11.5824C81.2312 12.1245 81.3118 12.6593 81.3851 13.1868C81.6195 12.674 81.8759 12.1172 82.1543 11.5165C82.4327 10.9157 82.6964 10.3663 82.9455 9.86813L85.2312 5.56044H88.6598L82.44 16.5275H79.3851ZM106.104 19.0989L105.687 21.7143C105.995 21.8022 106.317 21.8681 106.654 21.9121C106.991 21.9707 107.357 22 107.753 22C108.822 22 109.687 21.7143 110.346 21.1429C111.02 20.5861 111.621 19.8462 112.148 18.9231L119.643 5.56044H116.258L112.391 12.9434L111.071 5.56044C110.504 5.56044 109.93 5.54171 109.37 5.52341C107.481 5.46173 105.743 5.405 104.89 6.08791C104.503 6.39728 104.186 6.76086 103.94 7.17867L104.033 5.56044H101.109L99.3732 16.5275H102.494L103.263 11.5385C103.381 10.8205 103.593 10.2344 103.901 9.78022C104.223 9.326 104.626 8.98901 105.109 8.76923C105.608 8.54945 106.172 8.43956 106.802 8.43956H108.589L110.421 16.7046L109.973 17.5604C109.782 17.9414 109.577 18.2418 109.357 18.4615C109.137 18.696 108.903 18.8571 108.654 18.9451C108.405 19.0476 108.134 19.0989 107.841 19.0989H106.104ZM98.7959 14.4773L96.9625 12.5742C95.4992 14.3255 90.1564 15.0846 90.1564 11.8612L98.4923 11.8242L98.6242 10.989C99.2015 7.00159 97.0101 5.27472 93.6634 5.27472C91.2525 5.27472 89.1788 6.34666 88.0212 8.50549C87.4791 9.50183 87.208 10.63 87.208 11.8901C87.208 17.6986 95.8224 18.2178 98.7959 14.4773ZM90.4573 9.91209C90.4857 9.83772 90.5162 9.76446 90.5487 9.69231C91.1384 8.45074 92.1084 7.8022 93.4875 7.8022C94.7495 7.8022 95.9411 8.40386 95.7011 9.91209H90.4573ZM42.0261 10.8352C42.0261 9.73626 42.2459 8.76923 42.6854 7.93406C43.125 7.08425 43.7404 6.41758 44.5316 5.93407C45.3228 5.45055 46.2312 5.20879 47.2568 5.20879C48.136 5.20879 48.8905 5.39194 49.5206 5.75824C49.9863 6.02903 50.348 6.36387 50.6056 6.76277L50.7733 5.56044H53.7843V14.0879C53.7843 19.2762 51.2239 21.6367 47.421 21.6367C44.2509 21.6367 41.843 20.1136 41.0335 18.2251L43.427 16.3736C44.1486 17.5899 45.4382 18.7136 47.399 18.7136C49.4775 18.7136 50.5755 17.3385 50.5755 14.9899C50.3218 15.3148 49.9775 15.5928 49.5426 15.8242C48.8686 16.1905 48.0847 16.3736 47.1909 16.3736C46.1653 16.3736 45.2642 16.1392 44.4876 15.6703C43.7111 15.2015 43.103 14.5494 42.6634 13.7143C42.2385 12.8791 42.0261 11.9194 42.0261 10.8352ZM45.2349 10.7692C45.2349 11.3114 45.3448 11.7949 45.5645 12.2198C45.799 12.63 46.114 12.9597 46.5096 13.2088C46.9052 13.4579 47.3667 13.5824 47.8942 13.5824C48.4363 13.5824 48.9052 13.4652 49.3008 13.2308C49.7111 12.9817 50.0261 12.652 50.2459 12.2418C50.4656 11.8168 50.5755 11.326 50.5755 10.7692C50.5755 10.1978 50.4656 9.71428 50.2459 9.31868C50.0261 8.90842 49.7111 8.58608 49.3008 8.35165C48.9052 8.11722 48.429 8 47.8722 8C47.3448 8 46.8832 8.11722 46.4876 8.35165C46.092 8.58608 45.7843 8.90842 45.5645 9.31868C45.3448 9.72894 45.2349 10.2125 45.2349 10.7692ZM120.555 1.40235H119.643V0.751202H122.169V1.40235H121.258V3.96355H120.555V1.40235ZM122.374 3.96355H123.055V3.06496C123.055 2.88843 123.052 2.73071 123.047 2.59179C123.044 2.45288 123.032 2.3241 123.012 2.20544L123.689 3.96355H124.331L125.013 2.20544C125.004 2.26622 124.997 2.32554 124.991 2.38342C124.988 2.43841 124.986 2.50352 124.983 2.57877C124.98 2.65401 124.978 2.74807 124.978 2.86094V3.2907V3.96355H125.66V0.751202H124.97L124.01 3.14744L123.055 0.751202H122.374V3.96355Z" fill="#F0F5F0"/>
<path fill-rule="evenodd" clip-rule="evenodd" d="M17.2363 5.36131C16.4496 3.9988 10.4603 0.532158 8.90679 0.532158C7.35325 0.532158 1.34769 4.02701 0.577337 5.36131C-0.193021 6.69561 -0.19187 13.6873 0.577337 15.0196C1.34654 16.3519 7.35325 19.8488 8.9068 19.8488C10.4603 19.8488 16.4485 16.3841 17.2363 15.0196C18.024 13.6551 18.0229 6.72382 17.2363 5.36131ZM2.51347 6.94884L2.91584 6.2519L8.9068 8.91482L14.9081 6.24728L15.3093 6.94211L10.0069 10.8283L9.30971 17.3537H8.50389L7.80666 10.8283L2.51347 6.94884Z" fill="#F0F5F0"/>
</g>
</svg>
