<svg width="181" height="37" viewBox="0 0 181 37" fill="none" xmlns="http://www.w3.org/2000/svg">
<g id="Union">
<path fill-rule="evenodd" clip-rule="evenodd" d="M49.6473 29.4833V7.79005H54.9945V25.3064H65.0911V29.4833H49.6473ZM71.5789 29.8202C69.719 29.8202 68.2688 29.2925 67.2281 28.237C66.1874 27.1591 65.6671 25.5983 65.6671 23.5547V13.5165H71.0143V23.2516C71.0143 24.1498 71.2247 24.8123 71.6454 25.239C72.0882 25.6432 72.7414 25.8453 73.6049 25.8453C74.247 25.8453 74.8559 25.7106 75.4316 25.4411C76.0073 25.1716 76.4833 24.8348 76.8597 24.4306V13.5165H82.2069V29.4833H77.2251L77.059 28.1359C76.4169 28.63 75.6419 29.0342 74.7341 29.3486C73.8263 29.663 72.7746 29.8202 71.5789 29.8202ZM92.9001 29.8202C90.0881 29.8202 87.885 29.124 86.2908 27.7317C84.7187 26.3394 83.9327 24.2621 83.9327 21.4999C83.9327 18.6928 84.7519 16.6044 86.3904 15.2345C88.051 13.8646 90.2542 13.1797 92.9997 13.1797C94.1511 13.1797 95.1475 13.2695 95.9888 13.4492C96.8524 13.6064 97.6827 13.8758 98.4798 14.2576V18.0977C97.2399 17.4914 95.7896 17.1882 94.1289 17.1882C92.579 17.1882 91.3944 17.5026 90.5752 18.1314C89.7781 18.7602 89.3796 19.8831 89.3796 21.4999C89.3796 23.0046 89.756 24.1049 90.5088 24.8011C91.2616 25.4748 92.4573 25.8117 94.0957 25.8117C95.7121 25.8117 97.1845 25.4748 98.513 24.8011V28.8096C97.7159 29.169 96.8524 29.4272 95.9224 29.5844C95.0146 29.7416 94.0072 29.8202 92.9001 29.8202ZM101.302 10.9901V6.91423H107.114V10.9901H101.302ZM101.734 29.4833V17.5251H99.409L99.8739 13.5165H107.081V29.4833H101.734ZM116.101 29.8202C114.574 29.8202 113.267 29.5732 112.182 29.0791C111.097 28.5851 110.267 27.7766 109.691 26.6538C109.116 25.5085 108.828 23.9814 108.828 22.0726C108.828 20.1413 109.16 18.5244 109.824 17.2219C110.488 15.897 111.396 14.8976 112.548 14.2239C113.721 13.5278 115.061 13.1797 116.566 13.1797C117.386 13.1797 118.116 13.2695 118.758 13.4492C119.423 13.6288 120.043 13.8983 120.618 14.2576V6.77949H125.965V29.4833H121.349L121.05 28.1359C120.408 28.6974 119.688 29.124 118.891 29.416C118.094 29.6855 117.164 29.8202 116.101 29.8202ZM117.629 25.879C118.803 25.879 119.799 25.4748 120.618 24.6664V18.1988C119.865 17.5026 118.902 17.1545 117.729 17.1545C116.6 17.1545 115.736 17.5925 115.138 18.4683C114.563 19.3216 114.275 20.5343 114.275 22.1063C114.275 23.6333 114.551 24.6439 115.105 25.1379C115.681 25.632 116.522 25.879 117.629 25.879ZM138.209 29.8202C134.822 29.8202 132.287 28.9219 130.604 27.1254C128.921 25.3064 128.08 22.4993 128.08 18.7041C128.08 14.7517 128.921 11.8884 130.604 10.1143C132.287 8.34024 134.822 7.45319 138.209 7.45319C141.619 7.45319 144.155 8.34024 145.815 10.1143C147.498 11.8884 148.339 14.7517 148.339 18.7041C148.339 22.4993 147.498 25.3064 145.815 27.1254C144.155 28.9219 141.619 29.8202 138.209 29.8202ZM138.209 26.7212C140.446 26.7212 142.084 26.1036 143.125 24.8685C144.188 23.6109 144.719 21.5561 144.719 18.7041C144.719 15.6949 144.188 13.5951 143.125 12.4049C142.084 11.1923 140.446 10.5859 138.209 10.5859C135.995 10.5859 134.357 11.1923 133.294 12.4049C132.253 13.5951 131.733 15.6949 131.733 18.7041C131.733 21.5561 132.253 23.6109 133.294 24.8685C134.357 26.1036 135.995 26.7212 138.209 26.7212ZM150.873 13.5165H153.995L154.194 15.0997C154.903 14.4485 155.678 13.9657 156.519 13.6513C157.361 13.3369 158.357 13.1797 159.508 13.1797C161.767 13.1797 163.527 13.8085 164.789 15.0661C166.051 16.3012 166.682 18.356 166.682 21.2305C166.682 24.1049 166.029 26.2608 164.723 27.698C163.416 29.1128 161.634 29.8202 159.375 29.8202C157.471 29.8202 155.844 29.3711 154.493 28.4728V36.7594H150.873V13.5165ZM158.446 27.058C161.501 27.058 163.029 25.1043 163.029 21.1968C163.029 19.3104 162.686 17.9742 161.999 17.1882C161.313 16.3798 160.161 15.9756 158.545 15.9756C156.929 15.9756 155.578 16.537 154.493 17.6598V25.6432C155.003 26.0699 155.567 26.418 156.187 26.6875C156.829 26.9345 157.582 27.058 158.446 27.058ZM174.293 29.8202C173.208 29.8202 172.167 29.7416 171.171 29.5844C170.197 29.4272 169.388 29.2363 168.746 29.0118V25.9127C169.499 26.2046 170.329 26.4292 171.237 26.5864C172.145 26.7436 173.009 26.8222 173.828 26.8222C175.068 26.8222 175.953 26.7099 176.485 26.4854C177.016 26.2608 177.282 25.8229 177.282 25.1716C177.282 24.7 177.116 24.3295 176.784 24.06C176.474 23.7905 175.998 23.5435 175.356 23.3189C174.736 23.0944 173.939 22.8249 172.964 22.5105C172.034 22.1961 171.226 21.8593 170.54 21.4999C169.853 21.1182 169.322 20.6354 168.946 20.0515C168.569 19.4676 168.381 18.7041 168.381 17.7609C168.381 16.3012 168.901 15.1783 169.942 14.3924C170.983 13.5839 172.654 13.1797 174.957 13.1797C175.865 13.1797 176.728 13.2471 177.548 13.3818C178.367 13.5165 179.064 13.685 179.64 13.8871V16.9524C179.02 16.7054 178.334 16.5145 177.581 16.3798C176.85 16.245 176.164 16.1777 175.522 16.1777C174.37 16.1777 173.496 16.2787 172.898 16.4808C172.322 16.683 172.034 17.0872 172.034 17.6935C172.034 18.3223 172.333 18.7714 172.931 19.0409C173.551 19.2879 174.536 19.636 175.887 20.0852C177.127 20.4669 178.112 20.8711 178.843 21.2978C179.574 21.7245 180.094 22.241 180.404 22.8474C180.736 23.4312 180.902 24.1948 180.902 25.1379C180.902 26.7099 180.338 27.8889 179.208 28.6749C178.079 29.4384 176.441 29.8202 174.293 29.8202Z" fill="#1C1C28"/>
<path fill-rule="evenodd" clip-rule="evenodd" d="M15.2299 1.00824C14.5059 1.4695 14.1083 2.2988 13.3132 3.95739L12.4786 5.69847C7.56691 7.03859 5.74167 10.7297 4.15561 15.2176C3.76494 16.323 3.42948 17.3543 3.09742 18.3752C2.70276 19.5885 2.31287 20.7871 1.84074 22.0781C1.09123 24.1275 0.716481 25.1522 0.993513 26.1222C1.56855 28.1355 7.75381 32.8959 9.80773 32.9058C11.1454 32.9123 12.3952 31.8585 13.5072 30.9208C13.8227 30.6548 14.1271 30.3982 14.4193 30.1777C18.2897 30.5614 22.2029 30.5614 26.0733 30.1777C26.3655 30.3982 26.6699 30.6548 26.9854 30.9208C28.0974 31.8585 29.3472 32.9123 30.6849 32.9058C32.7388 32.8959 38.9241 28.1355 39.4991 26.1222C39.7761 25.1522 39.4014 24.1275 38.6519 22.0781C38.1798 20.7872 37.7898 19.5883 37.3952 18.3751C37.0631 17.3543 36.7277 16.323 36.337 15.2176C34.7509 10.7297 32.9257 7.03859 28.014 5.69847L27.1794 3.95739C26.3843 2.2988 25.9868 1.4695 25.2627 1.00824C23.5857 -0.0600394 16.9069 -0.0600394 15.2299 1.00824ZM8.84969 16.3572C9.92342 9.99195 13.3132 8.33141 20.2463 8.33141C27.1794 8.33141 30.5692 9.99195 31.6429 16.3572C32.994 24.3668 30.6849 26.1305 20.2491 26.1305H20.2463H20.2435C9.80773 26.1305 7.49857 24.3668 8.84969 16.3572Z" fill="#1C1C28"/>
<path d="M14.3103 14.7174C14.1368 15.038 14.1368 15.4644 14.1368 16.3173V19.2952C14.1368 20.148 14.1368 20.5744 14.3103 20.895C14.437 21.129 14.6257 21.3217 14.8548 21.451C15.1688 21.6282 15.5864 21.6282 16.4216 21.6282C17.2569 21.6282 17.6745 21.6282 17.9885 21.451C18.2176 21.3217 18.4063 21.129 18.533 20.895C18.7065 20.5744 18.7065 20.148 18.7065 19.2952V16.3173C18.7065 15.4644 18.7065 15.038 18.533 14.7174C18.4063 14.4835 18.2176 14.2907 17.9885 14.1614C17.6745 13.9843 17.2569 13.9843 16.4216 13.9843C15.5864 13.9843 15.1688 13.9843 14.8548 14.1614C14.6257 14.2907 14.437 14.4835 14.3103 14.7174Z" fill="#1C1C28"/>
<path d="M21.7861 16.3173C21.7861 15.4644 21.7861 15.038 21.9596 14.7174C22.0863 14.4835 22.275 14.2907 22.5041 14.1614C22.8181 13.9843 23.2357 13.9843 24.071 13.9843C24.9062 13.9843 25.3238 13.9843 25.6378 14.1614C25.8669 14.2907 26.0557 14.4835 26.1823 14.7174C26.3558 15.038 26.3558 15.4644 26.3558 16.3173V19.2952C26.3558 20.148 26.3558 20.5744 26.1823 20.895C26.0557 21.129 25.8669 21.3217 25.6378 21.451C25.3238 21.6282 24.9062 21.6282 24.071 21.6282C23.2357 21.6282 22.8181 21.6282 22.5041 21.451C22.275 21.3217 22.0863 21.129 21.9596 20.895C21.7861 20.5744 21.7861 20.148 21.7861 19.2952V16.3173Z" fill="#1C1C28"/>
</g>
</svg>
