<svg width="121" height="69" viewBox="0 0 121 69" fill="none" xmlns="http://www.w3.org/2000/svg">
<g id="Logotype">
<path id="Union (Stroke)" d="M54.2834 23.091C52.4076 21.335 49.6896 20.9368 47.3889 20.933C45.4225 20.9005 43.4611 21.4332 41.7815 22.4556C40.1667 21.38 38.1799 20.8663 36.1862 20.8529C35.1463 20.1324 33.8349 19.7582 32.6793 19.2697C32.5096 18.3204 32.3424 17.3707 32.1739 16.4212C32.0018 15.45 31.6414 14.7192 31.0478 14.0854L24.9201 7.96031C22.7879 6.0096 18.8635 6.52593 17.1291 9.2231C16.3335 10.4603 15.5592 11.7116 14.7728 12.9547C11.8578 13.9884 7.95602 14.7517 7.15802 18.2834C6.75208 20.0799 7.35562 22.5853 9.85663 23.6364C10.7439 24.0088 11.6317 24.3835 12.5185 24.7587C12.9103 26.9511 13.0086 29.3727 15.1176 30.6602L19.2044 34.8969L18.1235 41.0088C17.8056 42.8314 18.6156 44.5986 19.996 45.6438L25.4949 51.205C26.343 52.0035 27.4757 52.5049 28.7227 52.5054L32.6125 52.5054C34.1235 52.5055 35.4982 51.79 36.38 50.658C37.2392 51.767 38.5792 52.5021 40.1187 52.5054L41.9453 52.5054C42.2027 52.9225 42.5085 53.3228 42.8686 53.7025C44.7755 55.7136 46.8232 57.623 48.7701 59.604C51.5988 62.5874 57.0161 63.0611 60.3525 60.6276C63.0908 58.6303 63.7082 54.6708 61.7797 51.8947C64.3507 52.813 67.6251 52.855 69.9686 51.3303C70.5838 51.7464 71.3131 51.9651 72.0549 51.97L78.0169 51.97C79.7914 51.9657 81.3635 50.6712 81.7034 48.9285L82.76 42.9659C83.1128 43.484 83.5449 43.9725 84.0694 44.4235C86.0178 46.3819 87.8752 48.523 89.9709 50.325C93.0907 53.0075 98.4389 53.2517 101.96 51.226C105.278 53.3239 110.813 52.9683 113.5 50.0056C114.875 48.4895 114.664 46.4939 114.747 44.5837C114.813 42.9325 113.941 41.3487 112.519 40.5093L114.146 31.3618C114.371 30.0969 113.956 28.8959 113.161 28.0477L107.341 22.2362C106.636 21.4355 105.603 20.9235 104.444 20.9236L104.443 20.9236L99.3683 20.9236C99.0376 20.9248 98.6966 20.9682 98.3581 21.0608C94.4523 19.6831 89.5731 20.4324 86.4376 23.1497C84.0874 20.2221 79.4343 19.7066 76.1216 21.1644C75.7086 21.005 75.2699 20.9225 74.8277 20.9147C74.5577 19.6632 73.9617 18.51 72.9845 17.6491C71.0295 15.6927 69.1581 13.5757 67.0831 11.7475C64.1989 9.20651 59.0203 9.81087 56.4782 12.5323C54.2976 14.8667 53.5975 19.1423 55.4223 21.8967C54.9801 22.2267 54.594 22.6303 54.2834 23.091Z" fill="#01261E"/>
<path id="Union (Stroke) (Stroke)" fill-rule="evenodd" clip-rule="evenodd" d="M104.443 14.7718C104.443 14.7718 104.443 14.7718 104.443 14.7718C107.372 14.7717 109.987 16.0364 111.794 17.9899L117.579 23.7663L117.648 23.8401C119.692 26.0201 120.788 29.1538 120.203 32.4399C120.203 32.4403 120.203 32.4406 120.203 32.4409L119.122 38.5179C120.335 40.3505 120.985 42.5502 120.894 44.8281L120.894 44.8405L120.893 44.853C120.891 44.9041 120.889 45.005 120.887 45.1437C120.875 45.7845 120.849 47.2315 120.701 48.2946C120.466 49.9703 119.846 52.1664 118.056 54.1399C115.408 57.0595 111.745 58.3443 108.531 58.6409C106.396 58.838 104.083 58.6378 101.889 57.9262C99.7614 58.5921 97.5274 58.8211 95.4086 58.6811C92.2146 58.4702 88.7375 57.3803 85.9587 54.991C85.8227 54.874 85.6864 54.7547 85.55 54.6333C83.7135 56.7789 80.9915 58.1162 78.0311 58.1234L78.0236 58.1235L72.0337 58.1235L72.0135 58.1233C71.426 58.1194 70.838 58.0637 70.2572 57.9561C69.7505 58.1233 69.2394 58.2592 68.7273 58.3665C68.0837 61.1718 66.4825 63.7719 63.9773 65.5992C60.9027 67.8419 57.1659 68.5707 53.8303 68.2769C50.515 67.9849 46.9745 66.6271 44.3492 63.8852C43.7314 63.2573 42.9787 62.5172 42.1809 61.7326C41.1465 60.7154 40.0363 59.6237 39.0461 58.6057C38.1099 58.5132 37.2135 58.3024 36.3699 57.9911C35.1945 58.4233 33.9274 58.6589 32.6116 58.6589C32.6115 58.6589 32.6118 58.6589 32.6116 58.6589L28.7193 58.6589C25.7842 58.6577 23.1738 57.4717 21.2765 55.6856L21.1964 55.6101L15.866 50.2193C13.0612 47.8721 11.347 44.0488 12.0616 39.9523L12.0628 39.9452L12.599 36.9131L11.1202 35.3801C8.97123 33.7873 7.8891 31.7014 7.32035 29.9466C7.2364 29.6875 7.15917 29.4158 7.08832 29.1403C1.43991 26.5355 0.302613 20.7042 1.15582 16.9281C2.09145 12.7874 4.93549 10.492 7.2938 9.24449C8.36853 8.67598 9.66166 8.18557 10.7373 7.81376C11.1395 7.1738 11.5503 6.52279 11.9533 5.89611C15.6003 0.224425 23.9266 -1.28589 29.0722 3.42156L29.1726 3.51342L35.4682 9.80635L35.5375 9.88033C36.8884 11.3227 37.7156 12.9888 38.1244 14.8151C39.3662 14.9566 40.6245 15.2338 41.8542 15.6709C43.6458 15.0604 45.5389 14.7555 47.4414 14.7813C47.7966 14.7824 48.1876 14.7906 48.6073 14.8118C49.1439 12.4866 50.2544 10.1817 51.9812 8.33317C54.465 5.67412 57.9072 4.32042 61.1121 4.03836C64.3253 3.75557 68.1481 4.48752 71.1495 7.13186C72.7315 8.5257 74.3715 10.2333 75.7526 11.6713C76.2896 12.2305 76.7874 12.7489 77.2276 13.1922C77.6214 13.5538 77.9809 13.9337 78.3079 14.3279C81.1026 14.0384 84.1262 14.4309 86.8109 15.7554C90.6124 14.1198 94.949 13.8179 98.8295 14.787C99.0022 14.7775 99.174 14.7725 99.3445 14.7718L99.356 14.7718L104.443 14.7718ZM98.3572 21.0616C94.6864 19.7668 90.1557 20.3508 87.0209 22.6816C86.8203 22.8307 86.6254 22.9871 86.4367 23.1505C86.3354 23.0244 86.2299 22.9027 86.1203 22.7854C83.6879 20.1822 79.2906 19.7702 76.1208 21.1652C75.7077 21.0058 75.269 20.9234 74.8269 20.9155C74.5568 19.664 73.9608 18.5108 72.9836 17.6499C72.3366 17.0024 71.6988 16.3374 71.0597 15.6711C69.7677 14.324 68.4705 12.9715 67.0822 11.7484C64.1981 9.20732 59.0194 9.81168 56.4773 12.5331C55.5913 13.4816 54.9497 14.7505 54.6226 16.1077C54.1459 18.0855 54.337 20.2506 55.4127 21.8844C55.4156 21.8888 55.4185 21.8932 55.4214 21.8975C55.397 21.9158 55.3727 21.9343 55.3486 21.953C54.9368 22.2724 54.5759 22.6566 54.2825 23.0918C54.1896 23.0048 54.0946 22.9211 53.9977 22.8407C53.5476 22.467 53.0562 22.1628 52.5388 21.9161C51.2757 21.3139 49.8581 21.0553 48.5091 20.9692C48.1282 20.9449 47.7529 20.9344 47.388 20.9338C45.4216 20.9014 43.4602 21.434 41.7806 22.4564C40.1659 21.3808 38.179 20.8671 36.1853 20.8538C35.4351 20.3339 34.5436 19.9944 33.6712 19.6621C33.3343 19.5338 33.0003 19.4066 32.6784 19.2705C32.5671 18.6476 32.4568 18.0246 32.3465 17.4016C32.2887 17.075 32.2309 16.7485 32.173 16.4221C32.0009 15.4508 31.6406 14.72 31.0469 14.0862L24.9192 7.96112C22.787 6.01042 18.8626 6.52675 17.1282 9.22391C16.6223 10.0106 16.125 10.8031 15.6277 11.5955C15.343 12.0492 15.0583 12.5029 14.772 12.9555C14.3769 13.0956 13.9638 13.2307 13.5427 13.3684C10.8564 14.2469 7.84699 15.2311 7.15713 18.2842C6.75119 20.0807 7.35473 22.5862 9.85574 23.6372C10.743 24.0096 11.6308 24.3843 12.5176 24.7595C12.5689 25.0464 12.6151 25.3373 12.6615 25.629C12.9696 27.5663 13.2838 29.542 15.1168 30.661L19.2035 34.8977L18.1226 41.0096C17.8047 42.8322 18.6147 44.5994 19.9951 45.6447L25.494 51.2059C26.3421 52.0043 27.4748 52.5057 28.7218 52.5062L32.6116 52.5062C33.2775 52.5063 33.9169 52.3673 34.4993 52.115C35.2385 51.7948 35.8859 51.2919 36.3791 50.6588C36.8668 51.2883 37.5095 51.7974 38.2557 52.1205C38.8239 52.3666 39.4522 52.5048 40.1178 52.5062L41.9444 52.5062C42.2018 52.9233 42.5077 53.3236 42.8677 53.7033C43.9821 54.8786 45.1445 56.0191 46.3068 57.1594C47.1334 57.9705 47.96 58.7815 48.7692 59.6049C51.598 62.5882 57.0152 63.062 60.3516 60.6284C61.1764 60.0268 61.8088 59.2471 62.2371 58.3754C63.2309 56.3532 63.1264 53.8354 61.7788 51.8955C63.8673 52.6415 66.4199 52.8092 68.5607 52.0286C69.0553 51.8482 69.5279 51.6172 69.9677 51.3311C70.583 51.7472 71.3122 51.9659 72.054 51.9708L78.016 51.9708C79.2961 51.9677 80.4709 51.2932 81.1538 50.2633C81.4175 49.8656 81.6079 49.4148 81.7026 48.9293L82.7591 42.9667C83.112 43.4848 83.544 43.9733 84.0685 44.4243C84.6933 45.0523 85.3087 45.699 85.9257 46.3474C86.6184 47.0754 87.3129 47.8054 88.0248 48.513C88.656 49.1405 89.3009 49.7504 89.97 50.3258C93.0898 53.0083 98.438 53.2525 101.96 51.2268C105.277 53.3247 110.812 52.9691 113.499 50.0064C114.659 48.7277 114.69 47.1078 114.722 45.4858C114.728 45.1847 114.733 44.8835 114.746 44.5845C114.812 42.9333 113.94 41.3495 112.518 40.5101L114.145 31.3626C114.371 30.0978 113.955 28.8967 113.16 28.0485L107.34 22.237C106.635 21.4363 105.602 20.9243 104.443 20.9244L99.3675 20.9244C99.0367 20.9257 98.6957 20.969 98.3572 21.0616Z" fill="#FDFEFC"/>
<path id="Union" fill-rule="evenodd" clip-rule="evenodd" d="M13.6971 21.4132L11.23 20.3731C10.1165 19.9062 10.4991 18.2224 11.8193 17.7555L15.8249 16.339C16.4621 16.1137 16.7806 16.0011 17.0397 15.7943C17.2987 15.5875 17.4791 15.3017 17.8399 14.7303L20.1076 11.1387C20.8729 9.94855 22.5757 9.94855 22.7862 11.1387L23.2541 13.7765C23.437 14.8076 23.5285 15.3231 23.8408 15.7142C24.1531 16.1053 24.6356 16.3085 25.6007 16.715L28.0706 17.7555C29.1803 18.2224 28.8015 19.9062 27.4775 20.3731L23.4719 21.7895C22.8348 22.0148 22.5162 22.1275 22.2571 22.3343C21.9981 22.5411 21.8177 22.8268 21.4569 23.3983L19.1892 26.9898C18.4469 28.18 16.7211 28.18 16.5106 26.9898L16.0426 24.3513C15.8597 23.3206 15.7683 22.8052 15.4561 22.4142C15.144 22.0232 14.6617 21.8199 13.6971 21.4132ZM49.0789 52.7009C55.2591 52.7009 53.5778 47.3562 52.0093 47.3562C51.3754 47.3562 50.6193 47.0274 50.6193 46.3605C50.6193 46.3264 50.7932 45.1049 51.0476 43.3182C51.74 38.4556 53.0284 29.407 53.0284 28.7201C53.0349 27.813 52.7735 26.9243 52.277 26.1651C51.5256 25.038 49.8851 24.4744 47.3555 24.4744C46.2379 24.4519 45.1315 24.7008 44.1312 25.1998C43.1309 25.6988 42.2665 26.4329 41.6121 27.3393C41.5141 27.4765 41.2872 27.447 41.2317 27.2829C40.6337 25.4043 38.8179 24.465 35.7842 24.465C34.8116 24.4468 33.8461 24.6335 32.9505 25.013C32.0548 25.3925 31.249 25.9563 30.5856 26.6677C30.4464 26.819 30.1732 26.6904 30.2146 26.4798C30.3527 25.7183 29.7384 24.9929 28.9748 24.991L25.6077 24.991C25.0042 24.9929 24.4733 25.4394 24.3679 26.0336L21.6112 41.6216C21.4839 42.3522 22.0713 43.0632 22.8229 43.0635L26.7113 43.0635C27.3002 43.0637 27.8195 42.6288 27.9229 42.049L29.8342 31.2234C30.13 29.9412 31.0223 29.913 32.6284 29.913C33.9809 29.913 34.6571 30.5142 34.6571 31.7165C34.6569 32.1697 34.6192 32.6221 34.5444 33.0691L33.0323 41.6545C32.9142 42.3701 33.4902 43.0619 34.2251 43.0635L38.1604 43.0635C38.737 43.0563 39.2409 42.6266 39.3392 42.0584L41.1847 31.5099C41.3303 30.6598 42.7861 29.7721 44.2748 29.913C45.3173 30.0117 46.745 30.3545 46.5759 31.6789C46.0265 36.0045 44.3546 46.863 44.3546 46.863C43.716 50.8223 46.3082 52.7009 49.0789 52.7009ZM62.6527 37.7188L62.6058 37.7188C61.7179 37.7188 61.358 37.0877 61.4928 36.291L63.3149 26.0477C63.4518 25.2349 62.7947 24.4678 61.9812 24.465L58.3464 24.465C57.6975 24.4641 57.1253 24.9437 57.0127 25.5828L54.9558 37.1646C54.7331 38.6202 54.6288 40.2044 55.4817 41.4854C56.158 42.5375 57.6357 43.0635 59.9149 43.0635C64.2541 43.0635 64.6439 37.7188 62.6527 37.7188ZM62.3757 13.7098C59.4356 13.7516 57.9613 15.4343 57.9613 18.3312C57.9613 20.1347 59.007 21.0365 61.0983 21.0365C63.9926 21.0365 65.5315 19.3549 65.5315 16.4902C65.5315 14.6366 64.4795 13.7098 62.3757 13.7098ZM77.676 29.6167C79.6054 30.1358 83.3404 31.1406 84.2033 28.8046C84.6729 27.5319 84.7152 23.9296 79.7701 23.9484C77.9919 23.9484 76.4422 24.7311 75.121 26.2966C74.9827 26.4669 74.7042 26.3293 74.7406 26.1229L74.9895 24.7139C75.0123 24.5817 74.9058 24.4565 74.7735 24.4556L69.2837 24.4556C69.181 24.454 69.0855 24.5329 69.0677 24.6341L65.9494 42.2698C65.9269 42.4002 66.0313 42.5272 66.1654 42.5281L72.1108 42.5281C72.213 42.5278 72.3072 42.4499 72.3268 42.3496L74.3884 30.7115C74.5195 29.6624 75.7467 29.3776 76.6144 29.3776C76.7872 29.3776 77.1694 29.4804 77.676 29.6167ZM104.369 37.5262C102.646 37.4605 102.599 37.0425 102.721 36.291L102.721 36.3004L104.759 24.8407C104.793 24.6479 104.637 24.4648 104.444 24.465L99.3817 24.465C99.0892 24.4661 99.0493 24.7809 99.0182 25.0255C99.0128 25.0685 99.0076 25.1094 99.0014 25.146C98.9763 25.319 98.7555 25.3881 98.6351 25.2681C97.7553 24.4071 96.2745 23.9765 94.1925 23.9765C91.8883 23.9765 90.0098 24.6528 88.5571 26.0055C87.072 27.4423 86.1071 29.3326 85.8146 31.3784L85.0257 35.7744C84.9061 36.4316 84.8432 37.0978 84.8378 37.7657C84.8378 41.2976 86.8916 43.0635 90.9991 43.0635C92.019 43.1054 93.0331 42.8909 93.9486 42.4397C94.8642 41.9884 95.652 41.3148 96.24 40.4804C96.3518 40.3308 96.5949 40.3843 96.6392 40.5602C97.1182 42.2228 98.61 43.0541 101.115 43.0541C104.139 43.0541 105.181 41.5324 105.181 41.4385L105.308 38.536C105.329 38.0055 104.894 37.5436 104.369 37.5262ZM92.0511 37.08C91.4439 36.5141 91.4194 35.7011 91.5627 34.9384L92.0698 32.1204C92.3923 30.2668 93.5194 29.34 95.4511 29.34C95.8355 29.34 97.6332 29.5884 97.3718 30.3545L96.2729 36.5211C96.1056 37.3048 94.5911 37.6472 93.9295 37.6436C93.2537 37.7095 92.579 37.5071 92.0511 37.08Z" fill="#FDFEFC"/>
</g>
</svg>
