<svg width="141" height="39" viewBox="0 0 141 39" fill="none" xmlns="http://www.w3.org/2000/svg">
<g id="Logo">
<g id="Union">
<path fill-rule="evenodd" clip-rule="evenodd" d="M22.6603 10.4575C26.9843 9.84979 30.8766 7.0167 30.5763 4.87973C30.2498 2.55667 25.8902 -0.028024 21.0154 0.657067C16.3022 1.31944 9.44822 6.82809 6.09844 10.1613C2.36996 13.8714 0.154436 18.8279 1.13578 23.4268C1.89875 27.0023 4.35324 29.8069 7.93675 30.7106C14.0104 32.2424 21.4115 29.0959 25.6094 24.7319C27.474 22.7935 29.2782 19.7635 27.8016 16.6848C26.4059 13.7749 23.3004 12.6999 20.2662 13.3742C15.5539 14.4215 11.3197 18.5169 9.68403 23.0148L14.1356 24.7319C14.561 23.5149 15.3344 22.279 16.3737 21.159C17.9339 19.4776 19.8156 18.3595 21.3009 18.0294C22.1734 17.8355 23.0754 17.8583 23.5017 18.7471C23.5942 18.9401 23.7491 19.7868 22.1724 21.4259C20.1977 23.4788 17.4962 24.884 14.7811 25.6905C11.3297 26.7156 6.72367 26.7618 5.79969 22.4317C5.27512 19.9734 6.41096 16.5779 9.46225 13.5417C10.3841 12.6244 11.4559 11.7694 12.6594 11.0175C13.5405 10.4669 13.9811 10.1916 14.6238 10.056C15.2664 9.92038 16.4841 10.0952 18.9194 10.4448L18.9194 10.4448C20.1236 10.6176 21.4143 10.6326 22.6603 10.4575ZM16.0301 31.0394C18.7749 33.2329 22.4623 32.5696 25.4571 31.0394C30.2547 28.5879 32.2556 25.5504 33.4688 23.7087C34.1905 22.6131 34.6334 21.9407 35.2205 22.0665C36.5813 22.358 35.5863 30.8054 27.627 35.2859C23.2615 37.7434 17.8576 38.1063 13.713 35.2538L16.0301 31.0394ZM23.6082 7.64344C23.1217 7.64344 22.6999 7.54517 22.3427 7.34863C21.9917 7.14613 21.7177 6.87216 21.5206 6.52672C21.3297 6.17532 21.2343 5.78223 21.2343 5.34746C21.2343 4.90672 21.3297 4.51364 21.5206 4.1682C21.7177 3.82276 21.9917 3.55176 22.3427 3.35522C22.6999 3.15272 23.1217 3.05147 23.6082 3.05147C24.1193 3.05148 24.5565 3.15273 24.9198 3.35523C25.2893 3.55177 25.5695 3.82276 25.7604 4.1682C25.9574 4.51364 26.056 4.90673 26.056 5.34746C26.056 5.78224 25.9574 6.17533 25.7604 6.52673C25.5695 6.87216 25.2893 7.14613 24.9198 7.34863C24.5565 7.54518 24.1193 7.64345 23.6082 7.64344ZM70.745 30.6029L70.745 0.556786L76.5861 0.556797L76.5862 30.6029L70.745 30.6029ZM57.7849 31.2166C54.3302 31.2165 51.7089 30.3302 49.9209 28.5574C48.1481 26.7846 47.2617 24.2618 47.2617 20.989L47.2617 17.9662C47.2616 14.6783 48.1481 12.1479 49.9209 10.3752C51.7088 8.58724 54.3301 7.69328 57.7849 7.69329C61.2244 7.6933 63.8306 8.58726 65.6034 10.3752C67.3762 12.148 68.2626 14.6783 68.2626 17.9663L68.2626 20.9891C68.2626 24.2619 67.3762 26.7847 65.6034 28.5574C63.8458 30.3302 61.2396 31.2166 57.7849 31.2166ZM57.7849 26.5574C59.3001 26.5574 60.4517 26.1028 61.2396 25.1937C62.0427 24.2846 62.4442 22.9815 62.4442 21.2845L62.4442 17.6708C62.4442 15.9435 62.0426 14.6253 61.2396 13.7162C60.4517 12.7919 59.3001 12.3298 57.7849 12.3298C56.2545 12.3298 55.0878 12.7919 54.2847 13.7161C53.4968 14.6253 53.1028 15.9435 53.1028 17.6708L53.1028 21.2845C53.1028 22.9815 53.4968 24.2846 54.2847 25.1937C55.0878 26.1028 56.2545 26.5574 57.7849 26.5574ZM88.9477 25.7847L94.1193 8.307L99.4899 8.30701L100.097 8.30701L105.536 8.30702L110.331 26.7393L110.854 26.7393L115.65 8.30704L121.65 8.30705L115.286 30.603L105.877 30.603L99.7777 9.31152L90.5283 38.4213L84.6871 38.4213L87.4901 29.6484L84.3916 29.6484L77.914 8.30697L83.937 8.30699L88.5509 25.7847L88.9477 25.7847ZM135.327 25.9666L135.153 30.603L140.903 30.6031L140.903 16.83C140.903 15.4815 140.736 14.2542 140.403 13.1481C140.07 12.0269 139.524 11.0647 138.767 10.2617C138.024 9.45862 137.024 8.84497 135.766 8.42072C134.509 7.98131 132.971 7.76161 131.153 7.7616C129.925 7.7616 128.781 7.86009 127.721 8.05706C126.66 8.25403 125.698 8.51161 124.834 8.8298C123.986 9.13283 123.228 9.4586 122.561 9.80709L122.061 14.4436C123.198 13.9132 124.433 13.4511 125.766 13.0572C127.115 12.6481 128.554 12.4435 130.084 12.4435C131.888 12.4435 133.183 12.7845 133.971 13.4663C134.716 14.0986 135.115 15.0631 135.169 16.36L129.403 17.1482C126.508 17.5421 124.395 18.2618 123.061 19.3073C121.728 20.3376 121.061 21.9362 121.061 24.1029L121.061 24.7392C121.061 26.7847 121.637 28.3605 122.789 29.4666C123.955 30.5727 125.645 31.1258 127.857 31.1258C129.433 31.1258 130.706 30.8985 131.675 30.4439C132.645 29.9742 133.395 29.353 133.925 28.5803C134.471 27.7924 134.865 26.9211 135.107 25.9666L135.327 25.9666ZM135.198 23.3507L135.198 20.1594L130.243 20.8755C128.971 21.0422 128.062 21.3452 127.516 21.7846C126.986 22.224 126.721 22.868 126.721 23.7165L126.721 23.9438C126.721 24.7771 126.978 25.4287 127.493 25.8984C128.024 26.3529 128.85 26.5802 129.971 26.5802C130.971 26.5802 131.827 26.4211 132.539 26.1029C133.251 25.7847 133.835 25.3681 134.289 24.8529C134.693 24.397 134.996 23.8962 135.198 23.3507Z" fill="#0C0811"/>
<path fill-rule="evenodd" clip-rule="evenodd" d="M22.6603 10.4575C26.9843 9.84979 30.8766 7.0167 30.5763 4.87973C30.2498 2.55667 25.8902 -0.028024 21.0154 0.657067C16.3022 1.31944 9.44822 6.82809 6.09844 10.1613C2.36996 13.8714 0.154436 18.8279 1.13578 23.4268C1.89875 27.0023 4.35324 29.8069 7.93675 30.7106C14.0104 32.2424 21.4115 29.0959 25.6094 24.7319C27.474 22.7935 29.2782 19.7635 27.8016 16.6848C26.4059 13.7749 23.3004 12.6999 20.2662 13.3742C15.5539 14.4215 11.3197 18.5169 9.68403 23.0148L14.1356 24.7319C14.561 23.5149 15.3344 22.279 16.3737 21.159C17.9339 19.4776 19.8156 18.3595 21.3009 18.0294C22.1734 17.8355 23.0754 17.8583 23.5017 18.7471C23.5942 18.9401 23.7491 19.7868 22.1724 21.4259C20.1977 23.4788 17.4962 24.884 14.7811 25.6905C11.3297 26.7156 6.72367 26.7618 5.79969 22.4317C5.27512 19.9734 6.41096 16.5779 9.46225 13.5417C10.3841 12.6244 11.4559 11.7694 12.6594 11.0175C13.5405 10.4669 13.9811 10.1916 14.6238 10.056C15.2664 9.92038 16.4841 10.0952 18.9194 10.4448L18.9194 10.4448C20.1236 10.6176 21.4143 10.6326 22.6603 10.4575ZM16.0301 31.0394C18.7749 33.2329 22.4623 32.5696 25.4571 31.0394C30.2547 28.5879 32.2556 25.5504 33.4688 23.7087C34.1905 22.6131 34.6334 21.9407 35.2205 22.0665C36.5813 22.358 35.5863 30.8054 27.627 35.2859C23.2615 37.7434 17.8576 38.1063 13.713 35.2538L16.0301 31.0394ZM23.6082 7.64344C23.1217 7.64344 22.6999 7.54517 22.3427 7.34863C21.9917 7.14613 21.7177 6.87216 21.5206 6.52672C21.3297 6.17532 21.2343 5.78223 21.2343 5.34746C21.2343 4.90672 21.3297 4.51364 21.5206 4.1682C21.7177 3.82276 21.9917 3.55176 22.3427 3.35522C22.6999 3.15272 23.1217 3.05147 23.6082 3.05147C24.1193 3.05148 24.5565 3.15273 24.9198 3.35523C25.2893 3.55177 25.5695 3.82276 25.7604 4.1682C25.9574 4.51364 26.056 4.90673 26.056 5.34746C26.056 5.78224 25.9574 6.17533 25.7604 6.52673C25.5695 6.87216 25.2893 7.14613 24.9198 7.34863C24.5565 7.54518 24.1193 7.64345 23.6082 7.64344ZM70.745 30.6029L70.745 0.556786L76.5861 0.556797L76.5862 30.6029L70.745 30.6029ZM57.7849 31.2166C54.3302 31.2165 51.7089 30.3302 49.9209 28.5574C48.1481 26.7846 47.2617 24.2618 47.2617 20.989L47.2617 17.9662C47.2616 14.6783 48.1481 12.1479 49.9209 10.3752C51.7088 8.58724 54.3301 7.69328 57.7849 7.69329C61.2244 7.6933 63.8306 8.58726 65.6034 10.3752C67.3762 12.148 68.2626 14.6783 68.2626 17.9663L68.2626 20.9891C68.2626 24.2619 67.3762 26.7847 65.6034 28.5574C63.8458 30.3302 61.2396 31.2166 57.7849 31.2166ZM57.7849 26.5574C59.3001 26.5574 60.4517 26.1028 61.2396 25.1937C62.0427 24.2846 62.4442 22.9815 62.4442 21.2845L62.4442 17.6708C62.4442 15.9435 62.0426 14.6253 61.2396 13.7162C60.4517 12.7919 59.3001 12.3298 57.7849 12.3298C56.2545 12.3298 55.0878 12.7919 54.2847 13.7161C53.4968 14.6253 53.1028 15.9435 53.1028 17.6708L53.1028 21.2845C53.1028 22.9815 53.4968 24.2846 54.2847 25.1937C55.0878 26.1028 56.2545 26.5574 57.7849 26.5574ZM88.9477 25.7847L94.1193 8.307L99.4899 8.30701L100.097 8.30701L105.536 8.30702L110.331 26.7393L110.854 26.7393L115.65 8.30704L121.65 8.30705L115.286 30.603L105.877 30.603L99.7777 9.31152L90.5283 38.4213L84.6871 38.4213L87.4901 29.6484L84.3916 29.6484L77.914 8.30697L83.937 8.30699L88.5509 25.7847L88.9477 25.7847ZM135.327 25.9666L135.153 30.603L140.903 30.6031L140.903 16.83C140.903 15.4815 140.736 14.2542 140.403 13.1481C140.07 12.0269 139.524 11.0647 138.767 10.2617C138.024 9.45862 137.024 8.84497 135.766 8.42072C134.509 7.98131 132.971 7.76161 131.153 7.7616C129.925 7.7616 128.781 7.86009 127.721 8.05706C126.66 8.25403 125.698 8.51161 124.834 8.8298C123.986 9.13283 123.228 9.4586 122.561 9.80709L122.061 14.4436C123.198 13.9132 124.433 13.4511 125.766 13.0572C127.115 12.6481 128.554 12.4435 130.084 12.4435C131.888 12.4435 133.183 12.7845 133.971 13.4663C134.716 14.0986 135.115 15.0631 135.169 16.36L129.403 17.1482C126.508 17.5421 124.395 18.2618 123.061 19.3073C121.728 20.3376 121.061 21.9362 121.061 24.1029L121.061 24.7392C121.061 26.7847 121.637 28.3605 122.789 29.4666C123.955 30.5727 125.645 31.1258 127.857 31.1258C129.433 31.1258 130.706 30.8985 131.675 30.4439C132.645 29.9742 133.395 29.353 133.925 28.5803C134.471 27.7924 134.865 26.9211 135.107 25.9666L135.327 25.9666ZM135.198 23.3507L135.198 20.1594L130.243 20.8755C128.971 21.0422 128.062 21.3452 127.516 21.7846C126.986 22.224 126.721 22.868 126.721 23.7165L126.721 23.9438C126.721 24.7771 126.978 25.4287 127.493 25.8984C128.024 26.3529 128.85 26.5802 129.971 26.5802C130.971 26.5802 131.827 26.4211 132.539 26.1029C133.251 25.7847 133.835 25.3681 134.289 24.8529C134.693 24.397 134.996 23.8962 135.198 23.3507Z" fill="url(#paint0_radial_461_5529)" fill-opacity="0.4"/>
</g>
</g>
<defs>
<radialGradient id="paint0_radial_461_5529" cx="0" cy="0" r="1" gradientUnits="userSpaceOnUse" gradientTransform="translate(42.9404 0.716161) rotate(89.9999) scale(37.558 110.267)">
<stop stop-color="white"/>
<stop offset="1" stop-color="white" stop-opacity="0"/>
</radialGradient>
</defs>
</svg>
