<svg width="171" height="33" viewBox="0 0 171 33" fill="none" xmlns="http://www.w3.org/2000/svg">
<g id="Union">
<path fill-rule="evenodd" clip-rule="evenodd" d="M69.8877 7.17949L69.8877 25.854L74.2181 25.854L74.2181 7.17949L69.8877 7.17949ZM69.8877 0.232422L69.8877 4.94405L74.2181 4.94405L74.2181 0.232422L69.8877 0.232422ZM48.0132 7.17949L48.0132 32.7323L52.3436 32.7323L52.3436 23.9623C52.8907 24.5728 53.5551 25.0658 54.337 25.4414C55.5055 25.9916 56.7771 26.2667 58.1519 26.2667C59.939 26.2667 61.5429 25.8426 62.9634 24.9943C64.384 24.123 65.5067 22.9537 66.3315 21.4863C67.1564 19.996 67.5688 18.3453 67.5688 16.534C67.5688 14.6768 67.1564 13.0146 66.3315 11.5472C65.5067 10.0798 64.384 8.92199 62.9634 8.07367C61.5429 7.20242 59.939 6.7668 58.1519 6.7668C56.7313 6.7668 55.4597 7.05339 54.337 7.62658C53.449 8.07994 52.7043 8.66956 52.103 9.39543L52.103 7.17949L48.0132 7.17949ZM60.4545 21.5551C59.6526 22.0366 58.7247 22.2773 57.6707 22.2773C56.6625 22.2773 55.7461 22.0366 54.9212 21.5551C54.1193 21.0507 53.4892 20.3629 53.031 19.4916C52.5727 18.6204 52.3436 17.6345 52.3436 16.534C52.3436 15.4105 52.5727 14.4132 53.031 13.5419C53.4892 12.6707 54.1193 11.9943 54.9212 11.5128C55.7461 11.0084 56.6625 10.7562 57.6707 10.7562C58.7247 10.7562 59.6526 11.0084 60.4545 11.5128C61.2794 12.0172 61.9209 12.7051 62.3792 13.5763C62.8374 14.4246 63.0665 15.4105 63.0665 16.534C63.0665 17.6345 62.8374 18.6204 62.3792 19.4916C61.9209 20.3629 61.2794 21.0507 60.4545 21.5551ZM86.1292 26.2667C84.2275 26.2667 82.5549 25.8311 81.1115 24.9599C79.668 24.0886 78.5453 22.9193 77.7434 21.4519C76.9414 19.9616 76.5405 18.2994 76.5405 16.4652C76.5405 14.608 76.9529 12.9573 77.7777 11.5128C78.6026 10.0454 79.7024 8.8876 81.0771 8.03928C82.4747 7.19096 84.0557 6.7668 85.8199 6.7668C87.2405 6.7668 88.5007 7.00754 89.6005 7.48902C90.7232 7.9705 91.674 8.6354 92.453 9.48372C93.232 10.332 93.8163 11.3065 94.2058 12.407C94.6182 13.4846 94.8244 14.6424 94.8244 15.8805C94.8244 16.2015 94.8015 16.534 94.7557 16.8779C94.7328 17.1989 94.687 17.4855 94.6182 17.7377L81.022 17.7377C81.0708 18.4287 81.2266 19.0592 81.4895 19.6292C81.9248 20.5234 82.5435 21.2227 83.3454 21.7271C84.1702 22.2086 85.1096 22.4493 86.1636 22.4493C87.2176 22.4493 88.1112 22.2315 88.8443 21.7959C89.6004 21.3373 90.1962 20.7297 90.6315 19.9731L94.1371 21.6927C93.7705 22.5639 93.1977 23.3549 92.4187 24.0657C91.6396 24.7535 90.7117 25.2923 89.6348 25.6821C88.5809 26.0719 87.4123 26.2667 86.1292 26.2667ZM81.4895 13.198C81.3319 13.5692 81.2136 13.9704 81.1348 14.4017L90.2432 14.4017C90.2126 13.9357 90.1129 13.5001 89.9441 13.0948C89.6234 12.2465 89.0964 11.5816 88.3632 11.1001C87.6529 10.5957 86.8052 10.3435 85.8199 10.3435C84.8347 10.3435 83.964 10.5957 83.2079 11.1001C82.4747 11.5816 81.9019 12.2809 81.4895 13.198ZM97.1573 0.232422L97.1573 25.854L101.488 25.854L101.488 0.232422L97.1573 0.232422ZM113.674 26.2667C111.841 26.2667 110.18 25.8426 108.69 24.9943C107.201 24.1459 106.01 22.9881 105.116 21.5207C104.245 20.0534 103.81 18.3796 103.81 16.4996C103.81 14.6195 104.245 12.9573 105.116 11.5128C106.01 10.0454 107.201 8.8876 108.69 8.03928C110.18 7.19096 111.841 6.7668 113.674 6.7668C115.507 6.7668 117.156 7.19096 118.623 8.03928C120.112 8.8876 121.292 10.0454 122.163 11.5128C123.033 12.9573 123.469 14.6195 123.469 16.4996C123.469 18.3796 123.022 20.0648 122.128 21.5551C121.258 23.0225 120.078 24.1803 118.589 25.0287C117.122 25.854 115.484 26.2667 113.674 26.2667ZM113.674 22.2773C114.705 22.2773 115.61 22.0366 116.389 21.5551C117.191 21.0507 117.821 20.3629 118.279 19.4916C118.76 18.6204 119.001 17.623 119.001 16.4996C119.001 15.3991 118.76 14.4246 118.279 13.5763C117.821 12.7051 117.191 12.0172 116.389 11.5128C115.61 11.0084 114.705 10.7562 113.674 10.7562C112.62 10.7562 111.692 11.0084 110.89 11.5128C110.088 12.0172 109.458 12.7051 109 13.5763C108.541 14.4246 108.312 15.3991 108.312 16.4996C108.312 17.623 108.541 18.6204 109 19.4916C109.458 20.3629 110.088 21.0507 110.89 21.5551C111.692 22.0366 112.62 22.2773 113.674 22.2773ZM136.148 21.1424L136.148 25.854L140.513 25.854L140.513 21.1424L136.148 21.1424ZM144.591 25.854L144.591 7.17949L148.922 7.17949L148.922 25.854L144.591 25.854ZM144.591 4.94405L144.591 0.232422L148.922 0.232422L148.922 4.94405L144.591 4.94405ZM156.124 24.9943C157.614 25.8426 159.275 26.2667 161.108 26.2667C162.918 26.2667 164.556 25.854 166.023 25.0287C167.512 24.1803 168.692 23.0225 169.562 21.5551C170.456 20.0648 170.903 18.3796 170.903 16.4996C170.903 14.6195 170.468 12.9573 169.597 11.5128C168.726 10.0454 167.546 8.8876 166.057 8.03928C164.591 7.19096 162.941 6.7668 161.108 6.7668C159.275 6.7668 157.614 7.19096 156.124 8.03928C154.635 8.8876 153.444 10.0454 152.55 11.5128C151.679 12.9573 151.244 14.6195 151.244 16.4996C151.244 18.3796 151.679 20.0534 152.55 21.5207C153.444 22.9881 154.635 24.1459 156.124 24.9943ZM163.823 21.5551C163.044 22.0366 162.139 22.2773 161.108 22.2773C160.054 22.2773 159.126 22.0366 158.324 21.5551C157.522 21.0507 156.892 20.3629 156.434 19.4916C155.976 18.6204 155.746 17.623 155.746 16.4996C155.746 15.3991 155.976 14.4246 156.434 13.5763C156.892 12.7051 157.522 12.0172 158.324 11.5128C159.126 11.0084 160.054 10.7562 161.108 10.7562C162.139 10.7562 163.044 11.0084 163.823 11.5128C164.625 12.0172 165.255 12.7051 165.713 13.5763C166.194 14.4246 166.435 15.3991 166.435 16.4996C166.435 17.623 166.194 18.6204 165.713 19.4916C165.255 20.3629 164.625 21.0507 163.823 21.5551ZM127.693 25.854L127.693 11.0313L124.463 11.0313L124.463 7.17949L127.693 7.17949L127.693 0.232422L132.024 0.232422L132.024 7.17949L136.32 7.17949L136.32 11.0313L132.024 11.0313L132.024 25.854L127.693 25.854Z" fill="#0E2B32"/>
<path d="M8.28465 12.5158C6.64214 13.1416 6.58279 13.6833 8.08084 14.61C12.2557 17.1926 14.0972 16.5918 19.6954 14.7653C20.3619 14.5478 21.0817 14.313 21.865 14.0641C25.52 12.9027 26.7019 13.4405 22.9265 15.683C15.6971 19.977 12.294 21.0148 4.63311 17.4716C-0.884771 14.9196 0.387755 11.8994 4.13243 10.008C10.9622 6.55834 26.608 4.59182 31.6128 6.94068C36.1767 9.08256 39.0099 27.0467 35.4909 29.1263C31.4962 31.487 26.4955 28.0028 23.7302 25.5989C22.6748 24.6814 22.3634 24.7571 21.604 25.9223C19.6797 28.8745 16.487 31.8272 13.8638 30.457C10.7098 28.8096 13.7998 20.6766 14.9 20.6502C15.186 20.6434 15.5674 22.458 15.8391 23.7507L15.8608 23.8542C16.1508 25.2324 16.5521 25.4974 17.6919 24.6021C18.0935 24.2868 18.5137 23.8627 18.9516 23.4208C19.9383 22.4251 21.015 21.3385 22.1709 21.1997C22.8266 21.1209 23.8206 21.6452 25.8087 22.6937C26.0632 22.8279 26.3958 23.0258 26.779 23.2538C28.9564 24.5495 32.7641 26.8152 33.1155 23.8637C33.9961 16.4674 31.5443 10.1762 29.6608 9.1205C27.7772 8.06478 16.5241 9.37661 8.28465 12.5158Z" fill="#4CB6CF"/>
</g>
</svg>
