<svg width="171" height="30" viewBox="0 0 171 30" fill="none" xmlns="http://www.w3.org/2000/svg">
<g id="Group 389">
<g id="Group 384">
<path id="Vector 1" d="M28.8095 2.18873L11.4698 18.3585C11.1271 18.6781 10.9558 18.8379 10.8612 19.0454C10.7666 19.2529 10.7585 19.487 10.7421 19.9554L10.7021 21.1C10.6898 21.4535 10.6836 21.6303 10.6455 21.802C10.6074 21.9737 10.5381 22.1365 10.3997 22.4621L9.75431 23.9798C9.32995 24.9777 9.11777 25.4767 9.36638 25.7433C9.61498 26.0099 10.1275 25.833 11.1526 25.4793L12.7116 24.9413C13.046 24.8259 13.2132 24.7682 13.3872 24.7422C13.5611 24.7161 13.7379 24.7223 14.0915 24.7346L15.2361 24.7746C15.7044 24.791 15.9385 24.7991 16.1521 24.7193C16.3657 24.6394 16.5371 24.4796 16.8798 24.16L16.8798 24.16L34.2195 7.99027C34.6062 7.6296 34.7996 7.44927 34.8077 7.21707C34.8158 6.98487 34.6355 6.79149 34.2748 6.40472L30.3951 2.2441C30.0344 1.85733 29.8541 1.66395 29.6219 1.65584C29.3897 1.64773 29.1963 1.82807 28.8095 2.18873Z" fill="#8BD7B2"/>
<path id="Vector 2" d="M2.5281 11.5434L7.18813 14.8065C7.62132 15.1098 7.83792 15.2615 8.06673 15.2211C8.29553 15.1808 8.4472 14.9642 8.75052 14.531L12.0135 9.87087C12.3168 9.43767 12.4685 9.22107 12.4282 8.99226C12.3878 8.76345 12.1712 8.61178 11.738 8.30845L7.07799 5.04542C6.6448 4.74209 6.4282 4.59043 6.19939 4.63077C5.97058 4.67112 5.81892 4.88772 5.5156 5.32092L2.25261 9.98101C1.94928 10.4142 1.79762 10.6308 1.83796 10.8596C1.87831 11.0884 2.09491 11.2401 2.5281 11.5434Z" fill="#C09CED"/>
</g>
<g id="postwell">
<path d="M61.5926 24.105C60.3224 24.105 59.3308 23.8153 58.6177 23.2359C57.9046 22.6565 57.3921 21.9211 57.0801 21.0297C56.7682 20.1161 56.5565 19.1579 56.445 18.1551L56.5787 16.4503C56.5787 17.3417 56.6902 18.0771 56.913 18.6565C57.1581 19.2359 57.5147 19.6704 57.9826 19.9601C58.4506 20.2498 59.0188 20.3946 59.6874 20.3946C60.7793 20.3946 61.6372 19.9824 62.2612 19.1579C62.9074 18.3111 63.2305 17.1188 63.2305 15.5812C63.2305 13.999 62.9074 12.8068 62.2612 12.0046C61.6372 11.1801 60.7793 10.7678 59.6874 10.7678C59.0188 10.7678 58.4506 10.9127 57.9826 11.2024C57.5147 11.4698 57.1581 11.8932 56.913 12.4726C56.6902 13.052 56.5787 13.7873 56.5787 14.6787L56.445 12.974C56.5565 11.9712 56.7793 11.013 57.1136 10.0993C57.4701 9.18564 58.0161 8.45026 58.7514 7.89315C59.5091 7.31376 60.523 7.02406 61.7932 7.02406C63.0634 7.02406 64.1664 7.35833 65.1024 8.02686C66.0606 8.69539 66.7959 9.66475 67.3085 10.935C67.821 12.2052 68.0773 13.7539 68.0773 15.5812C68.0773 17.364 67.8099 18.9016 67.275 20.1941C66.7625 21.4643 66.016 22.4336 65.0355 23.1022C64.0773 23.7707 62.9297 24.105 61.5926 24.105ZM56.5787 29.988H51.7988V7.39176H56.5787V29.988Z" fill="black"/>
<path d="M77.9794 24.105C76.3304 24.105 74.882 23.7484 73.6341 23.0353C72.4085 22.2999 71.4614 21.286 70.7929 19.9935C70.1243 18.701 69.7901 17.2303 69.7901 15.5812C69.7901 13.9099 70.1243 12.4391 70.7929 11.1689C71.4614 9.87645 72.4085 8.87366 73.6341 8.16056C74.882 7.42518 76.3304 7.05749 77.9794 7.05749C79.673 7.05749 81.1438 7.42518 82.3917 8.16056C83.6619 8.87366 84.6312 9.87645 85.2997 11.1689C85.9905 12.4391 86.3359 13.9099 86.3359 15.5812C86.3359 17.2303 85.9905 18.701 85.2997 19.9935C84.6312 21.286 83.6619 22.2999 82.3917 23.0353C81.1438 23.7484 79.673 24.105 77.9794 24.105ZM78.0463 20.2275C78.7371 20.2275 79.3388 20.0715 79.8513 19.7595C80.3638 19.4476 80.7649 18.9573 81.0546 18.2888C81.3443 17.598 81.4892 16.6954 81.4892 15.5812C81.4892 14.467 81.3443 13.5756 81.0546 12.9071C80.7649 12.2163 80.3638 11.7149 79.8513 11.4029C79.3388 11.0909 78.7371 10.935 78.0463 10.935C77.3778 10.935 76.7873 11.0909 76.2747 11.4029C75.7622 11.7149 75.3611 12.2163 75.0714 12.9071C74.7817 13.5756 74.6369 14.467 74.6369 15.5812C74.6369 16.6954 74.7817 17.598 75.0714 18.2888C75.3611 18.9573 75.7622 19.4476 76.2747 19.7595C76.7873 20.0715 77.3778 20.2275 78.0463 20.2275Z" fill="black"/>
<path d="M95.597 24.105C94.3937 24.105 93.2461 23.9713 92.1541 23.7039C91.0622 23.4142 90.104 23.0242 89.2795 22.5339C88.455 22.0214 87.7976 21.442 87.3074 20.7958L89.5135 17.5534C89.9815 18.0214 90.5386 18.4893 91.1848 18.9573C91.8533 19.403 92.5664 19.7707 93.3241 20.0604C94.104 20.3278 94.9062 20.4615 95.7307 20.4615C96.377 20.4615 96.8783 20.3612 97.2349 20.1607C97.6137 19.9378 97.8031 19.6147 97.8031 19.1913C97.8031 18.7679 97.5691 18.4448 97.1012 18.2219C96.6555 17.9991 95.9981 17.7762 95.1291 17.5534L92.9229 17.0186C91.9424 16.7512 91.0622 16.428 90.2823 16.0492C89.5246 15.6704 88.923 15.1801 88.4773 14.5784C88.0539 13.9545 87.8422 13.1634 87.8422 12.2052C87.8422 10.5784 88.4439 9.31935 89.6472 8.42798C90.8505 7.5366 92.455 7.09092 94.4605 7.09092C96.2433 7.09092 97.7474 7.41404 98.973 8.06028C100.221 8.68424 101.135 9.35277 101.714 10.0659L99.5747 13.2748C98.7725 12.4503 97.8923 11.8152 96.9341 11.3695C95.9758 10.9238 95.0176 10.701 94.0594 10.701C93.48 10.701 93.0232 10.8124 92.689 11.0352C92.3547 11.2358 92.1876 11.5366 92.1876 11.9378C92.1876 12.3612 92.3881 12.6954 92.7892 12.9405C93.2126 13.1857 93.9703 13.4531 95.0622 13.7428L96.9006 14.2442C98.7056 14.7344 100.02 15.3584 100.845 16.1161C101.669 16.8737 102.082 17.8765 102.082 19.1244C102.082 20.1718 101.803 21.0743 101.246 21.832C100.689 22.5674 99.9312 23.1356 98.973 23.5367C98.0148 23.9156 96.8895 24.105 95.597 24.105Z" fill="black"/>
<path d="M110.39 24.105C109.187 24.105 108.184 23.8821 107.382 23.4364C106.602 22.9908 106.022 22.3779 105.644 21.598C105.265 20.818 105.075 19.9267 105.075 18.9239V5.45302L109.855 2.94604V18.0548C109.855 18.7233 110 19.1913 110.29 19.4587C110.602 19.7261 110.992 19.8598 111.46 19.8598C111.972 19.8598 112.44 19.6927 112.864 19.3584C113.309 19.0019 113.655 18.5896 113.9 18.1216L115.27 22.0325C114.914 22.4782 114.323 22.935 113.499 23.403C112.674 23.871 111.638 24.105 110.39 24.105ZM116.13 11.0352H102.635V7.39176L116.13 7.39176V11.0352Z" fill="black"/>
<path d="M124.501 23.7707H118.552L114.44 7.39176L119.688 7.39176L120.958 15.5812L121.593 20.7289L122.596 15.6147L124.568 7.39176H129.983L132.056 15.6147L133.025 20.7289L133.66 15.5812L134.897 7.39176H140.145L136.033 23.7707H130.083L128.312 16.4837L127.309 10.5673L126.306 16.4837L124.501 23.7707Z" fill="black"/>
<path d="M148.398 24.105C146.66 24.105 145.155 23.7484 143.885 23.0353C142.637 22.3222 141.679 21.3194 141.011 20.0269C140.342 18.7345 140.008 17.2526 140.008 15.5812C140.008 13.8876 140.342 12.4057 141.011 11.1355C141.679 9.84303 142.615 8.84023 143.818 8.12714C145.022 7.41404 146.414 7.05749 147.997 7.05749C149.735 7.05749 151.183 7.4029 152.342 8.09371C153.501 8.78452 154.37 9.72046 154.949 10.9015C155.529 12.0826 155.818 13.3862 155.818 14.8124C155.818 15.169 155.796 15.5478 155.751 15.9489C155.729 16.3278 155.696 16.6175 155.651 16.818H143.417V14.077H152.309L151.54 14.7121C151.54 13.4197 151.25 12.4391 150.671 11.7706C150.091 11.0798 149.211 10.7344 148.03 10.7344C146.916 10.7344 146.036 11.0798 145.389 11.7706C144.765 12.4391 144.453 13.4531 144.453 14.8124V16.0492C144.453 17.0074 144.621 17.7985 144.955 18.4225C145.289 19.0242 145.757 19.481 146.359 19.793C146.983 20.0827 147.685 20.2275 148.465 20.2275C149.245 20.2275 149.902 20.1272 150.437 19.9267C150.972 19.7261 151.417 19.4476 151.774 19.091C152.13 18.7122 152.409 18.2888 152.609 17.8208L155.517 20.7289C154.916 21.598 154.036 22.3779 152.877 23.0688C151.74 23.7596 150.247 24.105 148.398 24.105Z" fill="black"/>
<path d="M163.077 23.7707H158.297V1.375H163.077V23.7707Z" fill="black"/>
<path d="M170.903 23.7707H166.123V1.375H170.903V23.7707Z" fill="black"/>
</g>
</g>
</svg>
