<svg width="41" height="40" viewBox="0 0 41 40" fill="none" xmlns="http://www.w3.org/2000/svg">
<path d="M14.3577 29.9416C15.7298 34.6472 16.4159 37 17.7354 37C19.0548 37 19.7409 34.6472 21.113 29.9416L22.0083 26.8711L25.0788 25.9758C29.7844 24.6037 32.1372 23.9176 32.1372 22.5981C32.1372 21.2787 29.7844 20.5926 25.0788 19.2205L22.0083 18.3252L21.113 15.2547C19.7409 10.5491 19.0548 8.19629 17.7354 8.19629C16.4159 8.19629 15.7298 10.5491 14.3577 15.2547L13.4624 18.3252L10.3919 19.2205C5.68631 20.5926 3.3335 21.2787 3.3335 22.5981C3.3335 23.9176 5.68631 24.6037 10.3919 25.9758L13.4624 26.8711L14.3577 29.9416Z" fill="#EDA48A"/>
<circle cx="30.8097" cy="9.49573" r="3.91956" fill="#EDA48A"/>
</svg>
