<svg width="41" height="40" viewBox="0 0 41 40" fill="none" xmlns="http://www.w3.org/2000/svg">
<g clip-path="url(#clip0_156_9571)">
<path d="M17.7542 10.4329C18.9128 5.73984 19.492 3.39332 20.6668 3.39332C21.8415 3.39332 22.4208 5.73983 23.5793 10.4329L24.4627 14.0111C24.6742 14.8679 24.78 15.2964 25.0755 15.5918C25.3709 15.8873 25.7994 15.9931 26.6562 16.2046L30.2344 17.088C34.9275 18.2465 37.274 18.8258 37.274 20.0005C37.274 21.1752 34.9275 21.7545 30.2344 22.9131L26.6562 23.7964C25.7994 24.008 25.3709 24.1137 25.0755 24.4092C24.78 24.7047 24.6742 25.1331 24.4627 25.99L23.5793 29.5682C22.4208 34.2612 21.8415 36.6077 20.6668 36.6077C19.492 36.6077 18.9128 34.2612 17.7542 29.5682L16.8709 25.99C16.6593 25.1331 16.5536 24.7047 16.2581 24.4092C15.9626 24.1137 15.5342 24.008 14.6773 23.7964L11.0991 22.9131C6.4061 21.7545 4.05958 21.1752 4.05958 20.0005C4.05958 18.8258 6.40609 18.2465 11.0991 17.088L14.6773 16.2046C15.5342 15.9931 15.9626 15.8873 16.2581 15.5918C16.5536 15.2964 16.6593 14.8679 16.8709 14.0111L17.7542 10.4329Z" fill="#DF93F9"/>
</g>
<defs>
<clipPath id="clip0_156_9571">
<rect width="40" height="40" fill="white" transform="translate(0.666748)"/>
</clipPath>
</defs>
</svg>
