<svg width="20" height="20" viewBox="0 0 20 20" fill="none" xmlns="http://www.w3.org/2000/svg">
<g id="revision">
<path id="v" fill-rule="evenodd" clip-rule="evenodd" d="M17.6075 10.0013C17.6075 11.1451 17.4408 12.1747 17.1351 13.0799C16.9513 13.6241 16.8594 13.8962 16.5477 13.9589C16.236 14.0217 16.0391 13.7986 15.6454 13.3524C14.5385 12.0979 13.4673 10.4145 13.6182 9.6907C13.7201 9.20179 14.7019 8.8851 15.9437 8.74058C15.7504 7.30176 15.2202 6.24511 14.4883 5.51312C13.5571 4.58193 12.1006 3.97741 10.0003 3.97741C7.89996 3.97741 6.4434 4.58193 5.51225 5.51312C4.5811 6.44431 3.97661 7.90093 3.97661 10.0013C3.97661 12.1018 4.5811 13.5584 5.51225 14.4896C6.4434 15.4208 7.89996 16.0253 10.0003 16.0253C10.877 16.0253 11.6416 15.9199 12.3027 15.7294C12.9293 15.5489 13.185 15.5975 13.3938 16.2671C13.545 16.7519 13.4666 17.0147 12.9447 17.1804C12.0724 17.4574 11.0879 17.6003 10.0003 17.6003C5.19391 17.6003 2.40161 14.8079 2.40161 10.0013C2.40161 5.19477 5.19391 2.40234 10.0003 2.40234C14.8066 2.40234 17.6075 5.1948 17.6075 10.0013Z" fill="#8B78FA"/>
</g>
</svg>
