<svg width="99" height="36" viewBox="0 0 99 36" fill="none" xmlns="http://www.w3.org/2000/svg">
<path fill-rule="evenodd" clip-rule="evenodd" d="M25.6174 0.333984H9.89371C4.95759 0.333984 0.956055 4.33552 0.956055 9.27167V24.9954C0.956055 29.9315 4.95759 33.9331 9.89371 33.9331H25.6174C30.5536 33.9331 34.5551 29.9315 34.5551 24.9954V9.27167C34.5551 4.33552 30.5536 0.333984 25.6174 0.333984ZM19.431 29.046L20.5559 29.486L25.0055 27.1519L25.2832 25.9761L22.636 20.9293L28.7631 19.7444L29.1544 18.0883L28.0593 16.0008L11.1304 4.30656L9.64767 5.08483L9.64557 25.6587L10.7406 27.7464L12.3256 28.3667L16.7822 23.9984L19.431 29.046ZM19.9795 17.2794L19.5507 19.0943L22.0999 23.9546L19.5765 25.2786L17.0238 20.4126L15.294 19.7361L11.5132 23.4422L11.5147 6.84252L25.1726 16.2771L19.9795 17.2794ZM13.525 13.5026L12.902 13.8291L12.6959 14.6993L14.1495 17.4746L14.982 17.8012L15.6051 17.4746L15.8112 16.6045L14.3569 13.8291L13.525 13.5026ZM15.8575 12.28L16.4805 11.9536L17.3131 12.28L18.7667 15.0561L18.5606 15.9264L17.9376 16.2521L17.105 15.9256L15.6515 13.1502L15.8575 12.28ZM51.7005 7.64744C52.0555 7.77654 52.3981 7.95775 52.7258 8.18863H52.7234C53.051 8.41957 53.3217 8.72242 53.5303 9.09977C53.7462 9.47468 53.8529 9.93398 53.8529 10.5348C53.8529 11.1356 53.7263 11.6668 53.4731 12.1237C53.2274 12.5756 52.8897 12.9529 52.4652 13.2534C52.0406 13.5537 51.554 13.7796 51.0053 13.9311C50.4617 14.0825 49.8931 14.157 49.2948 14.157C48.4456 14.157 47.6786 14.0081 46.9958 13.7127C46.318 13.4172 45.7594 12.9951 45.3176 12.4464C44.8805 11.8928 44.605 11.2349 44.4858 10.4777L46.5017 10.1723C46.6755 10.86 47.028 11.3913 47.5594 11.7687C48.0981 12.1435 48.7163 12.3323 49.4163 12.3323C49.831 12.3323 50.2208 12.2677 50.5858 12.1386C50.9532 12.0095 51.2486 11.8208 51.4746 11.5725C51.7055 11.3268 51.8222 11.0214 51.8222 10.6614C51.8222 10.5 51.7948 10.3511 51.7402 10.217C51.6856 10.0755 51.6036 9.95135 51.4969 9.84463C51.3951 9.73784 51.261 9.64103 51.0948 9.55412C50.9334 9.46226 50.7472 9.38533 50.5312 9.32074L47.5296 8.43198C47.2713 8.35749 46.9909 8.25817 46.6904 8.13401C46.395 8.00491 46.112 7.83116 45.8439 7.61019C45.5807 7.38427 45.3622 7.10123 45.1908 6.75614C45.0246 6.40608 44.9401 5.97657 44.9401 5.46514C44.9401 4.71784 45.1263 4.09222 45.5037 3.58575C45.8836 3.07679 46.395 2.69446 47.0355 2.44123C47.681 2.19048 48.3985 2.06634 49.183 2.0713C49.98 2.07627 50.69 2.21282 51.3133 2.48344C51.9388 2.7466 52.4602 3.13141 52.8798 3.63788C53.2993 4.14436 53.5948 4.75509 53.766 5.4701L51.6757 5.83257C51.5888 5.42541 51.4224 5.07784 51.1741 4.79233C50.9308 4.50186 50.6329 4.28338 50.2779 4.13194C49.9279 3.9805 49.5529 3.89857 49.1558 3.88864C48.7684 3.88367 48.4085 3.94326 48.0758 4.06739C47.7481 4.18655 47.4799 4.35786 47.2763 4.58379C47.0777 4.80723 46.9784 5.07288 46.9784 5.37328C46.9784 5.65879 47.0653 5.89216 47.2367 6.07588C47.4105 6.25215 47.6215 6.39614 47.8747 6.5029C48.1329 6.60469 48.3936 6.69159 48.6567 6.7611L50.7396 7.34207C51.0252 7.41656 51.3455 7.51833 51.7005 7.64744ZM61.2835 10.9544L63.2671 11.3987L63.2697 11.4013C62.999 12.2901 62.5297 12.9728 61.857 13.452C61.1842 13.9261 60.3599 14.162 59.3868 14.162C58.488 14.162 57.7233 13.9609 57.0878 13.5637C56.4547 13.1614 55.9656 12.6128 55.628 11.9177C55.2928 11.2249 55.124 10.438 55.119 9.56158C55.124 8.67032 55.2978 7.87831 55.6428 7.19064C55.9929 6.49546 56.487 5.95175 57.1275 5.55949C57.768 5.16227 58.5302 4.96365 59.4116 4.96365C60.4022 4.96365 61.2389 5.21192 61.9216 5.71343C62.6118 6.20748 63.0587 6.88524 63.2697 7.74676L61.3332 8.27058C61.1842 7.80137 60.9335 7.43889 60.5834 7.18067C60.2334 6.91752 59.8361 6.78594 59.3892 6.78594C58.8828 6.78594 58.4656 6.9051 58.138 7.14845C57.8078 7.38427 57.567 7.71196 57.4106 8.13157C57.2541 8.55112 57.1771 9.02535 57.1771 9.55907C57.1771 10.3858 57.3609 11.0561 57.7333 11.5677C58.1032 12.0791 58.6544 12.3348 59.3868 12.3348C59.9032 12.3348 60.3103 12.2156 60.6058 11.9797C60.9061 11.7414 61.1321 11.4013 61.2835 10.9544ZM66.8374 9.48702C66.8374 9.15438 66.8771 8.84407 66.9591 8.55851C67.041 8.26807 67.1626 8.00986 67.3289 7.78394C67.5003 7.55802 67.7212 7.37179 67.9919 7.22782C68.26 7.06643 68.5629 6.97209 68.8958 6.94478C69.2357 6.91746 69.5335 6.9423 69.792 7.01677V5.20193C69.5335 5.15972 69.2683 5.14731 68.9921 5.16965C68.7194 5.18703 68.4487 5.23669 68.1856 5.32358C67.9273 5.40551 67.6914 5.51723 67.4755 5.66122C67.2222 5.81763 67.0038 6.01625 66.8226 6.25955C66.7431 6.36631 66.6711 6.48052 66.604 6.59968V5.20193H64.886V13.9161H66.8374V9.48702ZM76.0907 12.0219C76.4407 11.8059 76.7087 11.4956 76.8973 11.0934V11.0959L78.8166 11.6768C78.4835 12.4639 77.9672 13.0722 77.2671 13.5091C76.5744 13.9436 75.8498 14.162 74.9678 14.162C74.0872 14.162 73.3124 13.9708 72.6442 13.5885C71.9793 13.2062 71.4576 12.6773 71.0804 11.9996C70.7106 11.3242 70.5241 10.5423 70.5241 9.66091C70.5241 8.70757 70.7079 7.88326 71.0729 7.18318C71.4379 6.47809 71.9468 5.9319 72.5974 5.5446C73.2473 5.1573 73.9997 4.96365 74.8566 4.96365C75.7603 4.96365 76.5276 5.17716 77.1551 5.6017C77.7908 6.02127 78.2603 6.61464 78.5683 7.38427C78.8756 8.15389 78.9903 9.06008 78.9157 10.1028H72.6096C72.674 10.7284 72.8579 11.2324 73.1612 11.6123C73.5479 12.0964 74.1144 12.3372 74.8566 12.3372C75.3356 12.3372 75.7453 12.2304 76.0907 12.0219ZM76.4855 7.31724C76.1571 6.88276 75.6408 6.66429 74.936 6.66429C74.1388 6.66429 73.5479 6.91255 73.1612 7.40659C72.9101 7.72193 72.7439 8.13157 72.6544 8.63307H76.9367C76.8675 8.06698 76.7182 7.62512 76.4855 7.31724ZM86.8629 5.59673C86.232 5.17219 85.4674 4.95867 84.5637 4.95867C83.7075 4.95867 82.9551 5.15232 82.3045 5.53962C81.6538 5.92692 81.145 6.47311 80.78 7.17816C80.415 7.87831 80.2318 8.70254 80.2318 9.65595C80.2318 10.5372 80.4177 11.3194 80.7875 11.9946C81.1647 12.6724 81.6864 13.2011 82.352 13.5835C83.0195 13.9658 83.7943 14.157 84.6756 14.157C85.5569 14.157 86.2822 13.9385 86.9748 13.5041C87.675 13.0671 88.1913 12.4589 88.5237 11.6718L86.6044 11.0909C86.4158 11.4932 86.1478 11.8034 85.7978 12.0194C85.4524 12.228 85.0426 12.3348 84.5637 12.3348C83.8215 12.3348 83.2556 12.0939 82.8683 11.6098C82.565 11.2299 82.3818 10.726 82.3167 10.1003H88.6228C88.6974 9.05757 88.5834 8.15138 88.2754 7.38176C87.9701 6.61214 87.4986 6.01878 86.8629 5.59921V5.59673ZM84.6431 6.66179C85.3486 6.66179 85.8649 6.88028 86.1926 7.31473C86.426 7.62261 86.5746 8.06454 86.6444 8.63056H82.3615C82.451 8.12906 82.6172 7.71942 82.8683 7.40415C83.2556 6.91007 83.8466 6.66179 84.6431 6.66179ZM98.1365 7.16337C98.2559 7.53828 98.3299 7.89826 98.3624 8.23585C98.3998 8.56855 98.4194 8.83918 98.4194 9.05018V13.9138H96.4506V9.71803C96.4506 9.44496 96.4309 9.1396 96.3936 8.80689C96.3563 8.47174 96.2667 8.15396 96.1283 7.84608C95.994 7.53326 95.7878 7.27755 95.515 7.07894C95.2464 6.88033 94.8793 6.78102 94.4173 6.78102C94.169 6.78102 93.9261 6.82075 93.6826 6.90267C93.4417 6.9846 93.2206 7.12361 93.0225 7.32226C92.8284 7.51589 92.6724 7.78401 92.553 8.12913C92.4363 8.46923 92.3766 8.9037 92.3766 9.4375V13.9163H90.4077V5.20203H92.1432V6.17525C92.3664 5.91209 92.6249 5.68368 92.9254 5.49251C93.4838 5.13252 94.1744 4.95127 94.9913 4.95127C95.6365 4.95127 96.1677 5.05803 96.5877 5.27403C97.0069 5.49002 97.3394 5.7656 97.5877 6.09828C97.836 6.43096 98.0171 6.78598 98.1365 7.16337ZM52.7258 26.0639C52.3981 25.8331 52.0555 25.6518 51.7005 25.5227C51.3455 25.3936 51.0252 25.2919 50.7396 25.2174L48.6567 24.6365C48.3936 24.5669 48.1329 24.48 47.8747 24.3782C47.6215 24.2715 47.4105 24.1275 47.2367 23.9512C47.0653 23.7675 46.9784 23.5341 46.9784 23.2486C46.9784 22.9482 47.0777 22.6825 47.2763 22.4591C47.4799 22.2332 47.7481 22.0619 48.0758 21.9427C48.4085 21.8186 48.7684 21.759 49.1558 21.7665C49.5529 21.7763 49.9279 21.8583 50.2779 22.0072C50.6329 22.1587 50.9308 22.3772 51.1741 22.6677C51.4224 22.9532 51.5888 23.3008 51.6757 23.7079L53.766 23.3454C53.5948 22.6304 53.2993 22.0196 52.8798 21.5132C52.4602 21.0067 51.9388 20.6219 51.3133 20.3587C50.69 20.0906 49.98 19.9517 49.183 19.9466C48.3985 19.9417 47.681 20.0658 47.0355 20.3165C46.395 20.5698 45.8836 20.9522 45.5037 21.4611C45.1263 21.9675 44.9401 22.5932 44.9401 23.3405C44.9401 23.8519 45.0246 24.2813 45.1908 24.6315C45.3622 24.9765 45.5807 25.2596 45.8439 25.4855C46.112 25.7065 46.395 25.8803 46.6904 26.0093C46.9909 26.1335 47.2713 26.2327 47.5296 26.3072L50.5312 27.196C50.7472 27.2606 50.9334 27.3376 51.0948 27.4294C51.261 27.5163 51.3951 27.6132 51.4969 27.7199C51.6036 27.8267 51.6856 27.9508 51.7402 28.0898C51.7948 28.2239 51.8222 28.3729 51.8222 28.5343C51.8222 28.8942 51.7055 29.1996 51.4746 29.4453C51.2486 29.6936 50.9532 29.8824 50.5858 30.009C50.2208 30.1381 49.831 30.2026 49.4163 30.2026C48.7163 30.2026 48.0981 30.0139 47.5594 29.6365C47.028 29.2592 46.6755 28.7279 46.5017 28.0402L44.4858 28.348C44.605 29.1053 44.8805 29.7633 45.3176 30.3169C45.7594 30.8655 46.318 31.2876 46.9958 31.583C47.6786 31.8784 48.4456 32.0274 49.2948 32.0274C49.8931 32.0274 50.4617 31.9529 51.0053 31.8015C51.554 31.65 52.0406 31.4241 52.4652 31.1237C52.8897 30.8232 53.2274 30.4459 53.4731 29.9941C53.7263 29.5372 53.8529 29.006 53.8529 28.4052C53.8529 27.8043 53.7462 27.345 53.5303 26.9701C53.3217 26.5928 53.051 26.2899 52.7234 26.059L52.7258 26.0639ZM56.3778 20.6568H58.3143L58.3193 20.6543V23.0749H60.8764V24.5992H58.3193V28.1172C58.3193 28.4673 58.3217 28.7751 58.3267 29.0383C58.3367 29.3014 58.3938 29.5175 58.4955 29.6837C58.6892 30.0065 58.9995 30.1877 59.4241 30.225C59.8486 30.2622 60.3328 30.2424 60.8764 30.1605V31.7916C60.3005 31.8984 59.7344 31.9454 59.1807 31.9282C58.6321 31.9182 58.1405 31.8189 57.7036 31.6302C57.2666 31.4365 56.9364 31.1337 56.7105 30.7191C56.5119 30.3417 56.4051 29.9569 56.3952 29.5646C56.3828 29.1723 56.3778 28.7279 56.3778 28.2339V24.6017H54.7964V23.0774H56.3778V20.6568ZM68.5629 23.4249C67.9124 23.0327 67.1477 22.8366 66.2714 22.8366C65.395 22.8366 64.6626 23.0302 64.0122 23.4175C63.3617 23.8049 62.8528 24.3435 62.4878 25.0313C62.1229 25.719 61.9391 26.5209 61.9391 27.4345C61.9391 28.3482 62.1179 29.1302 62.4729 29.8228C62.8329 30.5106 63.3393 31.0518 63.9898 31.4441C64.6403 31.8363 65.4025 32.0325 66.2739 32.0325C67.1453 32.0325 67.9075 31.8387 68.5579 31.4515C69.2086 31.0592 69.7147 30.518 70.0749 29.8303C70.4399 29.1351 70.6238 28.3382 70.6238 27.4345C70.6238 26.5308 70.442 25.7438 70.0824 25.0537C69.7221 24.3585 69.216 23.8173 68.5653 23.4225L68.5629 23.4249ZM67.9993 29.4356C67.622 29.952 67.046 30.2101 66.2714 30.2101C65.4968 30.2101 64.9555 29.9594 64.5683 29.4604C64.186 28.9539 63.9948 28.2787 63.9948 27.4345C63.9948 26.8858 64.0743 26.4042 64.2357 25.9896C64.397 25.57 64.6452 25.2448 64.9779 25.0139C65.3156 24.778 65.7476 24.6589 66.269 24.6589C67.0336 24.6589 67.6046 24.9121 67.9869 25.4161C68.3693 25.9177 68.5605 26.5879 68.5605 27.432C68.5605 28.2761 68.3717 28.9166 67.9969 29.4331L67.9993 29.4356ZM75.5364 23.1989C75.7996 23.112 76.0703 23.0624 76.3437 23.045C76.6192 23.0227 76.8844 23.0351 77.1429 23.0772V24.8921C76.8844 24.8176 76.5845 24.7927 76.2467 24.8201C75.9143 24.8474 75.611 24.9417 75.343 25.1031C75.0723 25.2472 74.8511 25.4334 74.6802 25.6593C74.514 25.8852 74.3918 26.1434 74.3104 26.4339C74.2283 26.7193 74.1883 27.0297 74.1883 27.3624V31.7915H72.2371V23.0772H73.9549V24.475C74.0221 24.3558 74.094 24.2417 74.1734 24.1349C74.3552 23.8916 74.5737 23.6929 74.8267 23.5365C75.0425 23.3926 75.2786 23.2808 75.5364 23.1989ZM82.7611 29.3138L80.3282 23.0772H78.3024L81.8255 31.7319L80.3926 35.6645H82.2149L87.0739 23.0772H85.1295L82.7611 29.3138Z" fill="#97A59D"/>
</svg>
