<svg width="107" height="28" viewBox="0 0 107 28" fill="none" xmlns="http://www.w3.org/2000/svg">
<path fill-rule="evenodd" clip-rule="evenodd" d="M15.4656 3.56229C15.1024 1.76513 14.5314 0.604401 13.846 0.292615C13.4914 0.153238 13.114 0.0811644 12.7331 0.0800857C12.4654 0.0792706 12.2015 0.14423 11.9647 0.269259C9.56038 1.60749 10.7456 5.87441 11.1672 6.85531L11.1679 6.8569C11.3916 7.37696 12.0577 8.92567 13.9207 8.89187H14.0538C14.3334 8.88167 14.6073 8.80989 14.856 8.68163C14.8677 8.39676 14.9938 8.0978 15.3395 7.50694C15.4563 7.31995 15.5986 7.15017 15.7622 7.00244C15.8194 6.24809 15.733 4.88651 15.4656 3.56229ZM14.2535 8.50417C13.5528 8.66646 12.8253 8.37452 12.28 7.93312C11.549 7.34107 11.1426 5.99469 11.1426 5.99469C11.1426 5.99469 11.7674 7.08422 12.1084 7.3808C12.6063 7.8075 13.2454 8.03317 13.9008 8.0137C14.8291 7.94364 14.5197 8.44226 14.2535 8.50417ZM14.6457 0.51553C15.2413 1.25121 15.5975 2.47266 15.8041 3.49327C16.0218 4.5458 16.1299 5.61807 16.1264 6.69288C16.4171 6.47549 16.7209 6.27617 17.0361 6.09616C17.5102 5.82428 18.0017 5.58398 18.5075 5.37683C18.502 5.31606 18.4955 5.25321 18.4886 5.18724V5.18722L18.4886 5.18719L18.4886 5.18707L18.4783 5.08607C18.3685 4.03393 17.7648 2.29633 17.084 1.48826C16.4032 0.680185 15.4959 0.547063 15.0697 0.49101C14.9279 0.481429 14.7855 0.489666 14.6457 0.51553ZM23.6432 5.82409C23.621 5.42822 24.1278 5.5018 24.1278 5.5018C24.6673 5.60222 24.6848 6.36008 24.686 6.73373C24.6872 7.10746 24.178 7.03151 24.0005 6.8949C23.9519 6.8575 23.9048 6.78998 23.8615 6.70351L23.8732 6.72797C23.775 6.7683 23.6708 6.79161 23.5649 6.7969C23.5084 6.79863 23.4521 6.78949 23.3991 6.77002C23.12 6.66374 23.2472 6.20368 23.2472 6.20368L23.677 6.10909C23.6989 6.24117 23.7323 6.3709 23.7768 6.49681C23.7054 6.28713 23.655 6.03532 23.6432 5.82409ZM105.603 12.1522C105.259 12.1655 104.924 12.0439 104.669 11.8136C104.55 11.7079 104.456 11.5778 104.393 11.4323C104.329 11.2867 104.298 11.1292 104.301 10.9704C104.297 10.8086 104.327 10.6476 104.391 10.4986C104.454 10.3496 104.549 10.2162 104.669 10.1075C104.924 9.87665 105.259 9.75468 105.603 9.76766C105.952 9.75336 106.293 9.87519 106.554 10.1075C106.674 10.2161 106.769 10.3496 106.833 10.4986C106.896 10.6475 106.927 10.8085 106.923 10.9704C106.926 11.1293 106.894 11.2869 106.831 11.4324C106.767 11.5779 106.672 11.7079 106.554 11.8136C106.293 12.0454 105.952 12.1668 105.603 12.1522ZM104.731 13.7625L105.603 13.9202L106.496 13.7648V24.7206H104.725L104.731 13.7625ZM39.9762 9.78754H38.2152V24.7183H39.9762V19.3467V19.1338C39.9917 18.4311 40.1603 17.7392 40.4713 17.107C40.7868 16.4835 41.2727 15.9624 41.8726 15.6041C42.5097 15.2327 43.2372 15.0448 43.9745 15.0611C45.1251 15.0603 46.0009 15.3931 46.6019 16.0595C47.2029 16.7259 47.5034 17.7119 47.5034 19.0174V24.7183H49.2877V18.7266C49.2869 17.6282 49.0993 16.694 48.7249 15.924C48.3754 15.1829 47.8068 14.567 47.0959 14.1596C46.3843 13.7525 45.5183 13.5489 44.4976 13.5489C43.5978 13.5338 42.71 13.7578 41.9251 14.1981C41.163 14.6368 40.5305 15.2694 40.0918 16.0315C40.0519 16.0988 40.0133 16.1673 39.9762 16.2369V9.78754ZM24.1371 20.0065H22.3143C22.3538 20.9528 22.7015 21.8603 23.3045 22.5907C23.9117 23.338 24.7291 23.9219 25.7567 24.3423C26.7843 24.7627 27.9637 24.9729 29.295 24.9729C30.63 24.9745 31.7904 24.7934 32.776 24.4299C33.7615 24.0663 34.5295 23.549 35.0799 22.878C35.6292 22.2063 35.9214 21.361 35.9043 20.4934C35.9036 19.7305 35.7385 19.1003 35.4092 18.6028C35.0815 18.1054 34.5365 17.7111 33.7744 17.4199C33.0122 17.1288 31.9975 16.8991 30.7301 16.7309L27.9766 16.3807C26.7108 16.2257 25.8155 15.9735 25.2908 15.6239C25.0406 15.4656 24.8365 15.2443 24.6987 14.9821C24.561 14.72 24.4946 14.4263 24.5061 14.1304C24.5069 13.2873 24.9043 12.6299 25.6983 12.1581C26.4924 11.6863 27.5558 11.4504 28.8886 11.4504C29.7121 11.4355 30.5319 11.5635 31.3116 11.8288C31.9442 12.0393 32.5163 12.3999 32.9791 12.8798C33.3903 13.32 33.6487 13.881 33.716 14.4796H35.5388C35.5031 13.5994 35.1743 12.7564 34.6047 12.0845C34.0231 11.4065 33.247 10.8767 32.2762 10.4953C31.3054 10.1138 30.1871 9.92302 28.9213 9.92302C27.6796 9.92302 26.5897 10.0943 25.6516 10.4369C24.7136 10.7794 23.9864 11.2706 23.4703 11.9105C22.9535 12.5484 22.6785 13.3481 22.6938 14.169C22.6938 15.2549 23.083 16.1179 23.8615 16.7578C24.64 17.3978 25.914 17.8189 27.6835 18.0213L30.4756 18.3717C31.8207 18.5265 32.7612 18.7788 33.2968 19.1283C33.554 19.2866 33.7643 19.5109 33.9058 19.7778C34.0472 20.0448 34.1147 20.3446 34.1014 20.6464C34.1053 21.5129 33.677 22.1948 32.8168 22.6923C31.9566 23.1897 30.7962 23.4385 29.3358 23.4385C28.4576 23.4539 27.5838 23.3091 26.7575 23.0111C26.066 22.7665 25.4463 22.3536 24.9545 21.8094C24.5059 21.305 24.2208 20.6763 24.1371 20.0065ZM61.8031 22.2554C61.9193 22.0833 62.0293 21.9075 62.1332 21.7283L62.4138 24.7182L64.2367 24.7205L63.7135 19.2719L64.2367 13.8033H62.4138L62.1363 16.7767C62.0345 16.6023 61.9265 16.4312 61.8124 16.2638C61.2563 15.4478 60.5245 14.7667 59.6708 14.2704C58.8303 13.7887 57.8767 13.5396 56.9079 13.5488C55.9096 13.5297 54.9247 13.7811 54.0575 14.2763C53.2368 14.7545 52.5628 15.4483 52.1086 16.2825C51.6368 17.1365 51.4009 18.1322 51.4009 19.2695C51.4009 20.3945 51.6368 21.3832 52.1086 22.2356C52.5624 23.0704 53.2365 23.7647 54.0575 24.2429C54.9247 24.7382 55.9096 24.9895 56.9079 24.9705C57.8763 24.9807 58.83 24.7328 59.6708 24.2523C60.5235 23.7567 61.2526 23.0739 61.8031 22.2554ZM53.2226 19.2695C53.2072 20.0314 53.3839 20.7848 53.7364 21.4602C54.0591 22.0734 54.5438 22.5863 55.1377 22.9433C55.761 23.307 56.4726 23.4916 57.194 23.4769C57.9417 23.484 58.6787 23.3003 59.3357 22.9433C60.0104 22.5698 60.6038 22.0657 61.0814 21.4602C61.6081 20.7984 62.0299 20.0596 62.3321 19.2695C62.0331 18.4719 61.6111 17.7261 61.0814 17.059C60.6035 16.4536 60.0101 15.9491 59.3357 15.5748C58.6785 15.2187 57.9415 15.0354 57.194 15.0423C56.4728 15.0278 55.7613 15.2121 55.1377 15.5748C54.544 15.9325 54.0594 16.4458 53.7364 17.059C53.3823 17.741 53.2056 18.5013 53.2226 19.2695ZM68.1735 13.8032H66.4095L67.0293 17.1896V24.7204H68.7939V19.5379C68.7939 18.6333 68.9655 17.8482 69.3084 17.1826C69.623 16.5496 70.1143 16.022 70.7242 15.6646C71.3532 15.3083 72.0657 15.1276 72.7888 15.1414C73.1093 15.1416 73.4297 15.1611 73.7482 15.1998C74.0409 15.2309 74.3296 15.2891 74.6117 15.3738V13.7646V13.7623C74.3746 13.686 74.131 13.6325 73.884 13.6023C73.5979 13.5639 73.3099 13.5444 73.0212 13.5439C72.3537 13.5326 71.6916 13.6681 71.0824 13.941C70.5215 14.2012 70.0223 14.5782 69.6183 15.0468C69.1985 15.5408 68.8767 16.1098 68.6688 16.7237L68.6631 16.7406L68.1735 13.8032ZM76.2986 13.8034H78.0626V17.0592C78.2068 16.7872 78.3655 16.5225 78.538 16.2662C79.0903 15.4459 79.8233 14.7632 80.6808 14.2705C81.5396 13.7976 82.5044 13.5504 83.4844 13.552C84.4651 13.5537 85.4292 13.8041 86.286 14.2799C87.1064 14.7581 87.7798 15.452 88.2341 16.286C88.7056 17.1424 88.9413 18.1381 88.9413 19.2731C88.9413 20.3973 88.7056 21.386 88.2341 22.2392C87.7805 23.0739 87.1064 23.7682 86.286 24.2465C85.4305 24.7222 84.4684 24.9725 83.4897 24.9742C82.511 24.9758 81.5482 24.7287 80.6914 24.2559C79.8365 23.759 79.1042 23.0767 78.5486 22.259C78.372 22.0001 78.2098 21.7322 78.0626 21.4568V27.9202H76.2986V13.8034ZM77.2475 19.2696L77.2478 19.2708L77.2475 19.272V19.2696ZM87.1376 19.2709C87.1539 18.5029 86.9771 17.7431 86.6237 17.0614C86.2979 16.4453 85.8079 15.9315 85.208 15.5772C84.5809 15.2154 83.8671 15.0314 83.1434 15.0447C82.3991 15.0402 81.6654 15.2233 81.0099 15.5772C80.3332 15.9478 79.7392 16.4528 79.2644 17.0614C78.74 17.7303 78.3222 18.4759 78.0242 19.272C78.3255 20.0604 78.7433 20.799 79.2644 21.4626C79.7385 22.0712 80.3332 22.5759 81.0099 22.9457C81.6648 23.3006 82.3991 23.4842 83.1434 23.4793C83.8678 23.493 84.5816 23.3085 85.208 22.9457C85.8086 22.5922 86.2986 22.0787 86.6237 21.4626C86.9765 20.7868 87.1533 20.0331 87.1376 19.2709ZM87.1376 19.2709L87.1376 19.272V19.2696L87.1376 19.2709ZM93.663 24.243C94.6258 24.7279 95.7342 24.9705 96.989 24.9705C97.9359 24.9659 98.8762 24.8061 99.7714 24.4975C100.646 24.2157 101.463 23.7808 102.185 23.213V21.8117C101.48 22.3392 100.698 22.7543 99.8675 23.0425C99.0179 23.3454 98.1227 23.4998 97.2208 23.4991C96.2388 23.4991 95.3853 23.3212 94.6615 22.9654C93.9683 22.6379 93.3849 22.1157 92.9836 21.4626C92.679 20.9436 92.4877 20.3686 92.4193 19.7752H102.496C102.496 18.5296 102.253 17.4397 101.769 16.5055C101.312 15.5987 100.605 14.8417 99.7317 14.3242C98.859 13.8072 97.8346 13.5488 96.658 13.5488C95.4561 13.5488 94.3993 13.7913 93.4875 14.2763C92.6035 14.7362 91.8619 15.4302 91.3448 16.2825C90.8283 17.1365 90.5694 18.1255 90.5694 19.2497C90.5687 20.3878 90.8435 21.3831 91.3944 22.2356C91.954 23.0987 92.738 23.7927 93.663 24.243ZM92.448 18.3576C92.5261 17.8777 92.6834 17.4123 92.9154 16.9808C93.2578 16.3677 93.7696 15.8663 94.3894 15.5363C95.078 15.1809 95.8448 15.0042 96.6196 15.0225C97.3473 15.0055 98.0677 15.1721 98.7133 15.5071C99.3013 15.8269 99.7893 16.3034 100.123 16.8838C100.381 17.343 100.556 17.8417 100.644 18.3576H92.448ZM3.42593 10.2266C3.22391 9.63226 2.93432 8.7284 2.86892 8.25317C2.76733 7.50465 2.94482 7.47545 3.21924 7.43572H3.23326C3.45016 7.43097 3.57251 7.95562 3.71965 8.58655C3.75312 8.73005 3.78786 8.87905 3.8253 9.02856C3.91217 9.36766 4.0396 9.69503 4.20481 10.0036C3.93502 10.0363 3.67212 10.1115 3.42593 10.2266ZM5.4033 10.4833C6.696 10.913 7.42465 13.4365 7.51338 14.066C7.52159 14.1197 7.52622 14.1734 7.52861 14.2271C7.36889 14.262 7.21262 14.3108 7.06145 14.3731C6.2067 14.7573 5.57963 15.5408 5.4395 16.343C5.18948 16.2915 4.93455 16.2677 4.67931 16.2718C4.49829 16.2754 4.31786 16.2938 4.13981 16.3267C3.4964 15.4217 2.92771 14.0449 2.79576 13.1201C2.67314 12.2513 2.67548 11.5109 3.00128 10.9901C3.14607 10.7577 3.6914 10.3525 4.49364 10.3374C4.80296 10.3339 5.1106 10.3833 5.4033 10.4833ZM3.56296 14.5038C3.56296 14.5038 3.79884 15.4789 4.36986 15.9051C4.79608 16.2216 5.21296 15.6377 4.72134 15.5466C4.15969 15.438 3.89424 15.0157 3.70404 14.7131L3.70403 14.7131L3.70402 14.7131L3.70399 14.713L3.70397 14.713C3.65298 14.6319 3.60739 14.5594 3.56296 14.5038ZM6.26615 18.7264C5.75001 18.3293 5.46391 17.6754 5.41254 16.7774V16.6944C5.17444 16.6423 4.93108 16.618 4.68738 16.6221C4.30998 16.6256 3.93738 16.7071 3.59296 16.8614C3.24854 17.0158 2.93972 17.2396 2.68588 17.5189C1.86846 18.4075 1.12579 19.8544 0.767295 20.9824C0.408802 22.1104 0.345743 24.3128 0.492877 25.045C0.640011 25.7772 1.12813 26.4603 1.61507 26.6459C1.94871 26.7418 2.29602 26.7813 2.64267 26.7627C3.17166 26.7534 3.74034 26.6576 4.03811 26.4416C4.44694 26.143 5.16553 23.9783 5.65586 22.5013C5.80417 22.0545 5.9316 21.6706 6.02326 21.4203C6.32102 20.6163 6.51145 19.7764 6.58961 18.9225C6.47566 18.8678 6.36733 18.8021 6.26615 18.7264ZM2.9965 26.3949C1.92685 26.486 1.37101 26.1204 0.961136 25.3357C0.717719 24.8993 0.620714 24.3963 0.684386 23.9006C0.684386 23.9006 0.810501 24.9131 1.42823 25.4654C1.80424 25.8029 2.34723 25.8974 3.13662 25.7912C3.54299 25.7374 3.83026 26.3237 2.99766 26.3949H2.9965ZM6.92955 19.0685C7.10476 19.1293 7.28381 19.1785 7.46557 19.2157C7.9165 19.3034 8.37472 19.348 8.83413 19.3488C8.82128 19.6687 8.80142 20.0086 8.76758 20.3169C8.64614 21.4343 7.8287 24.105 6.92836 25.2821C5.98369 26.5222 5.13708 26.6285 4.46564 26.4895C4.62328 26.2653 4.83114 25.8554 5.14175 25.0462C5.43114 24.2906 5.7307 23.3904 5.97378 22.6599L5.98602 22.6231C6.13433 22.177 6.26278 21.7917 6.35269 21.5453C6.6489 20.7474 6.84274 19.9152 6.92955 19.0685ZM5.41967 26.2092C5.62747 26.1615 5.81329 26.0456 5.94749 25.8799H5.95099C6.05259 25.734 5.91129 25.5156 5.52944 25.6931C5.14759 25.8706 5.10906 25.9781 5.09037 26.0703C5.04833 26.2711 5.20948 26.2595 5.41967 26.2092ZM11.5386 14.2016H11.1602C9.83253 14.2249 7.77387 14.4351 7.20514 14.6896C6.32819 15.0879 5.71746 15.9672 5.76184 16.7577C5.80154 17.4584 5.99538 18.0784 6.47999 18.4498C6.96458 18.8211 7.9408 19.0185 9.08634 18.9974H9.24751C9.52152 18.984 9.79446 18.9544 10.065 18.9087C10.0509 18.6635 10.0439 18.4159 10.0474 18.1613C10.0603 16.8114 11.0516 16.1143 11.6437 15.6986L11.6741 15.6764C11.731 15.6373 11.7907 15.6026 11.8527 15.5724C11.6532 15.1425 11.5462 14.6755 11.5386 14.2016ZM8.27712 18.7475C7.33128 18.6705 6.73222 18.4358 6.40877 18.0668C6.0853 17.6977 6.52554 17.3825 6.68667 17.7059C7.11873 18.5817 9.15759 18.7218 9.15759 18.7218C8.86611 18.7648 8.57059 18.7734 8.27712 18.7475ZM16.815 21.4682C17.3562 22.4766 17.8974 23.4849 18.0647 24.2849C18.3554 25.671 17.9059 26.6215 17.4482 26.8912C17.2192 27.0244 16.5957 27.1867 15.8951 27.1995C15.4845 27.2112 15.0745 27.1601 14.6795 27.0477C13.5771 26.7196 12.3895 25.3743 11.467 23.0996C10.5445 20.8248 10.381 19.3523 10.3927 18.1612C10.4042 16.9923 11.2636 16.3868 11.8386 15.9817L11.871 15.9588C12.1326 15.7755 12.5378 15.7195 12.9021 15.7125C13.1757 15.7093 13.4491 15.7285 13.7196 15.7697C14.7362 15.9728 15.0526 17.0298 15.4051 18.2071C15.5165 18.5795 15.6316 18.9639 15.7736 19.3371C16.0232 19.9932 16.4191 20.7307 16.815 21.4682ZM17.155 26.6717C17.35 26.596 17.5117 26.4537 17.6116 26.27V26.2677C17.6327 26.232 17.6146 26.2426 17.5557 26.2769C17.4449 26.3416 17.1897 26.4905 16.7802 26.5736C16.0956 26.7158 15.5935 26.5855 15.1024 26.458L15.0753 26.451C14.7591 26.3692 14.5323 26.205 14.3551 26.0768C14.12 25.9067 13.9725 25.7999 13.82 26.0329C13.6974 26.2245 14.2602 26.5374 14.7997 26.7336C15.5701 26.9736 16.3983 26.9519 17.155 26.6717ZM20.4987 23.3541C20.1829 21.8003 19.7008 20.7852 19.1121 19.5458L19.1119 19.5454C19.0171 19.3458 18.9196 19.1405 18.8195 18.9261C18.0978 17.38 17.1683 16.3746 16.484 16.0826C16.1857 15.9522 15.8717 15.861 15.5498 15.8117L15.4202 15.9717C15.3099 16.1074 15.1795 16.2255 15.0337 16.322C15.0617 16.3652 15.0885 16.4085 15.1142 16.4539C15.3761 16.9053 15.5452 17.4658 15.7217 18.0509L15.7402 18.1121L15.7449 18.1278C15.8532 18.4884 15.9651 18.8612 16.0999 19.2168C16.3416 19.8532 16.7386 20.5936 17.1228 21.3094C17.6669 22.3219 18.2286 23.3693 18.4073 24.2182C18.5526 24.8428 18.5405 25.4936 18.3723 26.1124C18.2925 26.3919 18.1593 26.6532 17.9799 26.8819C18.4136 26.9224 18.851 26.8723 19.2644 26.7347C20.0783 26.4872 20.8654 25.1583 20.4987 23.3541ZM19.3403 26.4556C18.9199 26.6437 18.44 26.6729 18.496 26.4311C18.5781 26.0745 18.7354 26.085 19.0008 26.1027H19.0008C19.0526 26.1061 19.1084 26.1098 19.1687 26.1112C19.7011 26.1228 20.1951 25.4304 20.1951 25.4304C20.1951 25.4304 19.8646 26.221 19.3403 26.4556ZM15.3651 9.9368C15.7169 10.293 16.1685 10.5341 16.6602 10.6281C16.7149 11.2623 16.6775 11.901 16.5492 12.5245C16.2106 14.3228 15.8602 14.8857 15.1596 15.7404C15.0672 15.8531 14.9577 15.9504 14.835 16.0289C14.5695 15.7125 14.2035 15.4969 13.798 15.4181H13.7875C13.4946 15.3739 13.1986 15.3537 12.9024 15.3574C12.6616 15.3586 12.4218 15.3876 12.1877 15.4438C12.0021 15.0644 11.8643 14.5552 11.8981 13.7039C11.9504 12.4018 12.5503 10.9091 12.7521 10.4071L12.7553 10.3992C12.9463 9.95395 13.2293 9.55406 13.5855 9.22563C13.7023 9.23728 13.819 9.23728 13.9358 9.23728H14.0807C14.3623 9.22444 14.6393 9.16034 14.898 9.0481C14.8975 9.05512 14.8975 9.06214 14.898 9.06916C14.9717 9.39554 15.1333 9.69557 15.3651 9.9368ZM12.5112 12.082C12.5112 12.082 11.8106 13.9935 12.4901 14.9709C12.5119 15.0202 12.5499 15.0604 12.5979 15.0848C12.6458 15.1092 12.7008 15.1164 12.7534 15.1049C12.8059 15.0936 12.853 15.0643 12.8865 15.0223C12.9201 14.9802 12.938 14.9278 12.9374 14.874C12.936 14.7126 12.878 14.6334 12.8031 14.5311C12.6277 14.2916 12.3598 13.9258 12.5112 12.082ZM23.5685 6.97211C23.61 6.97105 23.6514 6.96714 23.6923 6.96046C23.7658 7.36504 23.7356 7.78161 23.6047 8.17143C23.4634 8.49251 23.2264 8.9596 22.1287 9.66024C21.3078 10.1811 19.7185 10.3609 18.4632 10.3843C17.9236 10.4033 17.3833 10.3763 16.8482 10.3037C15.6455 10.0807 15.3068 9.32982 15.2402 8.99C15.1737 8.65017 15.1596 8.4937 15.6408 7.67394C16.1219 6.85418 18.1537 5.81256 19.2199 5.48793C19.8354 5.31319 20.4717 5.22207 21.1116 5.21702C21.5379 5.20409 21.9644 5.23461 22.3844 5.3081C22.8212 5.40152 23.1376 5.74834 23.3186 6.00874L23.2089 6.03326C23.178 6.04024 23.1495 6.05542 23.1265 6.0772C23.1035 6.09898 23.0867 6.12657 23.078 6.15705C23.015 6.38476 22.9975 6.80511 23.335 6.93357C23.4097 6.96125 23.4889 6.97436 23.5685 6.97211ZM15.6677 8.80784C15.3127 8.86617 15.5415 9.48629 16.5458 9.90081C17.863 10.4439 20.2463 10.0059 20.2463 10.0059C20.2463 10.0059 17.6411 10.0877 16.7431 9.68593C16.2666 9.47211 16.1041 9.20883 15.991 9.02564C15.8984 8.87571 15.839 8.77943 15.6677 8.80784Z" fill="#97A59D"/>
</svg>
