<svg width="181" height="45" viewBox="0 0 181 45" fill="none" xmlns="http://www.w3.org/2000/svg">
<path d="M35.7642 24.6188C35.7642 34.2447 27.9608 42.0481 18.3347 42.0481C8.70871 42.0481 0.905273 34.2447 0.905273 24.6188C0.905273 14.9928 8.70871 7.18945 18.3347 7.18945C27.9608 7.18945 35.7642 14.9928 35.7642 24.6188Z" fill="#8157FF"/>
<path d="M35.7642 24.6188C35.7642 34.2447 27.9608 42.0481 18.3347 42.0481C8.70871 42.0481 0.905273 34.2447 0.905273 24.6188C0.905273 14.9928 8.70871 7.18945 18.3347 7.18945C27.9608 7.18945 35.7642 14.9928 35.7642 24.6188Z" fill="url(#paint0_linear_461_5521)"/>
<g filter="url(#filter0_d_461_5521)">
<path d="M39.2425 24.6176C39.7238 24.6176 40.1158 24.2272 40.0966 23.7463C39.994 21.1826 39.4392 18.6548 38.4556 16.2802C37.3607 13.6369 35.7559 11.2352 33.7328 9.21207C31.7097 7.18899 29.3079 5.5842 26.6646 4.48932C24.2899 3.50571 21.7621 2.95094 19.1984 2.84834C18.7175 2.82909 18.3271 3.22108 18.3271 3.70238L18.3272 23.7461C18.3272 24.2274 18.7173 24.6176 19.1986 24.6176L39.2425 24.6176Z" fill="#F7755D"/>
<path d="M39.2425 24.6176C39.7238 24.6176 40.1158 24.2272 40.0966 23.7463C39.994 21.1826 39.4392 18.6548 38.4556 16.2802C37.3607 13.6369 35.7559 11.2352 33.7328 9.21207C31.7097 7.18899 29.3079 5.5842 26.6646 4.48932C24.2899 3.50571 21.7621 2.95094 19.1984 2.84834C18.7175 2.82909 18.3271 3.22108 18.3271 3.70238L18.3272 23.7461C18.3272 24.2274 18.7173 24.6176 19.1986 24.6176L39.2425 24.6176Z" fill="url(#paint1_linear_461_5521)"/>
</g>
<g filter="url(#filter1_d_461_5521)">
<path d="M6.12277 24.6095C5.64147 24.6095 5.24827 24.2189 5.28034 23.7386C5.43248 21.4596 6.17974 19.2547 7.45435 17.3471C8.89073 15.1974 10.9323 13.522 13.3209 12.5326C15.7095 11.5432 18.3379 11.2843 20.8736 11.7887C23.4094 12.2931 25.7386 13.5381 27.5668 15.3662C29.3949 17.1944 30.6399 19.5236 31.1443 22.0593C31.6487 24.595 31.3898 27.2233 30.4004 29.6119C29.4111 32.0005 27.7356 34.0421 25.5859 35.4785C23.6783 36.7531 21.4733 37.5003 19.1943 37.6525C18.714 37.6845 18.3234 37.2913 18.3234 36.81L18.3234 33.3242C18.3234 32.8429 18.7148 32.4577 19.1931 32.4043C20.4367 32.2656 21.6335 31.8307 22.6809 31.1309C23.9707 30.2691 24.976 29.0441 25.5696 27.611C26.1633 26.1778 26.3186 24.6008 26.016 23.0794C25.7133 21.5579 24.9663 20.1604 23.8694 19.0635C22.7725 17.9666 21.375 17.2197 19.8535 16.917C18.3321 16.6144 16.7551 16.7697 15.3219 17.3633C13.8887 17.957 12.6638 18.9623 11.802 20.2521C11.1021 21.2995 10.6672 22.4963 10.5285 23.7398C10.4751 24.2182 10.09 24.6095 9.60867 24.6095L6.12277 24.6095Z" fill="#E9EEFF"/>
<path d="M6.12277 24.6095C5.64147 24.6095 5.24827 24.2189 5.28034 23.7386C5.43248 21.4596 6.17974 19.2547 7.45435 17.3471C8.89073 15.1974 10.9323 13.522 13.3209 12.5326C15.7095 11.5432 18.3379 11.2843 20.8736 11.7887C23.4094 12.2931 25.7386 13.5381 27.5668 15.3662C29.3949 17.1944 30.6399 19.5236 31.1443 22.0593C31.6487 24.595 31.3898 27.2233 30.4004 29.6119C29.4111 32.0005 27.7356 34.0421 25.5859 35.4785C23.6783 36.7531 21.4733 37.5003 19.1943 37.6525C18.714 37.6845 18.3234 37.2913 18.3234 36.81L18.3234 33.3242C18.3234 32.8429 18.7148 32.4577 19.1931 32.4043C20.4367 32.2656 21.6335 31.8307 22.6809 31.1309C23.9707 30.2691 24.976 29.0441 25.5696 27.611C26.1633 26.1778 26.3186 24.6008 26.016 23.0794C25.7133 21.5579 24.9663 20.1604 23.8694 19.0635C22.7725 17.9666 21.375 17.2197 19.8535 16.917C18.3321 16.6144 16.7551 16.7697 15.3219 17.3633C13.8887 17.957 12.6638 18.9623 11.802 20.2521C11.1021 21.2995 10.6672 22.4963 10.5285 23.7398C10.4751 24.2182 10.09 24.6095 9.60867 24.6095L6.12277 24.6095Z" fill="url(#paint2_linear_461_5521)"/>
</g>
<path d="M53.8496 39.7854C52.5221 39.7854 51.4118 39.5803 50.5187 39.17C49.6378 38.7476 48.9378 38.1382 48.4189 37.3417C47.912 36.5331 47.55 35.5556 47.3327 34.4091C47.1155 33.2506 47.0069 31.9352 47.0069 30.4629L47.0069 27.6208L51.6049 27.6208L51.6049 30.8249C51.6049 32.5386 51.7497 33.7695 52.0393 34.5177C52.329 35.266 52.9022 35.6401 53.759 35.6401C54.3383 35.6401 54.7728 35.5073 55.0624 35.2418C55.3641 34.9643 55.5632 34.5298 55.6598 33.9385C55.7684 33.3351 55.8227 32.5507 55.8227 31.5852C55.8227 30.3905 55.5693 29.2983 55.0624 28.3087C54.5676 27.3191 53.8133 26.2934 52.7996 25.2314L50.4463 22.8057C49.7947 22.1299 49.2033 21.4118 48.6723 20.6515C48.1534 19.8913 47.737 19.0465 47.4233 18.1173C47.1216 17.1759 46.9707 16.126 46.9707 14.9675C46.9707 13.29 47.1759 11.872 47.5862 10.7135C47.9965 9.55497 48.6904 8.68003 49.6679 8.0887C50.6455 7.4853 51.985 7.18359 53.6866 7.18359C54.9659 7.18359 56.0158 7.38272 56.8364 7.78096C57.6691 8.16714 58.3148 8.74037 58.7734 9.50066C59.244 10.2489 59.5759 11.1661 59.769 12.2522C59.9621 13.3262 60.0586 14.5572 60.0586 15.945L60.0586 17.9181L55.5874 17.9181L55.5874 15.6373C55.5874 14.6718 55.5331 13.8693 55.4244 13.2297C55.3279 12.5901 55.1408 12.1134 54.8633 11.7996C54.5857 11.4738 54.1814 11.3109 53.6504 11.3109C53.1436 11.3109 52.7332 11.4255 52.4195 11.6548C52.1057 11.872 51.8764 12.216 51.7316 12.6866C51.5988 13.1452 51.5325 13.7426 51.5325 14.4787C51.5325 15.1425 51.6169 15.7157 51.7859 16.1984C51.9549 16.6812 52.2143 17.1458 52.5643 17.5923C52.9143 18.0388 53.3487 18.5396 53.8677 19.0948L56.4925 21.9368C57.7476 23.2884 58.7251 24.6943 59.425 26.1546C60.125 27.6148 60.475 29.244 60.475 31.0421C60.475 32.9489 60.2698 34.5539 59.8595 35.8573C59.4492 37.1486 58.7613 38.1261 57.7958 38.7898C56.8304 39.4536 55.515 39.7854 53.8496 39.7854Z" fill="#1C2339"/>
<path d="M53.8496 39.7854C52.5221 39.7854 51.4118 39.5803 50.5187 39.17C49.6378 38.7476 48.9378 38.1382 48.4189 37.3417C47.912 36.5331 47.55 35.5556 47.3327 34.4091C47.1155 33.2506 47.0069 31.9352 47.0069 30.4629L47.0069 27.6208L51.6049 27.6208L51.6049 30.8249C51.6049 32.5386 51.7497 33.7695 52.0393 34.5177C52.329 35.266 52.9022 35.6401 53.759 35.6401C54.3383 35.6401 54.7728 35.5073 55.0624 35.2418C55.3641 34.9643 55.5632 34.5298 55.6598 33.9385C55.7684 33.3351 55.8227 32.5507 55.8227 31.5852C55.8227 30.3905 55.5693 29.2983 55.0624 28.3087C54.5676 27.3191 53.8133 26.2934 52.7996 25.2314L50.4463 22.8057C49.7947 22.1299 49.2033 21.4118 48.6723 20.6515C48.1534 19.8913 47.737 19.0465 47.4233 18.1173C47.1216 17.1759 46.9707 16.126 46.9707 14.9675C46.9707 13.29 47.1759 11.872 47.5862 10.7135C47.9965 9.55497 48.6904 8.68003 49.6679 8.0887C50.6455 7.4853 51.985 7.18359 53.6866 7.18359C54.9659 7.18359 56.0158 7.38272 56.8364 7.78096C57.6691 8.16714 58.3148 8.74037 58.7734 9.50066C59.244 10.2489 59.5759 11.1661 59.769 12.2522C59.9621 13.3262 60.0586 14.5572 60.0586 15.945L60.0586 17.9181L55.5874 17.9181L55.5874 15.6373C55.5874 14.6718 55.5331 13.8693 55.4244 13.2297C55.3279 12.5901 55.1408 12.1134 54.8633 11.7996C54.5857 11.4738 54.1814 11.3109 53.6504 11.3109C53.1436 11.3109 52.7332 11.4255 52.4195 11.6548C52.1057 11.872 51.8764 12.216 51.7316 12.6866C51.5988 13.1452 51.5325 13.7426 51.5325 14.4787C51.5325 15.1425 51.6169 15.7157 51.7859 16.1984C51.9549 16.6812 52.2143 17.1458 52.5643 17.5923C52.9143 18.0388 53.3487 18.5396 53.8677 19.0948L56.4925 21.9368C57.7476 23.2884 58.7251 24.6943 59.425 26.1546C60.125 27.6148 60.475 29.244 60.475 31.0421C60.475 32.9489 60.2698 34.5539 59.8595 35.8573C59.4492 37.1486 58.7613 38.1261 57.7958 38.7898C56.8304 39.4536 55.515 39.7854 53.8496 39.7854Z" fill="url(#paint3_linear_461_5521)" fill-opacity="0.5"/>
<path d="M62.4134 39.4234L62.4134 7.56374L67.2648 7.56374L67.2648 20.4524L71.6093 20.4524L71.6093 7.56374L76.4607 7.56374L76.4607 39.4234L71.6093 39.4234L71.6093 24.6159L67.2648 24.6159L67.2648 39.4234L62.4134 39.4234Z" fill="#1C2339"/>
<path d="M62.4134 39.4234L62.4134 7.56374L67.2648 7.56374L67.2648 20.4524L71.6093 20.4524L71.6093 7.56374L76.4607 7.56374L76.4607 39.4234L71.6093 39.4234L71.6093 24.6159L67.2648 24.6159L67.2648 39.4234L62.4134 39.4234Z" fill="url(#paint4_linear_461_5521)" fill-opacity="0.5"/>
<path d="M86.4546 39.7854C84.8012 39.7854 83.4496 39.4355 82.3997 38.7355C81.3618 38.0356 80.5955 36.9977 80.1007 35.622C79.6059 34.2462 79.3585 32.5446 79.3585 30.5172L79.3585 15.945C79.3585 14.1107 79.5999 12.5418 80.0826 11.2385C80.5653 9.93511 81.3316 8.93346 82.3816 8.23351C83.4315 7.53357 84.8073 7.18359 86.5089 7.18359C87.7881 7.18359 88.8682 7.38272 89.7492 7.78096C90.6302 8.17921 91.3422 8.75848 91.8852 9.51876C92.4283 10.267 92.8205 11.1842 93.0619 12.2703C93.3153 13.3443 93.442 14.5692 93.442 15.945L93.442 30.5172C93.442 32.5446 93.2007 34.2462 92.7179 35.622C92.2473 36.9977 91.4991 38.0356 90.4733 38.7355C89.4475 39.4355 88.1079 39.7854 86.4546 39.7854ZM86.4546 35.5858C87.058 35.5858 87.5105 35.4047 87.8122 35.0427C88.1139 34.6807 88.3131 34.1316 88.4096 33.3954C88.5182 32.6472 88.5725 31.7059 88.5725 30.5715L88.5725 15.7278C88.5725 14.34 88.4398 13.2719 88.1743 12.5237C87.9209 11.7634 87.3657 11.3833 86.5089 11.3833C85.6279 11.3833 85.0305 11.7514 84.7168 12.4875C84.403 13.2116 84.2461 14.2856 84.2461 15.7097L84.2461 30.5715C84.2461 31.73 84.2944 32.6834 84.3909 33.4316C84.4995 34.1678 84.7107 34.7108 85.0245 35.0608C85.3503 35.4108 85.827 35.5858 86.4546 35.5858Z" fill="#1C2339"/>
<path d="M86.4546 39.7854C84.8012 39.7854 83.4496 39.4355 82.3997 38.7355C81.3618 38.0356 80.5955 36.9977 80.1007 35.622C79.6059 34.2462 79.3585 32.5446 79.3585 30.5172L79.3585 15.945C79.3585 14.1107 79.5999 12.5418 80.0826 11.2385C80.5653 9.93511 81.3316 8.93346 82.3816 8.23351C83.4315 7.53357 84.8073 7.18359 86.5089 7.18359C87.7881 7.18359 88.8682 7.38272 89.7492 7.78096C90.6302 8.17921 91.3422 8.75848 91.8852 9.51876C92.4283 10.267 92.8205 11.1842 93.0619 12.2703C93.3153 13.3443 93.442 14.5692 93.442 15.945L93.442 30.5172C93.442 32.5446 93.2007 34.2462 92.7179 35.622C92.2473 36.9977 91.4991 38.0356 90.4733 38.7355C89.4475 39.4355 88.1079 39.7854 86.4546 39.7854ZM86.4546 35.5858C87.058 35.5858 87.5105 35.4047 87.8122 35.0427C88.1139 34.6807 88.3131 34.1316 88.4096 33.3954C88.5182 32.6472 88.5725 31.7059 88.5725 30.5715L88.5725 15.7278C88.5725 14.34 88.4398 13.2719 88.1743 12.5237C87.9209 11.7634 87.3657 11.3833 86.5089 11.3833C85.6279 11.3833 85.0305 11.7514 84.7168 12.4875C84.403 13.2116 84.2461 14.2856 84.2461 15.7097L84.2461 30.5715C84.2461 31.73 84.2944 32.6834 84.3909 33.4316C84.4995 34.1678 84.7107 34.7108 85.0245 35.0608C85.3503 35.4108 85.827 35.5858 86.4546 35.5858Z" fill="url(#paint5_linear_461_5521)" fill-opacity="0.5"/>
<path d="M96.376 39.4234L96.376 7.56374L104.395 7.56374C106.061 7.56374 107.304 7.88958 108.124 8.54125C108.945 9.19293 109.482 10.1463 109.735 11.4014C110.001 12.6565 110.134 14.1891 110.134 15.9993C110.134 17.8699 109.941 19.3422 109.554 20.4162C109.18 21.4782 108.408 22.1902 107.237 22.5523C107.793 22.6488 108.257 22.8781 108.631 23.2401C109.005 23.5901 109.307 24.109 109.536 24.7969C109.766 25.4727 109.929 26.3477 110.025 27.4217C110.134 28.4837 110.188 29.7871 110.188 31.3318C110.188 31.4525 110.188 31.7904 110.188 32.3455C110.188 32.9006 110.188 33.5583 110.188 34.3186C110.2 35.0668 110.212 35.8151 110.224 36.5633C110.236 37.3115 110.254 37.9511 110.279 38.4821C110.303 39.0131 110.333 39.3269 110.369 39.4234L105.518 39.4234C105.481 39.3631 105.451 39.0553 105.427 38.5002C105.415 37.933 105.397 37.215 105.373 36.3461C105.361 35.4772 105.349 34.5419 105.337 33.5402C105.337 32.5386 105.337 31.555 105.337 30.5896C105.337 29.6121 105.337 28.7492 105.337 28.001C105.337 27.0476 105.264 26.3296 105.119 25.8468C104.987 25.3521 104.733 25.0081 104.359 24.815C103.997 24.6219 103.472 24.5073 102.784 24.4711L101.227 24.3806L101.227 39.4234L96.376 39.4234ZM101.246 20.6153L103.182 20.6153C103.774 20.6153 104.22 20.4826 104.522 20.2171C104.836 19.9516 105.047 19.4628 105.156 18.7508C105.276 18.0388 105.337 17.013 105.337 15.6735L105.337 15.4743C105.337 14.352 105.282 13.4892 105.174 12.8858C105.065 12.2823 104.836 11.866 104.486 11.6367C104.148 11.4074 103.617 11.2928 102.893 11.2928L101.246 11.2928L101.246 20.6153Z" fill="#1C2339"/>
<path d="M96.376 39.4234L96.376 7.56374L104.395 7.56374C106.061 7.56374 107.304 7.88958 108.124 8.54125C108.945 9.19293 109.482 10.1463 109.735 11.4014C110.001 12.6565 110.134 14.1891 110.134 15.9993C110.134 17.8699 109.941 19.3422 109.554 20.4162C109.18 21.4782 108.408 22.1902 107.237 22.5523C107.793 22.6488 108.257 22.8781 108.631 23.2401C109.005 23.5901 109.307 24.109 109.536 24.7969C109.766 25.4727 109.929 26.3477 110.025 27.4217C110.134 28.4837 110.188 29.7871 110.188 31.3318C110.188 31.4525 110.188 31.7904 110.188 32.3455C110.188 32.9006 110.188 33.5583 110.188 34.3186C110.2 35.0668 110.212 35.8151 110.224 36.5633C110.236 37.3115 110.254 37.9511 110.279 38.4821C110.303 39.0131 110.333 39.3269 110.369 39.4234L105.518 39.4234C105.481 39.3631 105.451 39.0553 105.427 38.5002C105.415 37.933 105.397 37.215 105.373 36.3461C105.361 35.4772 105.349 34.5419 105.337 33.5402C105.337 32.5386 105.337 31.555 105.337 30.5896C105.337 29.6121 105.337 28.7492 105.337 28.001C105.337 27.0476 105.264 26.3296 105.119 25.8468C104.987 25.3521 104.733 25.0081 104.359 24.815C103.997 24.6219 103.472 24.5073 102.784 24.4711L101.227 24.3806L101.227 39.4234L96.376 39.4234ZM101.246 20.6153L103.182 20.6153C103.774 20.6153 104.22 20.4826 104.522 20.2171C104.836 19.9516 105.047 19.4628 105.156 18.7508C105.276 18.0388 105.337 17.013 105.337 15.6735L105.337 15.4743C105.337 14.352 105.282 13.4892 105.174 12.8858C105.065 12.2823 104.836 11.866 104.486 11.6367C104.148 11.4074 103.617 11.2928 102.893 11.2928L101.246 11.2928L101.246 20.6153Z" fill="url(#paint6_linear_461_5521)" fill-opacity="0.5"/>
<path d="M114.516 39.4234L114.516 11.7634L110.787 11.7634L110.787 7.56374L122.933 7.56374L122.933 11.7634L119.349 11.7634L119.349 39.4234L114.516 39.4234Z" fill="#1C2339"/>
<path d="M114.516 39.4234L114.516 11.7634L110.787 11.7634L110.787 7.56374L122.933 7.56374L122.933 11.7634L119.349 11.7634L119.349 39.4234L114.516 39.4234Z" fill="url(#paint7_linear_461_5521)" fill-opacity="0.5"/>
<path d="M130.719 39.7854C129.174 39.7854 127.889 39.4294 126.863 38.7174C125.837 38.0054 125.065 36.9676 124.546 35.6039C124.039 34.2281 123.786 32.5688 123.786 30.6258L123.786 16.7415C123.786 15.2813 123.906 13.9658 124.148 12.7952C124.389 11.6246 124.781 10.623 125.324 9.79029C125.867 8.9576 126.592 8.31799 127.497 7.87147C128.402 7.42495 129.518 7.2017 130.846 7.2017C132.052 7.2017 133.078 7.40082 133.923 7.79906C134.78 8.18524 135.474 8.74641 136.005 9.48256C136.548 10.2187 136.94 11.1117 137.181 12.1617C137.435 13.1995 137.562 14.3701 137.562 15.6735L137.562 20.0542L132.873 20.0542L132.873 15.9812C132.873 14.4124 132.74 13.2599 132.475 12.5237C132.209 11.7755 131.678 11.4014 130.882 11.4014C130.001 11.4014 129.409 11.8057 129.108 12.6142C128.818 13.4107 128.673 14.527 128.673 15.9631L128.673 30.843C128.673 31.9533 128.734 32.8644 128.854 33.5764C128.987 34.2764 129.204 34.7953 129.506 35.1332C129.808 35.4591 130.23 35.622 130.773 35.622C131.594 35.622 132.149 35.2358 132.439 34.4634C132.728 33.6911 132.873 32.4662 132.873 30.7887L132.873 26.227L137.634 26.227L137.634 30.7344C137.634 32.7498 137.399 34.4333 136.928 35.7849C136.457 37.1244 135.709 38.1261 134.683 38.7898C133.67 39.4536 132.348 39.7854 130.719 39.7854Z" fill="#1C2339"/>
<path d="M130.719 39.7854C129.174 39.7854 127.889 39.4294 126.863 38.7174C125.837 38.0054 125.065 36.9676 124.546 35.6039C124.039 34.2281 123.786 32.5688 123.786 30.6258L123.786 16.7415C123.786 15.2813 123.906 13.9658 124.148 12.7952C124.389 11.6246 124.781 10.623 125.324 9.79029C125.867 8.9576 126.592 8.31799 127.497 7.87147C128.402 7.42495 129.518 7.2017 130.846 7.2017C132.052 7.2017 133.078 7.40082 133.923 7.79906C134.78 8.18524 135.474 8.74641 136.005 9.48256C136.548 10.2187 136.94 11.1117 137.181 12.1617C137.435 13.1995 137.562 14.3701 137.562 15.6735L137.562 20.0542L132.873 20.0542L132.873 15.9812C132.873 14.4124 132.74 13.2599 132.475 12.5237C132.209 11.7755 131.678 11.4014 130.882 11.4014C130.001 11.4014 129.409 11.8057 129.108 12.6142C128.818 13.4107 128.673 14.527 128.673 15.9631L128.673 30.843C128.673 31.9533 128.734 32.8644 128.854 33.5764C128.987 34.2764 129.204 34.7953 129.506 35.1332C129.808 35.4591 130.23 35.622 130.773 35.622C131.594 35.622 132.149 35.2358 132.439 34.4634C132.728 33.6911 132.873 32.4662 132.873 30.7887L132.873 26.227L137.634 26.227L137.634 30.7344C137.634 32.7498 137.399 34.4333 136.928 35.7849C136.457 37.1244 135.709 38.1261 134.683 38.7898C133.67 39.4536 132.348 39.7854 130.719 39.7854Z" fill="url(#paint8_linear_461_5521)" fill-opacity="0.5"/>
<path d="M147.067 39.7854C145.413 39.7854 144.068 39.4777 143.03 38.8622C141.992 38.2347 141.232 37.2934 140.749 36.0383C140.266 34.7712 140.025 33.1722 140.025 31.2413L140.025 7.56374L144.876 7.56374L144.876 31.1508C144.876 32.0438 144.912 32.8282 144.985 33.504C145.069 34.1798 145.262 34.7048 145.564 35.0789C145.866 35.453 146.361 35.6401 147.049 35.6401C147.736 35.6401 148.231 35.459 148.533 35.097C148.847 34.7229 149.04 34.1979 149.112 33.5221C149.185 32.8463 149.221 32.0559 149.221 31.1508L149.221 7.56374L154.072 7.56374L154.072 31.2413C154.072 33.1722 153.831 34.7712 153.348 36.0383C152.877 37.2934 152.123 38.2347 151.085 38.8622C150.06 39.4777 148.72 39.7854 147.067 39.7854Z" fill="#1C2339"/>
<path d="M147.067 39.7854C145.413 39.7854 144.068 39.4777 143.03 38.8622C141.992 38.2347 141.232 37.2934 140.749 36.0383C140.266 34.7712 140.025 33.1722 140.025 31.2413L140.025 7.56374L144.876 7.56374L144.876 31.1508C144.876 32.0438 144.912 32.8282 144.985 33.504C145.069 34.1798 145.262 34.7048 145.564 35.0789C145.866 35.453 146.361 35.6401 147.049 35.6401C147.736 35.6401 148.231 35.459 148.533 35.097C148.847 34.7229 149.04 34.1979 149.112 33.5221C149.185 32.8463 149.221 32.0559 149.221 31.1508L149.221 7.56374L154.072 7.56374L154.072 31.2413C154.072 33.1722 153.831 34.7712 153.348 36.0383C152.877 37.2934 152.123 38.2347 151.085 38.8622C150.06 39.4777 148.72 39.7854 147.067 39.7854Z" fill="url(#paint9_linear_461_5521)" fill-opacity="0.5"/>
<path d="M158.798 39.4234L158.798 11.7634L155.069 11.7634L155.069 7.56374L167.216 7.56374L167.216 11.7634L163.632 11.7634L163.632 39.4234L158.798 39.4234Z" fill="#1C2339"/>
<path d="M158.798 39.4234L158.798 11.7634L155.069 11.7634L155.069 7.56374L167.216 7.56374L167.216 11.7634L163.632 11.7634L163.632 39.4234L158.798 39.4234Z" fill="url(#paint10_linear_461_5521)" fill-opacity="0.5"/>
<path d="M174.277 39.7854C172.95 39.7854 171.839 39.5803 170.946 39.17C170.065 38.7476 169.365 38.1382 168.847 37.3417C168.34 36.5331 167.978 35.5556 167.76 34.4091C167.543 33.2506 167.435 31.9352 167.435 30.4629L167.435 27.6208L172.033 27.6208L172.033 30.8249C172.033 32.5386 172.177 33.7695 172.467 34.5177C172.757 35.266 173.33 35.6401 174.187 35.6401C174.766 35.6401 175.2 35.5073 175.49 35.2418C175.792 34.9643 175.991 34.5298 176.087 33.9385C176.196 33.3351 176.25 32.5507 176.25 31.5852C176.25 30.3905 175.997 29.2983 175.49 28.3087C174.995 27.3191 174.241 26.2934 173.227 25.2314L170.874 22.8057C170.222 22.1299 169.631 21.4118 169.1 20.6515C168.581 19.8913 168.165 19.0465 167.851 18.1173C167.549 17.1759 167.398 16.126 167.398 14.9675C167.398 13.29 167.604 11.872 168.014 10.7135C168.424 9.55497 169.118 8.68003 170.096 8.0887C171.073 7.4853 172.413 7.18359 174.114 7.18359C175.393 7.18359 176.443 7.38272 177.264 7.78096C178.097 8.16714 178.742 8.74037 179.201 9.50066C179.672 10.2489 180.004 11.1661 180.197 12.2522C180.39 13.3262 180.486 14.5572 180.486 15.945L180.486 17.9181L176.015 17.9181L176.015 15.6373C176.015 14.6718 175.961 13.8693 175.852 13.2297C175.756 12.5901 175.568 12.1134 175.291 11.7996C175.013 11.4738 174.609 11.3109 174.078 11.3109C173.571 11.3109 173.161 11.4255 172.847 11.6548C172.533 11.872 172.304 12.216 172.159 12.6866C172.026 13.1452 171.96 13.7426 171.96 14.4787C171.96 15.1425 172.045 15.7157 172.214 16.1984C172.382 16.6812 172.642 17.1458 172.992 17.5923C173.342 18.0388 173.776 18.5396 174.295 19.0948L176.92 21.9368C178.175 23.2884 179.153 24.6943 179.853 26.1546C180.553 27.6148 180.903 29.244 180.903 31.0421C180.903 32.9489 180.697 34.5539 180.287 35.8573C179.877 37.1486 179.189 38.1261 178.223 38.7898C177.258 39.4536 175.943 39.7854 174.277 39.7854Z" fill="#1C2339"/>
<path d="M174.277 39.7854C172.95 39.7854 171.839 39.5803 170.946 39.17C170.065 38.7476 169.365 38.1382 168.847 37.3417C168.34 36.5331 167.978 35.5556 167.76 34.4091C167.543 33.2506 167.435 31.9352 167.435 30.4629L167.435 27.6208L172.033 27.6208L172.033 30.8249C172.033 32.5386 172.177 33.7695 172.467 34.5177C172.757 35.266 173.33 35.6401 174.187 35.6401C174.766 35.6401 175.2 35.5073 175.49 35.2418C175.792 34.9643 175.991 34.5298 176.087 33.9385C176.196 33.3351 176.25 32.5507 176.25 31.5852C176.25 30.3905 175.997 29.2983 175.49 28.3087C174.995 27.3191 174.241 26.2934 173.227 25.2314L170.874 22.8057C170.222 22.1299 169.631 21.4118 169.1 20.6515C168.581 19.8913 168.165 19.0465 167.851 18.1173C167.549 17.1759 167.398 16.126 167.398 14.9675C167.398 13.29 167.604 11.872 168.014 10.7135C168.424 9.55497 169.118 8.68003 170.096 8.0887C171.073 7.4853 172.413 7.18359 174.114 7.18359C175.393 7.18359 176.443 7.38272 177.264 7.78096C178.097 8.16714 178.742 8.74037 179.201 9.50066C179.672 10.2489 180.004 11.1661 180.197 12.2522C180.39 13.3262 180.486 14.5572 180.486 15.945L180.486 17.9181L176.015 17.9181L176.015 15.6373C176.015 14.6718 175.961 13.8693 175.852 13.2297C175.756 12.5901 175.568 12.1134 175.291 11.7996C175.013 11.4738 174.609 11.3109 174.078 11.3109C173.571 11.3109 173.161 11.4255 172.847 11.6548C172.533 11.872 172.304 12.216 172.159 12.6866C172.026 13.1452 171.96 13.7426 171.96 14.4787C171.96 15.1425 172.045 15.7157 172.214 16.1984C172.382 16.6812 172.642 17.1458 172.992 17.5923C173.342 18.0388 173.776 18.5396 174.295 19.0948L176.92 21.9368C178.175 23.2884 179.153 24.6943 179.853 26.1546C180.553 27.6148 180.903 29.244 180.903 31.0421C180.903 32.9489 180.697 34.5539 180.287 35.8573C179.877 37.1486 179.189 38.1261 178.223 38.7898C177.258 39.4536 175.943 39.7854 174.277 39.7854Z" fill="url(#paint11_linear_461_5521)" fill-opacity="0.5"/>
<defs>
<filter id="filter0_d_461_5521" x="13.8479" y="0.608053" width="30.7289" height="30.7279" filterUnits="userSpaceOnUse" color-interpolation-filters="sRGB">
<feFlood flood-opacity="0" result="BackgroundImageFix"/>
<feColorMatrix in="SourceAlpha" type="matrix" values="0 0 0 0 0 0 0 0 0 0 0 0 0 0 0 0 0 0 127 0" result="hardAlpha"/>
<feOffset dy="2.2396"/>
<feGaussianBlur stdDeviation="2.2396"/>
<feComposite in2="hardAlpha" operator="out"/>
<feColorMatrix type="matrix" values="0 0 0 0 0.133333 0 0 0 0 0.0784314 0 0 0 0 0.294118 0 0 0 0.2 0"/>
<feBlend mode="normal" in2="BackgroundImageFix" result="effect1_dropShadow_461_5521"/>
<feBlend mode="normal" in="SourceGraphic" in2="effect1_dropShadow_461_5521" result="shape"/>
</filter>
<filter id="filter1_d_461_5521" x="0.799115" y="9.29751" width="35.0756" height="35.0756" filterUnits="userSpaceOnUse" color-interpolation-filters="sRGB">
<feFlood flood-opacity="0" result="BackgroundImageFix"/>
<feColorMatrix in="SourceAlpha" type="matrix" values="0 0 0 0 0 0 0 0 0 0 0 0 0 0 0 0 0 0 127 0" result="hardAlpha"/>
<feOffset dy="2.2396"/>
<feGaussianBlur stdDeviation="2.2396"/>
<feComposite in2="hardAlpha" operator="out"/>
<feColorMatrix type="matrix" values="0 0 0 0 0.13269 0 0 0 0 0.0801215 0 0 0 0 0.295833 0 0 0 0.2 0"/>
<feBlend mode="normal" in2="BackgroundImageFix" result="effect1_dropShadow_461_5521"/>
<feBlend mode="normal" in="SourceGraphic" in2="effect1_dropShadow_461_5521" result="shape"/>
</filter>
<linearGradient id="paint0_linear_461_5521" x1="18.3433" y1="7.20773" x2="18.3433" y2="42.0298" gradientUnits="userSpaceOnUse">
<stop stop-color="#E9EEFF" stop-opacity="0.2"/>
<stop offset="1" stop-color="#E9EEFF" stop-opacity="0"/>
</linearGradient>
<linearGradient id="paint1_linear_461_5521" x1="29.2175" y1="2.85907" x2="29.2175" y2="24.6062" gradientUnits="userSpaceOnUse">
<stop stop-color="#E9EEFF" stop-opacity="0.2"/>
<stop offset="1" stop-color="#E9EEFF" stop-opacity="0"/>
</linearGradient>
<linearGradient id="paint2_linear_461_5521" x1="31.3818" y1="24.5895" x2="5.29218" y2="24.5895" gradientUnits="userSpaceOnUse">
<stop stop-color="#E9EEFF" stop-opacity="0.2"/>
<stop offset="1" stop-color="#E9EEFF" stop-opacity="0"/>
</linearGradient>
<linearGradient id="paint3_linear_461_5521" x1="113.835" y1="2.07027" x2="113.835" y2="39.0804" gradientUnits="userSpaceOnUse">
<stop stop-color="white" stop-opacity="0.2"/>
<stop offset="1" stop-color="white" stop-opacity="0"/>
</linearGradient>
<linearGradient id="paint4_linear_461_5521" x1="113.835" y1="2.07027" x2="113.835" y2="39.0804" gradientUnits="userSpaceOnUse">
<stop stop-color="white" stop-opacity="0.2"/>
<stop offset="1" stop-color="white" stop-opacity="0"/>
</linearGradient>
<linearGradient id="paint5_linear_461_5521" x1="113.835" y1="2.07027" x2="113.835" y2="39.0804" gradientUnits="userSpaceOnUse">
<stop stop-color="white" stop-opacity="0.2"/>
<stop offset="1" stop-color="white" stop-opacity="0"/>
</linearGradient>
<linearGradient id="paint6_linear_461_5521" x1="113.835" y1="2.07027" x2="113.835" y2="39.0804" gradientUnits="userSpaceOnUse">
<stop stop-color="white" stop-opacity="0.2"/>
<stop offset="1" stop-color="white" stop-opacity="0"/>
</linearGradient>
<linearGradient id="paint7_linear_461_5521" x1="113.835" y1="2.07027" x2="113.835" y2="39.0804" gradientUnits="userSpaceOnUse">
<stop stop-color="white" stop-opacity="0.2"/>
<stop offset="1" stop-color="white" stop-opacity="0"/>
</linearGradient>
<linearGradient id="paint8_linear_461_5521" x1="113.835" y1="2.07027" x2="113.835" y2="39.0804" gradientUnits="userSpaceOnUse">
<stop stop-color="white" stop-opacity="0.2"/>
<stop offset="1" stop-color="white" stop-opacity="0"/>
</linearGradient>
<linearGradient id="paint9_linear_461_5521" x1="113.835" y1="2.07027" x2="113.835" y2="39.0804" gradientUnits="userSpaceOnUse">
<stop stop-color="white" stop-opacity="0.2"/>
<stop offset="1" stop-color="white" stop-opacity="0"/>
</linearGradient>
<linearGradient id="paint10_linear_461_5521" x1="113.835" y1="2.07027" x2="113.835" y2="39.0804" gradientUnits="userSpaceOnUse">
<stop stop-color="white" stop-opacity="0.2"/>
<stop offset="1" stop-color="white" stop-opacity="0"/>
</linearGradient>
<linearGradient id="paint11_linear_461_5521" x1="113.835" y1="2.07027" x2="113.835" y2="39.0804" gradientUnits="userSpaceOnUse">
<stop stop-color="white" stop-opacity="0.2"/>
<stop offset="1" stop-color="white" stop-opacity="0"/>
</linearGradient>
</defs>
</svg>
