<svg xmlns="http://www.w3.org/2000/svg" width="151" height="25" viewBox="0 0 151 25" fill="none">
  <g clip-path="url(#clip0_1801_21085)">
    <path fill-rule="evenodd" clip-rule="evenodd" d="M66.9414 19.9663C67.5918 20.2689 68.3028 20.4202 69.0744 20.4202C70.0724 20.4202 70.9274 20.2008 71.6384 19.7621C72.3646 19.3083 72.917 18.62 73.2947 17.6972C73.6884 16.7744 73.8846 15.5944 73.8846 14.1573C73.8846 12.7202 73.6884 11.5478 73.2947 10.6401C72.9017 9.71735 72.3493 9.03665 71.6384 8.5979C70.9427 8.15922 70.126 7.93988 69.1878 7.93988C68.6735 7.93988 68.197 8.00041 67.7582 8.12138C67.3195 8.22726 66.9262 8.40124 66.5783 8.64333C66.2303 8.88535 65.9354 9.1803 65.6933 9.52827H65.5572V3.74194H62.4031V20.1479H64.9899L65.2395 18.5368H65.3983C65.7917 19.1722 66.306 19.6487 66.9414 19.9663ZM69.5959 17.4703C69.2332 17.7123 68.734 17.8334 68.0986 17.8334C67.5086 17.8334 67.0246 17.6972 66.6463 17.4249C66.2682 17.1526 65.9883 16.7593 65.8068 16.2449C65.6253 15.7306 65.5345 15.1179 65.5345 14.4069V13.9985C65.5345 13.469 65.5874 12.985 65.6933 12.5462C65.7992 12.1075 65.9505 11.7445 66.1471 11.457C66.3589 11.1545 66.6237 10.9276 66.9414 10.7763C67.259 10.6099 67.6448 10.5267 68.0986 10.5267C68.734 10.5267 69.2332 10.6553 69.5959 10.9125C69.9743 11.1545 70.247 11.5326 70.4133 12.047C70.5796 12.5462 70.663 13.174 70.663 13.9304V14.4523C70.663 15.2087 70.5796 15.8365 70.4133 16.3357C70.247 16.8349 69.9743 17.2131 69.5959 17.4703ZM45.047 20.4201C44.2906 20.4201 43.678 20.2839 43.209 20.0117C42.74 19.7393 42.3997 19.3762 42.1879 18.9225C41.9761 18.4535 41.8703 17.9392 41.8703 17.3794V10.64H40.3953V8.21207H41.9836L42.5736 4.80835H45.0243V8.21207H47.2027V10.64H45.0243V16.8575C45.0243 17.2206 45.1075 17.5004 45.2739 17.6971C45.4403 17.8786 45.7126 17.9694 46.0908 17.9694H47.2027V20.057C47.0212 20.1175 46.8094 20.1705 46.5674 20.2158C46.3254 20.2764 46.0682 20.3218 45.7958 20.352C45.5235 20.3974 45.2739 20.4201 45.047 20.4201ZM52.3944 20.42C52.0011 20.42 51.5776 20.3746 51.1237 20.2838C50.685 20.1931 50.269 20.0342 49.8756 19.8073C49.4823 19.5653 49.1571 19.2249 48.8999 18.7862C48.6579 18.3324 48.5369 17.7575 48.5369 17.0616C48.5369 16.2296 48.7184 15.5413 49.0815 14.9967C49.4446 14.4521 49.9588 14.0285 50.6245 13.726C51.3052 13.4083 52.1145 13.1889 53.0525 13.068C53.9904 12.9469 55.0266 12.8864 56.1612 12.8864V12.0015C56.1612 11.6535 56.1007 11.351 55.9797 11.0938C55.8738 10.8366 55.6771 10.6324 55.3897 10.4811C55.1174 10.3298 54.7316 10.2542 54.2324 10.2542C53.7332 10.2542 53.3248 10.3147 53.0071 10.4358C52.7045 10.5567 52.4852 10.7156 52.349 10.9123C52.228 11.0938 52.1675 11.298 52.1675 11.525V11.7972H49.1042C49.089 11.7216 49.0815 11.6535 49.0815 11.593V11.3207C49.0815 10.6248 49.2932 10.0273 49.7168 9.52808C50.1404 9.01371 50.738 8.62039 51.5095 8.34811C52.2809 8.07584 53.181 7.9397 54.2098 7.9397C55.314 7.9397 56.2368 8.08342 56.9781 8.37079C57.7345 8.65824 58.3093 9.08182 58.7026 9.64154C59.1111 10.2013 59.3153 10.9047 59.3153 11.7519V17.1751C59.3153 17.4474 59.391 17.6516 59.5422 17.7878C59.7086 17.9088 59.8902 17.9693 60.0868 17.9693H60.8357V20.0342C60.6843 20.1099 60.4499 20.1855 60.1322 20.2612C59.8146 20.3519 59.4288 20.3973 58.975 20.3973C58.5362 20.3973 58.1429 20.3292 57.795 20.1931C57.4622 20.0721 57.1824 19.8981 56.9554 19.6712C56.7285 19.4292 56.5696 19.1417 56.4789 18.8089H56.32C56.0629 19.1265 55.7452 19.4064 55.367 19.6485C55.0039 19.8905 54.5728 20.0796 54.0736 20.2157C53.5895 20.3519 53.0298 20.42 52.3944 20.42ZM53.4609 18.0374C53.8845 18.0374 54.2627 17.9768 54.5955 17.8559C54.9283 17.7197 55.2082 17.5457 55.4351 17.3339C55.662 17.107 55.836 16.8347 55.957 16.5171C56.0931 16.1994 56.1612 15.859 56.1612 15.4959V14.8379C55.314 14.8379 54.5577 14.8984 53.8921 15.0194C53.2265 15.1253 52.697 15.3144 52.3037 15.5867C51.9255 15.859 51.7364 16.2372 51.7364 16.7213C51.7364 16.9935 51.8044 17.228 51.9406 17.4247C52.0768 17.6214 52.2734 17.7727 52.5306 17.8786C52.7877 17.9844 53.0978 18.0374 53.4609 18.0374ZM76.481 20.1479V4.58154H88.9157V7.3499H79.8848V10.8217H87.8723V13.5674H79.8848V17.3569H89.0521V20.1479H76.481ZM94.7844 13.9529L90.4504 20.1476H94.0129L96.6 16.0859H96.7134L99.2998 20.1476H103.022L98.7551 13.9302L102.795 8.21191H99.2317L96.9402 11.7972H96.8268L94.5576 8.21191H90.7684L94.7844 13.9529ZM108.247 20.4201C107.49 20.4201 106.878 20.2839 106.409 20.0117C105.94 19.7393 105.599 19.3762 105.387 18.9225C105.175 18.4535 105.07 17.9392 105.07 17.3794V10.64H103.595V8.21207H105.183L105.773 4.80835H108.224V8.21207H110.402V10.64H108.224V16.8575C108.224 17.2206 108.307 17.5004 108.473 17.6971C108.64 17.8786 108.912 17.9694 109.29 17.9694H110.402V20.057C110.221 20.1175 110.009 20.1705 109.767 20.2158C109.524 20.2764 109.268 20.3218 108.995 20.352C108.723 20.3974 108.473 20.4201 108.247 20.4201ZM114.55 19.762C115.442 20.2006 116.547 20.42 117.863 20.42C118.68 20.42 119.421 20.3292 120.086 20.1477C120.767 19.951 121.35 19.6712 121.834 19.3081C122.318 18.9299 122.696 18.4609 122.968 17.9012C123.24 17.3415 123.377 16.6835 123.377 15.9271H120.291C120.291 16.275 120.23 16.5851 120.109 16.8574C119.988 17.1298 119.822 17.3567 119.61 17.5382C119.398 17.7197 119.141 17.8559 118.838 17.9466C118.551 18.0374 118.226 18.0828 117.863 18.0828C117.197 18.0828 116.66 17.9693 116.252 17.7424C115.858 17.5003 115.563 17.1373 115.367 16.6532C115.186 16.1691 115.079 15.5791 115.049 14.8833H123.377V14.0664C123.377 12.6444 123.165 11.4871 122.742 10.5946C122.318 9.6869 121.69 9.0213 120.858 8.59771C120.026 8.15904 119.005 7.9397 117.795 7.9397C116.509 7.9397 115.42 8.16662 114.527 8.62039C113.65 9.05914 112.984 9.73984 112.53 10.6627C112.077 11.5703 111.85 12.7427 111.85 14.1798C111.85 15.6018 112.077 16.7742 112.53 17.697C112.984 18.6198 113.657 19.3081 114.55 19.762ZM120.132 12.8864H115.094C115.17 12.2964 115.307 11.8123 115.503 11.4342C115.715 11.0408 116.01 10.7534 116.388 10.5719C116.781 10.3752 117.266 10.2769 117.84 10.2769C118.188 10.2769 118.498 10.3298 118.77 10.4358C119.058 10.5265 119.3 10.6778 119.496 10.8895C119.693 11.1014 119.844 11.3736 119.951 11.7064C120.072 12.0392 120.132 12.4326 120.132 12.8864ZM125.691 20.1477V8.21198H128.301L128.551 9.84578H128.709C128.981 9.45246 129.307 9.11208 129.685 8.82464C130.078 8.53719 130.517 8.31785 131.001 8.16662C131.485 8.01531 132.015 7.9397 132.589 7.9397C133.376 7.9397 134.064 8.08342 134.654 8.37079C135.244 8.65824 135.698 9.11208 136.016 9.73232C136.349 10.3526 136.515 11.1619 136.515 12.1603V20.1477H133.361V12.6595C133.361 12.2813 133.316 11.9636 133.225 11.7064C133.134 11.4342 132.998 11.2148 132.816 11.0484C132.65 10.8669 132.438 10.7383 132.181 10.6627C131.924 10.587 131.636 10.5492 131.319 10.5492C130.85 10.5492 130.426 10.6627 130.048 10.8895C129.67 11.1165 129.375 11.4266 129.163 11.8199C128.951 12.2132 128.845 12.6671 128.845 13.1814V20.1477H125.691ZM140.998 19.7621C141.724 20.2008 142.579 20.4202 143.562 20.4202C144.349 20.4202 145.06 20.2689 145.695 19.9663C146.331 19.6487 146.845 19.1722 147.238 18.5368H147.397L147.647 20.1479H150.233V3.74194H147.079V9.52827H146.943C146.701 9.1803 146.406 8.88535 146.058 8.64333C145.725 8.40124 145.332 8.22726 144.878 8.12138C144.439 8.00041 143.963 7.93988 143.449 7.93988C142.526 7.93988 141.709 8.15922 140.998 8.5979C140.302 9.03665 139.75 9.71735 139.341 10.6401C138.948 11.5478 138.751 12.7202 138.751 14.1573C138.751 15.5944 138.948 16.7744 139.341 17.6972C139.734 18.62 140.287 19.3083 140.998 19.7621ZM145.99 17.4249C145.627 17.6972 145.151 17.8334 144.56 17.8334C143.925 17.8334 143.419 17.7123 143.04 17.4703C142.662 17.2131 142.39 16.8349 142.223 16.3357C142.057 15.8365 141.974 15.2087 141.974 14.4523V13.9304C141.974 13.174 142.057 12.5462 142.223 12.047C142.39 11.5326 142.662 11.1545 143.04 10.9125C143.419 10.6553 143.925 10.5267 144.56 10.5267C144.999 10.5267 145.378 10.6099 145.695 10.7763C146.013 10.9276 146.278 11.1545 146.489 11.457C146.701 11.7445 146.852 12.1075 146.943 12.5462C147.049 12.985 147.102 13.469 147.102 13.9985V14.4069C147.102 15.1179 147.011 15.7306 146.829 16.2449C146.648 16.7593 146.368 17.1526 145.99 17.4249Z" fill="white"/>
    <path d="M30.3595 6.72643V23.2149C30.3595 23.669 29.9921 24.0364 29.5389 24.0364H1.30958C0.854525 24.0364 0.487061 23.668 0.487061 23.2149V3.32307C0.487061 1.95601 1.59613 0.8479 2.96223 0.8479H10.5239C11.016 0.8479 11.474 1.10208 11.7348 1.51905L13.0229 3.58011C13.2837 3.99708 13.7416 4.25126 14.2338 4.25126H27.8844C29.2504 4.25126 30.3595 5.35937 30.3595 6.72643Z" fill="url(#paint0_linear_1801_21085)" stroke="url(#paint1_linear_1801_21085)" stroke-width="0.38"/>
    <path d="M30.3595 22.3935V23.2151C30.3595 23.6692 29.9921 24.0367 29.5379 24.0367H1.30863C0.854525 24.0367 0.487061 23.6683 0.487061 23.2151V22.3935H1.63706C3.74001 22.3935 5.44502 20.6886 5.44502 18.5856V13.0175C5.44502 10.9145 7.15002 9.20947 9.25298 9.20947H21.5927C23.6956 9.20947 25.4006 10.9145 25.4006 13.0175V18.5856C25.4006 20.6886 27.1056 22.3935 29.2085 22.3935H30.3595Z" fill="url(#paint2_linear_1801_21085)" stroke="url(#paint3_linear_1801_21085)" stroke-opacity="0.5" stroke-width="0.3"/>
  </g>
  <defs>
    <linearGradient id="paint0_linear_1801_21085" x1="16.7811" y1="-11.3547" x2="16.7811" y2="28.8421" gradientUnits="userSpaceOnUse">
      <stop offset="0.125815" stop-color="white" stop-opacity="0.5"/>
      <stop offset="1" stop-color="white" stop-opacity="0.04"/>
    </linearGradient>
    <linearGradient id="paint1_linear_1801_21085" x1="15.4233" y1="0.654359" x2="15.4233" y2="24.2299" gradientUnits="userSpaceOnUse">
      <stop stop-color="white" stop-opacity="0.5"/>
      <stop offset="0.0001" stop-color="white" stop-opacity="0.35"/>
      <stop offset="1" stop-color="white" stop-opacity="0"/>
    </linearGradient>
    <linearGradient id="paint2_linear_1801_21085" x1="15.4232" y1="24.0366" x2="15.4232" y2="9.69135" gradientUnits="userSpaceOnUse">
      <stop stop-color="white" stop-opacity="0.4"/>
      <stop offset="0.149116" stop-color="white" stop-opacity="0.6"/>
      <stop offset="0.356243" stop-color="white"/>
      <stop offset="0.727738" stop-color="white"/>
      <stop offset="0.899953" stop-color="#FEFEFE" stop-opacity="0.76"/>
      <stop offset="1" stop-color="#FEFEFE" stop-opacity="0.7"/>
    </linearGradient>
    <linearGradient id="paint3_linear_1801_21085" x1="15.4233" y1="9.05415" x2="15.4233" y2="24.1919" gradientUnits="userSpaceOnUse">
      <stop stop-color="white"/>
      <stop offset="1" stop-color="white" stop-opacity="0"/>
    </linearGradient>
    <clipPath id="clip0_1801_21085">
      <rect width="150.261" height="24" fill="white" transform="translate(0 0.5)"/>
    </clipPath>
  </defs>
</svg>