<svg width="20" height="20" viewBox="0 0 20 20" fill="none" xmlns="http://www.w3.org/2000/svg">
<g id="timer">
<path id="v" fill-rule="evenodd" clip-rule="evenodd" d="M13.3114 1.44647C13.727 1.86236 13.728 2.41029 13.3114 2.82674C12.8947 3.24319 7.5402 3.2648 7.10215 2.82674C6.6641 2.38867 6.66616 1.88251 7.10215 1.44647C7.53815 1.01044 12.8958 1.03058 13.3114 1.44647ZM14.0804 15.6275C14.9169 14.7909 15.4705 13.4727 15.4705 11.5474C15.4705 9.62205 14.9169 8.30382 14.0804 7.46726C13.2439 6.6307 11.9257 6.07705 10.0005 6.07705C8.07533 6.07705 6.75719 6.6307 5.92068 7.46726C5.08417 8.30382 4.53055 9.62205 4.53055 11.5474C4.53055 13.4727 5.08417 14.7909 5.92068 15.6275C6.75719 16.464 8.07533 17.0177 10.0005 17.0177C11.9257 17.0177 13.2439 16.464 14.0804 15.6275ZM10.0005 18.5928C14.4567 18.5928 17.0455 16.0038 17.0455 11.5474C17.0455 7.09096 14.4567 4.50197 10.0005 4.50197C5.5444 4.50197 2.95557 7.09096 2.95557 11.5474C2.95557 16.0038 5.5444 18.5928 10.0005 18.5928ZM8.92886 11.2565C9.13117 10.4526 12.6008 7.56011 13.2901 8.2494C13.9793 8.93868 11.0992 12.4208 10.2954 12.6231C9.66526 12.7817 8.77027 11.8866 8.92886 11.2565Z" fill="#8B78FA"/>
</g>
</svg>
