<svg width="97" height="26" viewBox="0 0 97 26" fill="none" xmlns="http://www.w3.org/2000/svg">
<path d="M36.1583 20.5438C34.8365 20.5438 33.634 20.2684 32.5508 19.7176C31.486 19.1669 30.6415 18.3683 30.0173 17.3218C29.3932 16.2754 29.0811 15.0086 29.0811 13.5216V13.136C29.0811 11.649 29.3932 10.3822 30.0173 9.3358C30.6415 8.28935 31.486 7.49075 32.5508 6.93999C33.634 6.38923 34.8365 6.11385 36.1583 6.11385C37.4618 6.11385 38.5817 6.34333 39.518 6.8023C40.4543 7.26127 41.207 7.89464 41.7761 8.70243C42.3636 9.49185 42.7491 10.3914 42.9327 11.4012L39.573 12.1171C39.4996 11.5664 39.3344 11.0707 39.0774 10.6301C38.8203 10.1895 38.4532 9.84066 37.9758 9.58364C37.5169 9.32662 36.9386 9.19811 36.2409 9.19811C35.5433 9.19811 34.9099 9.35416 34.3408 9.66626C33.7901 9.95999 33.3494 10.4098 33.019 11.0156C32.7069 11.6031 32.5508 12.3283 32.5508 13.1911V13.4665C32.5508 14.3294 32.7069 15.0637 33.019 15.6695C33.3494 16.257 33.7901 16.7068 34.3408 17.0189C34.9099 17.3126 35.5433 17.4595 36.2409 17.4595C37.2874 17.4595 38.0768 17.1933 38.6092 16.6609C39.16 16.1102 39.5088 15.3942 39.6557 14.5129L43.0153 15.3116C42.7766 16.2846 42.3636 17.175 41.7761 17.9827C41.207 18.7722 40.4543 19.3964 39.518 19.8553C38.5817 20.3143 37.4618 20.5438 36.1583 20.5438Z" fill="#97A59D"/>
<path d="M49.9807 20.3785C48.9159 20.3785 47.9796 20.1399 47.1718 19.6626C46.3824 19.1669 45.7674 18.4876 45.3268 17.6247C44.8862 16.7619 44.6659 15.7705 44.6659 14.6506V6.49938H48.1356V14.3753C48.1356 15.4033 48.3835 16.1744 48.8792 16.6885C49.3932 17.2025 50.1184 17.4595 51.0547 17.4595C52.1195 17.4595 52.9456 17.1107 53.5331 16.4131C54.1206 15.6971 54.4143 14.7057 54.4143 13.439V6.49938H57.8841V20.1582H54.4694V18.3683H53.9737C53.7534 18.8272 53.3403 19.277 52.7345 19.7176C52.1287 20.1582 51.2107 20.3785 49.9807 20.3785Z" fill="#97A59D"/>
<path d="M68.85 20.5438C67.62 20.5438 66.6745 20.3326 66.0136 19.9104C65.3527 19.4881 64.8662 19.02 64.5541 18.506H64.0584V20.1582H60.6437V0.881626H64.1135V8.06905H64.6092C64.8111 7.73859 65.0773 7.4265 65.4078 7.13276C65.7566 6.83902 66.2064 6.60036 66.7572 6.41677C67.3263 6.21482 68.0239 6.11385 68.85 6.11385C69.9516 6.11385 70.9705 6.38923 71.9068 6.93999C72.8431 7.47239 73.5958 8.26182 74.1649 9.30826C74.734 10.3547 75.0186 11.6215 75.0186 13.1085V13.5491C75.0186 15.0362 74.734 16.3029 74.1649 17.3494C73.5958 18.3958 72.8431 19.1944 71.9068 19.7452C70.9705 20.2776 69.9516 20.5438 68.85 20.5438ZM67.8036 17.5146C68.8684 17.5146 69.7588 17.175 70.4748 16.4957C71.1908 15.7981 71.5488 14.7883 71.5488 13.4665V13.1911C71.5488 11.8693 71.1908 10.8687 70.4748 10.1895C69.7772 9.49185 68.8868 9.14303 67.8036 9.14303C66.7388 9.14303 65.8484 9.49185 65.1324 10.1895C64.4164 10.8687 64.0584 11.8693 64.0584 13.1911V13.4665C64.0584 14.7883 64.4164 15.7981 65.1324 16.4957C65.8484 17.175 66.7388 17.5146 67.8036 17.5146Z" fill="#97A59D"/>
<path d="M77.1031 20.1582V6.49938H80.5729V20.1582H77.1031ZM78.838 4.90218C78.2138 4.90218 77.6814 4.70023 77.2408 4.29634C76.8185 3.89245 76.6074 3.36005 76.6074 2.69914C76.6074 2.03822 76.8185 1.50582 77.2408 1.10193C77.6814 0.698039 78.2138 0.496094 78.838 0.496094C79.4805 0.496094 80.0129 0.698039 80.4352 1.10193C80.8574 1.50582 81.0685 2.03822 81.0685 2.69914C81.0685 3.36005 80.8574 3.89245 80.4352 4.29634C80.0129 4.70023 79.4805 4.90218 78.838 4.90218Z" fill="#97A59D"/>
<path d="M89.7327 20.5438C88.4109 20.5438 87.2084 20.2684 86.1252 19.7176C85.0604 19.1669 84.2159 18.3683 83.5917 17.3218C82.9675 16.2754 82.6554 15.0086 82.6554 13.5216V13.136C82.6554 11.649 82.9675 10.3822 83.5917 9.3358C84.2159 8.28935 85.0604 7.49075 86.1252 6.93999C87.2084 6.38923 88.4109 6.11385 89.7327 6.11385C91.0362 6.11385 92.156 6.34333 93.0923 6.8023C94.0286 7.26127 94.7813 7.89464 95.3504 8.70243C95.9379 9.49185 96.3235 10.3914 96.507 11.4012L93.1474 12.1171C93.074 11.5664 92.9087 11.0707 92.6517 10.6301C92.3947 10.1895 92.0275 9.84066 91.5502 9.58364C91.0912 9.32662 90.5129 9.19811 89.8153 9.19811C89.1177 9.19811 88.4843 9.35416 87.9152 9.66626C87.3644 9.95999 86.9238 10.4098 86.5933 11.0156C86.2813 11.6031 86.1252 12.3283 86.1252 13.1911V13.4665C86.1252 14.3294 86.2813 15.0637 86.5933 15.6695C86.9238 16.257 87.3644 16.7068 87.9152 17.0189C88.4843 17.3126 89.1177 17.4595 89.8153 17.4595C90.8617 17.4595 91.6512 17.1933 92.1836 16.6609C92.7343 16.1102 93.0831 15.3942 93.23 14.5129L96.5897 15.3116C96.351 16.2846 95.9379 17.175 95.3504 17.9827C94.7813 18.7722 94.0286 19.3964 93.0923 19.8553C92.156 20.3143 91.0362 20.5438 89.7327 20.5438Z" fill="#97A59D"/>
<path d="M23.2086 20.4004L20.1156 23.4935C19.8629 23.7461 19.4522 23.7461 19.1996 23.4935L17.0128 21.3075C16.6054 20.8993 15.9073 21.1884 15.9073 21.7651V24.8574C15.9073 25.2153 15.6173 25.5053 15.2593 25.5053H10.8858C10.5278 25.5053 10.2378 25.2153 10.2378 24.8574V21.7643C10.2378 21.199 9.56724 20.9106 9.15661 21.2824C9.15094 21.2881 7.70605 22.7329 6.94392 23.4943C6.69123 23.747 6.28141 23.747 6.02791 23.4943L2.93485 20.4012C2.68215 20.1485 2.68215 19.7379 2.93485 19.4852L5.12162 17.2984C5.52981 16.8902 5.24067 16.1921 4.6632 16.1921H1.57176C1.21378 16.1921 0.923828 15.9021 0.923828 15.5441V11.1706C0.923828 10.8126 1.21378 10.5227 1.57176 10.5227H4.66401C5.23014 10.5227 5.51847 9.85206 5.14672 9.44143C5.13862 9.43333 5.13053 9.42443 5.12243 9.41633L2.93566 7.22956C2.68296 6.97686 2.68296 6.56624 2.93566 6.31354L6.02791 3.21967C6.2806 2.96698 6.69123 2.96698 6.94392 3.21967L9.13069 5.40644C9.53889 5.81464 10.237 5.5255 10.237 4.94803V1.85496C10.237 1.49698 10.527 1.20703 10.885 1.20703H15.2585C15.6165 1.20703 15.9064 1.49698 15.9064 1.85496V5.86404C15.9064 6.22202 15.6165 6.51197 15.2585 6.51197H10.7732C10.4298 6.51197 10.1002 6.64885 9.85719 6.89182L6.607 10.1412C6.36403 10.3842 6.22715 10.7138 6.22715 11.0572V15.6527C6.22715 15.9961 6.36403 16.3257 6.607 16.5687L9.85719 19.8189C10.1002 20.0618 10.4298 20.1987 10.7732 20.1987H15.3687C15.7129 20.1987 16.0425 20.0627 16.2855 19.8197L19.4563 16.6481C19.709 16.3946 20.1196 16.3946 20.3723 16.6481L23.207 19.4828C23.4597 19.7354 23.4597 20.1461 23.207 20.3988L23.2086 20.4004Z" fill="#97A59D"/>
</svg>
