<svg width="99" height="42" viewBox="0 0 99 42" fill="none" xmlns="http://www.w3.org/2000/svg">
<path fill-rule="evenodd" clip-rule="evenodd" d="M2.2417 23.9851V32.2218C2.2417 32.8124 2.2417 33.1078 2.3517 33.3733C2.46169 33.6389 2.67052 33.8477 3.08818 34.2653L3.08819 34.2654L4.09681 35.274C4.51447 35.6916 4.7233 35.9004 4.98885 36.0104C5.25441 36.1204 5.54973 36.1204 6.14039 36.1204H31.7731C32.469 36.1204 33.1767 36.1515 33.8868 36.1827C36.8338 36.3121 39.8223 36.4433 42.1874 34.3624C45.9188 37.2797 51.8582 37.0322 55.3847 33.9187C58.8375 37.1268 64.6652 37.1827 68.3129 34.2733C70.4107 36.0843 73.525 36.7169 76.3662 36.3308V37.1231C76.3662 37.7138 76.3662 38.0091 76.4762 38.2746C76.5863 38.5402 76.7951 38.749 77.2127 39.1667L78.2214 40.1753C78.639 40.5929 78.8478 40.8018 79.1134 40.9118C79.379 41.0218 79.6743 41.0218 80.2649 41.0218H86.819C88.1814 41.0218 88.8626 41.0218 89.2859 40.5985C89.7091 40.1753 89.7091 39.4941 89.7091 38.1317V36.3448C91.5129 36.518 93.3735 36.1318 94.8825 35.1043C97.5679 33.2757 98.5043 29.796 98.5043 26.64C98.5043 21.9866 96.0391 18.1726 92.3136 15.512C90.5181 14.2297 88.1375 13.8793 86.0192 14.458C83.3841 14.4578 80.7476 14.4721 78.1108 14.4864C72.4674 14.5171 66.8221 14.5478 61.1834 14.4362C57.9424 14.372 54.9844 14.3134 52.362 16.9801C49.1937 13.5362 43.1687 13.2694 39.5379 16.1289C36.5715 14.3429 33.793 14.3889 30.6906 14.4403C30.1612 14.449 29.6223 14.458 29.0715 14.458H19.9859L17.5011 11.9732C17.4537 11.948 17.4064 11.9228 17.3591 11.8977C15.1192 10.7068 12.956 9.55664 10.3549 9.55664C7.10681 9.55664 3.94449 11.3406 2.79358 14.458C2.16695 14.458 1.85364 14.458 1.60412 14.5535C1.22085 14.7002 0.918059 15.003 0.771314 15.3863C0.675781 15.6358 0.675781 15.9491 0.675781 16.5757V22.4192C0.675781 22.5315 0.675781 22.5876 0.678899 22.635C0.726493 23.3583 1.30262 23.9344 2.02593 23.982C2.07332 23.9851 2.12945 23.9851 2.2417 23.9851ZM9.91084 30.4484H5.21309V21.0146H3.64717V17.4309H5.21754C5.24751 16.5531 5.42872 15.7625 5.76116 15.0593C6.14394 14.2687 6.70941 13.6539 7.45757 13.2147C8.22313 12.7579 9.18878 12.5295 10.3545 12.5295C11.1201 12.5295 11.7986 12.6262 12.3902 12.8194C12.9992 13.0126 13.469 13.1971 13.7995 13.3728L12.5207 16.7721C12.2945 16.5788 12.0422 16.412 11.7639 16.2714C11.4855 16.1309 11.1984 16.0606 10.9026 16.0606C10.572 16.0606 10.3197 16.1572 10.1457 16.3505C9.98914 16.5261 9.91084 16.7721 9.91084 17.0883V17.4309H12.5207V21.0146H9.91084V30.4484ZM17.1736 30.7119C16.3733 30.7119 15.686 30.5538 15.1118 30.2376C14.5376 29.9038 14.094 29.4295 13.7808 28.8146C13.4676 28.1822 13.311 27.4268 13.311 26.5484V17.4309H18.0088V24.7038C18.0088 25.4943 18.1132 26.1004 18.322 26.522C18.5481 26.9261 19.0092 27.1281 19.7052 27.1281C20.1576 27.1281 20.5055 27.0578 20.7491 26.9173C20.9927 26.7768 21.158 26.522 21.245 26.1531C21.3494 25.7666 21.4016 25.222 21.4016 24.5193V17.4309H26.0994V30.4484H21.4016V26.5631C21.2945 27.1587 21.1205 27.7335 20.8796 28.2876C20.5838 28.9903 20.1315 29.57 19.5225 30.0268C18.9309 30.4835 18.148 30.7119 17.1736 30.7119ZM30.6093 30.422C31.4967 30.6153 32.4362 30.7119 33.428 30.7119C34.5415 30.7119 35.4898 30.545 36.2727 30.2112C37.0731 29.8599 37.6908 29.3768 38.1257 28.7619C38.5607 28.147 38.7782 27.4356 38.7782 26.6274C38.7782 25.5734 38.4215 24.7477 37.7082 24.1504C37.0122 23.5531 35.9682 23.0525 34.5763 22.6484L33.2453 22.2531C32.4101 22.0072 31.8621 21.814 31.6011 21.6734C31.3401 21.5329 31.2096 21.366 31.2096 21.1727C31.2096 21.0146 31.2879 20.8917 31.4445 20.8038C31.6011 20.6984 31.8447 20.6457 32.1752 20.6457C32.819 20.6457 33.5672 20.7863 34.4197 21.0673C35.2723 21.3484 36.1161 21.7964 36.9513 22.4113L38.5433 19.0383C38.0387 18.6518 37.2819 18.2478 36.2727 17.8261C35.2636 17.4045 34.0456 17.1937 32.6189 17.1937C30.9138 17.1937 29.548 17.5626 28.5214 18.3005C27.4949 19.0383 26.9816 20.0836 26.9816 21.4363C26.9816 22.1565 27.1382 22.7626 27.4514 23.2545C27.7646 23.7464 28.2256 24.1504 28.8346 24.4666C29.461 24.7829 30.2091 25.0639 31.0791 25.3099L32.8538 25.7842C33.515 25.9599 33.9673 26.1092 34.2109 26.2322C34.4719 26.3552 34.6024 26.5133 34.6024 26.7065C34.6024 26.8822 34.5154 27.0139 34.3414 27.1018C34.1674 27.1896 33.9065 27.2335 33.5585 27.2335C33.0365 27.2335 32.4623 27.1457 31.836 26.97C31.227 26.7943 30.6093 26.5572 29.9829 26.2585C29.374 25.9599 28.8172 25.6437 28.3126 25.3099L26.564 28.7355C26.999 29.0693 27.5558 29.3855 28.2343 29.6842C28.9303 29.9828 29.722 30.2288 30.6093 30.422ZM45.8571 30.7119C44.3781 30.7119 43.1254 30.422 42.0988 29.8423C41.0723 29.2626 40.2893 28.4632 39.75 27.4443C39.228 26.4254 38.967 25.2572 38.967 23.9396C38.967 22.6221 39.228 21.4538 39.75 20.4349C40.2893 19.416 41.0375 18.6167 41.9944 18.0369C42.9688 17.4572 44.1084 17.1674 45.4134 17.1674C46.8923 17.1674 48.0928 17.4572 49.015 18.0369C49.9371 18.6167 50.6157 19.3721 51.0507 20.3032C51.5031 21.2342 51.7292 22.2268 51.7292 23.2808C51.7292 23.5971 51.7118 23.9572 51.6771 24.3612C51.6596 24.7653 51.6336 25.0464 51.5988 25.2045H43.3161C43.3721 25.4761 43.4622 25.7133 43.5865 25.916C43.8301 26.2673 44.1519 26.522 44.5521 26.6801C44.9697 26.8383 45.4308 26.9173 45.9353 26.9173C46.3703 26.9173 46.7531 26.8734 47.0837 26.7856C47.4317 26.6801 47.7362 26.522 47.9971 26.3112C48.2755 26.0829 48.493 25.7842 48.6496 25.4153L51.4944 28.1558C51.0072 28.8058 50.3112 29.3943 49.4065 29.9214C48.5191 30.4484 47.336 30.7119 45.8571 30.7119ZM43.8214 21.2781C43.4834 21.6194 43.2946 22.1113 43.2551 22.7538H47.5192C47.4833 22.1383 47.3294 21.6552 47.0576 21.3045C46.7444 20.9004 46.205 20.6984 45.4395 20.6984C44.7609 20.6984 44.2215 20.8917 43.8214 21.2781ZM55.7731 29.8423C56.7823 30.422 57.9741 30.7119 59.3486 30.7119C60.7928 30.7119 62.0455 30.3781 63.1068 29.7105C64.1682 29.043 64.925 28.2085 65.3774 27.2072L61.7236 24.7829C61.5496 25.4504 61.2799 25.9511 60.9146 26.2849C60.5666 26.6187 60.1142 26.7856 59.5574 26.7856C59.1572 26.7856 58.7919 26.6889 58.4613 26.4957C58.1307 26.2849 57.8697 25.9687 57.6783 25.547C57.5043 25.1254 57.4173 24.5896 57.4173 23.9396C57.4173 23.2721 57.5043 22.7362 57.6783 22.3322C57.8697 21.9106 58.1307 21.6031 58.4613 21.4099C58.7919 21.1991 59.1572 21.0937 59.5574 21.0937C60.1142 21.0937 60.5666 21.2606 60.9146 21.5944C61.2799 21.9281 61.5496 22.4288 61.7236 23.0964L65.3774 20.6721C64.925 19.6707 64.1682 18.8363 63.1068 18.1687C62.0455 17.5011 60.7928 17.1674 59.3486 17.1674C57.9741 17.1674 56.7823 17.466 55.7731 18.0633C54.7814 18.643 54.0071 19.4423 53.4503 20.4613C52.911 21.4802 52.6413 22.6396 52.6413 23.9396C52.6413 25.222 52.911 26.3815 53.4503 27.418C54.0071 28.4369 54.7814 29.245 55.7731 29.8423ZM87.8458 30.7119C86.8366 30.7119 86.0624 30.4835 85.523 30.0268C85.001 29.57 84.6269 28.9903 84.4007 28.2876C84.2451 27.7507 84.1233 27.1943 84.0354 26.6184V35.3497H79.3376V17.4309H84.0354V21.291C84.1332 20.7043 84.2811 20.1379 84.479 19.5917C84.74 18.8714 85.1576 18.2917 85.7318 17.8525C86.306 17.3957 87.0976 17.1674 88.1068 17.1674C89.0463 17.1674 89.8728 17.4221 90.5861 17.9315C91.2995 18.441 91.8476 19.1964 92.2303 20.1977C92.6305 21.1991 92.8306 22.4464 92.8306 23.9396C92.8306 25.4153 92.6305 26.6626 92.2303 27.6815C91.8302 28.6828 91.256 29.4382 90.5078 29.9477C89.7597 30.4572 88.8723 30.7119 87.8458 30.7119ZM84.2702 26.1531C84.1137 25.7666 84.0354 25.222 84.0354 24.5193V23.3599C84.0354 22.6572 84.1137 22.1214 84.2702 21.7525C84.4442 21.366 84.6704 21.1025 84.9488 20.9619C85.2272 20.8214 85.5317 20.7511 85.8623 20.7511C86.6278 20.7511 87.1846 21.041 87.5326 21.6207C87.8806 22.2004 88.0546 22.9734 88.0546 23.9396C88.0546 24.9058 87.8806 25.6788 87.5326 26.2585C87.1846 26.8383 86.6278 27.1281 85.8623 27.1281C85.5317 27.1281 85.2272 27.0578 84.9488 26.9173C84.6704 26.7768 84.4442 26.522 84.2702 26.1531ZM69.7306 17.4307V24.4743L71.3558 24.4744V29.014H72.0576L74.8209 22.2946H73.2679L74.7197 17.4307L78.4707 17.4298V24.0116C78.4707 26.3408 77.9256 28.0412 76.8354 29.1128C75.5775 30.3493 73.7808 30.7229 72.0798 30.7204C70.3788 30.7229 68.582 30.3493 67.3242 29.1128C66.234 28.0412 65.6889 26.3408 65.6889 24.0116V17.4298L69.7306 17.4307Z" fill="#97A59D"/>
</svg>
