<svg width="101" height="34" viewBox="0 0 101 34" fill="none" xmlns="http://www.w3.org/2000/svg">
<path fill-rule="evenodd" clip-rule="evenodd" d="M13.9103 12.2344V15.7242L22.251 15.7205C21.9951 17.6453 21.3461 19.0546 20.3596 20.0411C19.1432 21.2575 17.2444 22.5963 13.9103 22.5963C8.77014 22.5963 4.74999 18.4538 4.74999 13.3136C4.74999 8.1734 8.77014 4.03085 13.9103 4.03085C16.6844 4.03085 18.7093 5.12119 20.2039 6.52306L22.6664 4.06052C20.5821 2.06898 17.8081 0.541016 13.914 0.541016C6.87503 0.541016 0.956055 6.27458 0.956055 13.3136C0.956055 20.3526 6.87503 26.0861 13.914 26.0861C17.7117 26.0861 20.5784 24.84 22.8222 22.5036C25.1289 20.1968 25.8447 16.9592 25.8447 14.3409C25.8447 13.5621 25.7854 12.8426 25.6704 12.2344H13.9103ZM84.2668 25.5855V1.4793H80.7436V25.5855H84.2668ZM35.4983 26.0899C40.045 26.0899 43.75 22.6 43.75 17.8641C43.75 13.0948 40.045 9.63833 35.4983 9.63833C30.9515 9.63833 27.2465 13.0948 27.2465 17.8641C27.2465 22.6 30.9515 26.0899 35.4983 26.0899ZM35.4983 12.8797C37.9905 12.8797 40.1378 14.9046 40.1378 17.8641C40.1378 20.7902 37.9905 22.8485 35.4983 22.8485C33.0061 22.8485 30.8588 20.7939 30.8588 17.8641C30.8588 14.9046 33.0061 12.8797 35.4983 12.8797ZM53.2997 26.0899C57.8465 26.0899 61.5514 22.6 61.5514 17.8641C61.5514 13.0948 57.8465 9.63833 53.2997 9.63833C48.7529 9.63833 45.048 13.0985 45.048 17.8641C45.048 22.6 48.7529 26.0899 53.2997 26.0899ZM53.2997 12.8797C55.7919 12.8797 57.9392 14.9046 57.9392 17.8641C57.9392 20.7902 55.7919 22.8485 53.2997 22.8485C50.8075 22.8485 48.6602 20.7939 48.6602 17.8641C48.6602 14.9046 50.8075 12.8797 53.2997 12.8797ZM78.6111 10.139V24.9031C78.6111 30.9779 75.0286 33.4589 70.7933 33.4589C66.8065 33.4589 64.407 30.7924 63.5021 28.6117L66.6471 27.3026C67.2071 28.6414 68.5793 30.2213 70.7896 30.2213C73.5006 30.2213 75.1806 28.5487 75.1806 25.4001V24.217H75.0545C74.2461 25.2146 72.6884 26.0862 70.7229 26.0862C66.61 26.0862 62.842 22.5036 62.842 17.8938C62.842 13.2505 66.61 9.63833 70.7229 9.63833C72.6847 9.63833 74.2423 10.5099 75.0545 11.4778H75.1806V10.139H78.6111ZM75.4365 17.8938C75.4365 14.9973 73.5043 12.8797 71.0455 12.8797C68.5533 12.8797 66.4653 14.9973 66.4653 17.8938C66.4653 20.7605 68.5533 22.8485 71.0455 22.8485C73.5043 22.8485 75.4365 20.7605 75.4365 17.8938ZM97.9961 20.5714L100.8 22.4406C99.895 23.7794 97.7143 26.0862 93.9463 26.0862C89.2734 26.0862 85.7836 22.4739 85.7836 17.8604C85.7836 12.9687 89.3031 9.63463 93.5421 9.63463C97.8107 9.63463 99.8987 13.0317 100.581 14.8675L100.956 15.8021L89.9595 20.3563C90.8014 22.0067 92.1105 22.8485 93.9463 22.8485C95.7858 22.8485 97.0616 21.9436 97.9961 20.5714ZM89.3661 17.6119L96.7167 14.5597C96.3124 13.5324 95.096 12.8166 93.6645 12.8166C91.8287 12.8166 89.2734 14.4373 89.3661 17.6119Z" fill="#97A59D"/>
</svg>
