<svg width="121" height="32" viewBox="0 0 121 32" fill="none" xmlns="http://www.w3.org/2000/svg">
<path id="Union" fill-rule="evenodd" clip-rule="evenodd" d="M23.3706 10.8738C23.6224 11.3099 23.1333 11.7963 22.6971 11.5445L9.72 4.05238C9.54462 3.95113 9.36789 3.84606 9.18965 3.7401L9.18948 3.74C8.40867 3.27581 7.59895 2.79443 6.74709 2.54132C6.23762 2.38502 5.90943 1.62724 6.57821 1.30294C11.9843 -1.31836 17.6171 0.907426 20.1962 5.37536C21.6691 7.9268 22.7081 9.72642 23.3706 10.8738ZM8.81347 5.1519C9.10932 4.95263 9.0201 4.70196 8.59385 4.45587C8.1676 4.20977 6.62616 3.3416 5.78287 3.29745C5.0044 3.25663 4.23299 3.46333 3.57921 3.88789C3.0111 4.25681 2.5753 4.86671 1.93985 5.93309C0.362571 8.96977 0.419927 12.4573 1.83052 15.3455C1.95577 15.602 2.31109 15.6046 2.45382 15.3574L6.53402 8.29053C6.60854 8.16146 6.68656 8.02304 6.76803 7.87852C7.30587 6.92435 7.99365 5.70419 8.81347 5.1519ZM26.89 15.7185C26.9147 16.0744 27.1764 16.1224 27.6026 15.8763C28.0288 15.6302 29.5515 14.7295 30.0114 14.0213C30.4361 13.3675 30.6427 12.5961 30.6018 11.8177C30.5663 11.1412 30.2561 10.4589 29.6502 9.37538C27.809 6.49116 24.7599 4.79706 21.5533 4.57452C21.2686 4.55477 21.0886 4.86115 21.2313 5.10834L25.3115 12.1752C25.386 12.3043 25.4669 12.4411 25.5513 12.5839C26.1088 13.5267 26.8216 14.7324 26.89 15.7185ZM6.17101 10.789C6.42278 10.3528 7.08863 10.5333 7.08863 11.0369V26.0211C7.08863 26.2235 7.086 26.4291 7.08334 26.6364V26.6364V26.6364V26.6364V26.6365V26.6365V26.6365V26.6365V26.6366V26.6366V26.6366C7.07172 27.5449 7.05967 28.4869 7.2664 29.3512C7.38576 29.8705 6.89359 30.5334 6.27837 30.1166C1.3051 26.7456 0.416379 20.7547 2.99625 16.2873C4.46954 13.7361 5.50857 11.9364 6.17101 10.789ZM8.00113 26.7944C8.00113 26.3022 8.1736 26.0996 8.4941 26.2562C9.38228 26.69 10.7828 26.6755 11.8781 26.6642L11.8789 26.6642C12.0446 26.6625 12.2032 26.6609 12.352 26.6609H20.5125C20.7979 26.6609 20.9733 26.9699 20.8138 27.2066C19.0177 29.8723 16.026 31.6659 12.6075 31.818C11.3662 31.8012 10.6201 31.7284 10.0165 31.4212C9.32195 31.0671 8.75725 30.5023 8.40335 29.8079C8.01993 29.0555 8.00113 27.2866 8.00113 26.7944ZM14.656 25.4639C14.1523 25.4639 13.9757 24.7971 14.4118 24.5453L27.389 17.0532C27.5644 16.9519 27.7439 16.8513 27.9248 16.7499L27.9249 16.7499L27.9249 16.7499C28.7173 16.3058 29.539 15.8453 30.184 15.2342C30.5743 14.8711 31.3944 14.9658 31.341 15.7071C30.9083 21.6994 26.1642 25.4645 21.0051 25.4641C18.059 25.4638 15.9809 25.4638 14.656 25.4639ZM95.0901 9.42487C95.0901 9.2418 94.9815 9.07562 94.8114 9.00902C93.5867 8.52959 92.0204 8.18576 89.938 8.18587C87.7992 8.18594 85.8697 8.9491 84.484 10.4359C83.1047 11.9161 82.3851 13.9819 82.3954 16.3779C82.4144 20.8873 85.8909 23.8444 89.7324 23.787C92.5742 23.7445 93.9953 23.1727 94.7934 22.7406C95.4405 22.3902 95.8016 21.7206 95.8016 21.0391V16.4685C95.8016 15.643 95.134 14.974 94.3102 14.974H90.1658C89.9142 14.974 89.7104 15.1783 89.7104 15.4303V17.4839C89.7104 17.7359 89.9142 17.9402 90.1658 17.9402H92.3858C92.6375 17.9402 92.8416 18.1445 92.8416 18.3965V20.0519C92.8416 20.2447 92.7213 20.4182 92.5362 20.4717C91.9546 20.6402 91.0576 20.8006 89.6885 20.8211C87.4272 20.8549 85.3674 19.1581 85.3553 16.3652C85.3477 14.5688 85.8806 13.2835 86.6477 12.4605C87.4082 11.6441 88.5191 11.1521 89.9383 11.1521C91.8935 11.152 93.169 11.5106 94.0498 11.9041C94.161 11.9539 94.2656 12.0034 94.364 12.0528C94.687 12.2145 95.0901 11.9927 95.0901 11.6309V9.42487ZM41.4076 9.12708C41.4076 8.81203 41.6622 8.55665 41.9768 8.55665H44.083C44.3976 8.55665 44.6522 8.81203 44.6522 9.12708V14.4891H51.4836V9.12708C51.4836 8.81203 51.7386 8.55665 52.0528 8.55665H54.1594C54.4736 8.55665 54.7285 8.81203 54.7285 9.12708V22.8744C54.7285 23.1895 54.4736 23.4449 54.1594 23.4449H52.0528C51.7386 23.4449 51.4836 23.1895 51.4836 22.8744V17.2272H44.6522V22.8744C44.6522 23.1895 44.3976 23.4449 44.083 23.4449H41.9768C41.6622 23.4449 41.4076 23.1895 41.4076 22.8744V9.12708ZM68.7895 12.8766C68.7895 12.9256 68.8004 12.974 68.8216 13.0182L73.4683 22.6953L73.2378 23.2363C72.823 24.2105 71.9674 24.9267 70.937 25.1628L70.4977 25.2634C70.2522 25.3196 70.099 25.5643 70.1553 25.81L70.6118 27.8119C70.6678 28.0576 70.9121 28.2112 71.1572 28.1551L71.5969 28.0544C73.5513 27.6067 75.1736 26.2483 75.9604 24.4007L80.7376 13.1857C80.8656 12.8846 80.6454 12.5502 80.3188 12.5502H78.0904C77.9079 12.5502 77.7432 12.6593 77.6715 12.8274L75.0126 19.0699L72.0062 12.8087C71.9305 12.6507 71.7706 12.5502 71.5958 12.5502H69.1154C68.9354 12.5502 68.7895 12.6964 68.7895 12.8766ZM110.517 12.6641C110.517 12.3491 110.772 12.0937 111.087 12.0937H113.193C113.507 12.0937 113.762 12.3491 113.762 12.6641V13.6062C114.515 12.995 115.401 12.5112 116.538 12.493C118.788 12.493 120.764 13.7765 120.764 16.2515V22.8748C120.764 23.1899 120.51 23.4453 120.195 23.4453H118.373C118.059 23.4453 117.804 23.1899 117.804 22.8748V16.3086C117.804 15.5854 117.121 15.0599 116.039 15.0599C115.187 15.0599 114.478 15.3382 113.762 15.8792V22.8748C113.762 23.1899 113.507 23.4453 113.193 23.4453H111.087C110.772 23.4453 110.517 23.1899 110.517 22.8748V12.6641ZM62.9475 12.0937C61.2254 12.0937 59.7571 12.6767 58.7248 13.7752C57.7047 14.8608 57.2335 16.3184 57.2335 17.8521C57.2335 19.2823 57.5448 20.8083 58.5456 21.9923C59.5822 23.2189 61.1573 23.8446 63.1787 23.8446C64.8913 23.8446 66.4514 23.3588 67.6903 22.7934C67.7708 22.7567 67.822 22.676 67.822 22.5875V20.0328C67.822 19.8543 67.6263 19.744 67.4716 19.8324C66.3965 20.446 64.8493 21.1065 63.1787 21.1065C61.7309 21.1065 61.0161 20.6787 60.6306 20.2227C60.3255 19.8615 60.1134 19.3496 60.0197 18.6818H67.7061C67.8319 18.6818 67.934 18.5798 67.9321 18.4537C67.9146 17.3563 67.762 15.9129 67.1471 14.673C66.808 13.9894 66.3098 13.3294 65.5837 12.8435C64.8493 12.3518 63.9633 12.0937 62.9475 12.0937ZM65.0256 16.8564C64.948 16.5054 64.8419 16.1773 64.7 15.8913C64.5226 15.5336 64.3104 15.2838 64.0661 15.1204C63.8305 14.9626 63.486 14.8317 62.9475 14.8317C61.8586 14.8317 61.153 15.1851 60.714 15.6522C60.4313 15.9533 60.2088 16.3556 60.0823 16.8564H65.0256ZM103.423 12.0937C101.701 12.0937 100.232 12.6767 99.2001 13.7752C98.1799 14.8608 97.7088 16.3184 97.7088 17.8521C97.7088 19.2823 98.0201 20.8083 99.0209 21.9923C100.058 23.2189 101.633 23.8446 103.654 23.8446C105.367 23.8446 106.927 23.3588 108.166 22.7934C108.246 22.7567 108.297 22.676 108.297 22.5875V20.0328C108.297 19.8543 108.102 19.744 107.947 19.8324C106.872 20.446 105.325 21.1065 103.654 21.1065C102.206 21.1065 101.491 20.6787 101.106 20.2227C100.801 19.8615 100.589 19.3496 100.495 18.6818H108.181C108.307 18.6818 108.41 18.5796 108.407 18.4536C108.381 17.307 108.157 15.8694 107.511 14.6433C106.787 13.267 105.473 12.0937 103.423 12.0937ZM105.449 16.8564C105.36 16.5203 105.243 16.2019 105.094 15.921C104.722 15.2146 104.226 14.8317 103.423 14.8317C102.334 14.8317 101.629 15.1851 101.19 15.6522C100.906 15.9533 100.684 16.3556 100.558 16.8564H105.449Z" fill="#97A59D"/>
</svg>
