<svg width="118" height="20" viewBox="0 0 118 20" fill="none" xmlns="http://www.w3.org/2000/svg">
<path fill-rule="evenodd" clip-rule="evenodd" d="M16.511 5.32387C15.7882 4.07196 10.2852 0.886719 8.85775 0.886719C7.43032 0.886719 1.9123 4.09788 1.20448 5.32387C0.49666 6.54986 0.497717 12.974 1.20448 14.1982C1.91124 15.4223 7.43032 18.6353 8.85775 18.6353C10.2852 18.6353 15.7872 15.4519 16.511 14.1982C17.2348 12.9444 17.2338 6.57578 16.511 5.32387ZM2.60433 5.80933L8.85775 8.58892L15.1112 5.80933L15.3924 6.29853L9.86858 10.3471L9.13901 17.1752H8.57648L7.84692 10.3471L2.32306 6.29853L2.60433 5.80933ZM28.2285 15.6212V2.62858H25.4319V15.6212H28.2285ZM33.9967 15.8151C37.0186 15.8151 38.7828 13.8371 38.7828 10.7538C38.7828 7.65109 37.0186 5.67311 33.9967 5.67311C30.9562 5.67311 29.1543 7.65109 29.1543 10.7538C29.1543 13.8371 30.9562 15.8151 33.9967 15.8151ZM33.9967 13.2554C32.4577 13.2554 31.9322 12.6348 31.9322 10.7538C31.9322 8.85339 32.4577 8.23284 33.9967 8.23284C35.517 8.23284 36.0426 8.85339 36.0426 10.7538C36.0426 12.6348 35.517 13.2554 33.9967 13.2554ZM46.2968 13.1778C45.8838 13.9341 44.8891 14.5934 43.4626 14.5934C40.8537 14.5934 39.4648 12.8675 39.4648 10.1526C39.4648 7.43777 40.8913 5.67311 43.5752 5.67311C44.9266 5.67311 45.9965 6.21608 46.5032 7.28264H46.5971V5.86703H49.206V14.5352C49.206 17.7155 47.5731 19.1117 44.5325 19.1117C41.5857 19.1117 39.9341 17.7737 39.9341 15.2915H42.7306C42.7306 16.2999 43.0122 16.552 44.6263 16.552C46.1091 16.552 46.4094 16.2029 46.4094 14.6904V13.1778H46.2968ZM44.3448 8.13588C42.7306 8.13588 42.2614 8.77582 42.2614 10.1526C42.2614 11.5295 42.7306 12.1694 44.326 12.1694C45.6774 12.1694 46.4094 11.6846 46.4094 10.4435V9.86176C46.4094 8.62068 45.6961 8.13588 44.3448 8.13588ZM54.9477 15.8151C57.9695 15.8151 59.7338 13.8371 59.7338 10.7538C59.7338 7.65109 57.9695 5.67311 54.9477 5.67311C51.9071 5.67311 50.1053 7.65109 50.1053 10.7538C50.1053 13.8371 51.9071 15.8151 54.9477 15.8151ZM54.9477 13.2554C53.4086 13.2554 52.8831 12.6348 52.8831 10.7538C52.8831 8.85339 53.4086 8.23284 54.9477 8.23284C56.4679 8.23284 56.9935 8.85339 56.9935 10.7538C56.9935 12.6348 56.4679 13.2554 54.9477 13.2554ZM63.4585 2.62858V15.6212H60.6619V2.62858H63.4585ZM67.4603 4.76169V2.62858H64.6637L64.7012 4.76169H67.4603ZM67.5166 15.6212V5.86703H64.7012V15.6212H67.5166ZM78.532 5.86703L74.8532 15.6212H71.2683L67.6084 5.86703H70.7428L72.9951 12.8287H73.2016L75.4538 5.86703H78.532ZM82.9167 15.8151C85.6195 15.8151 87.3462 14.5934 87.3462 12.5185V12.3245H84.5684V12.4409C84.5684 13.042 84.0804 13.2941 82.9543 13.2941C81.4152 13.2941 80.8897 12.7512 80.8334 11.3937H87.3087C87.365 11.0641 87.44 10.5017 87.44 9.95872C87.44 7.41838 85.7696 5.67311 82.9355 5.67311C79.9888 5.67311 78.1869 7.65109 78.1869 10.7732C78.1869 13.8565 79.6697 15.8151 82.9167 15.8151ZM82.8416 8.05832C84.1555 8.05832 84.7936 8.62068 84.7373 9.62906H80.8521C80.9647 8.60129 81.4903 8.05832 82.8416 8.05832ZM91.2103 9.51271V15.6212H88.4137V5.86703H91.0226V7.43778H91.1352C91.6044 6.44879 92.449 5.67311 93.7816 5.67311C95.7524 5.67311 96.4844 7.18568 96.4844 9.14426V10.0363H93.6878V9.51271C93.6878 8.46555 93.3687 8.13588 92.4866 8.13588C91.6232 8.13588 91.2103 8.44616 91.2103 9.51271ZM99.0453 18.9178C100.903 18.9178 101.955 18.2973 102.762 16.2999L106.966 5.86703H103.831L102.499 9.93933L101.917 11.8203H101.711L101.035 9.93933L99.4958 5.86703H96.3614L100.322 15.2139L100.153 15.5824C99.8711 16.2029 99.6084 16.2999 98.8952 16.2999H97.3186V18.7045C97.7127 18.8014 98.4071 18.9178 99.0453 18.9178ZM113.268 6.78707H112.025V2.94136H113.727L114.608 5.33297H114.665L115.507 2.94136H117.229V6.78707H115.985V5.50516L116.023 4.77811H115.947L115.335 6.55747H113.9L113.268 4.77811H113.211L113.268 5.50516V6.78707ZM109.939 6.78707H108.581V4.20413H107.108V2.94136H111.412V4.20413H109.939V6.78707Z" fill="#97A59D"/>
</svg>
