<svg width="101" height="22" viewBox="0 0 101 22" fill="none" xmlns="http://www.w3.org/2000/svg">
<path fill-rule="evenodd" clip-rule="evenodd" d="M91.6853 17.8299C91.8574 18.0032 92.0726 18.0898 92.2884 18.0898C92.525 18.0898 92.7402 18.0032 92.8914 17.8299L99.05 11.635C100.235 10.4436 100.881 8.86236 100.881 7.17285C100.881 5.48332 100.235 3.90208 99.05 2.71074C96.6168 0.263085 92.6326 0.263085 90.1995 2.71074L84.0409 8.90571C83.696 9.2523 83.696 9.79379 84.0409 10.1404C84.3852 10.4869 84.9237 10.4869 85.268 10.1404L91.4271 3.94541C93.1927 2.16923 96.0783 2.16923 97.8438 3.94541C98.7057 4.81183 99.1791 5.95985 99.1791 7.17285C99.1791 8.38585 98.7057 9.5339 97.8438 10.4003L91.6853 16.5953C91.3404 16.9419 91.3404 17.4834 91.6853 17.8299ZM32.4013 11.1369L30.8724 11.3968C30.8078 11.2019 30.7001 11.007 30.5709 10.8337C30.4202 10.6387 30.2263 10.5088 30.011 10.4005C29.731 10.2705 29.4296 10.2272 29.1281 10.2272C28.6974 10.2055 28.2883 10.3138 27.9437 10.5521C27.6422 10.7254 27.4699 11.0286 27.4699 11.3752C27.4699 11.6568 27.5776 11.9167 27.793 12.0683C28.0945 12.2849 28.4605 12.4366 28.8266 12.5015L30.2048 12.8265C31.0016 13.0214 31.583 13.303 31.9706 13.6712C32.3582 14.0611 32.5736 14.6027 32.552 15.1658C32.552 15.664 32.4013 16.1622 32.0998 16.5521C31.7768 16.9853 31.3461 17.3102 30.8509 17.5052C30.2694 17.7434 29.6449 17.8518 28.9989 17.8518C28.0298 17.8518 27.2331 17.6352 26.6301 17.2236C26.0272 16.8121 25.618 16.1622 25.5104 15.4474L27.1469 15.2092C27.2331 15.599 27.4484 15.9456 27.7715 16.1622C28.1375 16.4005 28.5682 16.5088 28.9989 16.4871C29.4727 16.5088 29.9249 16.3789 30.3125 16.1406C30.6139 15.9673 30.8078 15.6424 30.8078 15.2958C30.8078 15.0359 30.7001 14.7759 30.5063 14.6027C30.2479 14.3861 29.9249 14.2344 29.6019 14.1911L28.1375 13.8662C27.3408 13.6712 26.7378 13.3896 26.3502 12.9781C25.9626 12.5665 25.7472 12.0034 25.7687 11.4402C25.7687 10.9637 25.9195 10.4871 26.1994 10.0972C26.5009 9.68566 26.9101 9.38241 27.3838 9.18751C27.9222 8.97089 28.5251 8.86256 29.1066 8.86256C30.0325 8.86256 30.7647 9.05753 31.3031 9.46904C31.8845 9.92391 32.2506 10.4871 32.4013 11.1369ZM7.09819 11.1372L5.56925 11.3971C5.50465 11.2022 5.39698 11.0072 5.26778 10.8339C5.11703 10.639 4.92323 10.5091 4.70788 10.4007C4.42794 10.2707 4.12646 10.2275 3.82498 10.2275C3.3943 10.2057 2.98515 10.3141 2.6406 10.5523C2.33911 10.7256 2.16684 11.0289 2.16684 11.3754C2.16684 11.657 2.27452 11.917 2.48986 12.0686C2.79133 12.2852 3.15742 12.4369 3.5235 12.5018L4.90169 12.8267C5.69846 13.0217 6.27988 13.3032 6.6675 13.6715C7.0551 14.0614 7.27045 14.6029 7.24893 15.1661C7.24893 15.6643 7.09819 16.1625 6.79672 16.5741C6.4737 17.0072 6.04301 17.3322 5.54772 17.5271C4.9663 17.7654 4.3418 17.8737 3.71731 17.8737C2.74827 17.8737 1.9515 17.657 1.34854 17.2455C0.745582 16.8339 0.336431 16.1841 0.22876 15.4694L1.84383 15.231C1.92997 15.621 2.14531 15.9675 2.46832 16.1841C2.8344 16.4224 3.26509 16.5307 3.69578 16.5091C4.16953 16.5307 4.62174 16.4007 5.00936 16.1625C5.31085 15.9892 5.50465 15.6643 5.50465 15.3177C5.50465 15.0578 5.39698 14.7979 5.20317 14.6245C4.94476 14.4079 4.62174 14.2563 4.2772 14.213L2.81287 13.8881C2.0161 13.6932 1.41314 13.4116 1.02553 13C0.63791 12.5885 0.422568 12.0253 0.444102 11.4621C0.444102 10.9856 0.594842 10.5091 0.874785 10.1191C1.17627 9.70759 1.58541 9.40435 2.05917 9.20938C2.59753 8.99277 3.20049 8.8845 3.78191 8.8845C4.70788 8.8845 5.46158 9.0794 5.97841 9.49098C6.55986 9.92421 6.94746 10.4873 7.09819 11.1372ZM11.2322 17.8951C10.7153 17.8951 10.2201 17.7869 9.7463 17.5919C9.31561 17.397 8.94953 17.0937 8.69115 16.7038C8.43271 16.2706 8.28198 15.7724 8.30355 15.2526C8.28198 14.841 8.38968 14.4078 8.58345 14.0395C8.77728 13.7363 9.03572 13.4764 9.33719 13.3031C9.68169 13.1082 10.0263 12.9782 10.4139 12.8916C10.8015 12.8049 11.2106 12.7182 11.6198 12.6749L12.8688 12.5233C13.1057 12.5017 13.3425 12.4367 13.5794 12.3283C13.7302 12.2417 13.8163 12.0685 13.7948 11.8951V11.8518C13.8163 11.4186 13.6656 11.007 13.3856 10.7038C13.041 10.4005 12.6104 10.2489 12.1581 10.2706C11.6844 10.2489 11.2106 10.3789 10.823 10.6388C10.5216 10.8554 10.3062 11.137 10.1555 11.462L8.56193 11.137C8.73418 10.6388 9.01414 10.1839 9.4018 9.83741C9.76788 9.51246 10.1985 9.2742 10.6508 9.12258C11.1245 8.97096 11.6413 8.90597 12.1366 8.90597C12.5027 8.90597 12.8688 8.94932 13.2349 9.03595C13.6225 9.12258 13.9886 9.2742 14.3331 9.46917C14.6777 9.70743 14.9792 10.0107 15.1729 10.3789C15.4098 10.8554 15.5175 11.397 15.496 11.9168V17.6786H13.8378V16.4872H13.7732C13.6441 16.7688 13.4933 16.9854 13.278 17.1804C13.041 17.4186 12.7611 17.5919 12.4381 17.7002C12.0505 17.8519 11.6413 17.9168 11.2322 17.8951ZM11.5983 16.5522C12.0074 16.5739 12.4166 16.4655 12.7827 16.2706C13.1057 16.0973 13.3641 15.8591 13.5363 15.5558C13.7086 15.2742 13.7948 14.9276 13.7948 14.6027V13.4764C13.6871 13.563 13.5794 13.6063 13.4502 13.6497C13.2564 13.7146 13.0626 13.758 12.8688 13.7796C12.6534 13.8229 12.4381 13.8446 12.2228 13.8663L11.7059 13.9313C11.4045 13.9745 11.103 14.0395 10.823 14.1479C10.5862 14.2345 10.3492 14.3645 10.177 14.5594C10.0047 14.7544 9.91862 15.0143 9.94014 15.2742C9.91862 15.6424 10.0909 16.0107 10.3923 16.2273C10.7584 16.4655 11.1676 16.5739 11.5983 16.5522ZM18.361 17.5919C18.8348 17.7869 19.33 17.8951 19.8469 17.8951C20.256 17.9168 20.6867 17.8519 21.0743 17.6569C21.3974 17.5486 21.6773 17.3753 21.9142 17.137C22.1295 16.9421 22.2803 16.7255 22.4094 16.4872H22.474V17.6786H24.1107V11.9168C24.1322 11.397 24.0245 10.8554 23.7876 10.3789C23.5939 10.0107 23.2923 9.70743 22.9478 9.46917C22.6033 9.2742 22.2372 9.12258 21.8496 9.03595C21.4835 8.94932 21.1174 8.90597 20.7513 8.90597C20.256 8.90597 19.7392 8.97096 19.2654 9.12258C18.8132 9.2742 18.3825 9.51246 18.0164 9.83741C17.6288 10.1839 17.3489 10.6388 17.1766 11.137L18.7702 11.462C18.9209 11.137 19.1363 10.8554 19.4377 10.6388C19.8253 10.3789 20.2991 10.2489 20.7728 10.2706C21.2251 10.2489 21.6557 10.4005 22.0003 10.7038C22.2803 11.007 22.431 11.4186 22.4094 11.8518V11.8951C22.431 12.0685 22.3448 12.2417 22.1941 12.3283C21.9572 12.4367 21.7204 12.5017 21.4835 12.5233L20.2345 12.6749C19.8253 12.7182 19.4162 12.8049 19.0286 12.8916C18.641 12.9782 18.2964 13.1082 17.9518 13.3031C17.6504 13.4764 17.392 13.7363 17.1982 14.0395C17.0044 14.4078 16.8967 14.841 16.9182 15.2526C16.8967 15.7724 17.0474 16.2706 17.3059 16.7038C17.5642 17.0937 17.9303 17.397 18.361 17.5919ZM21.4189 16.2706C21.0313 16.4655 20.6221 16.5739 20.2129 16.5522C19.7822 16.5739 19.3731 16.4655 19.0286 16.2273C18.7271 16.0107 18.5548 15.6424 18.5764 15.2742C18.5548 15.0143 18.641 14.7544 18.8132 14.5594C18.9855 14.3645 19.2224 14.2345 19.4593 14.1479C19.7392 14.0395 20.0407 13.9745 20.3422 13.9313L20.859 13.8663C21.0743 13.8446 21.2897 13.8229 21.505 13.7796C21.6988 13.758 21.8926 13.7146 22.0864 13.6497C22.2157 13.6063 22.3233 13.563 22.431 13.4764V14.6027C22.431 14.9276 22.3448 15.2742 22.1726 15.5558C22.0003 15.8591 21.7419 16.0973 21.4189 16.2706ZM34.0163 16.6824C34.0163 17.3105 34.5116 17.8087 35.136 17.8087C35.3298 17.8087 35.5236 17.7654 35.6959 17.6788C35.8682 17.5704 35.9974 17.4405 36.105 17.2672C36.3635 16.834 36.2774 16.2708 35.9328 15.9242C35.4806 15.4694 34.7699 15.4694 34.3392 15.9026C34.1455 16.0975 34.0163 16.3791 34.0163 16.6824ZM41.7253 21.1223C41.1224 21.144 40.5194 21.0357 39.9595 20.8624C39.5073 20.7108 39.0982 20.4725 38.7536 20.1476C38.4521 19.866 38.2152 19.5411 38.0645 19.1945L39.5073 18.588C39.6365 18.7613 39.7657 18.9346 39.9165 19.1079C40.1102 19.3028 40.3472 19.4761 40.6055 19.5844C40.9716 19.7361 41.3592 19.801 41.7469 19.7793C42.3067 19.801 42.8666 19.6494 43.3189 19.3245C43.728 19.0212 43.9434 18.523 43.9434 17.8515V16.1187H43.8357L43.8353 16.1193C43.7062 16.3357 43.5771 16.5521 43.405 16.7252C43.1896 16.9635 42.9313 17.1801 42.6298 17.31C42.2206 17.4833 41.7899 17.5699 41.3377 17.5699C40.6917 17.5699 40.0456 17.4183 39.4858 17.0934C38.9259 16.7468 38.4737 16.2487 38.1937 15.6638C37.8491 14.9274 37.6984 14.1476 37.72 13.3245C37.6984 12.5014 37.8491 11.6999 38.1937 10.9418C38.4737 10.3136 38.9259 9.79375 39.4858 9.42552C40.0456 9.07899 40.6917 8.88402 41.3377 8.90566C41.7899 8.88402 42.2206 8.97065 42.6298 9.16562C42.9313 9.31724 43.1896 9.53385 43.405 9.79375C43.5557 9.98872 43.7065 10.2053 43.8357 10.4219H43.9649V9.014H45.6015V17.8949C45.6231 18.5447 45.4507 19.1729 45.0847 19.7143C44.7402 20.1909 44.2449 20.5592 43.6849 20.7758C43.082 21.0357 42.4144 21.144 41.7253 21.1223ZM41.7038 16.1837C42.1345 16.2053 42.5652 16.0754 42.9313 15.8371C43.2758 15.5989 43.5557 15.2523 43.7065 14.8407C43.9003 14.3425 43.9864 13.8227 43.9864 13.3028C43.9864 12.783 43.9003 12.2631 43.728 11.7649C43.5773 11.3533 43.3189 10.9851 42.9743 10.7252C42.2206 10.227 41.2301 10.227 40.4763 10.7468C40.1318 11.0284 39.8734 11.3967 39.7226 11.8082C39.5504 12.2848 39.4643 12.8046 39.4643 13.3028C39.4643 13.8227 39.5504 14.3209 39.7226 14.7974C39.8734 15.209 40.1533 15.5555 40.4979 15.7938C40.8209 16.0537 41.2516 16.1837 41.7038 16.1837ZM47.4746 9.01386V17.6998H49.1327V12.393C49.1327 11.6781 49.5204 11.0066 50.1449 10.6818C50.4678 10.5084 50.8339 10.4218 51.2 10.4218C51.3723 10.4218 51.5446 10.4434 51.7169 10.4651C51.8891 10.4868 52.0184 10.5084 52.083 10.5301V8.90558C52.0442 8.90558 51.9968 8.9012 51.9446 8.89637C51.8806 8.89045 51.8095 8.88388 51.7384 8.88388H51.3723C50.8985 8.88388 50.4248 9.0355 50.0156 9.29546C49.6065 9.55536 49.3266 9.94529 49.1758 10.4002H49.0897V9.01386H47.4746ZM56.4974 17.8953C55.7436 17.917 55.0115 17.722 54.387 17.3321C53.784 16.9639 53.2888 16.4224 52.9873 15.7725C52.6427 15.0361 52.4704 14.2346 52.492 13.4115C52.4704 12.5884 52.6427 11.787 52.9873 11.0505C53.2888 10.4007 53.784 9.85917 54.387 9.46929C55.7006 8.73282 57.3157 8.73282 58.6293 9.46929C59.2322 9.85917 59.7059 10.4007 60.029 11.0505C60.3735 11.787 60.5458 12.5884 60.5242 13.4115C60.5458 14.213 60.3735 15.0361 60.029 15.7725C59.7275 16.4224 59.2322 16.9639 58.6293 17.3321C57.9617 17.7003 57.2295 17.8953 56.4974 17.8953ZM56.4974 16.4657C56.9711 16.4874 57.4233 16.3357 57.8109 16.0541C58.1555 15.7725 58.4354 15.3827 58.5862 14.9494C58.9091 13.9531 58.9091 12.8917 58.5862 11.8953C58.4354 11.4621 58.177 11.0722 57.8109 10.769C57.0357 10.2058 55.9805 10.2058 55.2053 10.769C54.8392 11.0722 54.5808 11.4621 54.43 11.8953C54.107 12.8917 54.107 13.9531 54.43 14.9494C54.5808 15.3827 54.8392 15.7725 55.2053 16.0541C55.5499 16.3357 56.0236 16.4874 56.4974 16.4657ZM67.4594 9.01427V14.1045C67.4809 14.5377 67.3733 14.9709 67.1576 15.3175C66.9639 15.6208 66.7057 15.859 66.3824 16.0323C66.0811 16.184 65.7584 16.2706 65.435 16.2706C64.9611 16.2922 64.4877 16.0973 64.1643 15.7508C63.8201 15.3608 63.648 14.8627 63.6695 14.3428V9.01427H61.9896V14.5377C61.9681 15.1442 62.0973 15.7724 62.3557 16.3356C62.5711 16.7905 62.9156 17.1803 63.3463 17.4402C63.7986 17.7002 64.2941 17.8085 64.8104 17.8085C65.392 17.8302 65.9736 17.6786 66.4475 17.3536C66.8563 17.0721 67.2012 16.6821 67.3949 16.2056H67.4809V17.7002H69.1389V9.01427H67.4594ZM71.0111 20.971V9.01423H72.6475V10.4222H72.7981C72.9272 10.2056 73.0778 9.98895 73.2291 9.79405C73.4442 9.53409 73.7024 9.33918 73.9828 9.18756C74.3916 8.99259 74.8225 8.90596 75.2743 8.9276C75.9419 8.90596 76.5881 9.10086 77.1481 9.4691C77.7081 9.83733 78.16 10.3789 78.4403 11.007C78.763 11.7651 78.9352 12.5883 78.9136 13.4114C78.9352 14.2345 78.7845 15.0576 78.4403 15.8157C78.16 16.4439 77.7296 16.9854 77.1481 17.3536C76.5881 17.7219 75.9419 17.8951 75.2958 17.8951C74.844 17.9168 74.4131 17.8301 74.0043 17.6352C73.7024 17.4836 73.4442 17.267 73.2291 17.007C73.0778 16.8121 72.9272 16.5955 72.7981 16.3789H72.6906V20.9926H71.0111V20.971ZM72.6475 13.368C72.6475 13.9095 72.7336 14.4511 72.9057 14.971C73.0563 15.4042 73.3151 15.7724 73.6594 16.054C74.4131 16.5738 75.4041 16.5738 76.1362 16.0323C76.4805 15.7507 76.7602 15.3608 76.9114 14.9276C77.2557 13.9312 77.2557 12.8265 76.9114 11.8301C76.7602 11.3969 76.502 11.0287 76.1577 10.7471C75.4041 10.2273 74.4131 10.2273 73.6594 10.7254C73.3151 11.007 73.0563 11.3753 72.9057 11.7868C72.7336 12.285 72.6475 12.8265 72.6475 13.368ZM88.4769 18.0902C88.2611 18.0902 88.046 18.0036 87.8739 17.8303C87.529 17.4837 87.529 16.9422 87.8739 16.5956L95.9492 8.47286C96.6598 7.7581 96.6598 6.58839 95.9492 5.85193C95.2385 5.13713 94.0539 5.13713 93.3433 5.85193L85.268 13.9747C84.9237 14.3213 84.3852 14.3213 84.0409 13.9747C83.696 13.6281 83.696 13.0866 84.0409 12.74L92.1378 4.63893C93.5154 3.25264 95.7771 3.25264 97.1762 4.63893C98.576 6.02521 98.576 8.2996 97.1762 9.70754L89.0794 17.8303C88.9073 18.0036 88.6921 18.0902 88.4769 18.0902ZM84.0619 17.8299C84.2341 18.0032 84.4492 18.0899 84.665 18.0899C84.8802 18.0899 85.0953 18.0032 85.2674 17.8516L95.2596 7.80099C95.6038 7.45446 95.6038 6.91294 95.2596 6.56636C94.9153 6.21979 94.3768 6.21979 94.0319 6.56636L84.0619 16.5953C83.7171 16.9418 83.7171 17.4833 84.0619 17.8299Z" fill="#97A59D"/>
</svg>
