<svg width="138" height="24" viewBox="0 0 138 24" fill="none" xmlns="http://www.w3.org/2000/svg">
<path fill-rule="evenodd" clip-rule="evenodd" d="M30.933 18.03H27.4325V0H30.933V18.03ZM31.9076 12.036C31.9076 10.7732 32.1873 9.67033 32.7468 8.72727C33.3062 7.78421 34.0814 7.04895 35.0724 6.52148C36.0634 5.99401 37.1903 5.73027 38.453 5.73027C39.7158 5.73027 40.8347 5.99401 41.8097 6.52148C42.8007 7.04895 43.5759 7.78421 44.1354 8.72727C44.6948 9.67033 44.9745 10.7732 44.9745 12.036C44.9745 13.2827 44.6948 14.3776 44.1354 15.3207C43.5759 16.2637 42.8007 16.999 41.8097 17.5265C40.8347 18.0539 39.7158 18.3177 38.453 18.3177C37.1903 18.3177 36.0634 18.0539 35.0724 17.5265C34.0814 16.999 33.3062 16.2637 32.7468 15.3207C32.1873 14.3776 31.9076 13.2827 31.9076 12.036ZM35.4321 12.012C35.4321 12.6513 35.5599 13.2108 35.8157 13.6903C36.0714 14.1538 36.4231 14.5215 36.8706 14.7932C37.3182 15.049 37.8456 15.1768 38.453 15.1768C39.0444 15.1768 39.5639 15.049 40.0115 14.7932C40.475 14.5215 40.8267 14.1538 41.0664 13.6903C41.3222 13.2108 41.45 12.6513 41.45 12.012C41.45 11.3726 41.3222 10.8212 41.0664 10.3576C40.8267 9.87812 40.475 9.51049 40.0115 9.25474C39.5639 8.999 39.0444 8.87113 38.453 8.87113C37.8456 8.87113 37.3182 8.999 36.8706 9.25474C36.4231 9.51049 36.0714 9.87812 35.8157 10.3576C35.5599 10.8212 35.4321 11.3726 35.4321 12.012ZM60.4943 8.72727C59.9348 9.67033 59.6551 10.7732 59.6551 12.036C59.6551 13.2827 59.9348 14.3776 60.4943 15.3207C61.0537 16.2637 61.8289 16.999 62.82 17.5265C63.811 18.0539 64.9378 18.3177 66.2006 18.3177C67.4633 18.3177 68.5822 18.0539 69.5572 17.5265C70.5482 16.999 71.3234 16.2637 71.8829 15.3207C72.4423 14.3776 72.722 13.2827 72.722 12.036C72.722 10.7732 72.4423 9.67033 71.8829 8.72727C71.3234 7.78421 70.5482 7.04895 69.5572 6.52148C68.5822 5.99401 67.4633 5.73027 66.2006 5.73027C64.9378 5.73027 63.811 5.99401 62.82 6.52148C61.8289 7.04895 61.0537 7.78421 60.4943 8.72727ZM63.5632 13.6903C63.3075 13.2108 63.1796 12.6513 63.1796 12.012C63.1796 11.3726 63.3075 10.8212 63.5632 10.3576C63.819 9.87812 64.1706 9.51049 64.6181 9.25474C65.0657 8.999 65.5932 8.87113 66.2006 8.87113C66.792 8.87113 67.3114 8.999 67.759 9.25474C68.2225 9.51049 68.5742 9.87812 68.8139 10.3576C69.0697 10.8212 69.1976 11.3726 69.1976 12.012C69.1976 12.6513 69.0697 13.2108 68.8139 13.6903C68.5742 14.1538 68.2225 14.5215 67.759 14.7932C67.3114 15.049 66.792 15.1768 66.2006 15.1768C65.5932 15.1768 65.0657 15.049 64.6181 14.7932C64.1706 14.5215 63.819 14.1538 63.5632 13.6903ZM76.4233 18.03H73.0427L75.8719 0H79.2525L76.4233 18.03ZM79.9416 6.06593L78.0475 18.03H81.4521L83.3222 6.06593H79.9416ZM80.7328 3.57243C81.0525 3.87612 81.4521 4.02797 81.9316 4.02797C82.3312 4.02797 82.7068 3.92408 83.0585 3.71628C83.4101 3.49251 83.6899 3.2048 83.8977 2.85315C84.1214 2.5015 84.2333 2.13387 84.2333 1.75025C84.2333 1.27073 84.0815 0.87912 83.7778 0.575424C83.4741 0.255744 83.0745 0.0959043 82.579 0.0959043C82.1794 0.0959043 81.8037 0.207792 81.4521 0.431569C81.1005 0.639361 80.8127 0.919081 80.589 1.27073C80.3812 1.60639 80.2773 1.97403 80.2773 2.37363C80.2773 2.85315 80.4291 3.25275 80.7328 3.57243ZM86.6019 18.03L83.8926 6.06593H87.2972L88.1843 10.7652C88.3122 11.4206 88.4241 12.044 88.52 12.6354C88.6159 13.2268 88.7038 13.8102 88.7837 14.3856C89.0394 13.8262 89.3192 13.2188 89.6229 12.5634C89.9266 11.9081 90.2143 11.3087 90.486 10.7652L92.9795 6.06593H96.7198L89.9345 18.03H86.6019ZM115.75 20.8352L115.295 23.6883C115.63 23.7842 115.982 23.8561 116.35 23.9041C116.717 23.968 117.117 24 117.549 24C118.715 24 119.658 23.6883 120.378 23.0649C121.113 22.4575 121.768 21.6503 122.344 20.6434L130.52 6.06593H126.827L122.608 14.12L121.169 6.06593C120.549 6.06593 119.924 6.0455 119.312 6.02554C117.252 5.95825 115.356 5.89636 114.425 6.64136C114.003 6.97885 113.658 7.37549 113.389 7.83128L113.49 6.06593H110.301L108.407 18.03H111.812L112.651 12.5874C112.779 11.8042 113.011 11.1648 113.346 10.6693C113.698 10.1738 114.137 9.80619 114.665 9.56643C115.208 9.32667 115.824 9.20679 116.511 9.20679H118.461L120.459 18.2232L119.97 19.1568C119.762 19.5724 119.539 19.9001 119.299 20.1399C119.059 20.3956 118.803 20.5714 118.532 20.6673C118.26 20.7792 117.964 20.8352 117.644 20.8352H115.75ZM107.777 15.7934L105.777 13.7173C104.181 15.6278 98.3524 16.4559 98.3524 12.9395L107.446 12.8991L107.59 11.988C108.22 7.63809 105.829 5.75424 102.178 5.75424C99.5481 5.75424 97.286 6.92363 96.0231 9.27872C95.4317 10.3656 95.136 11.5964 95.136 12.971C95.136 19.3075 104.534 19.8739 107.777 15.7934ZM98.6807 10.8132C98.7117 10.7321 98.745 10.6521 98.7804 10.5734C99.4237 9.21899 100.482 8.51149 101.986 8.51149C103.363 8.51149 104.663 9.16785 104.401 10.8132H98.6807ZM45.8466 11.8202C45.8466 10.6214 46.0864 9.56643 46.5659 8.65534C47.0454 7.72827 47.7168 7.001 48.5799 6.47353C49.443 5.94605 50.434 5.68232 51.5529 5.68232C52.512 5.68232 53.3351 5.88212 54.0225 6.28172C54.5305 6.57712 54.9251 6.9424 55.2061 7.37757L55.3891 6.06593H58.6738V15.3686C58.6738 21.0286 55.8806 23.6036 51.732 23.6036C48.2737 23.6036 45.6469 21.9421 44.7638 19.8819L47.3749 17.8621C48.1621 19.189 49.5689 20.4148 51.708 20.4148C53.9755 20.4148 55.1733 18.9147 55.1733 16.3527C54.8965 16.707 54.5209 17.0104 54.0464 17.2627C53.3112 17.6623 52.456 17.8621 51.481 17.8621C50.3621 17.8621 49.3791 17.6064 48.532 17.0949C47.6848 16.5834 47.0215 15.8721 46.5419 14.961C46.0784 14.0499 45.8466 13.003 45.8466 11.8202ZM49.3471 11.7483C49.3471 12.3397 49.467 12.8671 49.7068 13.3307C49.9625 13.7782 50.3062 14.1379 50.7377 14.4096C51.1693 14.6813 51.6728 14.8172 52.2482 14.8172C52.8396 14.8172 53.3511 14.6893 53.7827 14.4336C54.2302 14.1618 54.5739 13.8022 54.8137 13.3546C55.0534 12.8911 55.1733 12.3556 55.1733 11.7483C55.1733 11.1249 55.0534 10.5974 54.8137 10.1658C54.5739 9.71828 54.2302 9.36663 53.7827 9.11089C53.3511 8.85515 52.8316 8.72727 52.2243 8.72727C51.6488 8.72727 51.1453 8.85515 50.7138 9.11089C50.2822 9.36663 49.9465 9.71828 49.7068 10.1658C49.467 10.6134 49.3471 11.1409 49.3471 11.7483ZM131.514 1.52984H130.52V0.819493H133.276V1.52984H132.281V4.32388H131.514V1.52984ZM133.499 4.32388H134.242V3.3436C134.242 3.15101 134.239 2.97895 134.233 2.82741C134.229 2.67587 134.217 2.53538 134.195 2.40594L134.933 4.32388H135.634L136.378 2.40594C136.368 2.47224 136.361 2.53696 136.354 2.6001C136.351 2.66008 136.348 2.73112 136.345 2.8132C136.342 2.89529 136.34 2.99789 136.34 3.12102V3.58985V4.32388H137.083V0.819493H136.331L135.284 3.43357L134.242 0.819493H133.499V4.32388Z" fill="#50665E"/>
<path fill-rule="evenodd" clip-rule="evenodd" d="M18.8032 5.8487C17.945 4.36233 11.4113 0.580536 9.7165 0.580536C8.02173 0.580536 1.47021 4.3931 0.629822 5.8487C-0.210569 7.30431 -0.209312 14.9316 0.629822 16.3851C1.46896 17.8385 8.02173 21.6532 9.71651 21.6532C11.4113 21.6532 17.9438 17.8736 18.8032 16.3851C19.6626 14.8965 19.6613 7.33508 18.8032 5.8487ZM2.74196 7.58055L3.18092 6.82026L9.71651 9.72526L16.2634 6.81522L16.7011 7.57321L10.9167 11.8127L10.156 18.9314H9.27697L8.51635 11.8127L2.74196 7.58055Z" fill="#50665E"/>
</svg>
