<svg width="79" height="15" viewBox="0 0 79 15" fill="none" xmlns="http://www.w3.org/2000/svg">
<path fill-rule="evenodd" clip-rule="evenodd" d="M31.8389 3.20635V11.8254H33.8376V3.20635H31.8389ZM31.8389 0V2.1746H33.8376V0H31.8389ZM21.743 3.20635V15H23.7417V10.9523C23.9942 11.2341 24.3008 11.4616 24.6617 11.6349C25.201 11.8889 25.7879 12.0159 26.4224 12.0159C27.2473 12.0159 27.9875 11.8201 28.6431 11.4286C29.2988 11.0265 29.817 10.4868 30.1977 9.80953C30.5783 9.12169 30.7687 8.35979 30.7687 7.52381C30.7687 6.66667 30.5783 5.89947 30.1977 5.22222C29.817 4.54497 29.2988 4.01058 28.6431 3.61905C27.9875 3.21693 27.2473 3.01587 26.4224 3.01587C25.7668 3.01587 25.1799 3.14815 24.6617 3.4127C24.2519 3.62194 23.9082 3.89407 23.6306 4.22909V3.20635H21.743ZM27.4852 9.84127C27.1151 10.0635 26.6868 10.1746 26.2003 10.1746C25.735 10.1746 25.312 10.0635 24.9314 9.84127C24.5612 9.60847 24.2704 9.29101 24.0589 8.88889C23.8474 8.48677 23.7417 8.03175 23.7417 7.52381C23.7417 7.00529 23.8474 6.54497 24.0589 6.14286C24.2704 5.74074 24.5612 5.42857 24.9314 5.20635C25.312 4.97355 25.735 4.85714 26.2003 4.85714C26.6868 4.85714 27.1151 4.97355 27.4852 5.20635C27.8659 5.43915 28.162 5.75661 28.3735 6.15873C28.585 6.55026 28.6907 7.00529 28.6907 7.52381C28.6907 8.03175 28.585 8.48677 28.3735 8.88889C28.162 9.29101 27.8659 9.60847 27.4852 9.84127ZM39.3351 12.0159C38.4573 12.0159 37.6854 11.8148 37.0192 11.4127C36.3529 11.0106 35.8348 10.4709 35.4646 9.79365C35.0945 9.10582 34.9095 8.33862 34.9095 7.49206C34.9095 6.63492 35.0998 5.87302 35.4805 5.20635C35.8612 4.5291 36.3688 3.99471 37.0033 3.60318C37.6484 3.21164 38.378 3.01587 39.1923 3.01587C39.8479 3.01587 40.4296 3.12698 40.9372 3.34921C41.4553 3.57143 41.8942 3.87831 42.2537 4.26984C42.6133 4.66138 42.8829 5.11111 43.0627 5.61905C43.2531 6.1164 43.3482 6.65079 43.3482 7.22222C43.3482 7.37037 43.3377 7.52381 43.3165 7.68254C43.3059 7.83069 43.2848 7.96296 43.2531 8.07937H36.9779C37.0004 8.39832 37.0723 8.68932 37.1936 8.95238C37.3946 9.36508 37.6801 9.68783 38.0502 9.92064C38.4309 10.1429 38.8645 10.254 39.3509 10.254C39.8374 10.254 40.2498 10.1534 40.5882 9.95238C40.9372 9.74074 41.2121 9.46032 41.413 9.11111L43.031 9.90476C42.8618 10.3069 42.5974 10.672 42.2379 11C41.8783 11.3175 41.45 11.5661 40.953 11.746C40.4666 11.9259 39.9273 12.0159 39.3351 12.0159ZM37.1936 5.98413C37.1209 6.15544 37.0663 6.34063 37.0299 6.53968H41.2338C41.2197 6.3246 41.1737 6.12354 41.0958 5.93651C40.9477 5.54497 40.7045 5.2381 40.3661 5.01587C40.0383 4.78307 39.647 4.66667 39.1923 4.66667C38.7376 4.66667 38.3357 4.78307 37.9868 5.01587C37.6484 5.2381 37.384 5.56085 37.1936 5.98413ZM44.4249 0V11.8254H46.4236V0H44.4249ZM52.048 12.0159C51.202 12.0159 50.4353 11.8201 49.7479 11.4286C49.0605 11.037 48.5106 10.5026 48.0982 9.8254C47.6964 9.14815 47.4955 8.37566 47.4955 7.50794C47.4955 6.64021 47.6964 5.87302 48.0982 5.20635C48.5106 4.5291 49.0605 3.99471 49.7479 3.60318C50.4353 3.21164 51.202 3.01587 52.048 3.01587C52.8939 3.01587 53.6553 3.21164 54.3321 3.60318C55.0195 3.99471 55.5641 4.5291 55.9659 5.20635C56.3678 5.87302 56.5687 6.64021 56.5687 7.50794C56.5687 8.37566 56.3625 9.15344 55.9501 9.84127C55.5482 10.5185 55.0036 11.0529 54.3163 11.4444C53.6395 11.8254 52.8834 12.0159 52.048 12.0159ZM52.048 10.1746C52.5238 10.1746 52.9415 10.0635 53.3011 9.84127C53.6712 9.60847 53.962 9.29101 54.1735 8.88889C54.3956 8.48677 54.5066 8.02646 54.5066 7.50794C54.5066 7 54.3956 6.55026 54.1735 6.15873C53.962 5.75661 53.6712 5.43915 53.3011 5.20635C52.9415 4.97355 52.5238 4.85714 52.048 4.85714C51.5615 4.85714 51.1332 4.97355 50.7631 5.20635C50.393 5.43915 50.1022 5.75661 49.8907 6.15873C49.6792 6.55026 49.5734 7 49.5734 7.50794C49.5734 8.02646 49.6792 8.48677 49.8907 8.88889C50.1022 9.29101 50.393 9.60847 50.7631 9.84127C51.1332 10.0635 51.5615 10.1746 52.048 10.1746ZM62.4207 9.65079V11.8254H64.4352V9.65079H62.4207ZM66.3176 11.8254V3.20635H68.3162V11.8254H66.3176ZM66.3176 2.1746V0H68.3162V2.1746H66.3176ZM71.6406 11.4286C72.3279 11.8201 73.0946 12.0159 73.9406 12.0159C74.776 12.0159 75.5321 11.8254 76.2089 11.4444C76.8963 11.0529 77.4409 10.5185 77.8427 9.84127C78.2551 9.15344 78.4614 8.37566 78.4614 7.50794C78.4614 6.64021 78.2605 5.87302 77.8586 5.20635C77.4568 4.5291 76.9121 3.99471 76.2248 3.60318C75.548 3.21164 74.7866 3.01587 73.9406 3.01587C73.0946 3.01587 72.3279 3.21164 71.6406 3.60318C70.9532 3.99471 70.4033 4.5291 69.9909 5.20635C69.589 5.87302 69.3881 6.64021 69.3881 7.50794C69.3881 8.37566 69.589 9.14815 69.9909 9.8254C70.4033 10.5026 70.9532 11.037 71.6406 11.4286ZM75.1937 9.84127C74.8342 10.0635 74.4165 10.1746 73.9406 10.1746C73.4542 10.1746 73.0259 10.0635 72.6558 9.84127C72.2856 9.60847 71.9948 9.29101 71.7833 8.88889C71.5718 8.48677 71.4661 8.02646 71.4661 7.50794C71.4661 7 71.5718 6.55026 71.7833 6.15873C71.9948 5.75661 72.2856 5.43915 72.6558 5.20635C73.0259 4.97355 73.4542 4.85714 73.9406 4.85714C74.4165 4.85714 74.8342 4.97355 75.1937 5.20635C75.5639 5.43915 75.8546 5.75661 76.0661 6.15873C76.2882 6.55026 76.3993 7 76.3993 7.50794C76.3993 8.02646 76.2882 8.48677 76.0661 8.88889C75.8546 9.29101 75.5639 9.60847 75.1937 9.84127ZM58.5185 11.8254V4.98413H57.0274V3.20635H58.5185V0H60.5171V3.20635H62.4999V4.98413H60.5171V11.8254H58.5185Z" fill="#52645E"/>
<path d="M3.40677 5.66928C2.64869 5.95811 2.62129 6.2081 3.3127 6.63581C5.23957 7.8278 6.08948 7.5505 8.67327 6.7075C8.98089 6.60713 9.3131 6.49874 9.67462 6.38386C11.3615 5.84782 11.9071 6.09605 10.1646 7.13104C6.82788 9.1129 5.25725 9.59188 1.72144 7.95656C-0.825273 6.77869 -0.237953 5.38477 1.49036 4.51182C4.64258 2.91966 11.8637 2.01204 14.1736 3.09613C16.28 4.08469 17.5876 12.3758 15.9635 13.3357C14.1198 14.4252 11.8118 12.8171 10.5355 11.7076C10.0484 11.2842 9.90467 11.3191 9.55415 11.8569C8.66605 13.2195 7.19249 14.5823 5.98176 13.9498C4.52609 13.1895 5.95224 9.43581 6.46002 9.42362C6.59201 9.42046 6.76804 10.258 6.89343 10.8546L6.90348 10.9024C7.03728 11.5385 7.2225 11.6608 7.7486 11.2476C7.93392 11.102 8.12786 10.9063 8.32997 10.7024C8.78538 10.2428 9.28232 9.74131 9.81583 9.67723C10.1184 9.64088 10.5772 9.88283 11.4948 10.3667C11.6122 10.4287 11.7658 10.5201 11.9426 10.6253C12.9476 11.2233 14.705 12.269 14.8672 10.9068C15.2736 7.49307 14.142 4.58945 13.2727 4.1022C12.4034 3.61495 7.20959 4.22041 3.40677 5.66928Z" fill="#52645E"/>
</svg>
