<svg width="109" height="17" viewBox="0 0 109 17" fill="none" xmlns="http://www.w3.org/2000/svg">
<g id="Space Logo">
<g id="Contractors">
<path d="M6.56564 16.2441C5.19624 16.2441 4.03022 15.9662 3.06757 15.4103C2.10492 14.8408 1.36598 14.0612 0.85076 13.0715C0.349098 12.0817 0.0982666 10.9428 0.0982666 9.65472C0.0982666 8.35311 0.301643 7.15997 0.708397 6.07529C1.11515 4.99062 1.6846 4.04831 2.41676 3.24836C3.16247 2.44841 4.03699 1.8315 5.04032 1.39763C6.04364 0.963761 7.1351 0.746826 8.31468 0.746826C9.53494 0.746826 10.5925 0.97732 11.4874 1.43831C12.3822 1.88574 13.0737 2.52298 13.5618 3.35005C14.0635 4.16355 14.3346 5.11264 14.3753 6.19732H11.162C11.0806 5.62787 10.8908 5.1601 10.5925 4.79402C10.3078 4.42794 9.93492 4.15678 9.47393 3.98052C9.0265 3.7907 8.51128 3.69579 7.92827 3.69579C7.22323 3.69579 6.58598 3.83815 6.01653 4.12288C5.44707 4.40761 4.95897 4.81436 4.55221 5.34314C4.14546 5.85836 3.83362 6.46849 3.61668 7.17353C3.41331 7.87857 3.31162 8.63784 3.31162 9.45135C3.31162 10.2242 3.44042 10.9021 3.69803 11.4851C3.9692 12.0546 4.35562 12.502 4.85728 12.8274C5.3725 13.1392 5.98263 13.2952 6.68767 13.2952C7.6232 13.2952 8.40959 13.0986 9.04684 12.7054C9.69764 12.3122 10.1993 11.6682 10.5518 10.7733H13.8669C13.2839 12.563 12.3687 13.9256 11.1213 14.8612C9.8739 15.7831 8.35536 16.2441 6.56564 16.2441Z" fill="#F0F5F0"/>
<path d="M14.6746 11.6478C14.6746 10.7936 14.8238 10.0005 15.1221 9.26831C15.4339 8.52259 15.861 7.87857 16.4034 7.33623C16.9592 6.79389 17.6033 6.3668 18.3354 6.05496C19.0676 5.74311 19.854 5.58719 20.6946 5.58719C21.6979 5.58719 22.5724 5.77701 23.3182 6.15664C24.0774 6.53628 24.6604 7.07184 25.0672 7.76332C25.4875 8.4548 25.6977 9.26153 25.6977 10.1835C25.6977 11.0377 25.5417 11.8309 25.2299 12.563C24.9181 13.2952 24.491 13.9392 23.9486 14.4951C23.4063 15.0374 22.769 15.4645 22.0369 15.7764C21.3047 16.0882 20.5116 16.2441 19.6574 16.2441C18.6676 16.2441 17.7931 16.0543 17.0338 15.6747C16.2881 15.2815 15.7051 14.7391 15.2848 14.0477C14.878 13.3562 14.6746 12.5562 14.6746 11.6478ZM17.6033 11.4038C17.6033 12.0952 17.7999 12.6579 18.1931 13.0918C18.5863 13.5121 19.1218 13.7223 19.7997 13.7223C20.3556 13.7223 20.8505 13.5799 21.2844 13.2952C21.7318 12.9969 22.0911 12.5969 22.3623 12.0952C22.6335 11.5936 22.769 11.0377 22.769 10.4276C22.769 9.72252 22.5724 9.15984 22.1792 8.73953C21.7861 8.31922 21.2437 8.10906 20.5522 8.10906C20.0235 8.10906 19.5286 8.2582 19.0676 8.55649C18.6202 8.84122 18.2609 9.23441 17.9897 9.73607C17.7321 10.2242 17.6033 10.7801 17.6033 11.4038Z" fill="#F0F5F0"/>
<path d="M29.1471 16.0001H26.2592L27.8658 5.85158H30.5504L30.5911 7.03116C31.025 6.48883 31.4724 6.10919 31.9334 5.89226C32.3944 5.66176 32.9367 5.54652 33.5604 5.54652C34.3197 5.54652 34.9705 5.73633 35.5128 6.11597C36.0687 6.48205 36.4822 6.99049 36.7534 7.64129C37.0246 8.27854 37.0991 8.98358 36.9771 9.75641L35.9806 16.0001H33.113L33.9875 10.4479C34.096 9.74285 34.001 9.18018 33.7028 8.75987C33.418 8.33955 32.9638 8.1294 32.3401 8.1294C31.73 8.1294 31.2148 8.33277 30.7945 8.73953C30.3877 9.14628 30.1233 9.72929 30.0013 10.4886L29.1471 16.0001Z" fill="#F0F5F0"/>
<path d="M38.5196 5.85158H45.17L44.7836 8.25142H38.1332L38.5196 5.85158ZM41.6719 16.0001H38.8043L40.8991 2.73992H43.7667L41.6719 16.0001Z" fill="#F0F5F0"/>
<path d="M52.8289 5.83124L52.4018 8.51581H51.4459C50.8629 8.51581 50.3409 8.6175 49.8799 8.82088C49.4325 9.02426 49.0597 9.3361 48.7614 9.75641C48.4766 10.1767 48.28 10.7191 48.1716 11.3834L47.4598 16.0001H44.5718L46.1785 5.85158H48.8834L48.7614 7.98703H48.497C48.741 7.32267 49.1342 6.77355 49.6766 6.33968C50.2325 5.90581 50.9036 5.68888 51.69 5.68888C51.8798 5.68888 52.0696 5.70244 52.2594 5.72955C52.4628 5.74311 52.6526 5.77701 52.8289 5.83124Z" fill="#F0F5F0"/>
<path d="M55.1422 16.2645C54.2202 16.2645 53.4745 16.0069 52.905 15.4916C52.3356 14.9764 52.0508 14.2985 52.0508 13.4579C52.0508 12.4003 52.4101 11.5665 53.1287 10.9563C53.8473 10.3462 54.8778 9.98691 56.22 9.87844L59.108 9.63439L59.1283 9.43101C59.2097 8.88867 59.1012 8.47514 58.8029 8.19041C58.5046 7.90568 58.0572 7.76332 57.4606 7.76332C56.2675 7.76332 55.5896 8.27176 55.4269 9.28864H52.905C53.0948 8.10906 53.61 7.19387 54.4507 6.54306C55.2913 5.89226 56.3963 5.56685 57.7657 5.56685C59.2436 5.56685 60.3486 5.96683 61.0807 6.76677C61.8265 7.56672 62.0841 8.64462 61.8536 10.0005L60.8977 16.0001H58.3758L58.3962 14.5968C58.1521 15.0984 57.725 15.5052 57.1149 15.817C56.5183 16.1153 55.8607 16.2645 55.1422 16.2645ZM56.2811 14.1087C56.959 14.1087 57.5149 13.9324 57.9487 13.5799C58.3962 13.2138 58.6673 12.7189 58.7623 12.0952L58.8436 11.5461L57.0946 11.6885C56.3217 11.7563 55.7726 11.9054 55.4472 12.1359C55.1218 12.3664 54.9591 12.6918 54.9591 13.1121C54.9591 13.4375 55.0744 13.6884 55.3049 13.8646C55.5353 14.0273 55.8607 14.1087 56.2811 14.1087Z" fill="#F0F5F0"/>
<path d="M62.9687 11.7088C62.9687 10.5428 63.2195 9.4988 63.7211 8.57683C64.2228 7.64129 64.9075 6.90914 65.7752 6.38036C66.643 5.85158 67.6192 5.58719 68.7039 5.58719C70.1275 5.58719 71.2393 5.96005 72.0392 6.70576C72.8528 7.43792 73.2595 8.4548 73.2595 9.75641H70.3716C70.3444 9.22763 70.1682 8.82766 69.8428 8.55649C69.5309 8.27176 69.0971 8.1294 68.5412 8.1294C68.0395 8.1294 67.5853 8.27854 67.1785 8.57683C66.7718 8.87511 66.4532 9.27509 66.2227 9.77675C66.0057 10.2784 65.8973 10.8546 65.8973 11.5055C65.8973 12.1969 66.06 12.7393 66.3854 13.1325C66.7243 13.5121 67.1989 13.7019 67.809 13.7019C68.3107 13.7019 68.7513 13.5596 69.131 13.2748C69.5242 12.9765 69.8089 12.563 69.9851 12.0342H72.9138C72.7104 12.8749 72.3579 13.6138 71.8562 14.251C71.3545 14.8747 70.7444 15.3628 70.0258 15.7153C69.3072 16.0679 68.5208 16.2441 67.6666 16.2441C66.6769 16.2441 65.8295 16.0679 65.1244 15.7153C64.4194 15.3493 63.8839 14.8273 63.5178 14.1493C63.1517 13.4714 62.9687 12.6579 62.9687 11.7088Z" fill="#F0F5F0"/>
<path d="M74.2511 5.85158H80.9015L80.5151 8.25142H73.8647L74.2511 5.85158ZM77.4035 16.0001H74.5359L76.6306 2.73992H79.4982L77.4035 16.0001Z" fill="#F0F5F0"/>
<path d="M80.4074 11.6478C80.4074 10.7936 80.5565 10.0005 80.8548 9.26831C81.1667 8.52259 81.5938 7.87857 82.1361 7.33623C82.692 6.79389 83.336 6.3668 84.0682 6.05496C84.8003 5.74311 85.5867 5.58719 86.4274 5.58719C87.4307 5.58719 88.3052 5.77701 89.0509 6.15664C89.8102 6.53628 90.3932 7.07184 90.7999 7.76332C91.2203 8.4548 91.4304 9.26153 91.4304 10.1835C91.4304 11.0377 91.2745 11.8309 90.9627 12.563C90.6508 13.2952 90.2237 13.9392 89.6814 14.4951C89.139 15.0374 88.5018 15.4645 87.7696 15.7764C87.0375 16.0882 86.2443 16.2441 85.3901 16.2441C84.4004 16.2441 83.5258 16.0543 82.7666 15.6747C82.0209 15.2815 81.4378 14.7391 81.0175 14.0477C80.6108 13.3562 80.4074 12.5562 80.4074 11.6478ZM83.336 11.4038C83.336 12.0952 83.5326 12.6579 83.9258 13.0918C84.319 13.5121 84.8546 13.7223 85.5325 13.7223C86.0884 13.7223 86.5833 13.5799 87.0171 13.2952C87.4646 12.9969 87.8239 12.5969 88.095 12.0952C88.3662 11.5936 88.5018 11.0377 88.5018 10.4276C88.5018 9.72252 88.3052 9.15984 87.912 8.73953C87.5188 8.31922 86.9765 8.10906 86.285 8.10906C85.7562 8.10906 85.2613 8.2582 84.8003 8.55649C84.3529 8.84122 83.9936 9.23441 83.7224 9.73607C83.4648 10.2242 83.336 10.7801 83.336 11.4038Z" fill="#F0F5F0"/>
<path d="M100.249 5.83124L99.8219 8.51581H98.8661C98.283 8.51581 97.761 8.6175 97.3 8.82088C96.8526 9.02426 96.4798 9.3361 96.1815 9.75641C95.8968 10.1767 95.7002 10.7191 95.5917 11.3834L94.8799 16.0001H91.9919L93.5986 5.85158H96.3035L96.1815 7.98703H95.9171C96.1611 7.32267 96.5543 6.77355 97.0967 6.33968C97.6526 5.90581 98.3237 5.68888 99.1101 5.68888C99.2999 5.68888 99.4897 5.70244 99.6796 5.72955C99.8829 5.74311 100.073 5.77701 100.249 5.83124Z" fill="#F0F5F0"/>
<path d="M99.6028 12.8274H102.328C102.355 13.2342 102.498 13.546 102.755 13.7629C103.026 13.9799 103.406 14.0883 103.894 14.0883C104.355 14.0883 104.728 14.0002 105.013 13.8239C105.297 13.6341 105.44 13.3901 105.44 13.0918C105.44 12.8477 105.379 12.6647 105.257 12.5427C105.135 12.4206 104.911 12.3054 104.586 12.1969L102.816 11.6275C102.111 11.397 101.555 11.0648 101.148 10.6309C100.755 10.1971 100.559 9.64116 100.559 8.96324C100.559 7.90568 100.932 7.07862 101.677 6.48205C102.437 5.88548 103.474 5.58719 104.789 5.58719C105.535 5.58719 106.185 5.72955 106.741 6.01428C107.311 6.29901 107.751 6.6922 108.063 7.19387C108.389 7.69553 108.551 8.27854 108.551 8.9429H105.826C105.813 8.56327 105.691 8.2582 105.46 8.02771C105.243 7.79722 104.938 7.68197 104.545 7.68197C104.138 7.68197 103.819 7.7701 103.589 7.94636C103.372 8.10906 103.264 8.33955 103.264 8.63784C103.264 9.09883 103.609 9.44457 104.301 9.67506L106.03 10.2445C106.762 10.475 107.304 10.8004 107.657 11.2207C108.023 11.641 108.206 12.1563 108.206 12.7664C108.206 13.485 108.023 14.1019 107.657 14.6171C107.29 15.1323 106.768 15.5323 106.091 15.817C105.426 16.0882 104.626 16.2238 103.691 16.2238C102.443 16.2238 101.447 15.9187 100.701 15.3086C99.9689 14.6849 99.6028 13.8578 99.6028 12.8274Z" fill="#F0F5F0"/>
</g>
</g>
</svg>
