<svg width="201" height="31" viewBox="0 0 201 31" fill="none" xmlns="http://www.w3.org/2000/svg">
<path id="Union" fill-rule="evenodd" clip-rule="evenodd" d="M84.0692 3.40394C86.5258 3.7017 86.8608 3.8878 86.9352 5.63717C87.0097 8.09373 87.1958 21.9398 87.1958 25.9224C87.1958 27.709 86.898 27.8206 84.7764 28.3417L84.8136 29.4956C85.2857 29.4956 85.8574 29.4742 86.5008 29.4502C87.3286 29.4192 88.2749 29.3839 89.2801 29.3839C90.3623 29.3839 91.4082 29.4202 92.3075 29.4514C92.9856 29.4749 93.5803 29.4956 94.0444 29.4956L94.0816 28.3417C91.7367 27.8206 91.625 27.5229 91.625 25.8107C91.625 22.6842 91.7367 5.59995 91.8484 1.05904L91.7367 0.910156C91.5828 0.938648 91.3836 0.978482 91.143 1.02658C89.8122 1.29268 87.2158 1.81182 84.032 2.06399L84.0692 3.40394ZM74.9993 14.4957C76.5998 14.4957 76.7859 14.719 76.8603 16.2823C76.9348 18.5527 77.0837 23.9125 77.0837 25.9224C77.0837 27.5973 76.7859 27.8578 74.776 28.3417L74.8132 29.4956C75.3213 29.4956 75.8728 29.4739 76.4898 29.4497L76.4902 29.4496L76.4903 29.4496H76.4904C77.2743 29.4188 78.164 29.3839 79.2052 29.3839C80.304 29.3839 81.3529 29.4213 82.2364 29.4528C82.8793 29.4757 83.4346 29.4956 83.8578 29.4956L83.895 28.3417C81.699 27.8578 81.5501 27.6717 81.5501 25.8479C81.5501 23.1308 81.6246 15.91 81.7735 11.6297L81.6246 11.518C81.5109 11.5391 81.3558 11.5692 81.1656 11.6061C79.6753 11.8953 76.0354 12.6016 73.3616 12.6346H70.57V9.84309C70.57 7.38654 70.8678 6.56768 71.5006 5.86049C72.0961 5.22774 72.9894 4.81832 74.2921 4.81832C75.7437 4.81832 76.7115 5.19052 77.2325 5.63717C77.7164 6.04659 78.0142 6.71657 78.3864 7.6843H80.8429L80.9546 2.80841C79.7263 2.51064 78.3119 2.21288 76.4881 2.21288C73.9571 2.21288 72.6172 3.10617 69.9001 5.19052C66.9969 7.42376 65.9175 8.35427 65.9175 11.2203V12.858L62.8281 13.379L62.9026 14.5701L65.9547 14.5329C65.9547 16.5251 65.9887 18.9026 66.0192 21.0338C66.0439 22.7649 66.0663 24.3336 66.0663 25.4013C66.0663 27.7462 65.7314 27.8578 63.5353 28.3417V29.4956C64.0255 29.4956 64.6663 29.474 65.3853 29.4499C66.3042 29.419 67.3508 29.3839 68.374 29.3839C69.4239 29.3839 70.2876 29.4167 71.078 29.4468L71.0781 29.4468L71.0786 29.4468C71.7451 29.4722 72.3594 29.4956 72.9894 29.4956L73.0266 28.3417C70.7934 27.7834 70.57 27.6345 70.57 25.2524V14.4957H74.9993ZM97.1316 5.63717C97.0572 3.8878 96.7222 3.7017 94.2657 3.40394L94.2284 2.06399C97.4121 1.81182 100.009 1.29269 101.339 1.02659L101.339 1.02658L101.34 1.02657C101.58 0.978474 101.779 0.938645 101.933 0.910156L102.045 1.05904C101.933 5.59995 101.821 22.6842 101.821 25.8107C101.821 27.5229 101.933 27.8206 104.278 28.3417L104.241 29.4956C103.777 29.4956 103.182 29.4749 102.504 29.4514C101.605 29.4202 100.559 29.3839 99.4765 29.3839C98.4713 29.3839 97.525 29.4192 96.6973 29.4502C96.0539 29.4742 95.4821 29.4956 95.0101 29.4956L94.9728 28.3417C97.0944 27.8206 97.3922 27.709 97.3922 25.9224C97.3922 21.9398 97.2061 8.09373 97.1316 5.63717ZM120.132 24.1358C117.862 26.034 116.484 26.4062 114.772 26.4062C111.162 26.4062 110.082 24.5824 110.082 21.0093V20.4137C111.174 20.4033 112.148 20.3944 113.019 20.3864H113.019H113.019H113.02H113.02C118.386 20.3371 119.847 20.3237 120.839 20.2276V19.5204C120.876 16.7289 120.504 14.4584 118.829 12.9324C117.713 11.9274 116.112 11.4436 114.326 11.4436C112.576 11.4436 111.72 11.9274 108.78 13.7513C106.398 15.2029 105.504 16.915 105.504 20.5998C105.504 27.709 108.407 30.0166 114.251 30.0166C115.405 30.0166 116.075 29.9422 116.745 29.7933C118.048 28.1928 119.127 26.8901 120.951 25.178L120.132 24.1358ZM110.045 18.6271C110.045 16.6172 110.157 15.6495 110.678 15.0168C111.087 14.5329 111.646 14.2723 112.651 14.2723C115.107 14.2723 116.112 15.6495 116.112 17.92C116.112 18.6271 116 18.6271 115.368 18.6271H111.981H110.045ZM125.425 16.3939C125.314 14.6073 125.276 14.3468 122.708 13.9374L122.671 12.6346C125.817 12.3486 128.339 11.8727 129.658 11.6238C129.884 11.5812 130.074 11.5452 130.227 11.518L130.338 11.6297C130.319 12.0433 130.299 12.6446 130.279 13.246V13.2467C130.262 13.7814 130.244 14.3161 130.227 14.719C132.758 12.2624 133.614 11.4436 135.14 11.4436C135.549 11.4436 136.108 11.518 136.405 11.5925L136.219 17.2872H135.028C134.321 15.8728 133.539 15.2029 132.497 15.2029C131.864 15.2029 131.269 15.5006 130.189 16.58C130.189 17.8677 130.168 19.8408 130.149 21.6855L130.149 21.6888V21.6906C130.131 23.3098 130.115 24.8295 130.115 25.6991C130.115 27.7462 130.227 27.7834 133.837 28.3417V29.4956C133.156 29.4956 132.333 29.4733 131.423 29.4487L131.423 29.4486C130.294 29.4181 129.031 29.3839 127.733 29.3839C126.582 29.3839 125.608 29.4219 124.797 29.4536C124.218 29.4762 123.722 29.4956 123.304 29.4956L123.266 28.3417C123.41 28.3035 123.545 28.2682 123.671 28.235C125.518 27.751 125.648 27.7169 125.648 25.6618C125.648 24.173 125.537 18.6271 125.425 16.3939ZM138.324 5.67439C140.967 6.19548 141.45 6.49324 141.525 8.46593L141.533 8.96466C141.584 11.9895 141.748 21.7655 141.748 25.4013C141.748 27.4484 141.45 27.5601 139.106 28.2673L139.217 29.4956C139.382 29.4956 139.678 29.4843 140.083 29.469C140.954 29.436 142.329 29.3839 143.981 29.3839C144.996 29.3839 145.915 29.4597 146.826 29.5349C147.72 29.6086 148.606 29.6817 149.565 29.6817C152.431 29.6817 154.105 29.0489 155.594 28.1928C157.902 26.8901 159.428 25.1407 159.428 21.8281C159.428 18.1805 157.455 15.9845 153.733 15.6123C157.083 14.0862 158.609 11.9647 158.609 9.1359C158.609 5.89771 156.562 4.07391 151.426 4.07391C150.298 4.07391 148.958 4.16271 147.587 4.25356C146.151 4.34871 144.681 4.44611 143.386 4.44611C142.424 4.44611 141.263 4.41088 140.245 4.37999C139.45 4.3559 138.743 4.33445 138.287 4.33445L138.324 5.67439ZM146.661 15.5378L146.736 8.16817L146.74 8.04965C146.773 7.10014 146.785 6.78376 147.071 6.6049C147.406 6.4188 148.373 6.30714 149.081 6.30714C151.984 6.30714 153.175 7.72152 153.175 10.3642C153.175 12.6346 152.244 14.1607 150.569 15.3145L146.661 15.5378ZM146.624 17.5105C147.294 17.4361 148.113 17.3616 148.671 17.3616C152.058 17.3616 154.105 18.9249 154.105 23.4286C154.105 26.1829 153.1 27.5973 150.681 27.5973C149.527 27.5973 148.113 27.2251 147.368 26.8157C146.773 26.4435 146.661 26.0713 146.661 24.7685C146.661 23.4091 146.651 22.1481 146.642 20.9248L146.642 20.9212V20.9204V20.9195V20.9188V20.9182V20.9175C146.633 19.7655 146.624 18.6467 146.624 17.5105ZM164.138 16.2823C164.063 14.4584 163.691 14.3096 161.42 13.9374L161.383 12.6346C164.441 12.3875 166.884 11.9096 168.223 11.6479L168.223 11.6478C168.497 11.5942 168.725 11.5497 168.902 11.518L169.051 11.6297C168.902 15.91 168.827 23.1308 168.827 25.8479C168.827 27.6717 168.976 27.8578 171.172 28.3417L171.135 29.4956C170.632 29.4956 170.052 29.4744 169.397 29.4504C168.548 29.4195 167.575 29.3839 166.482 29.3839C165.481 29.3839 164.614 29.4176 163.832 29.4479C163.191 29.4729 162.607 29.4956 162.053 29.4956L162.016 28.3417C164.138 27.7834 164.361 27.6345 164.361 25.9224C164.361 23.6891 164.212 18.5155 164.138 16.2823ZM166.52 8.7637C164.994 8.7637 163.84 7.46098 163.84 5.82327C163.84 4.14835 165.031 2.84563 166.52 2.84563C168.046 2.84563 169.2 4.14835 169.2 5.82327C169.2 7.42376 168.046 8.7637 166.52 8.7637ZM174.465 12.858L171.636 13.379L171.673 14.5701L174.502 14.5329L174.539 24.3219C174.539 26.8529 174.613 27.4484 175.172 28.044C175.991 29.0117 177.852 30.0539 178.894 30.0539C179.435 30.0539 180.155 29.5179 181.393 28.5965C182.112 28.0611 183.007 27.3956 184.142 26.6296L183.509 25.4757C182.579 26.1085 181.76 26.5551 181.202 26.5551C180.755 26.5551 180.271 26.2946 179.824 25.9224C179.154 25.3641 179.043 25.0291 179.043 24.0986C179.043 23.1349 179.06 21.3362 179.079 19.4966L179.079 19.4942V19.492L179.079 19.4879C179.098 17.5647 179.117 15.5982 179.117 14.4957C181.19 14.4957 182.443 14.5367 183.087 14.5579C183.31 14.5652 183.46 14.5701 183.546 14.5701V12.5602L179.117 12.6346C179.117 10.9597 179.154 9.02424 179.266 7.83318L179.117 7.72152C178.298 7.98206 176.847 8.42871 174.39 9.02424L174.465 12.858ZM194.724 26.4062C196.436 26.4062 197.813 26.034 200.084 24.1358L200.903 25.178C199.079 26.8901 197.999 28.1928 196.697 29.7933C196.027 29.9422 195.357 30.0166 194.203 30.0166C188.359 30.0166 185.456 27.709 185.456 20.5998C185.456 16.915 186.349 15.2029 188.731 13.7513C191.672 11.9274 192.528 11.4436 194.277 11.4436C196.064 11.4436 197.664 11.9274 198.781 12.9324C200.456 14.4584 200.828 16.7289 200.791 19.5204V20.2276C199.798 20.3237 198.337 20.3371 192.971 20.3864C192.1 20.3944 191.126 20.4033 190.034 20.4137V21.0093C190.034 24.5824 191.114 26.4062 194.724 26.4062ZM190.63 15.0168C190.109 15.6495 189.997 16.6172 189.997 18.6271H191.932H195.319C195.952 18.6271 196.064 18.6271 196.064 17.92C196.064 15.6495 195.059 14.2723 192.602 14.2723C191.597 14.2723 191.039 14.5329 190.63 15.0168ZM25.4537 11.2303C25.4537 15.1189 23.0623 18.2712 20.1123 18.2712C17.1624 18.2712 14.7709 15.1189 14.7709 11.2303C14.7709 7.34174 17.1624 4.18942 20.1123 4.18942C23.0623 4.18942 25.4537 7.34174 25.4537 11.2303ZM7.94328 15.303C11.8319 15.303 14.9842 18.4554 14.9842 22.344C14.9842 26.2326 11.8319 29.3849 7.94328 29.3849C4.05468 29.3849 0.902344 26.2326 0.902344 22.344C0.902344 18.4554 4.05468 15.303 7.94328 15.303ZM26.7307 21.4111C27.8843 23.0587 31.4018 22.5862 34.5872 20.3558C37.7725 18.1254 39.4195 14.9817 38.2659 13.3341C37.1122 11.6865 33.5947 12.159 30.4094 14.3894C27.224 16.6198 25.577 19.7635 26.7307 21.4111ZM34.5038 25.5002C38.3924 25.5002 41.5448 26.3698 41.5448 27.4426C41.5448 28.5153 38.3924 29.3849 34.5038 29.3849C30.6152 29.3849 27.4629 28.5153 27.4629 27.4426C27.4629 26.3698 30.6152 25.5002 34.5038 25.5002Z" fill="#49352E"/>
</svg>
