<svg width="247" height="33" viewBox="0 0 247 33" fill="none" xmlns="http://www.w3.org/2000/svg">
<path d="M70.0579 27.1145V3.97952H74.7901V27.1145H70.0579ZM55.2305 27.1145V3.97952H59.9626V27.1145H55.2305ZM58.1749 17.3698V13.4438H72.1611V17.3698H58.1749Z" fill="#1E1C1D"/>
<path d="M86.5496 27.6053C85.0072 27.6053 83.6518 27.3833 82.4834 26.9393C81.3383 26.4953 80.3685 25.8643 79.574 25.0464C78.8028 24.2285 78.2186 23.247 77.8214 22.102C77.4241 20.9569 77.2255 19.6716 77.2255 18.2461C77.2255 16.844 77.4124 15.5353 77.7863 14.3202C78.1836 13.105 78.7561 12.0534 79.5039 11.1654C80.2751 10.254 81.2215 9.54127 82.3432 9.02716C83.4649 8.51305 84.7502 8.25599 86.199 8.25599C87.6245 8.25599 88.8748 8.50136 89.9497 8.99211C91.0247 9.45948 91.9127 10.1489 92.6138 11.0602C93.3148 11.9482 93.8172 13.0349 94.121 14.3202C94.4248 15.6055 94.5066 17.066 94.3664 18.7018L80.2751 18.842V16.1429L91.3518 16.0027L90.0198 17.475C90.1367 16.2598 90.0432 15.2549 89.7394 14.4604C89.459 13.6425 89.015 13.0349 88.4074 12.6376C87.7998 12.217 87.0754 12.0067 86.2341 12.0067C85.2993 12.0067 84.4931 12.252 83.8154 12.7428C83.1611 13.2335 82.6587 13.9346 82.3081 14.846C81.9576 15.7574 81.7824 16.8557 81.7824 18.141C81.7824 20.1273 82.203 21.6112 83.0443 22.5927C83.8855 23.5742 85.0657 24.0649 86.5846 24.0649C87.2623 24.0649 87.8348 23.9715 88.3022 23.7845C88.7696 23.5976 89.1435 23.3522 89.4239 23.0484C89.7277 22.7446 89.9614 22.3941 90.125 21.9968C90.2886 21.5995 90.3937 21.2023 90.4405 20.805L94.6819 21.471C94.565 22.3356 94.3197 23.1419 93.9458 23.8897C93.5952 24.6141 93.0811 25.2567 92.4034 25.8176C91.7491 26.3784 90.9429 26.8108 89.9848 27.1145C89.0267 27.4417 87.8816 27.6053 86.5496 27.6053Z" fill="#1E1C1D"/>
<path d="M96.7325 27.1145V2.40213H101.43V27.1145H96.7325Z" fill="#1E1C1D"/>
<path d="M104.478 27.1145V2.40213H109.175V27.1145H104.478Z" fill="#1E1C1D"/>
<path d="M120.567 27.6053C118.768 27.6053 117.178 27.2431 115.8 26.5186C114.421 25.7708 113.334 24.6842 112.54 23.2587C111.769 21.8332 111.383 20.0455 111.383 17.8956C111.383 15.7223 111.78 13.9346 112.575 12.5325C113.393 11.107 114.491 10.0437 115.87 9.34264C117.249 8.61821 118.814 8.25599 120.567 8.25599C122.343 8.25599 123.92 8.61821 125.299 9.34264C126.701 10.0671 127.788 11.1537 128.559 12.6026C129.354 14.0281 129.751 15.8158 129.751 17.9657C129.751 20.139 129.342 21.9501 128.524 23.3989C127.729 24.8244 126.631 25.8877 125.229 26.5888C123.85 27.2664 122.296 27.6053 120.567 27.6053ZM120.707 24.0299C121.291 24.0299 121.841 23.9247 122.355 23.7144C122.869 23.4807 123.324 23.1419 123.722 22.6979C124.119 22.2305 124.423 21.6346 124.633 20.9102C124.867 20.1624 124.984 19.2627 124.984 18.2111C124.984 17.1127 124.855 16.178 124.598 15.4068C124.364 14.6123 124.037 13.9696 123.617 13.4789C123.219 12.9648 122.74 12.5909 122.179 12.3572C121.619 12.1235 121.034 12.0067 120.427 12.0067C119.842 12.0067 119.293 12.1118 118.779 12.3222C118.265 12.5325 117.809 12.8713 117.412 13.3387C117.038 13.8061 116.734 14.4137 116.501 15.1614C116.29 15.8859 116.185 16.7856 116.185 17.8605C116.185 18.9355 116.29 19.8702 116.501 20.6648C116.734 21.4359 117.062 22.0786 117.482 22.5927C117.903 23.0834 118.382 23.4457 118.919 23.6793C119.48 23.913 120.076 24.0299 120.707 24.0299Z" fill="#1E1C1D"/>
<path d="M132.162 27.1145V3.97952L136.895 3.97952V27.1145H132.162ZM133.179 27.1145V23.0834H146.639V27.1145H133.179Z" fill="#1E1C1D"/>
<path d="M147.981 27.1145V8.74674H152.713V27.1145H147.981ZM150.365 6.32807C149.407 6.32807 148.682 6.12944 148.191 5.73217C147.701 5.3349 147.455 4.76237 147.455 4.01457C147.455 3.2434 147.701 2.65919 148.191 2.26192C148.682 1.86465 149.407 1.66602 150.365 1.66602C151.3 1.66602 152.012 1.86465 152.503 2.26192C153.017 2.65919 153.274 3.2434 153.274 4.01457C153.274 4.76237 153.017 5.3349 152.503 5.73217C152.012 6.12944 151.3 6.32807 150.365 6.32807Z" fill="#1E1C1D"/>
<path d="M164.244 27.6053C162.655 27.6053 161.276 27.3716 160.108 26.9042C158.939 26.4135 157.97 25.7475 157.198 24.9062C156.451 24.0416 155.878 23.0367 155.481 21.8916C155.107 20.7466 154.92 19.4963 154.92 18.141C154.92 16.7388 155.107 15.4419 155.481 14.2501C155.878 13.0583 156.462 12.0184 157.234 11.1303C158.005 10.219 158.951 9.5179 160.073 9.02716C161.218 8.51305 162.55 8.25599 164.069 8.25599C165.284 8.25599 166.359 8.41957 167.294 8.74674C168.229 9.0739 169.023 9.52959 169.677 10.1138C170.332 10.698 170.834 11.3757 171.185 12.1469C171.559 12.9181 171.792 13.7593 171.886 14.6707L167.539 15.7223C167.516 14.9511 167.352 14.2851 167.048 13.7243C166.745 13.1634 166.324 12.7428 165.786 12.4624C165.249 12.1819 164.63 12.0417 163.929 12.0417C163.321 12.0417 162.76 12.1586 162.246 12.3923C161.732 12.6259 161.288 12.9882 160.914 13.4789C160.54 13.9463 160.248 14.5539 160.038 15.3017C159.827 16.0261 159.722 16.9024 159.722 17.9306C159.722 19.3094 159.909 20.4428 160.283 21.3308C160.657 22.2188 161.183 22.8848 161.861 23.3288C162.538 23.7728 163.344 23.9948 164.279 23.9948C165.214 23.9948 165.962 23.8079 166.523 23.434C167.083 23.0367 167.492 22.5343 167.749 21.9267C168.03 21.2957 168.182 20.6414 168.205 19.9637L172.447 20.6648C172.4 21.6229 172.201 22.5226 171.851 23.3639C171.5 24.2051 170.986 24.9529 170.308 25.6073C169.631 26.2382 168.789 26.729 167.785 27.0795C166.78 27.43 165.6 27.6053 164.244 27.6053Z" fill="#1E1C1D"/>
<path d="M182.533 27.6053C180.991 27.6053 179.636 27.3833 178.467 26.9393C177.322 26.4953 176.352 25.8643 175.558 25.0464C174.787 24.2285 174.202 23.247 173.805 22.102C173.408 20.9569 173.209 19.6716 173.209 18.2461C173.209 16.844 173.396 15.5353 173.77 14.3202C174.167 13.105 174.74 12.0534 175.488 11.1654C176.259 10.254 177.205 9.54127 178.327 9.02716C179.449 8.51305 180.734 8.25599 182.183 8.25599C183.608 8.25599 184.859 8.50136 185.934 8.99211C187.008 9.45948 187.896 10.1489 188.598 11.0602C189.299 11.9482 189.801 13.0349 190.105 14.3202C190.409 15.6055 190.49 17.066 190.35 18.7018L176.259 18.842V16.1429L187.336 16.0027L186.004 17.475C186.12 16.2598 186.027 15.2549 185.723 14.4604C185.443 13.6425 184.999 13.0349 184.391 12.6376C183.784 12.217 183.059 12.0067 182.218 12.0067C181.283 12.0067 180.477 12.252 179.799 12.7428C179.145 13.2335 178.642 13.9346 178.292 14.846C177.941 15.7574 177.766 16.8557 177.766 18.141C177.766 20.1273 178.187 21.6112 179.028 22.5927C179.869 23.5742 181.049 24.0649 182.568 24.0649C183.246 24.0649 183.819 23.9715 184.286 23.7845C184.753 23.5976 185.127 23.3522 185.408 23.0484C185.712 22.7446 185.945 22.3941 186.109 21.9968C186.272 21.5995 186.378 21.2023 186.424 20.805L190.666 21.471C190.549 22.3356 190.303 23.1419 189.93 23.8897C189.579 24.6141 189.065 25.2567 188.387 25.8176C187.733 26.3784 186.927 26.8108 185.969 27.1145C185.01 27.4417 183.865 27.6053 182.533 27.6053Z" fill="#1E1C1D"/>
<path d="M192.716 27.1145V16.4234V8.74674H196.712L196.607 15.1614H197.133C197.39 13.5023 197.799 12.1703 198.36 11.1654C198.944 10.1605 199.668 9.42443 200.533 8.95706C201.398 8.48968 202.403 8.25599 203.548 8.25599C204.599 8.25599 205.487 8.44294 206.212 8.81684C206.96 9.19074 207.567 9.69317 208.034 10.3241C208.502 10.9317 208.864 11.6211 209.121 12.3923C209.402 13.1634 209.589 13.9696 209.682 14.8109C209.799 15.6522 209.857 16.4701 209.857 17.2646V27.1145H205.09V17.8255C205.09 17.3581 205.067 16.8206 205.02 16.213C204.973 15.5821 204.845 14.9745 204.634 14.3903C204.447 13.8061 204.132 13.3153 203.688 12.9181C203.244 12.5208 202.625 12.3222 201.83 12.3222C200.895 12.3222 200.101 12.6259 199.446 13.2335C198.816 13.8177 198.325 14.659 197.974 15.7574C197.647 16.8323 197.472 18.1176 197.448 19.6132V27.1145H192.716Z" fill="#1E1C1D"/>
<path d="M220.046 27.6053C218.807 27.6053 217.685 27.4768 216.681 27.2197C215.676 26.986 214.811 26.6355 214.087 26.1681C213.362 25.6774 212.79 25.0698 212.369 24.3454C211.948 23.6209 211.715 22.7797 211.668 21.8215L215.524 20.7699C215.571 21.4476 215.781 22.0435 216.155 22.5576C216.552 23.0484 217.101 23.434 217.802 23.7144C218.503 23.9715 219.333 24.1 220.291 24.1C221.366 24.1 222.207 23.9364 222.815 23.6092C223.422 23.2587 223.726 22.7563 223.726 22.102C223.726 21.6346 223.563 21.2724 223.235 21.0153C222.932 20.7349 222.464 20.5012 221.833 20.3143C221.226 20.1273 220.455 19.9404 219.52 19.7534C218.562 19.5431 217.639 19.3094 216.751 19.0523C215.863 18.7953 215.045 18.4681 214.297 18.0709C213.572 17.6502 213 17.1127 212.579 16.4584C212.159 15.8041 211.948 14.9745 211.948 13.9696C211.948 12.8012 212.252 11.7964 212.86 10.9551C213.491 10.1138 214.379 9.45948 215.524 8.99211C216.692 8.50136 218.071 8.25599 219.66 8.25599C221.132 8.25599 222.441 8.478 223.586 8.922C224.754 9.34264 225.689 9.97359 226.39 10.8149C227.091 11.6561 227.489 12.7077 227.582 13.9696L223.656 14.9511C223.609 14.2734 223.411 13.7009 223.06 13.2335C222.733 12.7662 222.266 12.4156 221.658 12.1819C221.074 11.9249 220.373 11.7964 219.555 11.7964C218.573 11.7964 217.791 11.9716 217.206 12.3222C216.645 12.6727 216.365 13.1517 216.365 13.7593C216.365 14.2267 216.54 14.6123 216.891 14.9161C217.265 15.1965 217.779 15.4302 218.433 15.6171C219.088 15.7807 219.87 15.9677 220.782 16.178C221.67 16.3416 222.546 16.5519 223.411 16.8089C224.275 17.0426 225.07 17.3581 225.794 17.7554C226.519 18.1526 227.091 18.6901 227.512 19.3678C227.956 20.0221 228.178 20.8634 228.178 21.8916C228.178 23.0834 227.851 24.1117 227.196 24.9763C226.565 25.8176 225.642 26.4719 224.427 26.9393C223.235 27.3833 221.775 27.6053 220.046 27.6053Z" fill="#1E1C1D"/>
<path d="M238.77 27.6053C237.228 27.6053 235.873 27.3833 234.704 26.9393C233.559 26.4953 232.589 25.8643 231.795 25.0464C231.024 24.2285 230.439 23.247 230.042 22.102C229.645 20.9569 229.446 19.6716 229.446 18.2461C229.446 16.844 229.633 15.5353 230.007 14.3202C230.404 13.105 230.977 12.0534 231.725 11.1654C232.496 10.254 233.442 9.54127 234.564 9.02716C235.686 8.51305 236.971 8.25599 238.42 8.25599C239.845 8.25599 241.095 8.50136 242.17 8.99211C243.245 9.45948 244.133 10.1489 244.834 11.0602C245.536 11.9482 246.038 13.0349 246.342 14.3202C246.646 15.6055 246.727 17.066 246.587 18.7018L232.496 18.842V16.1429L243.573 16.0027L242.241 17.475C242.357 16.2598 242.264 15.2549 241.96 14.4604C241.68 13.6425 241.236 13.0349 240.628 12.6376C240.021 12.217 239.296 12.0067 238.455 12.0067C237.52 12.0067 236.714 12.252 236.036 12.7428C235.382 13.2335 234.879 13.9346 234.529 14.846C234.178 15.7574 234.003 16.8557 234.003 18.141C234.003 20.1273 234.424 21.6112 235.265 22.5927C236.106 23.5742 237.286 24.0649 238.805 24.0649C239.483 24.0649 240.056 23.9715 240.523 23.7845C240.99 23.5976 241.364 23.3522 241.645 23.0484C241.948 22.7446 242.182 22.3941 242.346 21.9968C242.509 21.5995 242.614 21.2023 242.661 20.805L246.903 21.471C246.786 22.3356 246.54 23.1419 246.166 23.8897C245.816 24.6141 245.302 25.2567 244.624 25.8176C243.97 26.3784 243.164 26.8108 242.205 27.1145C241.247 27.4417 240.102 27.6053 238.77 27.6053Z" fill="#1E1C1D"/>
<g clip-path="url(#clip0_1142_8553)">
<path d="M31.3914 24.3594H9.31713C9.02535 24.3594 8.83861 24.6667 8.967 24.9235L11.3907 29.7709C12.1143 31.222 13.5966 32.1363 15.2189 32.1363H25.4896C27.1119 32.1363 28.5942 31.2182 29.3178 29.7709L31.7415 24.9235C31.8699 24.6628 31.6832 24.3594 31.3914 24.3594Z" fill="#6786FA"/>
<path d="M0.904287 17.8254C0.903802 17.8244 0.902343 17.8248 0.902344 17.8259C0.903984 19.4426 1.81789 20.9228 3.26772 21.6458L7.67168 23.8477C8.13853 24.0812 8.68708 23.7427 8.68708 23.2214V9.24318C8.68708 8.9514 8.37584 8.76467 8.11907 8.90083L3.1938 11.4879C1.78547 12.2271 0.906232 13.686 0.906232 15.2772L0.906232 17.825C0.906232 17.826 0.904771 17.8264 0.904287 17.8254Z" fill="#F7B470"/>
<path d="M9.31325 8.60502H31.3953C31.6832 8.60502 31.8738 8.30157 31.7415 8.04091L29.3139 3.18958C28.5903 1.73846 27.108 0.824219 25.4857 0.824219L15.215 0.824219C13.5927 0.824219 12.1105 1.73846 11.3868 3.18958L8.95922 8.04091C8.83084 8.29768 9.01758 8.60502 9.30547 8.60502H9.31325Z" fill="#FB6C63"/>
<path d="M39.8062 15.1408C39.8062 13.5185 38.892 12.0401 37.4409 11.3126L32.5895 8.88501C32.3327 8.75662 32.0254 8.94336 32.0254 9.23125V23.7191C32.0254 24.0109 32.3366 24.1976 32.5934 24.0615L37.5148 21.4782C38.9231 20.7391 39.8062 19.2802 39.8062 17.689V15.1408Z" fill="#EE6AD0"/>
</g>
<defs>
<clipPath id="clip0_1142_8553">
<rect width="38.9042" height="31.3177" fill="white" transform="translate(0.90332 0.824219)"/>
</clipPath>
</defs>
</svg>
