<svg width="173" height="44" viewBox="0 0 173 44" fill="none" xmlns="http://www.w3.org/2000/svg">
<g id="Group 390">
<g id="Input AI">
<path d="M57.7607 36.154L57.7607 12.7695L62.3095 12.7695L62.3095 36.154L57.7607 36.154Z" fill="#0B1117"/>
<path d="M66.5114 36.154L66.5114 18.7598L70.0351 18.7598L70.0351 26.2236L69.7148 26.2236C69.7148 24.4511 69.9497 22.9776 70.4195 21.803C70.8894 20.6071 71.5834 19.7101 72.5017 19.1122C73.4414 18.5142 74.6053 18.2152 75.9934 18.2152L76.1856 18.2152C78.2571 18.2152 79.8268 18.8879 80.8945 20.2333C81.9623 21.5574 82.4962 23.5435 82.4962 26.1916L82.4962 36.154L78.0435 36.154L78.0435 25.8072C78.0435 24.7394 77.7339 23.8745 77.1146 23.2125C76.5166 22.5504 75.6837 22.2194 74.6159 22.2194C73.5268 22.2194 72.6405 22.5611 71.9572 23.2445C71.2951 23.9065 70.9641 24.8035 70.9641 25.9353L70.9641 36.154L66.5114 36.154Z" fill="#0B1117"/>
<path d="M86.0019 42.5607L86.0019 18.7598L89.5256 18.7598L89.5256 26.2556L88.981 26.2236C89.0665 24.4511 89.4295 22.9669 90.0702 21.771C90.7322 20.575 91.6078 19.6888 92.6969 19.1122C93.7861 18.5142 95.0034 18.2152 96.3488 18.2152C97.5874 18.2152 98.6979 18.4395 99.6803 18.8879C100.684 19.3364 101.538 19.9664 102.243 20.7779C102.969 21.5894 103.524 22.5398 103.909 23.6289C104.293 24.6967 104.485 25.8499 104.485 27.0885L104.485 27.7612C104.485 29.0212 104.293 30.1958 103.909 31.2849C103.546 32.3527 103.001 33.303 102.275 34.1359C101.57 34.9474 100.716 35.5881 99.7123 36.0579C98.7086 36.5064 97.5874 36.7306 96.3488 36.7306C95.0461 36.7306 93.8502 36.4637 92.761 35.9298C91.6932 35.3745 90.8283 34.531 90.1663 33.3991C89.5043 32.2459 89.1305 30.7617 89.0451 28.9465L90.4546 31.0927L90.4546 42.5607L86.0019 42.5607ZM95.2276 32.9827C96.1886 32.9827 97.0215 32.7478 97.7262 32.278C98.4523 31.8081 99.0182 31.1568 99.424 30.3239C99.8298 29.4697 100.033 28.5087 100.033 27.4409C100.033 26.3304 99.8298 25.3694 99.424 24.5579C99.0182 23.7464 98.4523 23.1164 97.7262 22.6679C97.0215 22.1981 96.1886 21.9632 95.2276 21.9632C94.352 21.9632 93.5405 22.1554 92.793 22.5398C92.0669 22.9242 91.469 23.4901 90.9992 24.2375C90.5507 24.985 90.3265 25.8819 90.3265 26.9284L90.3265 28.2097C90.3265 29.2134 90.5614 30.0676 91.0312 30.7724C91.501 31.4771 92.1097 32.0217 92.8571 32.4061C93.6046 32.7905 94.3947 32.9827 95.2276 32.9827Z" fill="#0B1117"/>
<path d="M113.045 36.6986C111.038 36.6986 109.479 36.0366 108.368 34.7125C107.279 33.3884 106.735 31.4237 106.735 28.8183L106.735 18.7278L111.187 18.7278L111.187 29.2027C111.187 30.2705 111.486 31.1247 112.084 31.7654C112.682 32.3847 113.494 32.6944 114.519 32.6944C115.544 32.6944 116.377 32.3634 117.017 31.7013C117.68 31.0393 118.011 30.1424 118.011 29.0105L118.011 18.7278L122.463 18.7278L122.463 36.154L118.94 36.154L118.94 28.7543L119.292 28.7543C119.292 30.5054 119.068 31.9683 118.619 33.1429C118.171 34.3174 117.498 35.2037 116.601 35.8016C115.704 36.3996 114.583 36.6986 113.238 36.6986L113.045 36.6986Z" fill="#0B1117"/>
<path d="M133.857 36.3782C132.255 36.3782 130.931 36.1754 129.885 35.7696C128.859 35.3425 128.091 34.6378 127.578 33.6554C127.066 32.6517 126.809 31.3063 126.809 29.6192L126.841 13.8587L131.006 13.8587L130.974 29.9075C130.974 30.7617 131.198 31.4237 131.646 31.8936C132.116 32.342 132.778 32.5663 133.632 32.5663L136.355 32.5663L136.355 36.3782L133.857 36.3782ZM124.054 22.0272L124.054 18.7598L136.355 18.7598L136.355 22.0272L124.054 22.0272Z" fill="#0B1117"/>
<path d="M142.489 36.154L150.466 12.7695L157.897 12.7695L166.098 36.154L161.421 36.154L154.47 15.8768L156.104 16.5815L152.099 16.5815L153.765 15.8768L147.038 36.154L142.489 36.154ZM148.063 29.9395L149.505 26.0955L158.987 26.0955L160.396 29.9395L148.063 29.9395Z" fill="#0B1117"/>
<path d="M168.354 36.154L168.354 12.7695L172.903 12.7695L172.903 36.154L168.354 36.154Z" fill="#0B1117"/>
</g>
<g id="Vector">
<path d="M37.2747 29.6933C37.3554 29.6445 37.4602 29.7014 37.4602 29.7989L37.4602 35.5278C37.4602 35.9991 37.2102 36.4379 36.8069 36.6735L24.4249 43.9464C24.3523 43.987 24.2636 43.9382 24.2636 43.8488L24.2636 28.0762C24.2636 27.9787 24.3685 27.9218 24.4491 27.9705L30.5635 31.5622C31.1039 31.8792 31.717 32.0417 32.33 32.0417C32.9431 32.0417 33.5561 31.8792 34.0966 31.5622L37.2747 29.6933Z" fill="#175BFF"/>
<path d="M22.0695 28.0762L22.0695 43.857C22.0695 43.9382 21.9808 43.9951 21.9082 43.9545L9.5263 36.6817C9.12298 36.446 8.87292 35.9991 8.87292 35.5359L8.87292 29.807C8.87292 29.7095 8.97778 29.6526 9.05845 29.7014L12.2366 31.5704C12.7851 31.8873 13.3901 32.0498 14.0032 32.0498C14.6162 32.0498 15.2212 31.8873 15.7697 31.5704L21.884 27.9787C21.9647 27.9299 22.0695 27.9868 22.0695 28.0843L22.0695 28.0762Z" fill="#175BFF"/>
<path d="M45.4298 22.2742C45.4298 22.3392 45.3895 22.3635 45.3734 22.3717L32.9915 29.6445C32.5801 29.8883 32.0719 29.8883 31.6605 29.6445L25.522 26.0365C25.4413 25.9878 25.4413 25.874 25.522 25.8252L38.0087 18.4955C38.3475 18.3005 38.767 18.3005 39.1138 18.4955L45.3814 22.1766C45.3814 22.1766 45.4379 22.2092 45.4379 22.2742L45.4298 22.2742Z" fill="#175BFF"/>
<path d="M20.8112 25.8334C20.8919 25.8821 20.8919 25.9959 20.8112 26.0447L14.6646 29.6526C14.2613 29.8964 13.7531 29.8964 13.3417 29.6526L0.959785 22.3798C0.959785 22.3798 0.90332 22.3473 0.90332 22.2823C0.90332 22.2173 0.943652 22.1929 0.959785 22.1848L7.22738 18.5037C7.56617 18.3086 7.99368 18.3086 8.33247 18.5037L20.8193 25.8334L20.8112 25.8334Z" fill="#175BFF"/>
<path d="M25.7317 3.35671L24.6185 2.73913C24.4733 2.65787 24.3604 2.54411 24.2798 2.39784L23.6667 1.27644C23.465 0.902644 22.8681 0.902644 22.6665 1.27644L22.0534 2.39784C21.9728 2.54411 21.8598 2.65787 21.7146 2.73913L20.6015 3.35671C20.4159 3.45423 20.303 3.64925 20.303 3.86053C20.303 4.07181 20.4159 4.26683 20.6015 4.36434L21.7146 4.98192C21.8598 5.06318 21.9728 5.17695 22.0534 5.32322L22.6665 6.44461C22.7713 6.63151 22.9569 6.74528 23.1666 6.74528C23.3763 6.74528 23.5618 6.63151 23.6667 6.44461L24.2798 5.32322C24.3604 5.17695 24.4733 5.06318 24.6185 4.98192L25.7317 4.36434C25.9172 4.25871 26.0302 4.07181 26.0302 3.86053C26.0302 3.64925 25.9172 3.45423 25.7317 3.35671Z" fill="#175BFF"/>
<path d="M17.5362 7.5579C18.1644 7.5579 18.6736 7.04492 18.6736 6.41213C18.6736 5.77933 18.1644 5.26635 17.5362 5.26635C16.9081 5.26635 16.3989 5.77933 16.3989 6.41213C16.3989 7.04492 16.9081 7.5579 17.5362 7.5579Z" fill="#175BFF"/>
<path d="M28.7001 7.5579C29.3293 7.5579 29.8375 7.04596 29.8375 6.41213C29.8375 5.77829 29.3293 5.26635 28.7001 5.26635C28.071 5.26635 27.5628 5.77829 27.5628 6.41213C27.5628 7.04596 28.071 7.5579 28.7001 7.5579Z" fill="#175BFF"/>
<path d="M23.1666 8.53302C22.5374 8.53302 22.0292 9.04496 22.0292 9.6788C22.0292 10.3126 22.5374 10.8246 23.1666 10.8246C23.7958 10.8246 24.3039 10.3126 24.3039 9.6788C24.3039 9.04496 23.7958 8.53302 23.1666 8.53302Z" fill="#175BFF"/>
<path d="M35.968 10.1095L34.8548 9.49188C34.7096 9.41062 34.5967 9.29686 34.516 9.15059L33.903 8.02919C33.7013 7.65539 33.1044 7.66352 32.9027 8.02919L32.2977 9.15059C32.2171 9.29686 32.1042 9.41062 31.959 9.49188L30.8458 10.1095C30.6603 10.2151 30.5473 10.402 30.5473 10.6133C30.5473 10.8246 30.6603 11.0115 30.8458 11.1171L31.959 11.7347C32.1042 11.8159 32.2171 11.9297 32.2977 12.076L32.9108 13.1974C33.0076 13.3843 33.2012 13.498 33.4109 13.498C33.6206 13.498 33.8142 13.3843 33.911 13.1974L34.5241 12.076C34.6047 11.9297 34.7177 11.8159 34.8629 11.7347L35.976 11.1171C36.1616 11.0115 36.2745 10.8246 36.2745 10.6133C36.2745 10.402 36.1616 10.2151 35.976 10.1095L35.968 10.1095Z" fill="#175BFF"/>
<path d="M30.1602 12.6692C29.8698 12.6367 29.5874 12.7261 29.3616 12.913C29.2406 13.0186 26.3205 15.4808 26.8045 20.0477C26.861 20.6084 27.3288 21.0309 27.8935 21.0309C27.9338 21.0309 27.9742 21.0309 28.0145 21.0309C28.3049 20.9984 28.5711 20.8521 28.7485 20.6246C28.926 20.3971 29.0147 20.1045 28.9825 19.812C28.6275 16.4478 30.6683 14.6845 30.749 14.6113C31.2169 14.2294 31.2814 13.5306 30.9023 13.0592C30.7167 12.8317 30.4505 12.6854 30.1602 12.6611L30.1602 12.6692Z" fill="#175BFF"/>
<path d="M15.5035 11.1171C15.689 11.0114 15.802 10.8245 15.802 10.6133C15.802 10.402 15.689 10.2151 15.5035 10.1094L14.3903 9.49186C14.2451 9.4106 14.1322 9.29683 14.0516 9.15057L13.4385 8.02917C13.3417 7.84227 13.1481 7.7285 12.9384 7.7285C12.7287 7.7285 12.5351 7.84227 12.4383 8.02917L11.8252 9.15057C11.7446 9.29683 11.6316 9.4106 11.4864 9.49186L10.3733 10.1094C10.1878 10.2151 10.0748 10.402 10.0748 10.6133C10.0748 10.8245 10.1878 11.0114 10.3733 11.1171L11.4864 11.7347C11.6316 11.8159 11.7446 11.9297 11.8252 12.0759L12.4383 13.1973C12.5351 13.3842 12.7287 13.498 12.9384 13.498C13.1481 13.498 13.3336 13.3842 13.4385 13.1973L14.0516 12.0759C14.1322 11.9297 14.2451 11.8159 14.3903 11.7347L15.5035 11.1171Z" fill="#175BFF"/>
<path d="M16.9797 12.913C16.7538 12.7261 16.4715 12.6367 16.1811 12.6692C15.8907 12.7017 15.6245 12.8398 15.439 13.0674C15.0599 13.5387 15.1244 14.2294 15.5922 14.6113C15.681 14.6845 17.7218 16.4478 17.3588 19.812C17.2943 20.4133 17.7298 20.9578 18.3348 21.0309C18.3752 21.0309 18.4155 21.0309 18.4477 21.0309C19.0124 21.0309 19.4722 20.6083 19.5367 20.0476C20.0207 15.4889 17.1007 13.0105 16.9797 12.913Z" fill="#175BFF"/>
<path d="M23.1666 12.5473C22.5616 12.5473 22.0696 13.043 22.0696 13.6525L22.0696 21.5672C22.0696 22.1767 22.5616 22.6724 23.1666 22.6724C23.7716 22.6724 24.2636 22.1767 24.2636 21.5672L24.2636 13.6525C24.2636 13.043 23.7716 12.5473 23.1666 12.5473Z" fill="#175BFF"/>
</g>
</g>
</svg>
