<svg width="153" height="43" viewBox="0 0 153 43" fill="none" xmlns="http://www.w3.org/2000/svg">
<g id="Vector">
<path d="M100.018 31.5963C100.961 31.5543 101.732 30.8301 101.833 29.8916L104.072 9.09761C104.165 8.23243 103.81 7.37953 103.131 6.83565L98.6477 3.24592C98.1654 2.85972 97.5592 2.66193 96.9419 2.68935L5.10471 6.76925C4.16509 6.81099 3.39551 7.53019 3.29035 8.46485L0.919329 29.5377C0.821569 30.4066 1.17609 31.2649 1.8585 31.8115L6.02047 35.1453C6.50289 35.5317 7.10932 35.7296 7.7268 35.7021L50.0969 33.8172C50.7342 33.7888 51.3589 34.0005 51.8477 34.4105L61.1957 42.2513C61.5858 42.5786 62.1831 42.3385 62.2383 41.8323L63.1765 33.2353L100.018 31.5963Z" fill="#2965FF"/>
<path d="M10.8233 27.0849C11.1748 27.0693 11.4912 26.7731 11.5301 26.4234L11.8161 23.8489C11.8394 23.6397 11.9649 23.4395 12.1516 23.3137L16.1062 20.651C16.1943 20.5918 16.303 20.5951 16.3681 20.659L22.2303 26.4094C22.336 26.513 22.484 26.5666 22.6448 26.5595L29.8465 26.2394C30.4257 26.2137 30.7824 25.4941 30.4003 25.122L22.2208 17.1543C22.0455 16.9835 22.0969 16.6709 22.3279 16.5037L31.1077 10.15C31.6405 9.7645 31.4684 8.99809 30.8552 9.02535L23.6493 9.34561C23.5178 9.35145 23.385 9.39767 23.2693 9.47791L14.6743 15.434L12.9369 16.949C12.7871 17.0796 12.5778 16.9934 12.5983 16.8096L13.3065 10.4353C13.3454 10.0856 13.0919 9.81483 12.7404 9.83045L7.14715 10.079C6.79566 10.0947 6.47923 10.3908 6.44037 10.7405L4.66393 26.7286C4.62507 27.0783 4.87852 27.3491 5.23 27.3335L10.8233 27.0849Z" fill="white"/>
<path d="M33.3225 25.4549C33.2837 25.8046 33.5371 26.0754 33.8886 26.0597L39.4819 25.8112C39.8334 25.7955 40.1498 25.4994 40.1887 25.1497L40.4134 23.1271C40.4523 22.7774 40.7687 22.4812 41.1202 22.4656L51.5713 22.0011C55.869 21.8101 59.5101 19.7853 60.1201 14.2953C60.6936 9.13415 57.4207 7.84465 53.123 8.03566L35.8058 8.80532C35.4543 8.82094 35.1378 9.11708 35.099 9.46677L33.3225 25.4549ZM51.6119 13.893C52.5019 13.8535 53.0671 14.0046 52.9575 14.9913C52.8591 15.8768 52.2433 16.181 51.3532 16.2206L41.7667 16.6467C41.4152 16.6623 41.1618 16.3915 41.2007 16.0418L41.3186 14.9805C41.3574 14.6309 41.6739 14.3347 42.0254 14.3191L51.6119 13.893Z" fill="white"/>
<path d="M63.3577 7.58078C62.7576 7.60745 62.4076 8.36978 62.8326 8.72422L71.0711 15.5939C71.2635 15.7543 71.2266 16.0752 70.9953 16.2528L61.2694 23.7196C60.7562 24.1136 60.9374 24.8576 61.54 24.8308L69.6603 24.4699C69.8079 24.4633 69.9565 24.406 70.0807 24.3077L76.0187 19.6104C76.2767 19.4063 76.618 19.3925 76.8312 19.5776L81.6798 23.7888C81.7837 23.8791 81.9225 23.9249 82.0719 23.9183L90.4381 23.5464C91.0385 23.5197 91.3884 22.7567 90.9627 22.4026L82.8156 15.6268C82.624 15.4675 82.659 15.1487 82.8878 14.9702L92.5866 7.40133C93.0943 7.00512 92.9107 6.26731 92.311 6.29396L84.4432 6.64364C84.296 6.65018 84.1477 6.70729 84.0236 6.80524L77.8641 11.6656C77.6065 11.8689 77.2661 11.8827 77.0531 11.6984L72.0173 7.3421C71.9134 7.25226 71.7749 7.20668 71.626 7.2133L63.3577 7.58078Z" fill="white"/>
<path d="M148.834 29.4715C149.777 29.4299 150.549 28.7056 150.65 27.7667L152.889 6.97353C152.982 6.10835 152.627 5.25545 151.948 4.71157L147.464 1.12158C146.982 0.735537 146.376 0.537744 145.759 0.564981L116.759 1.84514C115.819 1.88662 115.049 2.6059 114.944 3.54077L112.573 24.6132C112.475 25.482 112.83 26.3403 113.512 26.887L117.674 30.2207C118.156 30.6072 118.763 30.8051 119.38 30.7775L124.632 30.5432C125.27 30.5147 125.895 30.7264 126.384 31.1365L135.731 38.9772C136.121 39.3044 136.719 39.0644 136.774 38.5582L137.712 29.9611L148.834 29.4715Z" fill="#2965FF"/>
<path d="M127.608 5.85115L125.927 20.9542C125.891 21.2768 125.599 21.5499 125.275 21.5643L117.994 21.8879C117.67 21.9023 117.436 21.6524 117.472 21.3297L119.153 6.22668C119.189 5.90408 119.481 5.63092 119.805 5.61651L127.086 5.29294C127.41 5.27853 127.644 5.52846 127.608 5.85115Z" fill="white"/>
<path d="M140.649 5.2783L138.968 20.3813C138.932 20.7039 138.64 20.9771 138.316 20.9915L131.035 21.3151C130.711 21.3295 130.477 21.0795 130.513 20.7568L132.194 5.65382C132.23 5.33123 132.522 5.05807 132.846 5.04366L140.127 4.72009C140.451 4.70568 140.685 4.95561 140.649 5.2783Z" fill="white"/>
</g>
</svg>
