<svg width="172" height="30" viewBox="0 0 172 30" fill="none" xmlns="http://www.w3.org/2000/svg">
<g id="Union">
<path fill-rule="evenodd" clip-rule="evenodd" d="M38.6663 22.5375H34.2906V0H38.6663V22.5375ZM39.8845 15.045C39.8845 13.4665 40.2341 12.0879 40.9334 10.9091C41.6327 9.73027 42.6018 8.81119 43.8405 8.15185C45.0793 7.49251 46.4879 7.16284 48.0663 7.16284C49.6447 7.16284 51.0433 7.49251 52.2621 8.15185C53.5009 8.81119 54.4699 9.73027 55.1692 10.9091C55.8685 12.0879 56.2181 13.4665 56.2181 15.045C56.2181 16.6034 55.8685 17.972 55.1692 19.1508C54.4699 20.3297 53.5009 21.2487 52.2621 21.9081C51.0433 22.5674 49.6447 22.8971 48.0663 22.8971C46.4879 22.8971 45.0793 22.5674 43.8405 21.9081C42.6018 21.2487 41.6327 20.3297 40.9334 19.1508C40.2341 17.972 39.8845 16.6034 39.8845 15.045ZM44.2901 15.015C44.2901 15.8142 44.4499 16.5135 44.7696 17.1129C45.0893 17.6923 45.5288 18.1518 46.0883 18.4915C46.6477 18.8112 47.3071 18.971 48.0663 18.971C48.8056 18.971 49.4549 18.8112 50.0144 18.4915C50.5938 18.1518 51.0333 17.6923 51.333 17.1129C51.6527 16.5135 51.8125 15.8142 51.8125 15.015C51.8125 14.2158 51.6527 13.5265 51.333 12.9471C51.0333 12.3476 50.5938 11.8881 50.0144 11.5684C49.4549 11.2487 48.8056 11.0889 48.0663 11.0889C47.3071 11.0889 46.6477 11.2487 46.0883 11.5684C45.5288 11.8881 45.0893 12.3476 44.7696 12.9471C44.4499 13.5265 44.2901 14.2158 44.2901 15.015ZM75.6179 10.9091C74.9186 12.0879 74.5689 13.4665 74.5689 15.045C74.5689 16.6034 74.9186 17.972 75.6179 19.1508C76.3172 20.3297 77.2862 21.2487 78.5249 21.9081C79.7637 22.5674 81.1723 22.8971 82.7507 22.8971C84.3291 22.8971 85.7277 22.5674 86.9465 21.9081C88.1853 21.2487 89.1543 20.3297 89.8536 19.1508C90.5529 17.972 90.9025 16.6034 90.9025 15.045C90.9025 13.4665 90.5529 12.0879 89.8536 10.9091C89.1543 9.73027 88.1853 8.81119 86.9465 8.15185C85.7277 7.49251 84.3291 7.16284 82.7507 7.16284C81.1723 7.16284 79.7637 7.49251 78.5249 8.15185C77.2862 8.81119 76.3172 9.73027 75.6179 10.9091ZM79.454 17.1129C79.1343 16.5135 78.9745 15.8142 78.9745 15.015C78.9745 14.2158 79.1343 13.5265 79.454 12.9471C79.7737 12.3476 80.2132 11.8881 80.7727 11.5684C81.3321 11.2487 81.9915 11.0889 82.7507 11.0889C83.49 11.0889 84.1393 11.2487 84.6987 11.5684C85.2782 11.8881 85.7177 12.3476 86.0174 12.9471C86.3371 13.5265 86.497 14.2158 86.497 15.015C86.497 15.8142 86.3371 16.5135 86.0174 17.1129C85.7177 17.6923 85.2782 18.1518 84.6987 18.4915C84.1393 18.8112 83.49 18.971 82.7507 18.971C81.9915 18.971 81.3321 18.8112 80.7727 18.4915C80.2132 18.1518 79.7737 17.6923 79.454 17.1129ZM95.5292 22.5375H91.3034L94.8399 0H99.0656L95.5292 22.5375ZM99.927 7.58242L97.5594 22.5375H101.815L104.153 7.58242H99.927ZM100.916 4.46553C101.316 4.84515 101.815 5.03496 102.415 5.03496C102.914 5.03496 103.384 4.90509 103.823 4.64536C104.263 4.36563 104.612 4.00599 104.872 3.56643C105.152 3.12687 105.292 2.66733 105.292 2.18781C105.292 1.58841 105.102 1.0989 104.722 0.71928C104.343 0.31968 103.843 0.11988 103.224 0.11988C102.724 0.11988 102.255 0.25974 101.815 0.539461C101.376 0.799201 101.016 1.14885 100.736 1.58841C100.476 2.00799 100.347 2.46753 100.347 2.96703C100.347 3.56643 100.536 4.06593 100.916 4.46553ZM108.252 22.5375L104.866 7.58242H109.121L110.23 13.4565C110.39 14.2757 110.53 15.0549 110.65 15.7942C110.77 16.5335 110.88 17.2627 110.98 17.982C111.299 17.2827 111.649 16.5235 112.029 15.7043C112.408 14.8851 112.768 14.1359 113.107 13.4565L116.224 7.58242H120.9L112.418 22.5375H108.252ZM144.688 26.044L144.118 29.6104C144.538 29.7303 144.978 29.8202 145.437 29.8801C145.897 29.96 146.396 30 146.936 30C148.394 30 149.573 29.6104 150.472 28.8312C151.391 28.0719 152.21 27.0629 152.93 25.8042L163.149 7.58242H158.534L153.261 17.65L151.461 7.58242C150.687 7.58242 149.904 7.55687 149.14 7.53193C146.564 7.44781 144.195 7.37045 143.031 8.3017C142.504 8.72356 142.072 9.21936 141.736 9.7891L141.863 7.58242H137.877L135.509 22.5375H139.765L140.814 15.7343C140.973 14.7552 141.263 13.956 141.683 13.3367C142.122 12.7173 142.672 12.2577 143.331 11.958C144.01 11.6583 144.78 11.5085 145.639 11.5085H148.076L150.574 22.779L149.963 23.9461C149.703 24.4655 149.423 24.8751 149.123 25.1748C148.824 25.4945 148.504 25.7143 148.164 25.8342C147.825 25.974 147.455 26.044 147.056 26.044H144.688ZM134.722 19.7418L132.222 17.1466C130.226 19.5348 122.941 20.5698 122.941 16.1744L134.308 16.1239L134.488 14.985C135.275 9.54762 132.287 7.19281 127.723 7.19281C124.435 7.19281 121.608 8.65454 120.029 11.5984C119.29 12.957 118.92 14.4955 118.92 16.2138C118.92 24.1344 130.667 24.8424 134.722 19.7418ZM123.351 13.5165C123.39 13.4151 123.431 13.3152 123.475 13.2168C124.28 11.5237 125.602 10.6394 127.483 10.6394C129.204 10.6394 130.829 11.4598 130.502 13.5165H123.351ZM57.3083 14.7752C57.3083 13.2767 57.608 11.958 58.2074 10.8192C58.8068 9.66034 59.646 8.75125 60.7249 8.09191C61.8038 7.43257 63.0426 7.1029 64.4412 7.1029C65.64 7.1029 66.6689 7.35265 67.5281 7.85215C68.1632 8.2214 68.6563 8.67801 69.0076 9.22196L69.2364 7.58242H73.3422V19.2108C73.3422 26.2858 69.8507 29.5046 64.665 29.5046C60.3421 29.5046 57.0586 27.4276 55.9548 24.8524L59.2186 22.3277C60.2027 23.9863 61.9611 25.5185 64.635 25.5185C67.4694 25.5185 68.9666 23.6434 68.9666 20.4408C68.6206 20.8838 68.1511 21.263 67.558 21.5784C66.6389 22.0779 65.57 22.3277 64.3512 22.3277C62.9526 22.3277 61.7239 22.008 60.6649 21.3686C59.606 20.7293 58.7768 19.8402 58.1774 18.7013C57.598 17.5624 57.3083 16.2537 57.3083 14.7752ZM61.6839 14.6853C61.6839 15.4246 61.8338 16.0839 62.1335 16.6633C62.4531 17.2228 62.8827 17.6723 63.4222 18.012C63.9616 18.3516 64.591 18.5215 65.3103 18.5215C66.0495 18.5215 66.6889 18.3616 67.2284 18.042C67.7878 17.7023 68.2174 17.2527 68.5171 16.6933C68.8168 16.1139 68.9666 15.4446 68.9666 14.6853C68.9666 13.9061 68.8168 13.2468 68.5171 12.7073C68.2174 12.1479 67.7878 11.7083 67.2284 11.3886C66.6889 11.0689 66.0396 10.9091 65.2803 10.9091C64.561 10.9091 63.9317 11.0689 63.3922 11.3886C62.8527 11.7083 62.4332 12.1479 62.1335 12.7073C61.8338 13.2667 61.6839 13.9261 61.6839 14.6853ZM164.393 1.9123H163.149V1.02437H166.595V1.9123H165.351V5.40484H164.393V1.9123ZM166.873 5.40484H167.803V4.17949C167.803 3.93877 167.799 3.72369 167.791 3.53426C167.787 3.34484 167.771 3.16922 167.743 3.00742L168.667 5.40484H169.543L170.472 3.00742C170.46 3.09029 170.451 3.1712 170.443 3.25012C170.439 3.3251 170.435 3.4139 170.431 3.5165C170.427 3.61911 170.425 3.74737 170.425 3.90128V4.48731V5.40484H171.354V1.02437H170.413L169.105 4.29197L167.803 1.02437H166.873V5.40484Z" fill="#152928"/>
<path fill-rule="evenodd" clip-rule="evenodd" d="M23.504 7.31088C22.4313 5.45291 14.2641 0.72567 12.1456 0.72567C10.0272 0.72567 1.83777 5.49138 0.787278 7.31088C-0.263211 9.13038 -0.26164 18.6645 0.787278 20.4813C1.8362 22.2981 10.0272 27.0665 12.1456 27.0665C14.2641 27.0665 22.4297 22.342 23.504 20.4813C24.5782 18.6206 24.5767 9.16885 23.504 7.31088ZM3.42745 9.47569L3.97615 8.52532L12.1456 12.1566L20.3293 8.51902L20.8763 9.46652L13.6458 14.7659L12.6951 23.6642H11.5962L10.6454 14.7659L3.42745 9.47569Z" fill="#8B78FA"/>
</g>
</svg>
