<svg width="100" height="20" viewBox="0 0 100 20" fill="none" xmlns="http://www.w3.org/2000/svg">
<path fill-rule="evenodd" clip-rule="evenodd" d="M36.1858 0.607422H29.4222V15.5777H32.7195V10.211H36.1858C39.9233 10.211 41.3735 7.85717 41.3735 5.40921C41.3735 2.96124 39.9233 0.607422 36.1858 0.607422ZM35.2819 7.66887H32.7195V3.18093H35.2819C36.8147 3.18093 38.1784 3.51831 38.1784 5.42491C38.1784 7.33148 36.8147 7.66887 35.2819 7.66887ZM42.1487 3.06716H45.1316V0.607422H42.1487V3.06716ZM45.1316 4.74622H42.1487V15.5777H45.1316V4.74622ZM46.4315 4.73856H49.269V6.12339H49.3123C49.6529 5.58235 50.1316 5.14161 50.6994 4.84652C51.2672 4.55141 51.9034 4.41259 52.5428 4.44433C55.9463 4.44433 57.4789 7.19043 57.4789 10.274C57.4789 13.1652 55.8833 15.8682 52.7118 15.8682C52.0766 15.8849 51.4473 15.7447 50.8795 15.4599C50.3118 15.1752 49.8233 14.7549 49.4577 14.2362H49.4144V19.3911H46.4315V4.73856ZM54.496 10.1877C54.496 8.46933 53.8044 6.68831 51.8943 6.68831C49.9843 6.68831 49.3123 8.42621 49.3123 10.1877C49.3123 11.9491 49.9686 13.6281 51.9337 13.6281C53.8986 13.6281 54.496 11.9491 54.496 10.1877ZM63.3386 13.628C61.6801 13.628 60.7566 12.7689 60.6701 10.8819H68.5106C68.7189 7.54736 66.9346 4.44422 63.2364 4.44422C59.9391 4.44422 57.6951 6.91965 57.6951 10.1679C57.6951 13.5143 59.8133 15.8681 63.2364 15.8681C65.6966 15.8681 67.4809 14.7814 68.322 12.2236H65.6966C65.5001 12.8945 64.5177 13.628 63.3386 13.628ZM63.1657 6.68819C64.6002 6.68819 65.2487 7.48459 65.5238 8.99491H60.6858C60.6918 8.67932 60.7611 8.36811 60.89 8.07981C61.0189 7.79151 61.2045 7.532 61.4359 7.31681C61.6673 7.10162 61.9396 6.93503 62.2368 6.82704C62.534 6.71904 62.8499 6.67183 63.1657 6.68819ZM69.3057 0.607422H72.2886V15.5777H69.3057V0.607422ZM73.6716 3.06716H76.6545V0.607422H73.6716V3.06716ZM76.6545 4.74622H73.6716V15.5777H76.6545V4.74622ZM77.9564 4.73845H80.7942V6.24882H80.857C81.2087 5.68999 81.6987 5.23066 82.2795 4.91471C82.8602 4.59877 83.5125 4.43678 84.1736 4.44422C87.3454 4.44422 88.1433 6.22528 88.1433 8.90863V15.5778H85.1601V9.45397C85.1601 7.67284 84.6374 6.79412 83.25 6.79412C81.6311 6.79412 80.9398 7.69249 80.9398 9.89334V15.5778H77.9564V4.73845ZM94.4853 13.628C92.8227 13.628 91.8991 12.7689 91.8171 10.8819H99.6571C99.8695 7.54736 98.0811 4.44422 94.3875 4.44422C91.09 4.44422 88.8418 6.91965 88.8418 10.1679C88.8418 13.5143 90.9643 15.8681 94.3875 15.8681C96.8433 15.8681 98.6277 14.7814 99.4686 12.2236H96.8433C96.6468 12.8945 95.6643 13.628 94.4853 13.628ZM94.3087 6.68819C95.7431 6.68819 96.3954 7.48459 96.6667 8.99491H91.829C91.8346 8.67932 91.9038 8.36811 92.0327 8.07981C92.1616 7.79151 92.3477 7.532 92.5784 7.31681C92.8099 7.10162 93.0828 6.93503 93.3795 6.82704C93.6771 6.71904 93.9929 6.67183 94.3087 6.68819ZM1.62978 13.0984C1.62978 8.72418 4.43584 5.98589 7.91785 5.98589C8.73892 5.96517 9.55578 6.10871 10.3204 6.40804C11.085 6.70737 11.7818 7.15641 12.3699 7.7288C12.958 8.30111 13.4253 8.98519 13.7443 9.74055C14.0634 10.496 14.2279 11.3076 14.2279 12.1274C14.2279 12.9473 14.0634 13.7588 13.7443 14.5142C13.4253 15.2697 12.958 15.9537 12.3699 16.5261C11.7818 17.0984 11.085 17.5475 10.3204 17.8467C9.55578 18.1461 8.73892 18.2896 7.91785 18.2689C5.16683 18.2689 3.10748 17.402 0.993103 15.3933C1.64583 16.5958 2.61904 17.5947 3.80509 18.2794C4.99115 18.9642 6.34382 19.3081 7.71348 19.2732C12.3706 19.2732 15.4479 15.9779 15.4479 11.9136C15.4479 7.84933 12.4885 4.69129 7.8196 4.69129C6.8088 4.7105 5.81608 4.96198 4.91843 5.42622C4.02079 5.89045 3.2424 6.55495 2.64368 7.36811C2.04498 8.1813 1.64207 9.12123 1.46623 10.115C1.29039 11.1088 1.34635 12.1296 1.62978 13.0984ZM7.7636 15.5424C9.7051 15.7268 11.4697 15.0834 12.4051 13.9732C12.4051 13.9732 10.1728 15.7542 6.50994 14.3145C3.07114 12.9688 3.20083 10.8739 3.20083 10.8739C2.99254 12.8747 5.03224 15.2285 7.7636 15.5424ZM18.1037 8.51249C18.1037 5.15827 15.0225 2.44353 11.2182 2.44353C9.86272 2.43717 8.53068 2.79635 7.36276 3.48313C8.14349 3.22929 8.95868 3.09697 9.77975 3.09083C13.8316 3.09083 17.1172 6.05664 17.1172 9.71287C17.1168 10.6459 16.8988 11.5659 16.4805 12.4002C17.5058 11.3632 18.0877 9.96936 18.1037 8.51249ZM14.4572 0.740898C17.3498 0.740898 19.7078 2.81227 19.7078 5.37008C19.6961 6.48308 19.2539 7.54847 18.4738 8.34377C18.7895 7.70559 18.9549 7.00375 18.9572 6.29199C18.9572 3.50272 16.4498 1.24305 13.3607 1.24305C12.7355 1.2432 12.1141 1.33845 11.5176 1.5255C12.4092 1.00537 13.4246 0.734351 14.4572 0.740898Z" fill="#97A59D"/>
</svg>
