<svg width="181" height="41" viewBox="0 0 181 41" fill="none" xmlns="http://www.w3.org/2000/svg">
<g clip-path="url(#clip0_1142_8671)">
<path d="M36.3497 18.4273L26.1119 39.7512C25.8815 40.2291 25.217 40.2601 24.9424 39.8088L20.6585 32.7377L28.2959 32.7377C28.8142 32.7377 29.1332 32.1757 28.8629 31.7332L24.4861 24.5028L27.2415 18.7592C27.8042 17.5821 26.9492 16.2237 25.6423 16.2237L13.4952 16.2237L9.11392 8.98884C8.84369 8.54635 9.16265 7.98437 9.68096 7.98437L29.7667 7.98437C35.1403 7.98437 38.671 13.5864 36.3497 18.4273Z" fill="url(#paint0_linear_1142_8671)"/>
<path d="M28.2945 32.7371L8.20878 32.7371C2.83517 32.7371 -0.695552 27.1351 1.63021 22.2941L11.868 0.970194C12.0939 0.496722 12.7628 0.461322 13.0331 0.912669L17.3169 7.98378L9.67954 7.98378C9.16123 7.98378 8.84227 8.54575 9.1125 8.98824L13.4938 16.2231L13.4894 16.2231L10.7339 21.9667C10.1713 23.1393 11.0263 24.5022 12.3331 24.5022L24.4847 24.5022L28.8615 31.7326C29.1317 32.1751 28.8128 32.7371 28.2945 32.7371Z" fill="url(#paint1_linear_1142_8671)"/>
</g>
<path d="M53.3448 32.0723L53.3448 8.48917L57.9009 8.48917L57.9009 32.0723L53.3448 32.0723ZM67.655 32.0723L60.4678 21.869L65.5695 21.869L72.9813 32.0723L67.655 32.0723ZM56.5533 24.2433L56.5533 20.5534L62.5213 20.5534C63.3555 20.5534 64.0721 20.3823 64.6711 20.0401C65.2914 19.6978 65.7727 19.2165 66.1149 18.5962C66.4572 17.9759 66.6283 17.27 66.6283 16.4785C66.6283 15.6657 66.4572 14.9491 66.1149 14.3288C65.7727 13.7085 65.2914 13.2272 64.6711 12.8849C64.0721 12.5427 63.3555 12.3716 62.5213 12.3716L56.5533 12.3716L56.5533 8.48917L62.04 8.48917C63.9224 8.48917 65.5481 8.76725 66.9171 9.3234C68.3075 9.87956 69.377 10.7245 70.1257 11.8582C70.8743 12.9919 71.2487 14.4144 71.2487 16.1256L71.2487 16.639C71.2487 18.3716 70.8636 19.7941 70.0936 20.9064C69.3449 22.0187 68.2861 22.8529 66.9171 23.4091C65.5481 23.9652 63.9224 24.2433 62.04 24.2433L56.5533 24.2433ZM82.9266 32.6819C81.4293 32.6819 80.1138 32.4252 78.9801 31.9118C77.8678 31.3985 76.9373 30.714 76.1886 29.8583C75.4613 28.9813 74.9052 28.0081 74.5202 26.9385C74.1565 25.869 73.9747 24.7781 73.9747 23.6658L73.9747 23.0561C73.9747 21.9011 74.1565 20.7887 74.5202 19.7192C74.9052 18.6283 75.4613 17.6657 76.1886 16.8315C76.9373 15.9759 77.8571 15.3021 78.948 14.8101C80.0389 14.2967 81.301 14.04 82.7341 14.04C84.6165 14.04 86.1887 14.4571 87.4508 15.2914C88.7342 16.1042 89.6968 17.1844 90.3385 18.532C90.9802 19.8583 91.3011 21.2914 91.3011 22.8315L91.3011 24.4358L75.8678 24.4358L75.8678 21.7085L88.5096 21.7085L87.1299 23.0561C87.1299 21.9438 86.9695 20.992 86.6486 20.2005C86.3277 19.4091 85.8358 18.7994 85.1727 18.3716C84.5309 17.9438 83.7181 17.7299 82.7341 17.7299C81.7502 17.7299 80.9159 17.9545 80.2314 18.4037C79.5469 18.8529 79.0229 19.5053 78.6592 20.3609C78.317 21.1952 78.1459 22.2005 78.1459 23.377C78.1459 24.4679 78.317 25.4412 78.6592 26.2968C79.0015 27.131 79.5255 27.7942 80.2314 28.2861C80.9373 28.7567 81.8357 28.992 82.9266 28.992C84.0176 28.992 84.9053 28.7781 85.5898 28.3503C86.2743 27.9011 86.7128 27.3556 86.9053 26.7139L91.0123 26.7139C90.7556 27.9118 90.2636 28.9599 89.5363 29.8583C88.8091 30.7567 87.8786 31.4519 86.7449 31.9439C85.6326 32.4359 84.3598 32.6819 82.9266 32.6819ZM102.118 32.6819C100.599 32.6819 99.2835 32.4252 98.1712 31.9118C97.0803 31.3985 96.1605 30.714 95.4118 29.8583C94.6845 29.0027 94.1391 28.0401 93.7754 26.9706C93.4118 25.9011 93.23 24.8102 93.23 23.6979L93.23 23.0882C93.23 21.9117 93.4118 20.7887 93.7754 19.7192C94.1604 18.6283 94.7273 17.6657 95.476 16.8315C96.2246 15.9759 97.1444 15.3021 98.2354 14.8101C99.3477 14.2967 100.631 14.04 102.086 14.04C103.604 14.04 104.963 14.3395 106.161 14.9384C107.358 15.516 108.31 16.3288 109.016 17.377C109.743 18.4251 110.15 19.6444 110.235 21.0347L105.904 21.0347C105.797 20.1363 105.412 19.3877 104.749 18.7887C104.107 18.1898 103.219 17.8903 102.086 17.8903C101.102 17.8903 100.278 18.1256 99.615 18.5962C98.9733 19.0668 98.492 19.7192 98.1712 20.5534C97.8503 21.3663 97.6899 22.3075 97.6899 23.377C97.6899 24.4037 97.8396 25.3342 98.1391 26.1685C98.46 27.0027 98.9412 27.6551 99.583 28.1257C100.246 28.5963 101.091 28.8316 102.118 28.8316C102.888 28.8316 103.551 28.6926 104.107 28.4145C104.663 28.1364 105.102 27.7514 105.423 27.2594C105.765 26.7674 105.979 26.2113 106.064 25.5909L110.396 25.5909C110.31 27.0027 109.893 28.2434 109.145 29.3129C108.417 30.361 107.444 31.1846 106.225 31.7835C105.027 32.3824 103.658 32.6819 102.118 32.6819ZM113.327 32.0723L113.327 8.6496L117.787 8.6496L117.787 22.3182L117.017 22.3182C117.017 20.5641 117.241 19.0775 117.691 17.8582C118.14 16.639 118.803 15.7085 119.68 15.0668C120.578 14.4251 121.712 14.1042 123.081 14.1042L123.274 14.1042C125.263 14.1042 126.771 14.7887 127.798 16.1577C128.824 17.5267 129.338 19.516 129.338 22.1257L129.338 32.0723L124.878 32.0723L124.878 21.7085C124.878 20.5962 124.557 19.7192 123.915 19.0775C123.295 18.4358 122.471 18.1149 121.445 18.1149C120.354 18.1149 119.466 18.4786 118.782 19.2058C118.118 19.9117 117.787 20.8422 117.787 21.9973L117.787 32.0723L113.327 32.0723ZM144.047 32.0723L144.047 26.9064L143.309 26.9064L143.309 21.1631C143.309 20.1577 143.063 19.4091 142.571 18.9171C142.079 18.4251 141.32 18.1791 140.293 18.1791C139.758 18.1791 139.117 18.1898 138.368 18.2112C137.619 18.2326 136.86 18.2647 136.09 18.3074C135.341 18.3288 134.667 18.3609 134.068 18.4037L134.068 14.6176C134.56 14.5748 135.117 14.532 135.737 14.4892C136.357 14.4464 136.988 14.4251 137.63 14.4251C138.293 14.4037 138.913 14.393 139.491 14.393C141.288 14.393 142.774 14.6283 143.951 15.0989C145.149 15.5694 146.047 16.3074 146.646 17.3128C147.266 18.3181 147.577 19.6337 147.577 21.2593L147.577 32.0723L144.047 32.0723ZM138.432 32.5215C137.17 32.5215 136.058 32.2969 135.095 31.8477C134.154 31.3985 133.416 30.7567 132.881 29.9225C132.368 29.0883 132.111 28.0829 132.111 26.9064C132.111 25.623 132.421 24.5749 133.042 23.762C133.683 22.9492 134.571 22.3396 135.705 21.9331C136.86 21.5267 138.208 21.3235 139.748 21.3235L143.79 21.3235L143.79 23.9866L139.683 23.9866C138.657 23.9866 137.865 24.2433 137.309 24.7567C136.774 25.2487 136.507 25.8904 136.507 26.6818C136.507 27.4733 136.774 28.115 137.309 28.607C137.865 29.099 138.657 29.345 139.683 29.345C140.304 29.345 140.871 29.238 141.384 29.0241C141.919 28.7888 142.357 28.4038 142.7 27.869C143.063 27.3129 143.266 26.5642 143.309 25.623L144.4 26.8744C144.293 28.0936 143.994 29.1204 143.502 29.9546C143.031 30.7888 142.368 31.4305 141.512 31.8798C140.678 32.3076 139.651 32.5215 138.432 32.5215ZM152.546 32.0723L152.546 14.6497L157.006 14.6497L157.006 32.0723L152.546 32.0723ZM150.108 17.9866L150.108 14.6497L157.006 14.6497L157.006 17.9866L150.108 17.9866ZM154.183 12.5641C153.306 12.5641 152.653 12.3395 152.226 11.8903C151.819 11.4197 151.616 10.8421 151.616 10.1576C151.616 9.43036 151.819 8.84212 152.226 8.39292C152.653 7.94371 153.306 7.71911 154.183 7.71911C155.06 7.71911 155.702 7.94371 156.108 8.39292C156.514 8.84212 156.718 9.43036 156.718 10.1576C156.718 10.8421 156.514 11.4197 156.108 11.8903C155.702 12.3395 155.06 12.5641 154.183 12.5641ZM161.505 32.0723L161.505 14.6497L165.034 14.6497L165.034 22.1257L164.713 22.1257C164.713 20.3502 164.948 18.8743 165.419 17.6978C165.89 16.4999 166.585 15.6015 167.505 15.0026C168.446 14.4037 169.612 14.1042 171.002 14.1042L171.195 14.1042C173.269 14.1042 174.842 14.778 175.911 16.1256C176.981 17.4518 177.515 19.4411 177.515 22.0936L177.515 32.0723L173.056 32.0723L173.056 21.7085C173.056 20.639 172.745 19.7727 172.125 19.1096C171.526 18.4465 170.692 18.1149 169.622 18.1149C168.531 18.1149 167.644 18.4572 166.959 19.1417C166.296 19.8048 165.965 20.7032 165.965 21.8369L165.965 32.0723L161.505 32.0723Z" fill="#141D2A"/>
<defs>
<linearGradient id="paint0_linear_1142_8671" x1="25.399" y1="40.1293" x2="41.1891" y2="7.98469" gradientUnits="userSpaceOnUse">
<stop stop-color="#2A98F2"/>
<stop offset="0.716667" stop-color="#78C2FF"/>
</linearGradient>
<linearGradient id="paint1_linear_1142_8671" x1="12.8977" y1="-1.40918" x2="-2.8926" y2="32.7367" gradientUnits="userSpaceOnUse">
<stop stop-color="#548BFF"/>
<stop offset="1" stop-color="#0854F4"/>
</linearGradient>
<clipPath id="clip0_1142_8671">
<rect width="36.1711" height="39.5371" fill="white" transform="translate(0.904297 0.59375)"/>
</clipPath>
</defs>
</svg>
