<svg width="201" height="37" viewBox="0 0 201 37" fill="none" xmlns="http://www.w3.org/2000/svg">
<g id="Group 2">
<path id="Subtract" fill-rule="evenodd" clip-rule="evenodd" d="M11.2173 1.37246C10.438 1.26337 9.65592 1.1382 8.87018 0.996922C7.51213 0.75275 6.83311 0.630664 6.3455 0.941303C5.85789 1.25194 5.68735 1.89702 5.34628 3.18718L1.01502 19.571C0.952249 19.8084 0.920865 19.9271 0.909444 20.0488C0.898023 20.1705 0.906772 20.293 0.92427 20.538L1.58354 29.7677C1.67427 31.0379 1.71964 31.673 2.09428 32.1872C2.46893 32.7013 3.01477 32.921 4.10646 33.3605C13.6805 37.2144 24.7429 37.0177 34.4478 33.6079C35.209 33.3405 35.5896 33.2068 35.8465 32.9108C35.9664 32.7726 36.068 32.5968 36.1277 32.4239C36.2557 32.0534 36.1778 31.6382 36.022 30.8078C35.7951 29.5985 35.6817 28.9938 35.3342 28.6641C35.1605 28.4993 34.9778 28.3927 34.7489 28.3227C34.2909 28.1825 33.6758 28.3927 32.4457 28.8129L32.4457 28.813C24.5 31.5277 15.5729 31.8812 7.60784 29.1845C7.1794 29.0394 6.96518 28.9669 6.82861 28.7902C6.69205 28.6134 6.67545 28.3809 6.64223 27.9159L6.5201 26.2061C6.45175 25.2492 6.41758 24.7708 6.70394 24.5282C6.9903 24.2855 7.46858 24.4006 8.42514 24.6309C17.3143 26.7704 27.0382 26.1912 35.486 22.6802C36.5174 22.2516 37.0331 22.0373 37.279 21.5399C37.525 21.0425 37.3747 20.4742 37.0743 19.3376L32.8047 3.18717C32.4636 1.89701 32.2931 1.25193 31.8055 0.94129C31.3179 0.630651 30.6389 0.752738 29.2808 0.996913C25.9933 1.58801 22.7697 1.89737 19.549 1.92499L19.1241 12.2645C19.0708 13.5611 19.0441 14.2094 18.6256 14.3964C18.2072 14.5834 17.7065 14.1707 16.7051 13.3454L15.0893 12.0137C14.7089 11.7002 14.5187 11.5434 14.2895 11.5236C14.0603 11.5038 13.846 11.6255 13.4175 11.8691L11.6492 12.8741C10.4658 13.5466 9.87406 13.8829 9.49042 13.6123C9.10678 13.3417 9.22496 12.6715 9.46132 11.331L11.2173 1.37246Z" fill="#38E29E"/>
<g id="StudyHero">
<path d="M57.6411 28.5772C56.3517 28.5772 55.0724 28.4563 53.8031 28.2146C52.5339 27.9728 51.4963 27.6505 50.6904 27.2475L50.6904 23.198C51.7582 23.7218 52.8663 24.1147 54.0147 24.3766C55.163 24.6385 56.261 24.7694 57.3087 24.7694C58.4772 24.7694 59.3636 24.568 59.9681 24.165C60.5725 23.7621 60.8747 23.198 60.8747 22.4727C60.8747 21.9489 60.7236 21.5056 60.4214 21.143C60.1192 20.7803 59.6759 20.458 59.0917 20.1759C58.5276 19.8737 57.6512 19.4809 56.4625 18.9973C54.4881 18.1915 53.0577 17.2949 52.1712 16.3077C51.2848 15.3004 50.8415 14.0613 50.8415 12.5906C50.8415 11.4019 51.1639 10.3543 51.8086 9.44769C52.4533 8.52093 53.3599 7.80571 54.5284 7.30204C55.6969 6.79836 57.0468 6.54653 58.5779 6.54653C59.827 6.54653 60.9351 6.64726 61.9021 6.84873C62.8692 7.0502 63.8161 7.36248 64.7429 7.78556L64.7429 11.7142C62.9699 10.8278 61.197 10.3845 59.4241 10.3845C58.2959 10.3845 57.4094 10.586 56.7647 10.9889C56.12 11.3717 55.7977 11.9258 55.7977 12.6511C55.7977 13.1749 55.9488 13.608 56.251 13.9505C56.5532 14.293 56.9762 14.5952 57.5202 14.8571C58.0642 15.1191 58.9506 15.5018 60.1796 16.0055C61.61 16.6099 62.7282 17.1942 63.534 17.7583C64.3399 18.3023 64.9342 18.957 65.317 19.7226C65.6998 20.4681 65.8912 21.3948 65.8912 22.5029C65.8912 24.4169 65.1962 25.9077 63.806 26.9755C62.436 28.0433 60.3811 28.5772 57.6411 28.5772Z" fill="#0F3A34"/>
<path d="M73.1804 28.5772C71.4881 28.5772 70.1987 28.1138 69.3122 27.1871C68.4459 26.2402 68.0128 24.9306 68.0128 23.2584L68.0128 16.9121L65.8974 16.9121L65.8974 13.6181L68.0128 13.6181L68.0128 9.26637L72.576 9.26637L72.576 13.6181L75.9909 13.6181L75.9909 16.9121L72.576 16.9121L72.576 22.654C72.576 23.5002 72.7372 24.1147 73.0596 24.4975C73.3819 24.8601 73.9561 25.0414 74.7821 25.0414C75.447 25.0414 76.0816 24.8803 76.686 24.5579L76.686 27.9728C75.7592 28.3758 74.5907 28.5772 73.1804 28.5772Z" fill="#0F3A34"/>
<path d="M84.1152 28.5772C82.1408 28.5772 80.66 28.0433 79.6728 26.9755C78.6856 25.8876 78.192 24.4471 78.192 22.654L78.192 13.6181L82.7553 13.6181L82.7553 22.1705C82.7553 24.0643 83.6317 25.0112 85.3845 25.0112C86.1501 25.0112 86.8653 24.8299 87.5301 24.4672C88.195 24.1046 88.749 23.5606 89.1922 22.8353L89.1922 13.6181L93.7555 13.6181L93.7555 28.1239L89.3433 28.1239L89.3433 26.3711C88.6986 27.1166 87.9129 27.6706 86.9861 28.0333C86.0795 28.3959 85.1226 28.5772 84.1152 28.5772Z" fill="#0F3A34"/>
<path d="M103.705 28.5772C102.214 28.5772 100.884 28.2649 99.716 27.6404C98.5676 26.9957 97.661 26.0991 96.9961 24.9508C96.3514 23.7822 96.0291 22.4324 96.0291 20.9012C96.0291 19.3902 96.3514 18.0504 96.9961 16.8819C97.6408 15.7134 98.5474 14.8068 99.716 14.1621C100.884 13.4972 102.214 13.1648 103.705 13.1648C104.793 13.1648 105.79 13.3159 106.697 13.6181C107.603 13.9203 108.369 14.3535 108.994 14.9176L108.994 5.79102L113.557 5.79102L113.557 28.1239L109.145 28.1239L109.145 26.5525C108.399 27.2576 107.583 27.7713 106.697 28.0937C105.831 28.416 104.833 28.5772 103.705 28.5772ZM104.884 25.0414C105.831 25.0414 106.667 24.7896 107.392 24.2859C108.137 23.7822 108.671 23.1073 108.994 22.2612L108.994 19.5111C108.712 18.6851 108.188 18.0202 107.422 17.5165C106.677 16.9927 105.831 16.7308 104.884 16.7308C103.655 16.7308 102.647 17.1136 101.862 17.8792C101.096 18.6448 100.713 19.6521 100.713 20.9012C100.713 22.1503 101.096 23.1577 101.862 23.9233C102.647 24.6687 103.655 25.0414 104.884 25.0414Z" fill="#0F3A34"/>
<path d="M119.06 34.1076C118.456 34.1076 117.832 34.0673 117.187 33.9867C116.562 33.9061 116.089 33.7953 115.766 33.6543L115.766 30.2393C116.351 30.461 116.995 30.5718 117.701 30.5718C118.426 30.5718 118.97 30.4106 119.332 30.0882C119.715 29.7659 120.028 29.2622 120.269 28.5772L120.753 27.3382L114.467 13.6181L119.06 13.6181L123.17 23.6211L127.069 13.6181L131.632 13.6181L125.467 29.1212C124.782 30.8337 123.936 32.0929 122.929 32.8987C121.921 33.7046 120.632 34.1076 119.06 34.1076Z" fill="#0F3A34"/>
<path d="M133.273 6.99983L137.867 6.99983L137.867 15.4616L147.084 15.4616L147.084 6.99983L151.677 6.99983L151.677 28.1239L147.084 28.1239L147.084 19.2693L137.867 19.2693L137.867 28.1239L133.273 28.1239L133.273 6.99983Z" fill="#0F3A34"/>
<path d="M162.856 28.5772C160.075 28.5772 157.889 27.9124 156.298 26.5827C154.706 25.2328 153.91 23.3491 153.91 20.9315C153.91 18.534 154.615 16.6401 156.026 15.25C157.456 13.8599 159.491 13.1648 162.13 13.1648C163.863 13.1648 165.334 13.4872 166.542 14.1319C167.751 14.7766 168.668 15.6731 169.292 16.8215C169.917 17.9497 170.229 19.229 170.229 20.6595L170.229 22.5029L158.262 22.5029C158.584 24.3564 160.317 25.2832 163.46 25.2832C164.387 25.2832 165.344 25.2026 166.331 25.0414C167.318 24.8803 168.174 24.6586 168.9 24.3766L168.9 27.5799C168.194 27.8821 167.288 28.1239 166.18 28.3052C165.072 28.4866 163.964 28.5772 162.856 28.5772ZM165.908 19.5413C165.847 18.5743 165.485 17.8288 164.82 17.305C164.155 16.761 163.238 16.489 162.07 16.489C160.921 16.489 160.015 16.761 159.35 17.305C158.685 17.849 158.322 18.5944 158.262 19.5413L165.908 19.5413Z" fill="#0F3A34"/>
<path d="M172.451 13.6181L176.863 13.6181L176.863 15.7033C177.447 14.9982 178.263 14.4643 179.311 14.1016C180.359 13.7188 181.547 13.5274 182.877 13.5274L182.877 17.0028C181.487 17.0028 180.258 17.2143 179.19 17.6374C178.142 18.0605 177.417 18.7052 177.014 19.5715L177.014 28.1239L172.451 28.1239L172.451 13.6181Z" fill="#0F3A34"/>
<path d="M192.201 28.5772C190.448 28.5772 188.907 28.2649 187.577 27.6404C186.268 26.9957 185.25 26.0991 184.525 24.9508C183.82 23.7822 183.467 22.4223 183.467 20.871C183.467 19.36 183.82 18.0202 184.525 16.8517C185.25 15.6832 186.268 14.7766 187.577 14.1319C188.907 13.4872 190.448 13.1648 192.201 13.1648C193.933 13.1648 195.455 13.4872 196.764 14.1319C198.094 14.7766 199.111 15.6832 199.816 16.8517C200.542 18.0202 200.904 19.36 200.904 20.871C200.904 22.4223 200.542 23.7822 199.816 24.9508C199.111 26.0991 198.104 26.9957 196.794 27.6404C195.485 28.2649 193.954 28.5772 192.201 28.5772ZM192.201 25.0112C193.43 25.0112 194.407 24.6385 195.132 23.8931C195.857 23.1275 196.22 22.1201 196.22 20.871C196.22 19.5816 195.857 18.5743 195.132 17.849C194.427 17.1035 193.45 16.7308 192.201 16.7308C190.952 16.7308 189.965 17.1035 189.239 17.849C188.514 18.5743 188.151 19.5816 188.151 20.871C188.151 22.1201 188.514 23.1275 189.239 23.8931C189.985 24.6385 190.972 25.0112 192.201 25.0112Z" fill="#0F3A34"/>
</g>
</g>
</svg>
