<svg width="88" height="30" viewBox="0 0 88 30" fill="none" xmlns="http://www.w3.org/2000/svg">
<path fill-rule="evenodd" clip-rule="evenodd" d="M14.6396 0.84001C14.5932 0.834493 14.5468 0.828975 14.5004 0.824219L14.1696 0.826694C14.0967 0.841612 14.023 0.852083 13.9489 0.858047C13.1396 0.876933 12.334 0.974895 11.5438 1.15054C8.90107 1.7384 6.64863 3.02511 4.78602 4.98095C2.33432 7.55353 1.05009 10.6455 0.828968 14.1805C0.754459 15.3819 0.83278 16.5879 1.06205 17.7696C1.61444 20.6322 2.87969 23.1285 4.9333 25.1986C7.21545 27.4997 9.97078 28.838 13.2154 29.1243C14.5026 29.2409 15.8 29.1598 17.0627 28.8838C19.7425 28.2955 22.0251 26.9935 23.9034 25.0006C26.4644 22.2828 27.7297 19.0258 27.8431 15.3109C27.8845 14.0466 27.7474 12.7828 27.4359 11.5568C26.339 7.26971 23.8737 4.06511 19.8799 2.09855C18.33 1.33535 16.6766 0.937667 14.9472 0.868361C14.8444 0.864385 14.742 0.852198 14.6396 0.84001ZM8.4642 11.4293C7.94811 10.893 7.55208 9.93388 7.66223 9.57291C7.68141 9.60296 7.6986 9.63054 7.71468 9.65633C7.74496 9.70489 7.77131 9.74716 7.7996 9.78784C7.87325 9.89078 7.9435 9.99748 8.01384 10.1043C8.17042 10.3422 8.32747 10.5807 8.5236 10.78C9.06114 11.3258 9.76988 11.5337 10.5124 11.6212C12.802 11.8915 14.6819 10.1367 16.5157 9.00113C16.9566 8.7298 17.4549 8.56549 17.9707 8.52135C18.7793 8.44585 19.4661 8.71648 20.021 9.28083C20.2453 9.50911 20.4301 9.77706 20.6145 10.0443C20.676 10.1335 20.7374 10.2226 20.8003 10.3101C20.839 10.3641 20.8587 10.4314 20.8785 10.4987C20.8875 10.5296 20.8966 10.5606 20.9075 10.5902L20.8572 10.6364C20.8322 10.6148 20.8068 10.5935 20.7813 10.5723C20.7253 10.5255 20.6692 10.4786 20.6175 10.4273C20.2396 10.051 19.8403 9.70739 19.304 9.57744C18.7409 9.44131 18.2034 9.54155 17.679 9.76556C16.5507 10.2482 15.4571 11.1852 14.4542 11.933C14.3649 12.0012 14.2992 12.0957 14.2665 12.2032C13.9358 13.4633 13.7043 14.7473 13.5739 16.0436C13.4514 17.2597 13.373 18.4817 13.4844 19.7044C13.5421 20.341 13.6506 20.9693 13.9518 21.5468C14.1869 21.9961 14.4975 22.3401 15.0586 22.3306C15.0711 22.3303 15.0838 22.3373 15.0964 22.3442C15.1021 22.3474 15.1078 22.3505 15.1135 22.3529C14.9113 22.8013 14.3606 22.9565 13.9513 22.8385C13.4138 22.6846 13.0458 22.3327 12.7855 21.8595C12.4148 21.1838 12.1847 20.4401 12.109 19.6731C12.041 18.9762 12.0114 18.2762 12.0203 17.5761C12.0331 16.2886 12.3181 15.0473 12.7472 13.8373C12.848 13.5534 12.9536 13.2706 13.0609 12.9836C13.1134 12.8431 13.1662 12.7016 13.2191 12.5584C11.3973 13.1455 9.7971 12.8126 8.4642 11.4293ZM47.1358 10.0081V20.0357C47.2958 20.0357 47.454 20.0351 47.6111 20.0346C47.9994 20.0333 48.3803 20.0319 48.7616 20.039C48.932 20.0423 48.9869 19.9932 48.9848 19.8208C48.9704 18.5149 48.9966 17.2087 48.9786 15.9029C48.9761 15.73 49.0372 15.671 49.2051 15.6813C49.3836 15.6938 49.5628 15.6938 49.7414 15.6813C49.9147 15.6677 50.0128 15.7358 50.1036 15.8827C50.8887 17.157 51.6888 18.422 52.4662 19.7011C52.6197 19.9532 52.7793 20.0592 53.0801 20.0435C53.4575 20.0241 53.8362 20.0281 54.2289 20.0322C54.3963 20.0339 54.5662 20.0357 54.7397 20.0357L51.9613 15.5423C51.9773 15.5363 51.9925 15.5306 52.0068 15.5252L52.0292 15.5168L52.0647 15.5035L52.0648 15.5035L52.065 15.5034C52.1131 15.4855 52.152 15.4709 52.191 15.4557C52.8127 15.2123 53.2773 14.796 53.566 14.1909C53.8391 13.6154 53.8812 12.9986 53.8135 12.3777C53.7504 11.7994 53.5384 11.2746 53.1258 10.8472C52.5462 10.2462 51.8086 10.0131 51.0042 9.99864C50.1446 9.98335 49.2847 9.98682 48.4249 9.99029C48.055 9.99179 47.6851 9.99328 47.3153 9.99328C47.2752 9.99328 47.2352 9.99767 47.1943 10.0022C47.1751 10.0043 47.1556 10.0064 47.1358 10.0081ZM49.6444 13.9647C49.4267 13.9619 49.2063 13.959 48.9823 13.959C48.9823 13.2661 48.9864 12.5731 48.9811 11.8802C48.9803 11.7462 49.0153 11.6785 49.1655 11.681C49.7834 11.6926 50.4017 11.6827 51.0194 11.7065C51.6164 11.7301 51.979 12.1195 51.9947 12.7144C52.0023 12.8448 51.9983 12.9757 51.9827 13.1055C51.9052 13.6067 51.632 13.9173 51.1189 13.9483C50.6336 13.9776 50.146 13.9713 49.6444 13.9647ZM74.2024 14.5419C74.2227 14.5545 74.2405 14.566 74.2567 14.5766C74.2879 14.5969 74.3134 14.6135 74.3406 14.6265C75.1912 15.0361 75.5992 15.7432 75.6747 16.6558C75.7242 17.2564 75.6747 17.8521 75.4169 18.4091C74.9981 19.3195 74.2424 19.7791 73.2915 19.9499C72.9669 20.0048 72.6384 20.0324 72.3092 20.0324C71.1756 20.0419 70.0419 20.0361 68.9083 20.0361H68.6645V10.0052C68.6874 10.0038 68.7093 10.0019 68.7309 10.0001C68.771 9.99661 68.8097 9.99328 68.8497 9.99328C69.2177 9.99328 69.5858 9.99212 69.9538 9.99097C70.8087 9.98828 71.6636 9.98558 72.5184 9.99741C73.2279 10.0073 73.893 10.1913 74.4251 10.6987C75.0534 11.2969 75.2023 12.0655 75.1578 12.8897C75.1202 13.5881 74.8294 14.1554 74.2024 14.5419ZM70.4862 18.3488C70.7223 18.3423 70.9557 18.339 71.187 18.3358H71.1871C71.7164 18.3283 72.2351 18.321 72.7506 18.2754C73.4268 18.2156 73.8286 17.7304 73.8472 17.0761C73.8703 16.2754 73.5456 15.7663 72.8232 15.6776C72.2775 15.6105 71.7239 15.607 71.1707 15.6036H71.1705C70.9828 15.6024 70.7952 15.6013 70.6079 15.5976C70.5687 15.5976 70.4953 15.7024 70.492 15.7626C70.4823 15.9386 70.4837 16.1154 70.4852 16.2921C70.4857 16.3557 70.4862 16.4194 70.4862 16.4829V18.3488ZM70.4861 12.067L70.486 12.0846V12.0859V12.0861V12.0864C70.4856 12.6565 70.4852 13.2181 70.4937 13.78C70.4937 13.8212 70.5972 13.8996 70.6537 13.9004C71.2102 13.9095 71.7676 13.9186 72.3233 13.9004C72.9495 13.8819 73.2853 13.6257 73.3769 13.1199C73.3962 12.9769 73.4018 12.8324 73.3934 12.6884C73.3855 12.0985 73.0427 11.728 72.4548 11.7061C72.021 11.69 71.5843 11.6878 71.148 11.6856H71.1479C70.9281 11.6845 70.7047 11.6668 70.4875 11.707H70.4862C70.4862 11.7715 70.4862 11.8359 70.4862 11.9002L70.4861 12.067ZM81.6552 10.0048V20.0245C81.6752 20.0267 81.6917 20.029 81.7061 20.031C81.7243 20.0335 81.7394 20.0356 81.7546 20.0365C83.7747 20.0346 85.7946 20.0358 87.8144 20.0402C87.9551 20.0402 87.9901 19.987 87.9901 19.8595L87.9898 19.8243L87.9889 19.7336C87.985 19.343 87.9811 18.9512 87.9926 18.5609C87.9996 18.3649 87.9287 18.3237 87.7451 18.3237C87.0666 18.3278 86.3881 18.3279 85.7095 18.3279H85.7088C85.0479 18.328 84.387 18.328 83.7262 18.3319C83.5422 18.3327 83.4923 18.275 83.4923 18.0988C83.4974 17.5471 83.4966 16.9956 83.4958 16.4442V16.4428C83.4954 16.2385 83.4951 16.0342 83.4951 15.8299C83.4951 15.5205 83.4956 15.5205 83.8136 15.5205H86.7195C86.9864 15.5205 86.9864 15.5196 86.9864 15.2457V14.0704C86.9864 14.0199 86.9832 13.9701 86.9796 13.9144C86.9788 13.9032 86.9781 13.8917 86.9773 13.8799C86.9764 13.8642 86.9754 13.848 86.9745 13.8311H86.7142C86.4543 13.8311 86.1944 13.8308 85.9345 13.8304C85.1981 13.8295 84.4618 13.8285 83.7257 13.8352C83.5401 13.8369 83.4902 13.7763 83.4927 13.6009C83.4987 13.2006 83.4977 12.8003 83.4967 12.4002V12.4001V12.4C83.4963 12.2502 83.496 12.1004 83.496 11.9508C83.496 11.6834 83.4972 11.6834 83.774 11.6834H87.484C87.5389 11.6805 87.594 11.6805 87.649 11.6834C87.7967 11.6979 87.8552 11.6455 87.8515 11.4867C87.8439 11.158 87.8451 10.8293 87.8462 10.5005C87.8466 10.3825 87.847 10.2644 87.847 10.1463C87.8443 10.0989 87.8388 10.0516 87.8305 10.0048H81.6552ZM38.4012 11.6987V20.0229H36.5786C36.5773 19.9957 36.5756 19.9685 36.574 19.9412C36.5701 19.8758 36.5662 19.8102 36.5662 19.7444V11.9722C36.5662 11.8292 36.5662 11.757 36.5301 11.7206C36.4933 11.6834 36.4191 11.6834 36.2692 11.6834C35.5204 11.6834 34.7716 11.676 34.0229 11.688C33.8113 11.6917 33.756 11.6265 33.763 11.4198C33.7741 11.0899 33.772 10.7596 33.7698 10.4234V10.4229C33.7689 10.285 33.768 10.1462 33.768 10.0061C33.7938 10.0045 33.8181 10.0028 33.8413 10.0011C33.8924 9.99742 33.9385 9.9941 33.9841 9.9941C36.3059 9.9941 38.6273 9.9941 40.949 9.98915C41.1404 9.98915 41.1965 10.044 41.192 10.2313C41.18 10.6294 41.1796 11.0287 41.192 11.4277C41.1982 11.6228 41.1396 11.6909 40.9379 11.6884C40.3538 11.6804 39.7698 11.6821 39.1857 11.6838C39.021 11.6843 38.8563 11.6848 38.6916 11.6851C38.6267 11.6839 38.5623 11.6882 38.4877 11.6932C38.4604 11.695 38.4317 11.6969 38.4012 11.6987ZM62.2297 10.0032H60.4174V20.0192H62.2297V10.0032Z" fill="#97A59D"/>
</svg>
