<svg width="54" height="39" viewBox="0 0 54 39" fill="none" xmlns="http://www.w3.org/2000/svg">
<path fill-rule="evenodd" clip-rule="evenodd" d="M33.3294 31.179C30.0219 35.3415 24.9834 38 19.3396 38C9.37757 38 1.30176 29.7173 1.30176 19.5C1.30176 9.28273 9.37757 1 19.3396 1C26.8362 1 33.2647 5.69038 35.9874 12.3659C32.485 14.4848 30.1352 18.3944 30.1352 22.8668C30.1352 26.0797 31.3479 29.0022 33.3294 31.179ZM31.7258 22.8668C31.7258 19.1004 33.6498 15.7949 36.5448 13.9279C38.1291 12.9062 40.0042 12.3152 42.0138 12.3152C47.6957 12.3152 52.3018 17.0393 52.3018 22.8668C52.3018 28.6943 47.6957 33.4184 42.0138 33.4184C38.9402 33.4184 36.1814 32.036 34.2962 29.8444C32.6964 27.9846 31.7258 25.5419 31.7258 22.8668ZM10.9129 10.007H27.8339V14.0342H21.9116V16.4236C26.8694 16.7068 30.5752 17.8003 30.5752 19.0935C30.5752 20.3866 26.8694 21.4802 21.9116 21.7634V30.3288H16.8353V21.7634C11.8774 21.4802 8.1717 20.3866 8.1717 19.0935C8.1717 17.7998 11.8675 16.706 16.8353 16.4233V14.0342H10.9129V10.007ZM16.8353 19.8887V16.8494C12.343 17.0561 9.01775 17.7989 9.01775 18.6874C9.01775 19.7365 13.6541 20.5825 19.3734 20.5825C25.0927 20.5825 29.7291 19.7365 29.7291 18.6874C29.7291 17.7989 26.4038 17.0561 21.9116 16.8494V19.8887C21.0994 19.9395 20.2533 19.9564 19.3734 19.9564C18.4935 19.9564 17.6475 19.9226 16.8353 19.8887ZM36.7976 16.6452C36.5972 16.6089 36.3934 16.6873 36.2657 16.8499C36.1381 17.0124 36.1067 17.2333 36.1839 17.4264L41.2264 30.0432C41.3009 30.2297 41.4655 30.3623 41.6598 30.3923C41.8541 30.4223 42.0495 30.3454 42.1744 30.1897L49.0612 21.5992C49.2491 21.3648 49.2261 21.0207 49.0088 20.8147L46.5721 18.5066C46.4935 18.4321 46.3957 18.3824 46.2903 18.3633L36.7976 16.6452ZM42.734 21.3546L38.7912 18.1691L44.9698 19.2874L42.734 21.3546ZM44.4958 21.2678L46.1887 19.7026L47.3896 20.8401L44.4958 21.2678ZM43.2553 22.6083L47.2836 22.013L42.5588 27.9067L43.2553 22.6083ZM42.1623 22.3507L41.4684 27.6289L38.0221 19.0059L42.1623 22.3507Z" fill="white"/>
</svg>
