<svg width="1312" height="350" viewBox="0 0 1312 350" fill="none" xmlns="http://www.w3.org/2000/svg">
<g clip-path="url(#clip0_937_2399)">
<path opacity="0.5" d="M751.609 -870.654L1385.38 -446.765C1460.12 -396.77 1505 -312.878 1505 -223.078L1505 -222.857C1505 -133.057 1460.16 -49.1653 1385.38 0.830086L751.609 424.72C727.041 441.151 694 423.575 694 394.036L694 244.788C694 215.249 660.996 197.673 636.391 214.104L120.872 558.718C109.92 566.029 109.92 582.091 120.872 589.402L636.391 934.052C660.959 950.483 694 932.907 694 903.368L694 724.323C694 699.694 706.284 676.69 726.819 662.991L1490.61 152.145C1496.75 148.047 1505 152.441 1505 159.826L1505 286.476C1505 376.275 1460.16 460.167 1385.38 510.162L726.819 950.631C706.321 964.33 694 987.334 694 1011.96L694 1191.01C694 1220.55 660.996 1238.12 636.391 1221.69L2.62055 797.802C-72.1562 747.806 -117 663.915 -117 574.115C-117 484.315 -72.1562 400.424 2.62053 350.428L636.391 -73.4613C660.959 -89.8926 694 -72.3167 694 -42.7773L694 106.47C694 136.01 727.004 153.586 751.609 137.154L1267.05 -207.57C1278.01 -214.881 1278.01 -230.943 1267.05 -238.254L751.609 -582.978C727.041 -599.409 694 -581.833 694 -552.294L694 -373.027C694 -348.399 681.716 -325.395 661.181 -311.696L-102.607 199.113C-108.749 203.212 -117 198.818 -117 191.433L-117 64.7459C-117 -25.0537 -72.1562 -108.908 2.5835 -158.941L661.218 -599.631C681.716 -613.33 694 -636.334 694 -660.962L694 -840.007C694 -869.547 727.004 -887.123 751.609 -870.691L751.609 -870.654Z" stroke="url(#paint0_linear_937_2399)" stroke-width="0.724779"/>
</g>
<defs>
<linearGradient id="paint0_linear_937_2399" x1="25.1611" y1="176.024" x2="1132.24" y2="-261.08" gradientUnits="userSpaceOnUse">
<stop stop-color="#00BE61"/>
<stop offset="0.245" stop-color="#00BE61" stop-opacity="0.5"/>
<stop offset="0.406827" stop-color="#00BE61" stop-opacity="0"/>
<stop offset="0.67354" stop-color="#00BE61" stop-opacity="0"/>
<stop offset="0.808587" stop-color="#00BE61" stop-opacity="0.5"/>
<stop offset="1" stop-color="#00BE61"/>
</linearGradient>
<clipPath id="clip0_937_2399">
<path d="M0 0H1312V350H0V0Z" fill="white"/>
</clipPath>
</defs>
</svg>
