<svg width="160" height="32" viewBox="0 0 160 32" fill="none" xmlns="http://www.w3.org/2000/svg">
    <path
        d="M12.6258 0.810904L21.838 6.96535C22.9244 7.69123 23.5768 8.90926 23.5768 10.2131L23.5768 10.2163C23.5768 11.5201 22.9249 12.7381 21.838 13.464L12.6258 19.6184C12.2687 19.857 11.7884 19.6018 11.7884 19.1729L11.7884 17.006C11.7884 16.5771 11.3087 16.3219 10.951 16.5605L3.45762 21.5639C3.29842 21.6701 3.29842 21.9033 3.45762 22.0094L10.951 27.0134C11.3081 27.252 11.7884 26.9968 11.7884 26.5679L11.7884 23.9684C11.7884 23.6108 11.9669 23.2768 12.2654 23.0779L23.3676 15.6609C23.4568 15.6014 23.5768 15.6652 23.5768 15.7724L23.5768 17.6113C23.5768 18.9151 22.9249 20.1331 21.838 20.859L12.2654 27.2541C11.9675 27.453 11.7884 27.787 11.7884 28.1446L11.7884 30.7442C11.7884 31.173 11.3087 31.4282 10.951 31.1897L1.73876 25.0352C0.651833 24.3093 -3.57994e-07 23.0913 -4.14985e-07 21.7875C-4.71976e-07 20.4837 0.651832 19.2657 1.73876 18.5398L10.951 12.3853C11.3081 12.1468 11.7884 12.402 11.7884 12.8308L11.7884 14.9978C11.7884 15.4267 12.2681 15.6818 12.6258 15.4433L20.1181 10.4382C20.2773 10.3321 20.2773 10.0989 20.1181 9.99272L12.6258 4.98767C12.2687 4.74911 11.7884 5.00429 11.7884 5.43317L11.7884 8.03595C11.7884 8.39353 11.6098 8.72752 11.3113 8.92642L0.20921 16.3428C0.119932 16.4024 -6.53166e-07 16.3386 -6.57853e-07 16.2313L-7.38254e-07 14.392C-7.95245e-07 13.0882 0.651832 11.8707 1.73822 11.1443L11.3119 4.74589C11.6098 4.547 11.7884 4.21301 11.7884 3.85543L11.7884 1.25587C11.7884 0.826987 12.2681 0.571802 12.6258 0.810367L12.6258 0.810904Z"
        fill="#00BE61" />
    <path
        d="M40.0525 25.2713C34.9442 25.2713 30.8838 21.2371 30.8838 15.9716C30.8838 10.7061 34.9442 6.67188 40.0525 6.67188C44.2358 6.67188 47.7905 9.36214 48.8692 13.6096C48.9037 13.7453 48.7999 13.8759 48.6599 13.8759H46.0017C45.9066 13.8759 45.8226 13.8137 45.7918 13.7237C44.8937 11.0921 42.7001 9.55348 40.0525 9.55348C36.5684 9.55348 33.8964 12.2779 33.8964 15.9716C33.8964 19.6653 36.5684 22.3897 40.0525 22.3897C42.7013 22.3897 44.9209 20.8751 45.844 18.1927C45.8748 18.103 45.9587 18.0411 46.0536 18.0411H48.6882C48.8276 18.0411 48.9312 18.1704 48.8978 18.3057C47.8674 22.4818 44.3118 25.2713 40.0525 25.2713Z"
        fill="currentColor" />
    <path
        d="M54.0226 24.7911C54.0226 24.9116 53.9249 25.0094 53.8043 25.0094H51.3331C51.2125 25.0094 51.1148 24.9116 51.1148 24.7911V12.2342C51.1148 12.1137 51.2125 12.0159 51.3331 12.0159H53.6733C53.7939 12.0159 53.8916 12.1137 53.8916 12.2342V13.8235C54.6251 12.697 55.8563 12.0159 57.6901 12.0159H58.3625C58.483 12.0159 58.5808 12.1137 58.5808 12.2342V14.7054C58.5808 14.826 58.483 14.9237 58.3625 14.9237H57.3495C54.9919 14.9237 54.0226 16.2074 54.0226 18.2245V24.7911Z"
        fill="currentColor" />
    <path
        d="M66.0881 30.0077C66.0547 30.09 65.9747 30.1439 65.8859 30.1439H63.2918C63.137 30.1439 63.0314 29.9871 63.0895 29.8436L65.0042 25.1175C65.0255 25.0649 65.0255 25.0062 65.0042 24.9536L59.8933 12.3161C59.8352 12.1726 59.9409 12.0159 60.0957 12.0159H62.7656C62.8559 12.0159 62.9369 12.0716 62.9693 12.1558L66.6353 21.6824L70.2494 12.1568C70.2816 12.072 70.3628 12.0159 70.4535 12.0159H73.0698C73.2247 12.0159 73.3303 12.1728 73.272 12.3164L66.0881 30.0077Z"
        fill="currentColor" />
    <path
        d="M77.6792 29.9256C77.6792 30.0461 77.5814 30.1439 77.4609 30.1439H74.9897C74.8691 30.1439 74.7714 30.0461 74.7714 29.9256V12.2342C74.7714 12.1137 74.8691 12.0159 74.9897 12.0159H77.3299C77.4505 12.0159 77.5482 12.1137 77.5482 12.2342V13.7449C78.4913 12.4875 80.0631 11.754 81.8968 11.754C85.6167 11.754 88.4459 14.7142 88.4459 18.5127C88.4459 22.3111 85.6167 25.2713 81.8968 25.2713C80.1416 25.2713 78.6484 24.5902 77.6792 23.4114V29.9256ZM81.5824 22.5207C83.8615 22.5207 85.5381 20.8441 85.5381 18.5127C85.5381 16.155 83.8615 14.4784 81.5824 14.4784C79.3034 14.4784 77.653 16.155 77.653 18.5127C77.653 20.8441 79.3034 22.5207 81.5824 22.5207Z"
        fill="currentColor" />
    <path
        d="M97.5588 24.7911C97.5588 24.9116 97.461 25.0094 97.3405 25.0094H95.5678C92.6077 25.0094 91.193 23.7257 91.193 21.0275V14.688H89.2632C89.1427 14.688 89.0449 14.5902 89.0449 14.4697V12.2342C89.0449 12.1137 89.1427 12.0159 89.2632 12.0159H90.5381C90.9311 12.0159 91.193 11.754 91.193 11.2824V8.98589C91.193 8.86533 91.2908 8.76759 91.4114 8.76759H93.8825C94.0031 8.76759 94.1009 8.86533 94.1009 8.98589V12.0159H97.3405C97.461 12.0159 97.5588 12.1137 97.5588 12.2342V14.4697C97.5588 14.5902 97.461 14.688 97.3405 14.688H94.1009V20.7393C94.1009 21.761 94.5986 22.2849 95.7774 22.2849H97.3405C97.461 22.2849 97.5588 22.3827 97.5588 22.5032V24.7911Z"
        fill="currentColor" />
    <path
        d="M105.328 25.2713C101.477 25.2713 98.4648 22.3111 98.4648 18.5127C98.4648 14.7142 101.477 11.754 105.328 11.754C109.153 11.754 112.166 14.7142 112.166 18.5127C112.166 22.3111 109.153 25.2713 105.328 25.2713ZM105.328 22.5469C107.607 22.5469 109.258 20.8441 109.258 18.5127C109.258 16.1812 107.607 14.4784 105.328 14.4784C103.049 14.4784 101.373 16.1812 101.373 18.5127C101.373 20.8441 103.049 22.5469 105.328 22.5469Z"
        fill="currentColor" />
    <path
        d="M117.209 24.772C117.209 24.9031 117.103 25.0094 116.972 25.0094H114.415C114.294 25.0094 114.196 24.9116 114.196 24.7911V7.15214C114.196 7.03158 114.294 6.93384 114.415 6.93384H116.991C117.111 6.93384 117.209 7.03158 117.209 7.15214V13.3694C117.209 13.49 117.307 13.5877 117.427 13.5877H125.714C125.835 13.5877 125.932 13.49 125.932 13.3694V7.15214C125.932 7.03158 126.03 6.93384 126.151 6.93384H128.727C128.847 6.93384 128.945 7.03158 128.945 7.15214V24.7911C128.945 24.9116 128.847 25.0094 128.727 25.0094H126.17C126.039 25.0094 125.932 24.9031 125.932 24.772V20.0597C125.932 17.6508 123.98 15.698 121.571 15.698C119.162 15.698 117.209 17.6508 117.209 20.0597V24.772Z"
        fill="currentColor" />
    <path
        d="M137.687 25.2713C134.177 25.2713 131.688 22.9922 131.688 19.22V12.2342C131.688 12.1137 131.786 12.0159 131.906 12.0159H134.378C134.498 12.0159 134.596 12.1137 134.596 12.2342V19.1152C134.596 21.2895 135.827 22.5207 137.687 22.5207C139.573 22.5207 140.778 21.2895 140.778 19.1152V12.2342C140.778 12.1137 140.876 12.0159 140.996 12.0159H143.468C143.588 12.0159 143.686 12.1137 143.686 12.2342V19.22C143.686 22.9922 141.197 25.2713 137.687 25.2713Z"
        fill="currentColor" />
    <path
        d="M153.451 25.2713C151.617 25.2713 150.072 24.5378 149.102 23.2804V24.7911C149.102 24.9116 149.005 25.0094 148.884 25.0094H146.544C146.423 25.0094 146.325 24.9116 146.325 24.7911V7.15214C146.325 7.03158 146.423 6.93384 146.544 6.93384H149.015C149.136 6.93384 149.233 7.03158 149.233 7.15214V13.5877C150.203 12.4351 151.696 11.754 153.451 11.754C157.171 11.754 160 14.7142 160 18.5127C160 22.3111 157.171 25.2713 153.451 25.2713ZM153.137 22.5207C155.416 22.5207 157.092 20.8441 157.092 18.5127C157.092 16.155 155.416 14.4784 153.137 14.4784C150.857 14.4784 149.207 16.155 149.207 18.5127C149.207 20.8441 150.857 22.5207 153.137 22.5207Z"
        fill="currentColor" />
</svg>