<svg width="1312" height="620" viewBox="0 0 1312 620" fill="none" xmlns="http://www.w3.org/2000/svg">
    <path opacity="0.5"
        d="M734.909 -882.95L1338.98 -478.795C1410.22 -431.127 1453 -351.141 1453 -265.522L1453 -265.311C1453 -179.692 1410.26 -99.7057 1338.98 -52.0379L734.909 352.117C711.493 367.783 680 351.026 680 322.862L680 180.563C680 152.398 648.543 135.641 625.09 151.307L133.726 479.877C123.288 486.847 123.288 502.162 133.726 509.132L625.091 837.737C648.507 853.403 680 836.646 680 808.481L680 637.772C680 614.29 691.708 592.357 711.281 579.296L1439.28 92.2328C1445.14 88.325 1453 92.5144 1453 99.5554L1453 220.309C1453 305.928 1410.26 385.914 1338.98 433.582L711.281 853.544C691.744 866.605 680 888.538 680 912.02L680 1082.73C680 1110.89 648.543 1127.65 625.091 1111.99L21.0156 707.83C-50.2574 660.162 -93 580.176 -93 494.557C-93 408.938 -50.2574 328.952 21.0156 281.284L625.09 -122.871C648.507 -138.537 680 -121.779 680 -93.6152L680 48.6841C680 76.8482 711.457 93.6058 734.909 77.9396L1226.2 -250.736C1236.64 -257.706 1236.64 -273.021 1226.2 -279.991L734.909 -608.666C711.493 -624.333 680 -607.575 680 -579.411L680 -408.49C680 -385.008 668.292 -363.075 648.719 -350.014L-79.2815 137.014C-85.1357 140.922 -93 136.732 -93 129.691L-93 8.90224C-93.0001 -76.7167 -50.2574 -156.668 20.9803 -204.37L648.754 -624.544C668.292 -637.605 680 -659.538 680 -683.02L680 -853.729C680 -881.894 711.457 -898.651 734.909 -882.985L734.909 -882.95Z"
        stroke="url(#paint0_linear_857_2383)" stroke-width="0.724779" />
    <defs>
        <linearGradient id="paint0_linear_857_2383" x1="42.5" y1="115" x2="1097.79" y2="-301.527"
            gradientUnits="userSpaceOnUse">
            <stop stop-color="#00BE61" />
            <stop offset="0.245" stop-color="#00BE61" stop-opacity="0.5" />
            <stop offset="0.406827" stop-color="#00BE61" stop-opacity="0" />
            <stop offset="0.67354" stop-color="#00BE61" stop-opacity="0" />
            <stop offset="0.808587" stop-color="#00BE61" stop-opacity="0.5" />
            <stop offset="1" stop-color="#00BE61" />
        </linearGradient>
    </defs>
</svg>