<svg width="84" height="39" viewBox="0 0 84 39" fill="none" xmlns="http://www.w3.org/2000/svg">
<g clip-path="url(#clip0_865_2448)">
<path d="M43.9125 8V31H50.0199V25.0607H53.658L54.6713 25.0256C56.6726 24.9952 57.8069 24.9567 58.0743 24.9099C60.3453 24.606 61.8439 23.4444 62.5702 21.4248C62.9391 20.4057 63.1235 18.7298 63.1235 16.3971C63.1235 14.4571 62.9563 13.0044 62.622 12.039C61.9834 10.2018 60.7269 8.98638 58.8525 8.39268C58.0363 8.13323 56.8478 8.0035 55.2869 8.0035L43.9125 8ZM67.3945 8L60.5782 31H66.8931L67.9894 27.0241H76.151L77.3165 30.9965H83.5L76.6006 8.0035L67.3945 8ZM35.0972 8.10869C32.7711 8.10186 30.4965 8.80293 28.5678 10.1212C26.7216 11.372 25.2795 13.1463 24.4213 15.2226H21.8552L20.2505 18.7146H23.6017C23.553 19.3286 23.5576 19.9457 23.6155 20.5588H22.0005L20.3923 24.0474H24.5008C25.4129 26.1197 26.9009 27.8776 28.7828 29.1061C30.6647 30.3347 32.8589 30.9806 35.0972 30.9649C37.4052 30.9716 39.6632 30.2834 41.585 28.9875L41.63 28.9559V24.6049L41.457 24.8012C40.6605 25.7242 39.6661 26.4501 38.5502 26.9236C37.4343 27.397 36.2263 27.6053 35.0187 27.5325C33.8112 27.4598 32.636 27.1079 31.5832 26.5038C30.5305 25.8998 29.628 25.0595 28.9448 24.0474H37.231L38.8391 20.5588H27.6064C27.526 19.9475 27.512 19.3291 27.5649 18.7146H39.6864L39.714 18.655L41.2288 15.3628L41.2945 15.2226H28.6993C29.4093 14.0411 30.4061 13.0638 31.5945 12.3837C32.7829 11.7037 34.1233 11.3436 35.488 11.3378C37.888 11.3378 40.136 12.4247 41.6542 14.318L41.751 14.4407L43.1655 11.3729L43.1136 11.3238C40.9469 9.24963 38.0771 8.09864 35.0972 8.10869ZM10.1972 8.12271C8.68011 8.12271 7.30139 8.17881 6.061 8.29101C4.57161 8.41021 3.34736 8.81692 2.38825 9.51113C1.71599 9.99785 1.21828 10.6932 0.970333 11.4921C0.675222 12.3616 0.527667 13.5186 0.527667 14.9631C0.527667 16.8564 0.799722 18.2705 1.34383 19.2055C1.96403 20.3041 3.20211 21.0298 5.05808 21.3828C5.76819 21.5043 7.02933 21.6317 8.8415 21.7649C11.1033 21.9192 12.369 22.0396 12.6388 22.1261C13.3673 22.3481 13.7316 22.9652 13.7316 23.9773C13.7418 24.3498 13.6987 24.7218 13.6036 25.0817C13.5167 25.3167 13.3791 25.5291 13.2008 25.7032C13.0224 25.8773 12.808 26.0088 12.573 26.088C12.2802 26.2002 11.6012 26.2563 10.5361 26.2563H8.44725C7.95791 26.254 7.47463 26.1464 7.02933 25.9407C6.46217 25.6579 6.17858 25.0163 6.17858 24.0159V23.539H0.5C0.5 25.4089 0.636028 26.7448 0.908083 27.5465C1.39917 28.991 2.41246 29.9493 3.94796 30.4215C5.19987 30.8072 7.41551 30.9988 10.5949 30.9965C12.4993 30.9965 13.9149 30.9088 14.8417 30.7335C17.055 30.3128 18.4764 29.3159 19.1058 27.7428C19.454 26.8827 19.628 25.527 19.628 23.6758C19.628 22.8717 19.59 22.1506 19.5139 21.5125C19.4182 20.5283 18.9835 19.6097 18.2862 18.918C17.4124 18.0695 16.006 17.5459 14.067 17.3473C13.4561 17.2818 11.9229 17.1649 9.46746 16.9966L8.32275 16.916C7.89972 16.9015 7.48563 16.7887 7.11233 16.5864C6.6858 16.3223 6.47254 15.7718 6.47254 14.9351C6.47254 14.0095 6.71232 13.4087 7.19187 13.1329C7.67143 12.8571 8.6536 12.7192 10.1384 12.7192C11.6623 12.7192 12.5938 12.9588 12.9327 13.438C13.1517 13.7605 13.2612 14.394 13.2612 15.3383H18.9398C18.9767 14.831 18.9952 14.4501 18.9952 14.1953C18.9952 11.0982 17.7594 9.21311 15.2878 8.53994C14.2734 8.26179 12.5788 8.12271 10.1972 8.12271ZM72.0806 12.5755L74.9406 22.5433H69.3035L72.0806 12.5755ZM50.0164 13.0312H53.8759C54.4984 13.0312 54.8927 13.0429 55.0587 13.0663C55.8887 13.2136 56.4143 13.6168 56.6357 14.2759C56.7901 14.7457 56.8674 15.4668 56.8674 16.4392C56.88 17.0398 56.8418 17.6403 56.7533 18.2343C56.6311 18.8373 56.389 19.2394 56.027 19.4404C55.7642 19.5877 55.0298 19.6835 53.824 19.7279H50.0199L50.0164 13.0312Z" fill="white"/>
</g>
<defs>
<clipPath id="clip0_865_2448">
<rect width="83" height="38" fill="white" transform="translate(0.5 0.5)"/>
</clipPath>
</defs>
</svg>
