<svg width="24" height="24" viewBox="0 0 24 24" fill="none" xmlns="http://www.w3.org/2000/svg">
<g id="Frame 1565">
<circle id="Ellipse 1" cx="12" cy="12" r="12" fill="#F5BF00"/>
<path id="$" d="M11.2528 4.42578H12.9171V6.49086C13.811 6.5936 14.5353 6.91209 15.0901 7.44634C15.6552 7.97031 15.9634 8.7049 16.0148 9.65011H14.3195C14.2784 9.34189 14.1911 9.08504 14.0576 8.87956C13.924 8.67408 13.7545 8.5097 13.549 8.38641C13.3435 8.25285 13.1072 8.16038 12.8401 8.10901C12.5832 8.04737 12.2956 8.01654 11.9771 8.01654C11.7716 8.01654 11.5456 8.03196 11.299 8.06278C11.0524 8.0936 10.8315 8.16038 10.6363 8.26312C10.4308 8.36586 10.2613 8.51483 10.1277 8.71004C9.99419 8.89497 9.92741 9.12614 9.92741 9.40353C9.92741 9.76312 10.0096 10.0508 10.174 10.2666C10.3384 10.4823 10.549 10.657 10.8058 10.7905C11.073 10.9138 11.3658 11.0114 11.6843 11.0833C12.013 11.145 12.3367 11.2066 12.6552 11.2683C13.1689 11.3607 13.6466 11.4686 14.0884 11.5919C14.5302 11.7152 14.9103 11.8898 15.2288 12.1159C15.5576 12.3419 15.8144 12.6296 15.9993 12.9789C16.1843 13.3282 16.2767 13.77 16.2767 14.3042C16.2767 14.8488 16.1843 15.3214 15.9993 15.722C15.8144 16.1125 15.5627 16.4412 15.2442 16.7083C14.936 16.9652 14.5713 17.1655 14.15 17.3094C13.7391 17.4429 13.3024 17.5251 12.8401 17.556V19.5748H11.1911V17.5097C10.7082 17.4481 10.2613 17.3351 9.85035 17.1707C9.44966 16.996 9.09521 16.77 8.78699 16.4926C8.48905 16.2152 8.24761 15.8916 8.06267 15.5217C7.87774 15.1416 7.76473 14.7101 7.72363 14.2272H9.51131C9.57295 14.5559 9.69624 14.8333 9.88117 15.0594C10.0661 15.2751 10.287 15.4498 10.5438 15.5833C10.8007 15.7169 11.0781 15.8145 11.376 15.8762C11.674 15.9275 11.9668 15.9532 12.2545 15.9532C12.5319 15.9532 12.8041 15.9327 13.0713 15.8916C13.3384 15.8402 13.5747 15.758 13.7802 15.645C13.9959 15.5217 14.1706 15.3625 14.3041 15.1672C14.4377 14.9618 14.5045 14.7101 14.5045 14.4121C14.5045 14.0628 14.4017 13.7957 14.1963 13.6107C14.001 13.4155 13.7493 13.2666 13.4411 13.1638C13.1432 13.0508 12.8144 12.9686 12.4548 12.9172C12.1055 12.8659 11.7767 12.8042 11.4685 12.7323C10.9754 12.6296 10.5233 12.5011 10.1123 12.347C9.70138 12.1827 9.34179 11.9772 9.03357 11.7306C8.73562 11.484 8.49932 11.1861 8.32466 10.8368C8.16028 10.4874 8.07809 10.0662 8.07809 9.57306C8.07809 9.0799 8.16541 8.6484 8.34007 8.27853C8.525 7.90867 8.76131 7.60045 9.04898 7.35387C9.34692 7.09702 9.68597 6.90182 10.0661 6.76825C10.4462 6.62442 10.8418 6.52681 11.2528 6.47544V4.42578Z" fill="white"/>
</g>
</svg>
