<svg width="112" height="39" viewBox="0 0 112 39" fill="none" xmlns="http://www.w3.org/2000/svg">
<g clip-path="url(#clip0_865_2450)">
<path d="M90.2764 9.61156C91.7646 10.7877 92.9676 12.2889 93.7944 14.0017C94.6213 15.7145 95.0504 17.5941 95.0492 19.4982C95.0496 21.402 94.62 23.2809 93.7928 24.993C92.9657 26.7051 91.7626 28.2056 90.2746 29.3812C88.7866 28.2052 87.5837 26.7043 86.7569 24.9919C85.9301 23.2794 85.5008 21.4003 85.5017 19.4964C85.5006 17.5922 85.9296 15.7127 86.7565 13.9999C87.5834 12.2871 88.7864 10.7859 90.2746 9.60971M88.675 8.53298C87.0995 9.88674 85.835 11.5687 84.969 13.4627C84.103 15.3566 83.6562 17.4172 83.6595 19.5019C83.657 21.5858 84.1042 23.6453 84.9701 25.5382C85.8361 27.4311 87.1002 29.1122 88.675 30.4654C86.7728 31.5399 84.6243 32.0947 82.443 32.0747C80.2617 32.0547 78.1236 31.4605 76.2412 30.3513C74.3588 29.2421 72.7977 27.6564 71.7131 25.7519C70.6284 23.8474 70.058 21.6904 70.0586 19.4953C70.0591 17.3003 70.6306 15.1436 71.7162 13.2397C72.8018 11.3357 74.3637 9.75084 76.2467 8.64257C78.1296 7.5343 80.268 6.94124 82.4493 6.92234C84.6307 6.90344 86.7789 7.45936 88.6805 8.53483M91.8833 30.4654C93.4578 29.112 94.7215 27.4308 95.5872 25.538C96.4528 23.6451 96.8997 21.5856 96.897 19.5019C96.8995 17.4172 96.4521 15.3568 95.5854 13.4632C94.7188 11.5696 93.4538 9.88804 91.8778 8.53483C93.7794 7.45936 95.9276 6.90344 98.109 6.92234C100.29 6.94124 102.429 7.5343 104.312 8.64257C106.195 9.75084 107.756 11.3357 108.842 13.2397C109.928 15.1436 110.499 17.3003 110.5 19.4953C110.5 21.6904 109.93 23.8474 108.845 25.7519C107.761 27.6564 106.199 29.2421 104.317 30.3513C102.435 31.4605 100.297 32.0547 98.1153 32.0747C95.934 32.0947 93.7854 31.5399 91.8833 30.4654Z" fill="white"/>
<path d="M55.4726 29.1886L54.916 26.2965H48.6969L47.7074 29.168L42.7227 29.1783C45.9271 21.1764 48.3052 15.249 49.8571 11.3963C50.2628 10.3886 50.9827 9.8744 52.0439 9.88211C52.8553 9.88897 54.1796 9.88982 56.0168 9.88468L59.871 29.1809L55.4726 29.1886ZM50.0946 22.3349H54.1046L52.6079 15.0853L50.0946 22.3349ZM17.9699 9.87954L22.9818 9.88468L15.2339 29.1912L10.1602 29.186C8.8843 24.0864 7.62431 18.9826 6.3802 13.8745C6.13282 12.8565 5.64301 12.1444 4.7005 11.8076C3.85776 11.5077 2.45759 11.0441 0.5 10.4168V9.88468H8.50766C9.89299 9.88468 10.7019 10.5814 10.9617 12.0107C11.2239 13.4435 11.8836 17.0888 12.9407 22.9468L17.9699 9.87954ZM29.8689 9.88468L25.9083 29.1886L21.1364 29.1809L25.0895 9.87954L29.8689 9.88468ZM39.5414 9.52734C40.9688 9.52734 42.7672 9.99008 43.8012 10.4168L42.9651 14.417C42.03 14.0262 40.4913 13.4992 39.1975 13.5172C37.3174 13.5506 36.1548 14.3707 36.1548 15.1573C36.1548 16.4376 38.1734 17.0828 40.2514 18.4813C42.6212 20.0752 42.9354 21.5071 42.9057 23.065C42.8736 26.2913 40.2514 29.4765 34.72 29.4765C32.1967 29.438 31.2863 29.2194 29.2281 28.4585L30.0989 24.2836C32.1942 25.1936 33.0823 25.4841 34.8733 25.4841C36.5135 25.4841 37.921 24.7952 37.9334 23.5946C37.9433 22.7411 37.4387 22.3169 35.5982 21.2629C33.7577 20.2089 31.175 18.7461 31.2096 15.8077C31.2517 12.0493 34.6779 9.52734 39.5414 9.52734Z" fill="white"/>
</g>
<defs>
<clipPath id="clip0_865_2450">
<rect width="111" height="38" fill="white" transform="translate(0.5 0.5)"/>
</clipPath>
</defs>
</svg>
