<svg width="14" height="14" viewBox="0 0 14 14" fill="none" xmlns="http://www.w3.org/2000/svg">
<g id="info">
<path id="v" d="M7.00007 12.8327C3.7784 12.8327 1.16673 10.221 1.16673 6.99935C1.16673 3.77769 3.7784 1.16602 7.00007 1.16602C10.2217 1.16602 12.8334 3.77769 12.8334 6.99935C12.8334 10.221 10.2217 12.8327 7.00007 12.8327ZM7.00007 11.666C9.57741 11.666 11.6667 9.57669 11.6667 6.99935C11.6667 4.42202 9.57741 2.33268 7.00007 2.33268C4.42274 2.33268 2.3334 4.42202 2.3334 6.99935C2.3334 9.57669 4.42274 11.666 7.00007 11.666ZM6.41673 4.08268H7.5834V5.24935H6.41673V4.08268ZM6.41673 6.41602H7.5834V9.91602H6.41673V6.41602Z" fill="#97A59D"/>
</g>
</svg>
