<svg width="40" height="40" viewBox="0 0 40 40" fill="none" xmlns="http://www.w3.org/2000/svg">
<g id="Pro 3">
<g id="Group 4">
<path id="Star 2" d="M11.7911 33.2391C10.9245 36.2112 10.4912 37.6973 9.65776 37.6973C8.82437 37.6973 8.39104 36.2112 7.52438 33.2391L7.35194 32.6477L6.76055 32.4752C3.78841 31.6086 2.30234 31.1752 2.30234 30.3418C2.30234 29.5085 3.78841 29.0751 6.76055 28.2085L7.35194 28.036L7.52438 27.4446C8.39104 24.4725 8.82437 22.9864 9.65776 22.9864C10.4912 22.9864 10.9245 24.4725 11.7911 27.4446L11.9636 28.036L12.555 28.2085C15.5271 29.0751 17.0132 29.5085 17.0132 30.3418C17.0132 31.1752 15.5271 31.6086 12.555 32.4752L11.9636 32.6477L11.7911 33.2391Z" fill="#D2C443"/>
<path id="Star 1" d="M26.9348 23.2228C25.6348 27.6811 24.9849 29.9102 23.7348 29.9102C22.4847 29.9102 21.8347 27.6811 20.5347 23.2228L19.6865 20.3138L16.7775 19.4656C12.3193 18.1656 10.0901 17.5156 10.0901 16.2655C10.0901 15.0154 12.3193 14.3655 16.7775 13.0655L19.6865 12.2172L20.5347 9.30822C21.8347 4.85001 22.4847 2.62091 23.7348 2.62091C24.9849 2.62091 25.6348 4.85001 26.9348 9.30822L27.7831 12.2172L30.6921 13.0655C35.1503 14.3655 37.3794 15.0154 37.3794 16.2655C37.3794 17.5156 35.1503 18.1656 30.6921 19.4656L27.7831 20.3138L26.9348 23.2228Z" fill="#D2C443"/>
</g>
</g>
</svg>
